<svg version="1.1" viewBox="0.0 0.0 603.4540682414698 237.40944881889763" fill="none" stroke="none" stroke-linecap="square" stroke-miterlimit="10" xmlns:xlink="http://www.w3.org/1999/xlink" xmlns="http://www.w3.org/2000/svg"><clipPath id="p.0"><path d="m0 0l603.45404 0l0 237.40945l-603.45404 0l0 -237.40945z" clip-rule="nonzero"/></clipPath><g clip-path="url(#p.0)"><path fill="#000000" fill-opacity="0.0" d="m0 0l603.45404 0l0 237.40945l-603.45404 0z" fill-rule="evenodd"/><path fill="#000000" fill-opacity="0.0" d="m41.09974 41.52498l93.826775 0l0 93.82677l-93.826775 0z" fill-rule="evenodd"/><path stroke="#424c58" stroke-width="2.0" stroke-linejoin="round" stroke-linecap="butt" d="m41.09974 41.52498l93.826775 0l0 93.82677l-93.826775 0z" fill-rule="evenodd"/><path fill="#424c58" d="m54.209114 94.57836l2.203125 0l3.484375 -9.15625l-2.46875 0l-2.0 6.453125l-0.125 0.640625l-0.125 -0.640625l-2.015625 -6.453125l-2.453125 0l3.5 9.15625zm13.242325 0l0 -12.3125l-0.125 0l-5.359375 1.9375l0 2.046875l3.109375 -1.125l0 9.453125l2.375 0z" fill-rule="nonzero"/><path fill="#000000" fill-opacity="0.0" d="m381.82416 38.5486l93.82675 0l0 93.82677l-93.82675 0z" fill-rule="evenodd"/><path stroke="#424c58" stroke-width="2.0" stroke-linejoin="round" stroke-linecap="butt" d="m381.82416 38.5486l93.82675 0l0 93.82677l-93.82675 0z" fill-rule="evenodd"/><path fill="#424c58" d="m57.09974 57.52498l93.826775 0l0 93.82677l-93.826775 0z" fill-rule="evenodd"/><path stroke="#424c58" stroke-width="1.0" stroke-linejoin="round" stroke-linecap="butt" d="m57.09974 57.52498l93.826775 0l0 93.82677l-93.826775 0z" fill-rule="evenodd"/><path fill="#ffffff" d="m67.834114 88.248985l3.921875 0q1.84375 0 3.234375 0.75q1.390625 0.734375 2.15625 2.09375q0.78125 1.359375 0.78125 3.21875q0 1.84375 -0.78125 3.203125q-0.765625 1.34375 -2.15625 2.09375q-1.390625 0.75 -3.234375 0.75l-3.921875 0l0 -12.109375zm2.203125 2.0l0 8.125l1.71875 0q1.171875 0 2.015625 -0.53125q0.859375 -0.53125 1.3125 -1.4375q0.46875 -0.921875 0.46875 -2.09375q0 -1.1875 -0.46875 -2.09375q-0.453125 -0.921875 -1.3125 -1.4375q-0.84375 -0.53125 -2.015625 -0.53125l-1.71875 0zm16.370026 10.109375l-0.28125 -2.203125l0 -3.640625q0 -0.953125 -0.390625 -1.40625q-0.375 -0.453125 -1.3125 -0.453125q-0.53125 0 -0.921875 0.15625q-0.390625 0.15625 -0.609375 0.453125q-0.203125 0.296875 -0.203125 0.71875l-2.40625 0q0 -1.03125 0.5 -1.671875q0.5 -0.65625 1.421875 -0.953125q0.921875 -0.3125 2.21875 -0.3125q1.1875 0 2.0625 0.390625q0.875 0.375 1.359375 1.15625q0.484375 0.78125 0.484375 2.0l0 5.765625l-1.921875 0zm-2.96875 0.265625q-1.15625 0 -1.9375 -0.40625q-0.78125 -0.40625 -1.171875 -1.0625q-0.390625 -0.671875 -0.390625 -1.453125q0 -0.84375 0.453125 -1.421875q0.453125 -0.59375 1.28125 -0.890625q0.828125 -0.296875 1.953125 -0.296875q0.734375 0 1.390625 0.125q0.65625 0.109375 1.3125 0.296875l0 1.28125q-0.515625 -0.171875 -1.125 -0.265625q-0.59375 -0.09375 -1.125 -0.09375q-0.78125 0 -1.296875 0.296875q-0.5 0.28125 -0.5 0.96875q0 0.515625 0.40625 0.875q0.421875 0.359375 1.3125 0.359375q0.6875 0 1.15625 -0.296875q0.46875 -0.296875 0.71875 -0.734375q0.25 -0.453125 0.25 -0.90625l0.53125 0q0 0.984375 -0.375 1.8125q-0.359375 0.8125 -1.078125 1.3125q-0.703125 0.5 -1.765625 0.5zm11.179535 0q-0.796875 0 -1.46875 -0.296875q-0.671875 -0.296875 -1.078125 -0.90625q-0.390625 -0.625 -0.390625 -1.578125l0 -8.9375l2.203125 0l0 8.859375q0 1.125 1.0625 1.125q0.328125 0 0.65625 -0.078125q0.328125 -0.078125 0.75 -0.21875l0.3125 1.546875q-0.515625 0.203125 -1.015625 0.34375q-0.5 0.140625 -1.03125 0.140625zm-4.203125 -7.859375l0 -1.453125l5.9375 0l0 1.453125l-5.9375 0zm14.266144 7.59375l-0.28125 -2.203125l0 -3.640625q0 -0.953125 -0.390625 -1.40625q-0.375 -0.453125 -1.3125 -0.453125q-0.53125 0 -0.921875 0.15625q-0.390625 0.15625 -0.609375 0.453125q-0.203125 0.296875 -0.203125 0.71875l-2.40625 0q0 -1.03125 0.5 -1.671875q0.5 -0.65625 1.421875 -0.953125q0.921875 -0.3125 2.21875 -0.3125q1.1875 0 2.0625 0.390625q0.875 0.375 1.359375 1.15625q0.484375 0.78125 0.484375 2.0l0 5.765625l-1.921875 0zm-2.96875 0.265625q-1.15625 0 -1.9375 -0.40625q-0.78125 -0.40625 -1.171875 -1.0625q-0.390625 -0.671875 -0.390625 -1.453125q0 -0.84375 0.453125 -1.421875q0.453125 -0.59375 1.28125 -0.890625q0.828125 -0.296875 1.953125 -0.296875q0.734375 0 1.390625 0.125q0.65625 0.109375 1.3125 0.296875l0 1.28125q-0.515625 -0.171875 -1.125 -0.265625q-0.59375 -0.09375 -1.125 -0.09375q-0.78125 0 -1.296875 0.296875q-0.5 0.28125 -0.5 0.96875q0 0.515625 0.40625 0.875q0.421875 0.359375 1.3125 0.359375q0.6875 0 1.15625 -0.296875q0.46875 -0.296875 0.71875 -0.734375q0.25 -0.453125 0.25 -0.90625l0.53125 0q0 0.984375 -0.375 1.8125q-0.359375 0.8125 -1.078125 1.3125q-0.703125 0.5 -1.765625 0.5zm11.492035 0q-1.296875 0 -2.234375 -0.359375q-0.9375 -0.359375 -1.453125 -1.03125q-0.5 -0.6875 -0.5 -1.640625l2.03125 0q0.015625 0.671875 0.515625 0.984375q0.515625 0.3125 1.375 0.3125q0.484375 0 0.84375 -0.140625q0.375 -0.140625 0.578125 -0.375q0.203125 -0.25 0.203125 -0.546875q0 -0.390625 -0.28125 -0.609375q-0.265625 -0.21875 -0.875 -0.40625l-1.96875 -0.703125q-1.0625 -0.390625 -1.640625 -1.015625q-0.5625 -0.625 -0.5625 -1.484375q0 -1.15625 1.03125 -1.859375q1.046875 -0.703125 2.796875 -0.703125q1.734375 0 2.671875 0.765625q0.953125 0.765625 0.984375 1.921875l-2.078125 0q-0.046875 -0.453125 -0.4375 -0.703125q-0.375 -0.265625 -1.140625 -0.265625q-0.703125 0 -1.109375 0.28125q-0.390625 0.28125 -0.390625 0.671875q0 0.640625 1.109375 0.96875l2.140625 0.796875q1.046875 0.359375 1.625 0.921875q0.578125 0.5625 0.578125 1.421875q0 0.71875 -0.484375 1.359375q-0.484375 0.625 -1.34375 1.03125q-0.859375 0.40625 -1.984375 0.40625zm9.841171 0q-1.15625 0 -2.125 -0.59375q-0.953125 -0.609375 -1.53125 -1.6875q-0.578125 -1.078125 -0.578125 -2.515625q0 -1.5 0.578125 -2.5625q0.578125 -1.078125 1.53125 -1.640625q0.96875 -0.578125 2.125 -0.578125q1.078125 0 1.859375 0.4375q0.796875 0.4375 1.28125 1.1875q0.484375 0.734375 0.640625 1.671875q0.171875 0.921875 0.03125 1.90625l-6.296875 0l0 -1.1875l4.734375 0l-0.421875 0.28125q0.015625 -0.4375 -0.0625 -0.890625q-0.0625 -0.453125 -0.265625 -0.8125q-0.1875 -0.375 -0.546875 -0.609375q-0.359375 -0.234375 -0.90625 -0.234375q-0.671875 0 -1.140625 0.34375q-0.46875 0.328125 -0.71875 0.90625q-0.234375 0.578125 -0.234375 1.3125l0 0.875q0 0.765625 0.21875 1.359375q0.234375 0.578125 0.6875 0.921875q0.453125 0.328125 1.140625 0.328125q0.640625 0 1.078125 -0.296875q0.4375 -0.296875 0.5625 -0.890625l2.21875 0q-0.140625 0.875 -0.65625 1.546875q-0.515625 0.65625 -1.34375 1.046875q-0.8125 0.375 -1.859375 0.375zm9.57531 0q-0.796875 0 -1.46875 -0.296875q-0.671875 -0.296875 -1.078125 -0.90625q-0.390625 -0.625 -0.390625 -1.578125l0 -8.9375l2.203125 0l0 8.859375q0 1.125 1.0625 1.125q0.328125 0 0.65625 -0.078125q0.328125 -0.078125 0.75 -0.21875l0.3125 1.546875q-0.515625 0.203125 -1.015625 0.34375q-0.5 0.140625 -1.03125 0.140625zm-4.203125 -7.859375l0 -1.453125l5.9375 0l0 1.453125l-5.9375 0z" fill-rule="nonzero"/><path fill="#ffffff" d="m70.521614 122.35836l2.375 0l3.75 -9.859375l-2.65625 0l-2.15625 6.953125l-0.125 0.6875l-0.140625 -0.6875l-2.171875 -6.953125l-2.640625 0l3.765625 9.859375zm16.726822 0l0 -2.03125l-5.8125 0l2.484375 -2.640625q0.65625 -0.671875 1.171875 -1.265625q0.53125 -0.609375 0.921875 -1.1875q0.375 -0.59375 0.578125 -1.1875q0.203125 -0.59375 0.203125 -1.25q0 -0.875 -0.28125 -1.578125q-0.265625 -0.71875 -0.78125 -1.234375q-0.53125 -0.5 -1.3125 -0.78125q-0.78125 -0.296875 -1.78125 -0.296875q-1.0625 0 -1.9375 0.34375q-0.859375 0.34375 -1.46875 0.9375q-0.625 0.59375 -0.96875 1.390625q-0.328125 0.78125 -0.328125 1.65625l2.53125 0q0 -0.53125 0.140625 -0.953125q0.140625 -0.421875 0.40625 -0.703125q0.25 -0.265625 0.640625 -0.40625q0.390625 -0.140625 0.890625 -0.140625q0.390625 0 0.71875 0.125q0.328125 0.125 0.5625 0.359375q0.234375 0.25 0.359375 0.59375q0.125 0.34375 0.125 0.796875q0 0.296875 -0.09375 0.625q-0.09375 0.3125 -0.3125 0.671875q-0.21875 0.375 -0.5625 0.828125q-0.34375 0.4375 -0.84375 0.984375l-4.296875 4.609375l0 1.734375l9.046875 0z" fill-rule="nonzero"/><path fill="#191f26" d="m397.82416 54.5486l93.82675 0l0 93.82677l-93.82675 0z" fill-rule="evenodd"/><path stroke="#424c58" stroke-width="2.0" stroke-linejoin="round" stroke-linecap="butt" d="m397.82416 54.5486l93.82675 0l0 93.82677l-93.82675 0z" fill-rule="evenodd"/><path fill="#ffffff" d="m411.24603 108.38199l2.375 0l3.75 -9.859375l-2.65625 0l-2.15625 6.953125l-0.125 0.6875l-0.140625 -0.6875l-2.171875 -6.953125l-2.640625 0l3.765625 9.859375zm15.461182 -4.921875l0 -8.34375l-2.578125 0l-5.578125 8.796875l0.109375 1.59375l5.515625 0l0 2.875l2.53125 0l0 -2.875l1.53125 0l0 -2.046875l-1.53125 0zm-5.65625 0l2.875 -4.5l0.25 -0.4375l0 4.9375l-3.125 0z" fill-rule="nonzero"/><path fill="#191f26" d="m413.82416 70.5486l93.82675 0l0 93.82677l-93.82675 0z" fill-rule="evenodd"/><path stroke="#424c58" stroke-width="2.0" stroke-linejoin="round" stroke-linecap="butt" d="m413.82416 70.5486l93.82675 0l0 93.82677l-93.82675 0z" fill-rule="evenodd"/><path fill="#000000" fill-opacity="0.0" d="m218.92651 88.437004l0 0c0 -21.78698 17.661835 -39.448814 39.448822 -39.448814l0 0c10.462463 0 20.49643 4.1562004 27.894531 11.554291c7.3980713 7.3980865 11.554291 17.432053 11.554291 27.894524l0 0c0 21.786987 -17.661835 39.448822 -39.448822 39.448822l0 0c-21.786987 0 -39.448822 -17.661835 -39.448822 -39.448822z" fill-rule="evenodd"/><path stroke="#424c58" stroke-width="2.0" stroke-linejoin="round" stroke-linecap="butt" d="m218.92651 88.437004l0 0c0 -21.78698 17.661835 -39.448814 39.448822 -39.448814l0 0c10.462463 0 20.49643 4.1562004 27.894531 11.554291c7.3980713 7.3980865 11.554291 17.432053 11.554291 27.894524l0 0c0 21.786987 -17.661835 39.448822 -39.448822 39.448822l0 0c-21.786987 0 -39.448822 -17.661835 -39.448822 -39.448822z" fill-rule="evenodd"/><path fill="#424c58" d="m244.59036 83.60826l0 -2.046875q0.6875 0.40625 1.34375 0.59375q0.671875 0.171875 1.234375 0.171875q0.75 0 1.078125 -0.421875q0.34375 -0.4375 0.34375 -1.328125l0 -7.75l2.0625 0l0 7.75q0 1.359375 -0.421875 2.1875q-0.421875 0.8125 -1.171875 1.1875q-0.75 0.375 -1.71875 0.375q-0.765625 0 -1.453125 -0.21875q-0.6875 -0.203125 -1.296875 -0.5zm12.325714 0.71875q-1.15625 0 -2.09375 -0.5q-0.921875 -0.5 -1.46875 -1.484375q-0.546875 -0.984375 -0.546875 -2.453125q0 -1.515625 0.546875 -2.5q0.546875 -0.984375 1.46875 -1.46875q0.9375 -0.484375 2.09375 -0.484375q1.140625 0 2.0625 0.484375q0.921875 0.484375 1.46875 1.46875q0.546875 0.984375 0.546875 2.5q0 1.46875 -0.546875 2.453125q-0.546875 0.984375 -1.46875 1.484375q-0.921875 0.5 -2.0625 0.5zm-0.0625 -1.796875q0.59375 0 1.0625 -0.296875q0.484375 -0.296875 0.75 -0.875q0.28125 -0.59375 0.28125 -1.46875q0 -1.34375 -0.53125 -2.015625q-0.515625 -0.671875 -1.4375 -0.671875q-0.609375 0 -1.09375 0.296875q-0.46875 0.296875 -0.75 0.90625q-0.265625 0.59375 -0.265625 1.484375q0 1.3125 0.53125 1.984375q0.53125 0.65625 1.453125 0.65625zm10.854675 1.796875q-0.78125 0 -1.4375 -0.4375q-0.65625 -0.453125 -1.046875 -1.328125q-0.390625 -0.890625 -0.390625 -2.203125l0.625 0q0 0.625 0.28125 1.109375q0.296875 0.46875 0.734375 0.734375q0.453125 0.265625 0.9375 0.265625q0.609375 0 1.0625 -0.328125q0.46875 -0.328125 0.734375 -0.921875q0.28125 -0.59375 0.28125 -1.390625q0 -0.765625 -0.265625 -1.34375q-0.265625 -0.578125 -0.734375 -0.890625q-0.46875 -0.328125 -1.09375 -0.328125q-0.515625 0 -0.953125 0.25q-0.4375 0.25 -0.71875 0.71875q-0.265625 0.453125 -0.265625 1.109375l-0.625 0q0 -1.265625 0.359375 -2.140625q0.375 -0.875 1.046875 -1.3125q0.6875 -0.453125 1.625 -0.453125q1.03125 0 1.859375 0.546875q0.84375 0.53125 1.328125 1.53125q0.5 0.984375 0.5 2.3125q0 1.359375 -0.515625 2.375q-0.515625 1.0 -1.390625 1.5625q-0.875 0.5625 -1.9375 0.5625zm-4.296875 -0.25l0 -11.890625l2.046875 0l0 9.8125l-0.703125 2.078125l-1.34375 0z" fill-rule="nonzero"/><path fill="#424c58" d="m250.99301 96.67076l2.359375 0l2.015625 6.65625l-0.15625 0l2.0 -6.65625l2.359375 0l-3.125 8.40625l-2.3125 0l-3.140625 -8.40625zm11.805878 -2.90625l1.546875 0l0 11.3125l-2.046875 0l0 -8.875q-0.46875 0.203125 -0.90625 0.328125q-0.4375 0.109375 -0.875 0.109375l0 -1.953125q0.578125 -0.0625 1.125 -0.265625q0.5625 -0.21875 1.15625 -0.65625z" fill-rule="nonzero"/><path fill="#000000" fill-opacity="0.0" d="m150.92651 104.43836l100.0 16.0" fill-rule="evenodd"/><path stroke="#424c58" stroke-width="2.0" stroke-linejoin="round" stroke-linecap="butt" d="m150.92651 104.43836l88.15071 14.104111" fill-rule="evenodd"/><path fill="#424c58" stroke="#424c58" stroke-width="2.0" stroke-linecap="butt" d="m238.55531 121.80445l9.484116 -1.8280258l-8.440292 -4.695923z" fill-rule="evenodd"/><path fill="#424c58" d="m429.82416 86.5486l93.82678 0l0 93.82677l-93.82678 0z" fill-rule="evenodd"/><path stroke="#424c58" stroke-width="2.0" stroke-linejoin="round" stroke-linecap="butt" d="m429.82416 86.5486l93.82678 0l0 93.82677l-93.82678 0z" fill-rule="evenodd"/><path fill="#ffffff" d="m440.55853 117.272606l3.921875 0q1.84375 0 3.234375 0.75q1.390625 0.734375 2.15625 2.09375q0.78125 1.359375 0.78125 3.21875q0 1.84375 -0.78125 3.203125q-0.765625 1.34375 -2.15625 2.0937576q-1.390625 0.75 -3.234375 0.75l-3.921875 0l0 -12.109383zm2.203125 2.0l0 8.125l1.71875 0q1.171875 0 2.015625 -0.53125q0.859375 -0.53125 1.3125 -1.4375q0.46875 -0.921875 0.46875 -2.09375q0 -1.1875 -0.46875 -2.09375q-0.453125 -0.921875 -1.3125 -1.4375q-0.84375 -0.53125 -2.015625 -0.53125l-1.71875 0zm16.370026 10.109383l-0.28125 -2.2031326l0 -3.640625q0 -0.953125 -0.390625 -1.40625q-0.375 -0.453125 -1.3125 -0.453125q-0.53125 0 -0.921875 0.15625q-0.390625 0.15625 -0.609375 0.453125q-0.203125 0.296875 -0.203125 0.71875l-2.40625 0q0 -1.03125 0.5 -1.671875q0.5 -0.65625 1.421875 -0.953125q0.921875 -0.3125 2.21875 -0.3125q1.1875 0 2.0625 0.390625q0.875 0.375 1.359375 1.15625q0.484375 0.78125 0.484375 2.0l0 5.7656326l-1.921875 0zm-2.96875 0.265625q-1.15625 0 -1.9375 -0.40625q-0.78125 -0.40625 -1.171875 -1.0625q-0.390625 -0.6718826 -0.390625 -1.4531326q0 -0.84375 0.453125 -1.421875q0.453125 -0.59375 1.28125 -0.890625q0.828125 -0.296875 1.953125 -0.296875q0.734375 0 1.390625 0.125q0.65625 0.109375 1.3125 0.296875l0 1.28125q-0.515625 -0.171875 -1.125 -0.265625q-0.59375 -0.09375 -1.125 -0.09375q-0.78125 0 -1.296875 0.296875q-0.5 0.28125 -0.5 0.96875q0 0.515625 0.40625 0.875q0.421875 0.359375 1.3125 0.359375q0.6875 0 1.15625 -0.296875q0.46875 -0.296875 0.71875 -0.734375q0.25 -0.453125 0.25 -0.90625l0.53125 0q0 0.984375 -0.375 1.8125q-0.359375 0.8125076 -1.078125 1.3125076q-0.703125 0.5 -1.765625 0.5zm11.179535 0q-0.796875 0 -1.46875 -0.296875q-0.671875 -0.296875 -1.078125 -0.90625q-0.390625 -0.6250076 -0.390625 -1.5781326l0 -8.9375l2.203125 0l0 8.859375q0 1.125 1.0625 1.125q0.328125 0 0.65625 -0.078125q0.328125 -0.078125 0.75 -0.21875l0.3125 1.5468826q-0.515625 0.203125 -1.015625 0.34375q-0.5 0.140625 -1.03125 0.140625zm-4.203125 -7.8593826l0 -1.453125l5.9375 0l0 1.453125l-5.9375 0zm14.266144 7.5937576l-0.28125 -2.2031326l0 -3.640625q0 -0.953125 -0.390625 -1.40625q-0.375 -0.453125 -1.3125 -0.453125q-0.53125 0 -0.921875 0.15625q-0.390625 0.15625 -0.609375 0.453125q-0.203125 0.296875 -0.203125 0.71875l-2.40625 0q0 -1.03125 0.5 -1.671875q0.5 -0.65625 1.421875 -0.953125q0.921875 -0.3125 2.21875 -0.3125q1.1875 0 2.0625 0.390625q0.875 0.375 1.359375 1.15625q0.484375 0.78125 0.484375 2.0l0 5.7656326l-1.921875 0zm-2.96875 0.265625q-1.15625 0 -1.9375 -0.40625q-0.78125 -0.40625 -1.171875 -1.0625q-0.390625 -0.6718826 -0.390625 -1.4531326q0 -0.84375 0.453125 -1.421875q0.453125 -0.59375 1.28125 -0.890625q0.828125 -0.296875 1.953125 -0.296875q0.734375 0 1.390625 0.125q0.65625 0.109375 1.3125 0.296875l0 1.28125q-0.515625 -0.171875 -1.125 -0.265625q-0.59375 -0.09375 -1.125 -0.09375q-0.78125 0 -1.296875 0.296875q-0.5 0.28125 -0.5 0.96875q0 0.515625 0.40625 0.875q0.421875 0.359375 1.3125 0.359375q0.6875 0 1.15625 -0.296875q0.46875 -0.296875 0.71875 -0.734375q0.25 -0.453125 0.25 -0.90625l0.53125 0q0 0.984375 -0.375 1.8125q-0.359375 0.8125076 -1.078125 1.3125076q-0.703125 0.5 -1.765625 0.5zm11.492035 0q-1.296875 0 -2.234375 -0.359375q-0.9375 -0.359375 -1.453125 -1.03125q-0.5 -0.6875076 -0.5 -1.6406326l2.03125 0q0.015625 0.671875 0.515625 0.984375q0.515625 0.3125 1.375 0.3125q0.484375 0 0.84375 -0.140625q0.375 -0.140625 0.578125 -0.375q0.203125 -0.25 0.203125 -0.546875q0 -0.390625 -0.28125 -0.609375q-0.265625 -0.21875 -0.875 -0.40625l-1.96875 -0.703125q-1.0625 -0.390625 -1.640625 -1.015625q-0.5625 -0.625 -0.5625 -1.484375q0 -1.15625 1.03125 -1.859375q1.046875 -0.703125 2.796875 -0.703125q1.734375 0 2.671875 0.765625q0.953125 0.765625 0.984375 1.921875l-2.078125 0q-0.046875 -0.453125 -0.4375 -0.703125q-0.375 -0.265625 -1.140625 -0.265625q-0.703125 0 -1.109375 0.28125q-0.390625 0.28125 -0.390625 0.671875q0 0.640625 1.109375 0.96875l2.140625 0.796875q1.046875 0.359375 1.625 0.921875q0.578125 0.5625 0.578125 1.421875q0 0.71875 -0.484375 1.3593826q-0.484375 0.625 -1.34375 1.03125q-0.859375 0.40625 -1.984375 0.40625zm9.841156 0q-1.15625 0 -2.125 -0.59375q-0.953125 -0.609375 -1.53125 -1.6875076q-0.578125 -1.078125 -0.578125 -2.515625q0 -1.5 0.578125 -2.5625q0.578125 -1.078125 1.53125 -1.640625q0.96875 -0.578125 2.125 -0.578125q1.078125 0 1.859375 0.4375q0.796875 0.4375 1.28125 1.1875q0.484375 0.734375 0.640625 1.671875q0.171875 0.921875 0.03125 1.90625l-6.296875 0l0 -1.1875l4.734375 0l-0.421875 0.28125q0.015625 -0.4375 -0.0625 -0.890625q-0.0625 -0.453125 -0.265625 -0.8125q-0.1875 -0.375 -0.546875 -0.609375q-0.359375 -0.234375 -0.90625 -0.234375q-0.671875 0 -1.140625 0.34375q-0.46875 0.328125 -0.71875 0.90625q-0.234375 0.578125 -0.234375 1.3125l0 0.875q0 0.765625 0.21875 1.359375q0.234375 0.578125 0.6875 0.921875q0.453125 0.328125 1.140625 0.328125q0.640625 0 1.078125 -0.296875q0.4375 -0.296875 0.5625 -0.890625l2.21875 0q-0.140625 0.875 -0.65625 1.5468826q-0.515625 0.65625 -1.34375 1.046875q-0.8125 0.375 -1.859375 0.375zm9.575317 0q-0.796875 0 -1.46875 -0.296875q-0.671875 -0.296875 -1.078125 -0.90625q-0.390625 -0.6250076 -0.390625 -1.5781326l0 -8.9375l2.203125 0l0 8.859375q0 1.125 1.0625 1.125q0.328125 0 0.65625 -0.078125q0.328125 -0.078125 0.75 -0.21875l0.3125 1.5468826q-0.515625 0.203125 -1.015625 0.34375q-0.5 0.140625 -1.03125 0.140625zm-4.203125 -7.8593826l0 -1.453125l5.9375 0l0 1.453125l-5.9375 0z" fill-rule="nonzero"/><path fill="#ffffff" d="m443.24603 151.38199l2.375 0l3.75 -9.859375l-2.65625 0l-2.15625 6.953125l-0.125 0.6875l-0.140625 -0.6875l-2.171875 -6.953125l-2.640625 0l3.765625 9.859375zm15.461182 -4.921875l0 -8.34375l-2.578125 0l-5.578125 8.796875l0.109375 1.59375l5.515625 0l0 2.875l2.53125 0l0 -2.875l1.53125 0l0 -2.046875l-1.53125 0zm-5.65625 0l2.875 -4.5l0.25 -0.4375l0 4.9375l-3.125 0z" fill-rule="nonzero"/><path fill="#000000" fill-opacity="0.0" d="m329.82416 120.422615l100.0 13.039375" fill-rule="evenodd"/><path stroke="#424c58" stroke-width="2.0" stroke-linejoin="round" stroke-linecap="butt" d="m329.82416 120.422615l88.10071 11.48777" fill-rule="evenodd"/><path fill="#424c58" stroke="#424c58" stroke-width="2.0" stroke-linecap="butt" d="m417.49774 135.18613l9.427155 -2.102188l-8.572876 -4.44928z" fill-rule="evenodd"/><path fill="#000000" fill-opacity="0.0" d="m150.92651 104.43836l68.0 -16.0" fill-rule="evenodd"/><path stroke="#424c58" stroke-width="2.0" stroke-linejoin="round" stroke-linecap="butt" stroke-dasharray="2.0,6.0" d="m150.92651 104.43836l56.319 -13.251526" fill-rule="evenodd"/><path fill="#424c58" stroke="#424c58" stroke-width="2.0" stroke-linecap="butt" d="m208.00212 94.40248l8.078308 -5.2944565l-9.591553 -1.1368408z" fill-rule="evenodd"/><path fill="#000000" fill-opacity="0.0" d="m297.82416 88.437004l116.0 29.039375" fill-rule="evenodd"/><path stroke="#424c58" stroke-width="2.0" stroke-linejoin="round" stroke-linecap="butt" stroke-dasharray="2.0,6.0" d="m297.82416 88.437004l104.35919 26.125229" fill-rule="evenodd"/><path fill="#424c58" stroke="#424c58" stroke-width="2.0" stroke-linecap="butt" d="m401.38113 117.76681l9.60672 -1.0004654l-8.002258 -5.408684z" fill-rule="evenodd"/><path fill="#ffffff" d="m250.92651 120.437004l0 0c0 -21.78698 17.661835 -39.448814 39.448822 -39.448814l0 0c10.462463 0 20.49643 4.156204 27.894531 11.554291c7.3980713 7.3980865 11.554291 17.432053 11.554291 27.894524l0 0c0 21.78698 -17.661835 39.44883 -39.448822 39.44883l0 0c-21.786987 0 -39.448822 -17.66185 -39.448822 -39.44883z" fill-rule="evenodd"/><path stroke="#424c58" stroke-width="2.0" stroke-linejoin="round" stroke-linecap="butt" d="m250.92651 120.437004l0 0c0 -21.78698 17.661835 -39.448814 39.448822 -39.448814l0 0c10.462463 0 20.49643 4.156204 27.894531 11.554291c7.3980713 7.3980865 11.554291 17.432053 11.554291 27.894524l0 0c0 21.78698 -17.661835 39.44883 -39.448822 39.44883l0 0c-21.786987 0 -39.448822 -17.66185 -39.448822 -39.44883z" fill-rule="evenodd"/><path fill="#424c58" d="m276.59036 115.60826l0 -2.046875q0.6875 0.40625 1.34375 0.59375q0.671875 0.171875 1.234375 0.171875q0.75 0 1.078125 -0.421875q0.34375 -0.4375 0.34375 -1.328125l0 -7.75l2.0625 0l0 7.75q0 1.359375 -0.421875 2.1875q-0.421875 0.8125 -1.171875 1.1875q-0.75 0.375 -1.71875 0.375q-0.765625 0 -1.453125 -0.21875q-0.6875 -0.203125 -1.296875 -0.5zm12.325714 0.71875q-1.15625 0 -2.09375 -0.5q-0.921875 -0.5 -1.46875 -1.484375q-0.546875 -0.984375 -0.546875 -2.453125q0 -1.515625 0.546875 -2.5q0.546875 -0.984375 1.46875 -1.46875q0.9375 -0.484375 2.09375 -0.484375q1.140625 0 2.0625 0.484375q0.921875 0.484375 1.46875 1.46875q0.546875 0.984375 0.546875 2.5q0 1.46875 -0.546875 2.453125q-0.546875 0.984375 -1.46875 1.484375q-0.921875 0.5 -2.0625 0.5zm-0.0625 -1.796875q0.59375 0 1.0625 -0.296875q0.484375 -0.296875 0.75 -0.875q0.28125 -0.59375 0.28125 -1.46875q0 -1.34375 -0.53125 -2.015625q-0.515625 -0.671875 -1.4375 -0.671875q-0.609375 0 -1.09375 0.296875q-0.46875 0.296875 -0.75 0.90625q-0.265625 0.59375 -0.265625 1.484375q0 1.3125 0.53125 1.984375q0.53125 0.65625 1.453125 0.65625zm10.854675 1.796875q-0.78125 0 -1.4375 -0.4375q-0.65625 -0.453125 -1.046875 -1.328125q-0.390625 -0.890625 -0.390625 -2.203125l0.625 0q0 0.625 0.28125 1.109375q0.296875 0.46875 0.734375 0.734375q0.453125 0.265625 0.9375 0.265625q0.609375 0 1.0625 -0.328125q0.46875 -0.328125 0.734375 -0.921875q0.28125 -0.59375 0.28125 -1.390625q0 -0.765625 -0.265625 -1.34375q-0.265625 -0.578125 -0.734375 -0.890625q-0.46875 -0.328125 -1.09375 -0.328125q-0.515625 0 -0.953125 0.25q-0.4375 0.25 -0.71875 0.71875q-0.265625 0.453125 -0.265625 1.109375l-0.625 0q0 -1.265625 0.359375 -2.140625q0.375 -0.875 1.046875 -1.3125q0.6875 -0.453125 1.625 -0.453125q1.03125 0 1.859375 0.546875q0.84375 0.53125 1.328125 1.53125q0.5 0.984375 0.5 2.3125q0 1.359375 -0.515625 2.375q-0.515625 1.0 -1.390625 1.5625q-0.875 0.5625 -1.9375 0.5625zm-4.296875 -0.25l0 -11.890625l2.046875 0l0 9.8125l-0.703125 2.078125l-1.34375 0z" fill-rule="nonzero"/><path fill="#424c58" d="m284.08612 137.07701l2.203125 0l3.484375 -9.15625l-2.46875 0l-2.0 6.453125l-0.125 0.640625l-0.125 -0.640625l-2.015625 -6.453125l-2.453125 0l3.5 9.15625zm15.539215 0l0 -1.890625l-5.40625 0l2.3125 -2.453125q0.609375 -0.609375 1.09375 -1.171875q0.484375 -0.5625 0.84375 -1.109375q0.34375 -0.546875 0.53125 -1.09375q0.203125 -0.5625 0.203125 -1.171875q0 -0.796875 -0.265625 -1.453125q-0.25 -0.671875 -0.734375 -1.140625q-0.484375 -0.484375 -1.21875 -0.734375q-0.71875 -0.265625 -1.65625 -0.265625q-0.96875 0 -1.78125 0.3125q-0.8125 0.3125 -1.375 0.875q-0.578125 0.546875 -0.890625 1.28125q-0.3125 0.71875 -0.3125 1.546875l2.359375 0q0 -0.5 0.125 -0.890625q0.125 -0.390625 0.375 -0.65625q0.234375 -0.25 0.59375 -0.375q0.359375 -0.140625 0.828125 -0.140625q0.375 0 0.671875 0.125q0.296875 0.125 0.515625 0.34375q0.21875 0.21875 0.328125 0.546875q0.125 0.3125 0.125 0.734375q0 0.28125 -0.09375 0.578125q-0.078125 0.296875 -0.28125 0.625q-0.203125 0.359375 -0.53125 0.78125q-0.3125 0.40625 -0.78125 0.90625l-3.984375 4.28125l0 1.609375l8.40625 0z" fill-rule="nonzero"/></g></svg>