<svg version="1.1" viewBox="0.0 0.0 964.2467191601049 306.24146981627297" fill="none" stroke="none" stroke-linecap="square" stroke-miterlimit="10" xmlns:xlink="http://www.w3.org/1999/xlink" xmlns="http://www.w3.org/2000/svg"><clipPath id="p.0"><path d="m0 0l964.2467 0l0 306.24146l-964.2467 0l0 -306.24146z" clip-rule="nonzero"/></clipPath><g clip-path="url(#p.0)"><path fill="#000000" fill-opacity="0.0" d="m0 0l964.2467 0l0 306.24146l-964.2467 0z" fill-rule="evenodd"/><path fill="#000000" fill-opacity="0.0" d="m340.6617 69.149605l278.67715 0l0 64.15748l-278.67715 0z" fill-rule="evenodd"/><path stroke="#ffffff" stroke-width="2.0" stroke-linejoin="round" stroke-linecap="butt" d="m340.6617 69.149605l278.67715 0l0 64.15748l-278.67715 0z" fill-rule="evenodd"/><path fill="#ffffff" d="m387.18488 92.182724l6.734375 0q3.15625 0 5.53125 1.28125q2.390625 1.265625 3.71875 3.609375q1.328125 2.328125 1.328125 5.5q0 3.15625 -1.328125 5.484375q-1.328125 2.328125 -3.71875 3.609375q-2.375 1.28125 -5.53125 1.28125l-6.734375 0l0 -20.765625zm3.78125 3.421875l0 13.953125l2.953125 0q2.015625 0 3.46875 -0.90625q1.46875 -0.921875 2.25 -2.5q0.796875 -1.578125 0.796875 -3.578125q0 -2.03125 -0.796875 -3.59375q-0.78125 -1.5625 -2.25 -2.46875q-1.453125 -0.90625 -3.46875 -0.90625l-2.953125 0zm28.077423 17.34375l-0.46875 -3.78125l0 -6.234375q0 -1.625 -0.671875 -2.40625q-0.65625 -0.796875 -2.25 -0.796875q-0.90625 0 -1.578125 0.28125q-0.671875 0.265625 -1.03125 0.78125q-0.359375 0.5 -0.359375 1.21875l-4.125 0q0 -1.765625 0.84375 -2.875q0.84375 -1.109375 2.4375 -1.625q1.59375 -0.53125 3.8125 -0.53125q2.015625 0 3.515625 0.65625q1.515625 0.640625 2.34375 1.984375q0.828125 1.34375 0.828125 3.4375l0 9.890625l-3.296875 0zm-5.078125 0.453125q-2.0 0 -3.34375 -0.6875q-1.328125 -0.703125 -2.0 -1.84375q-0.671875 -1.140625 -0.671875 -2.46875q0 -1.46875 0.765625 -2.46875q0.78125 -1.0 2.203125 -1.5q1.421875 -0.515625 3.359375 -0.515625q1.265625 0 2.390625 0.203125q1.125 0.1875 2.25 0.515625l0 2.203125q-0.875 -0.296875 -1.921875 -0.453125q-1.03125 -0.15625 -1.953125 -0.15625q-1.34375 0 -2.203125 0.5q-0.859375 0.484375 -0.859375 1.671875q0 0.859375 0.703125 1.484375q0.703125 0.625 2.234375 0.625q1.171875 0 1.984375 -0.5q0.8125 -0.515625 1.234375 -1.28125q0.4375 -0.765625 0.4375 -1.546875l0.890625 0q0 1.6875 -0.625 3.109375q-0.625 1.40625 -1.859375 2.265625q-1.21875 0.84375 -3.015625 0.84375zm19.157532 0q-1.375 0 -2.515625 -0.515625q-1.140625 -0.515625 -1.828125 -1.5625q-0.671875 -1.0625 -0.671875 -2.6875l0 -15.328125l3.765625 0l0 15.1875q0 1.921875 1.828125 1.921875q0.5625 0 1.125 -0.125q0.5625 -0.125 1.28125 -0.390625l0.546875 2.65625q-0.90625 0.359375 -1.75 0.59375q-0.84375 0.25 -1.78125 0.25zm-7.1875 -13.484375l0 -2.484375l10.171875 0l0 2.484375l-10.171875 0zm24.452148 13.03125l-0.46875 -3.78125l0 -6.234375q0 -1.625 -0.671875 -2.40625q-0.65625 -0.796875 -2.25 -0.796875q-0.90625 0 -1.578125 0.28125q-0.671875 0.265625 -1.03125 0.78125q-0.359375 0.5 -0.359375 1.21875l-4.125 0q0 -1.765625 0.84375 -2.875q0.84375 -1.109375 2.4375 -1.625q1.59375 -0.53125 3.8125 -0.53125q2.015625 0 3.515625 0.65625q1.515625 0.640625 2.34375 1.984375q0.828125 1.34375 0.828125 3.4375l0 9.890625l-3.296875 0zm-5.078125 0.453125q-2.0 0 -3.34375 -0.6875q-1.328125 -0.703125 -2.0 -1.84375q-0.671875 -1.140625 -0.671875 -2.46875q0 -1.46875 0.765625 -2.46875q0.78125 -1.0 2.203125 -1.5q1.421875 -0.515625 3.359375 -0.515625q1.265625 0 2.390625 0.203125q1.125 0.1875 2.25 0.515625l0 2.203125q-0.875 -0.296875 -1.921875 -0.453125q-1.03125 -0.15625 -1.953125 -0.15625q-1.34375 0 -2.203125 0.5q-0.859375 0.484375 -0.859375 1.671875q0 0.859375 0.703125 1.484375q0.703125 0.625 2.234375 0.625q1.171875 0 1.984375 -0.5q0.8125 -0.515625 1.234375 -1.28125q0.4375 -0.765625 0.4375 -1.546875l0.890625 0q0 1.6875 -0.625 3.109375q-0.625 1.40625 -1.859375 2.265625q-1.21875 0.84375 -3.015625 0.84375zm22.00354 -0.453125l0 -21.953125l3.78125 0l0 21.953125l-3.78125 0zm11.962769 -18.375q-1.109375 0 -1.734375 -0.578125q-0.609375 -0.578125 -0.609375 -1.625q0 -1.0 0.609375 -1.59375q0.625 -0.609375 1.734375 -0.609375q1.078125 0 1.703125 0.609375q0.625 0.59375 0.625 1.59375q0 1.046875 -0.625 1.625q-0.625 0.578125 -1.703125 0.578125zm-1.890625 18.375l0 -15.578125l3.78125 0l0 15.578125l-3.78125 0zm20.824127 0l0 -9.09375q0 -1.71875 -0.828125 -2.59375q-0.828125 -0.890625 -2.171875 -0.890625q-1.140625 0 -2.015625 0.625q-0.859375 0.625 -1.359375 1.890625q-0.5 1.25 -0.5 3.125l-1.25 0q0 -3.03125 0.75 -5.03125q0.765625 -2.015625 2.140625 -3.0q1.375 -1.0 3.21875 -1.0q1.921875 0 3.203125 0.859375q1.296875 0.859375 1.9375 2.40625q0.65625 1.546875 0.65625 3.609375l0 9.09375l-3.78125 0zm-10.65625 0l0 -15.515625l3.296875 0l0.484375 3.0625l0 12.453125l-3.78125 0zm25.73291 0.453125q-1.984375 0 -3.640625 -1.015625q-1.640625 -1.03125 -2.640625 -2.875q-0.984375 -1.859375 -0.984375 -4.34375q0 -2.5625 0.984375 -4.390625q0.984375 -1.84375 2.625 -2.8125q1.65625 -0.984375 3.65625 -0.984375q1.859375 0 3.203125 0.75q1.359375 0.734375 2.171875 2.015625q0.828125 1.265625 1.109375 2.875q0.296875 1.59375 0.046875 3.28125l-10.78125 0l0 -2.046875l8.109375 0l-0.734375 0.484375q0.046875 -0.75 -0.078125 -1.515625q-0.109375 -0.765625 -0.453125 -1.40625q-0.328125 -0.640625 -0.953125 -1.03125q-0.609375 -0.390625 -1.578125 -0.390625q-1.140625 0 -1.953125 0.578125q-0.796875 0.5625 -1.21875 1.5625q-0.40625 0.984375 -0.40625 2.234375l0 1.5q0 1.3125 0.390625 2.328125q0.390625 1.0 1.15625 1.578125q0.78125 0.578125 1.96875 0.578125q1.109375 0 1.859375 -0.5q0.75 -0.515625 0.953125 -1.546875l3.8125 0q-0.234375 1.5 -1.125 2.65625q-0.890625 1.140625 -2.296875 1.796875q-1.40625 0.640625 -3.203125 0.640625zm21.053833 -0.453125l-0.46875 -3.78125l0 -6.234375q0 -1.625 -0.671875 -2.40625q-0.65625 -0.796875 -2.25 -0.796875q-0.90625 0 -1.578125 0.28125q-0.671875 0.265625 -1.03125 0.78125q-0.359375 0.5 -0.359375 1.21875l-4.125 0q0 -1.765625 0.84375 -2.875q0.84375 -1.109375 2.4375 -1.625q1.59375 -0.53125 3.8125 -0.53125q2.015625 0 3.515625 0.65625q1.515625 0.640625 2.34375 1.984375q0.828125 1.34375 0.828125 3.4375l0 9.890625l-3.296875 0zm-5.078125 0.453125q-2.0 0 -3.34375 -0.6875q-1.328125 -0.703125 -2.0 -1.84375q-0.671875 -1.140625 -0.671875 -2.46875q0 -1.46875 0.765625 -2.46875q0.78125 -1.0 2.203125 -1.5q1.421875 -0.515625 3.359375 -0.515625q1.265625 0 2.390625 0.203125q1.125 0.1875 2.25 0.515625l0 2.203125q-0.875 -0.296875 -1.921875 -0.453125q-1.03125 -0.15625 -1.953125 -0.15625q-1.34375 0 -2.203125 0.5q-0.859375 0.484375 -0.859375 1.671875q0 0.859375 0.703125 1.484375q0.703125 0.625 2.234375 0.625q1.171875 0 1.984375 -0.5q0.8125 -0.515625 1.234375 -1.28125q0.4375 -0.765625 0.4375 -1.546875l0.890625 0q0 1.6875 -0.625 3.109375q-0.625 1.40625 -1.859375 2.265625q-1.21875 0.84375 -3.015625 0.84375zm19.891907 7.578125q-2.671875 0 -4.5625 -0.734375q-1.890625 -0.734375 -2.90625 -1.9375q-1.0 -1.1875 -1.0 -2.578125q0 -1.640625 1.1875 -2.546875q1.203125 -0.90625 3.03125 -0.90625l2.75 1.03125q-1.5625 0 -2.421875 0.578125q-0.84375 0.59375 -0.84375 1.65625q0 1.109375 1.265625 1.765625q1.28125 0.671875 3.5 0.671875q1.625 0 2.796875 -0.484375q1.1875 -0.484375 1.828125 -1.25q0.65625 -0.765625 0.65625 -1.640625q0 -0.5625 -0.390625 -0.9375q-0.375 -0.359375 -1.171875 -0.359375l-5.21875 0q-1.5625 0 -2.859375 -0.5q-1.28125 -0.515625 -2.046875 -1.375q-0.75 -0.859375 -0.75 -1.90625q0 -0.984375 0.53125 -1.6875q0.546875 -0.71875 1.484375 -1.09375q0.9375 -0.390625 2.109375 -0.390625l0.953125 1.25q-0.453125 0 -0.890625 0.1875q-0.421875 0.1875 -0.6875 0.546875q-0.265625 0.34375 -0.265625 0.859375q0 0.640625 0.53125 1.046875q0.546875 0.40625 1.890625 0.40625l5.21875 0q2.484375 0 3.890625 0.90625q1.421875 0.90625 1.421875 2.796875q0 1.6875 -1.109375 3.1875q-1.09375 1.515625 -3.125 2.46875q-2.015625 0.96875 -4.796875 0.96875zm0.203125 -12.828125q-1.84375 0 -3.375 -0.6875q-1.53125 -0.703125 -2.4375 -1.953125q-0.90625 -1.25 -0.90625 -2.9375q0 -1.703125 0.90625 -2.96875q0.90625 -1.265625 2.4375 -1.9375q1.53125 -0.6875 3.375 -0.6875q1.78125 0 3.296875 0.6875q1.53125 0.671875 2.453125 1.9375q0.9375 1.265625 0.9375 2.96875q0 1.6875 -0.9375 2.9375q-0.921875 1.25 -2.453125 1.953125q-1.515625 0.6875 -3.296875 0.6875zm0.03125 -2.625q1.46875 0 2.203125 -0.84375q0.734375 -0.859375 0.734375 -2.109375q0 -1.34375 -0.75 -2.15625q-0.734375 -0.8125 -2.21875 -0.8125q-1.4375 0 -2.21875 0.8125q-0.765625 0.8125 -0.765625 2.15625q0 1.25 0.78125 2.109375q0.78125 0.84375 2.234375 0.84375zm5.46875 -6.046875l-1.734375 -1.0q0 -1.390625 0.640625 -2.4375q0.65625 -1.046875 1.734375 -1.625q1.09375 -0.578125 2.40625 -0.578125l-0.203125 3.625q-1.390625 0 -2.125 0.484375q-0.71875 0.484375 -0.71875 1.53125zm12.733398 13.921875q-1.984375 0 -3.640625 -1.015625q-1.640625 -1.03125 -2.640625 -2.875q-0.984375 -1.859375 -0.984375 -4.34375q0 -2.5625 0.984375 -4.390625q0.984375 -1.84375 2.625 -2.8125q1.65625 -0.984375 3.65625 -0.984375q1.859375 0 3.203125 0.75q1.359375 0.734375 2.171875 2.015625q0.828125 1.265625 1.109375 2.875q0.296875 1.59375 0.046875 3.28125l-10.78125 0l0 -2.046875l8.109375 0l-0.734375 0.484375q0.046875 -0.75 -0.078125 -1.515625q-0.109375 -0.765625 -0.453125 -1.40625q-0.328125 -0.640625 -0.953125 -1.03125q-0.609375 -0.390625 -1.578125 -0.390625q-1.140625 0 -1.953125 0.578125q-0.796875 0.5625 -1.21875 1.5625q-0.40625 0.984375 -0.40625 2.234375l0 1.5q0 1.3125 0.390625 2.328125q0.390625 1.0 1.15625 1.578125q0.78125 0.578125 1.96875 0.578125q1.109375 0 1.859375 -0.5q0.75 -0.515625 0.953125 -1.546875l3.8125 0q-0.234375 1.5 -1.125 2.65625q-0.890625 1.140625 -2.296875 1.796875q-1.40625 0.640625 -3.203125 0.640625z" fill-rule="nonzero"/><path fill="#000000" fill-opacity="0.0" d="m340.6614 133.30708l278.67715 0l0 113.543304l-278.67715 0z" fill-rule="evenodd"/><path stroke="#ffffff" stroke-width="2.0" stroke-linejoin="round" stroke-linecap="butt" d="m340.6614 133.30708l278.67715 0l0 113.543304l-278.67715 0z" fill-rule="evenodd"/><path fill="#ffffff" d="m356.21805 146.26521q1.5 0 2.9375 0.78125q1.453125 0.78125 2.265625 2.234375q0.8125 1.4375 0.8125 3.0q0 2.5 -1.765625 4.265625q-1.765625 1.765625 -4.25 1.765625q-2.5 0 -4.265625 -1.765625q-1.765625 -1.765625 -1.765625 -4.265625q0 -1.5625 0.796875 -3.0q0.8125 -1.453125 2.265625 -2.234375q1.453125 -0.78125 2.96875 -0.78125z" fill-rule="nonzero"/><path fill="#ffffff" d="m389.39578 160.18709l6.046875 -17.578125l2.65625 0l5.90625 17.578125l-2.296875 0l-1.484375 -4.515625l-7.0 0l-1.53125 4.515625l-2.296875 0zm4.390625 -6.21875l5.875 0l-2.9375 -8.703125l-2.9375 8.703125zm18.570312 6.5625q-1.625 0 -2.984375 -0.875q-1.34375 -0.875 -2.15625 -2.46875q-0.8125 -1.59375 -0.8125 -3.75q0 -2.140625 0.796875 -3.703125q0.796875 -1.578125 2.109375 -2.421875q1.328125 -0.84375 2.90625 -0.84375q1.484375 0 2.59375 0.71875q1.109375 0.703125 1.71875 2.046875q0.625 1.34375 0.625 3.25l-0.84375 0q0 -1.328125 -0.53125 -2.234375q-0.515625 -0.90625 -1.359375 -1.375q-0.84375 -0.46875 -1.796875 -0.46875q-1.09375 0 -2.0 0.609375q-0.90625 0.609375 -1.453125 1.734375q-0.53125 1.125 -0.53125 2.6875q0 1.59375 0.53125 2.75q0.546875 1.140625 1.453125 1.765625q0.90625 0.609375 2.0 0.609375q0.90625 0 1.75 -0.46875q0.84375 -0.484375 1.390625 -1.390625q0.546875 -0.921875 0.546875 -2.234375l0.84375 0q0 1.953125 -0.640625 3.3125q-0.640625 1.34375 -1.734375 2.046875q-1.078125 0.703125 -2.421875 0.703125zm4.3125 -0.34375l-0.359375 -3.140625l0 -15.953125l2.1875 0l0 19.09375l-1.828125 0zm12.277435 0.34375q-1.625 0 -2.984375 -0.875q-1.34375 -0.875 -2.15625 -2.46875q-0.8125 -1.59375 -0.8125 -3.75q0 -2.140625 0.796875 -3.703125q0.796875 -1.578125 2.109375 -2.421875q1.328125 -0.84375 2.90625 -0.84375q1.484375 0 2.59375 0.71875q1.109375 0.703125 1.71875 2.046875q0.625 1.34375 0.625 3.25l-0.84375 0q0 -1.328125 -0.53125 -2.234375q-0.515625 -0.90625 -1.359375 -1.375q-0.84375 -0.46875 -1.796875 -0.46875q-1.09375 0 -2.0 0.609375q-0.90625 0.609375 -1.453125 1.734375q-0.53125 1.125 -0.53125 2.6875q0 1.59375 0.53125 2.75q0.546875 1.140625 1.453125 1.765625q0.90625 0.609375 2.0 0.609375q0.90625 0 1.75 -0.46875q0.84375 -0.484375 1.390625 -1.390625q0.546875 -0.921875 0.546875 -2.234375l0.84375 0q0 1.953125 -0.640625 3.3125q-0.640625 1.34375 -1.734375 2.046875q-1.078125 0.703125 -2.421875 0.703125zm4.3125 -0.34375l-0.359375 -3.140625l0 -15.953125l2.1875 0l0 19.09375l-1.828125 0zm18.849304 0.34375q-1.609375 0 -3.0 -0.875q-1.390625 -0.875 -2.25 -2.453125q-0.859375 -1.578125 -0.859375 -3.734375q0 -2.21875 0.859375 -3.78125q0.859375 -1.5625 2.25 -2.390625q1.390625 -0.828125 3.0 -0.828125q1.140625 0 2.03125 0.34375q0.90625 0.34375 1.578125 0.953125q0.671875 0.59375 1.109375 1.359375q0.453125 0.765625 0.65625 1.59375l-2.234375 0.203125q-0.359375 -1.171875 -1.171875 -1.84375q-0.8125 -0.671875 -2.0 -0.671875q-0.984375 0 -1.859375 0.5625q-0.875 0.5625 -1.421875 1.6875q-0.546875 1.125 -0.546875 2.8125q0 1.546875 0.484375 2.6875q0.5 1.140625 1.359375 1.78125q0.875 0.625 1.984375 0.625q1.5625 0 2.359375 -0.765625q0.8125 -0.765625 0.8125 -2.125l2.234375 0q0 1.40625 -0.65625 2.5q-0.65625 1.09375 -1.875 1.734375q-1.203125 0.625 -2.84375 0.625zm14.588562 0q-1.8125 0 -3.21875 -0.796875q-1.40625 -0.8125 -2.21875 -2.375q-0.8125 -1.5625 -0.8125 -3.859375q0 -2.3125 0.8125 -3.875q0.8125 -1.5625 2.21875 -2.359375q1.40625 -0.796875 3.21875 -0.796875q1.796875 0 3.203125 0.796875q1.40625 0.796875 2.203125 2.359375q0.8125 1.5625 0.8125 3.875q0 2.296875 -0.8125 3.859375q-0.796875 1.5625 -2.203125 2.375q-1.40625 0.796875 -3.203125 0.796875zm-0.0625 -1.90625q1.3125 0 2.21875 -0.625q0.90625 -0.625 1.375 -1.765625q0.46875 -1.15625 0.46875 -2.734375q0 -2.40625 -1.0 -3.78125q-0.984375 -1.375 -2.9375 -1.375q-1.328125 0 -2.234375 0.625q-0.890625 0.625 -1.359375 1.78125q-0.46875 1.15625 -0.46875 2.75q0 2.359375 1.0 3.75q1.0 1.375 2.9375 1.375zm20.036316 1.5625l0 -7.875q0 -1.90625 -0.921875 -2.90625q-0.90625 -1.0 -2.484375 -1.0q-1.203125 0 -2.09375 0.65625q-0.875 0.65625 -1.359375 1.890625q-0.46875 1.21875 -0.46875 2.90625l-0.84375 0q0 -2.34375 0.609375 -3.984375q0.625 -1.65625 1.796875 -2.53125q1.1875 -0.875 2.890625 -0.875q1.578125 0 2.703125 0.703125q1.125 0.703125 1.71875 2.03125q0.609375 1.3125 0.609375 3.109375l0 7.875l-2.15625 0zm-9.515625 0l0 -13.390625l1.875 0l0.3125 3.09375l0 10.296875l-2.1875 0zm21.007294 0.34375q-1.078125 0 -1.953125 -0.421875q-0.875 -0.421875 -1.375 -1.265625q-0.5 -0.84375 -0.5 -2.09375l0 -13.671875l2.15625 0l0 13.609375q0 2.078125 1.9375 2.078125q0.5625 0 1.09375 -0.125q0.546875 -0.140625 1.21875 -0.390625l0.3125 1.578125q-0.71875 0.296875 -1.421875 0.5q-0.703125 0.203125 -1.46875 0.203125zm-5.984375 -12.21875l0 -1.515625l8.53125 0l0 1.515625l-8.53125 0zm17.04358 12.21875q-1.734375 0 -3.09375 -0.890625q-1.359375 -0.890625 -2.15625 -2.46875q-0.796875 -1.59375 -0.796875 -3.640625q0 -2.203125 0.78125 -3.78125q0.796875 -1.59375 2.15625 -2.4375q1.359375 -0.84375 3.109375 -0.84375q1.53125 0 2.609375 0.625q1.0781555 0.609375 1.7344055 1.65625q0.65625 1.046875 0.90625 2.375q0.265625 1.328125 0.15625 2.734375l-9.6875305 0l0 -1.34375l8.2500305 0l-0.640625 0.421875q0.046875 -0.828125 -0.09375 -1.65625q-0.140625 -0.828125 -0.5000305 -1.515625q-0.359375 -0.6875 -1.015625 -1.109375q-0.65625 -0.421875 -1.6875 -0.421875q-1.28125 0 -2.15625 0.65625q-0.859375 0.65625 -1.296875 1.734375q-0.4375 1.0625 -0.4375 2.3125l0 0.890625q0 1.40625 0.421875 2.515625q0.4375 1.09375 1.28125 1.75q0.859375 0.640625 2.15625 0.640625q1.3125 0 2.140625 -0.625q0.8437805 -0.640625 1.0312805 -1.875l2.265625 0q-0.203125 1.328125 -0.953125 2.296875q-0.734375 0.953125 -1.8906555 1.484375q-1.140625 0.515625 -2.59375 0.515625zm7.643585 -0.34375l5.0625 -6.6875l-5.0625 -6.71875l2.65625 0l3.828125 5.0625l3.703125 -5.0625l2.65625 0l-5.09375 6.71875l5.0625 6.6875l-2.65625 0l-3.828125 -5.09375l-3.671875 5.09375l-2.65625 0zm20.525085 0.34375q-1.078125 0 -1.953125 -0.421875q-0.875 -0.421875 -1.375 -1.265625q-0.5 -0.84375 -0.5 -2.09375l0 -13.671875l2.15625 0l0 13.609375q0 2.078125 1.9375 2.078125q0.5625 0 1.09375 -0.125q0.546875 -0.140625 1.21875 -0.390625l0.3125 1.578125q-0.71875 0.296875 -1.421875 0.5q-0.703125 0.203125 -1.46875 0.203125zm-5.984375 -12.21875l0 -1.515625l8.53125 0l0 1.515625l-8.53125 0zm23.162292 12.21875q-1.078125 0 -1.953125 -0.421875q-0.875 -0.421875 -1.375 -1.265625q-0.5 -0.84375 -0.5 -2.09375l0 -13.671875l2.15625 0l0 13.609375q0 2.078125 1.9375 2.078125q0.5625 0 1.09375 -0.125q0.546875 -0.140625 1.21875 -0.390625l0.3125 1.578125q-0.71875 0.296875 -1.421875 0.5q-0.703125 0.203125 -1.46875 0.203125zm-5.984375 -12.21875l0 -1.515625l8.53125 0l0 1.515625l-8.53125 0zm17.246704 12.21875q-1.8125 0 -3.21875 -0.796875q-1.40625 -0.8125 -2.21875 -2.375q-0.8125 -1.5625 -0.8125 -3.859375q0 -2.3125 0.8125 -3.875q0.8125 -1.5625 2.21875 -2.359375q1.40625 -0.796875 3.21875 -0.796875q1.796875 0 3.203125 0.796875q1.40625 0.796875 2.203125 2.359375q0.8125 1.5625 0.8125 3.875q0 2.296875 -0.8125 3.859375q-0.796875 1.5625 -2.203125 2.375q-1.40625 0.796875 -3.203125 0.796875zm-0.0625 -1.90625q1.3125 0 2.21875 -0.625q0.90625 -0.625 1.375 -1.765625q0.46875 -1.15625 0.46875 -2.734375q0 -2.40625 -1.0 -3.78125q-0.984375 -1.375 -2.9375 -1.375q-1.328125 0 -2.234375 0.625q-0.890625 0.625 -1.359375 1.78125q-0.46875 1.15625 -0.46875 2.75q0 2.359375 1.0 3.75q1.0 1.375 2.9375 1.375z" fill-rule="nonzero"/><path fill="#ffffff" d="m396.27078 194.53084q-1.625 0 -2.984375 -0.875q-1.34375 -0.875 -2.15625 -2.46875q-0.8125 -1.59375 -0.8125 -3.75q0 -2.140625 0.796875 -3.703125q0.796875 -1.578125 2.109375 -2.421875q1.328125 -0.84375 2.90625 -0.84375q1.484375 0 2.59375 0.71875q1.109375 0.703125 1.71875 2.046875q0.625 1.34375 0.625 3.25l-0.84375 0q0 -1.328125 -0.53125 -2.234375q-0.515625 -0.90625 -1.359375 -1.375q-0.84375 -0.46875 -1.796875 -0.46875q-1.09375 0 -2.0 0.609375q-0.90625 0.609375 -1.453125 1.734375q-0.53125 1.125 -0.53125 2.6875q0 1.59375 0.53125 2.75q0.546875 1.140625 1.453125 1.765625q0.90625 0.609375 2.0 0.609375q0.90625 0 1.75 -0.46875q0.84375 -0.484375 1.390625 -1.390625q0.546875 -0.921875 0.546875 -2.234375l0.84375 0q0 1.953125 -0.640625 3.3125q-0.640625 1.34375 -1.734375 2.046875q-1.078125 0.703125 -2.421875 0.703125zm4.3125 -0.34375l-0.359375 -3.140625l0 -15.953125l2.1875 0l0 19.09375l-1.828125 0zm15.777435 0l-0.265625 -2.9375l0 -5.75q0 -1.796875 -0.78125 -2.578125q-0.765625 -0.796875 -2.3125 -0.796875q-0.859375 0 -1.578125 0.25q-0.703125 0.25 -1.125 0.78125q-0.40625 0.515625 -0.40625 1.34375l-2.421875 0q0 -1.453125 0.703125 -2.34375q0.71875 -0.890625 1.96875 -1.28125q1.25 -0.40625 2.859375 -0.40625q1.546875 0 2.734375 0.515625q1.1875 0.515625 1.859375 1.640625q0.671875 1.125 0.671875 2.9375l0 8.625l-1.90625 0zm-4.5625 0.34375q-1.640625 0 -2.71875 -0.59375q-1.078125 -0.59375 -1.609375 -1.53125q-0.53125 -0.9375 -0.53125 -1.96875q0 -1.359375 0.671875 -2.203125q0.671875 -0.859375 1.84375 -1.25q1.1875 -0.40625 2.65625 -0.40625q1.046875 0 2.109375 0.203125q1.0625 0.203125 2.0625 0.578125l0 1.375q-0.84375 -0.34375 -1.90625 -0.53125q-1.046875 -0.203125 -1.921875 -0.203125q-1.34375 0 -2.28125 0.5625q-0.921875 0.546875 -0.921875 1.875q0 0.984375 0.703125 1.6875q0.71875 0.6875 2.265625 0.6875q1.09375 0 1.96875 -0.5q0.875 -0.515625 1.390625 -1.28125q0.515625 -0.78125 0.515625 -1.546875l0.53125 0q0 1.34375 -0.59375 2.5q-0.578125 1.140625 -1.65625 1.84375q-1.078125 0.703125 -2.578125 0.703125zm15.804565 0q-1.078125 0 -1.953125 -0.421875q-0.875 -0.421875 -1.375 -1.265625q-0.5 -0.84375 -0.5 -2.09375l0 -13.671875l2.15625 0l0 13.609375q0 2.078125 1.9375 2.078125q0.5625 0 1.09375 -0.125q0.546875 -0.140625 1.21875 -0.390625l0.3125 1.578125q-0.71875 0.296875 -1.421875 0.5q-0.703125 0.203125 -1.46875 0.203125zm-5.984375 -12.21875l0 -1.515625l8.53125 0l0 1.515625l-8.53125 0zm20.684204 11.875l-0.265625 -2.9375l0 -5.75q0 -1.796875 -0.78125 -2.578125q-0.765625 -0.796875 -2.3125 -0.796875q-0.859375 0 -1.578125 0.25q-0.703125 0.25 -1.125 0.78125q-0.40625 0.515625 -0.40625 1.34375l-2.421875 0q0 -1.453125 0.703125 -2.34375q0.71875 -0.890625 1.96875 -1.28125q1.25 -0.40625 2.859375 -0.40625q1.546875 0 2.734375 0.515625q1.1875 0.515625 1.859375 1.640625q0.671875 1.125 0.671875 2.9375l0 8.625l-1.90625 0zm-4.5625 0.34375q-1.640625 0 -2.71875 -0.59375q-1.078125 -0.59375 -1.609375 -1.53125q-0.53125 -0.9375 -0.53125 -1.96875q0 -1.359375 0.671875 -2.203125q0.671875 -0.859375 1.84375 -1.25q1.1875 -0.40625 2.65625 -0.40625q1.046875 0 2.109375 0.203125q1.0625 0.203125 2.0625 0.578125l0 1.375q-0.84375 -0.34375 -1.90625 -0.53125q-1.046875 -0.203125 -1.921875 -0.203125q-1.34375 0 -2.28125 0.5625q-0.921875 0.546875 -0.921875 1.875q0 0.984375 0.703125 1.6875q0.71875 0.6875 2.265625 0.6875q1.09375 0 1.96875 -0.5q0.875 -0.515625 1.390625 -1.28125q0.515625 -0.78125 0.515625 -1.546875l0.53125 0q0 1.34375 -0.59375 2.5q-0.578125 1.140625 -1.65625 1.84375q-1.078125 0.703125 -2.578125 0.703125z" fill-rule="nonzero"/><path fill="#000000" fill-opacity="0.0" d="m644.6434 69.149605l278.6772 0l0 64.15748l-278.6772 0z" fill-rule="evenodd"/><path stroke="#ffffff" stroke-width="2.0" stroke-linejoin="round" stroke-linecap="butt" d="m644.6434 69.149605l278.6772 0l0 64.15748l-278.6772 0z" fill-rule="evenodd"/><path fill="#ffffff" d="m691.1745 92.182724l6.734375 0q3.15625 0 5.53125 1.28125q2.390625 1.265625 3.71875 3.609375q1.328125 2.328125 1.328125 5.5q0 3.15625 -1.328125 5.484375q-1.328125 2.328125 -3.71875 3.609375q-2.375 1.28125 -5.53125 1.28125l-6.734375 0l0 -20.765625zm3.78125 3.421875l0 13.953125l2.953125 0q2.015625 0 3.46875 -0.90625q1.46875 -0.921875 2.25 -2.5q0.796875 -1.578125 0.796875 -3.578125q0 -2.03125 -0.796875 -3.59375q-0.78125 -1.5625 -2.25 -2.46875q-1.453125 -0.90625 -3.46875 -0.90625l-2.953125 0zm23.983704 17.796875q-1.984375 0 -3.640625 -1.015625q-1.640625 -1.03125 -2.640625 -2.875q-0.984375 -1.859375 -0.984375 -4.34375q0 -2.5625 0.984375 -4.390625q0.984375 -1.84375 2.625 -2.8125q1.65625 -0.984375 3.65625 -0.984375q1.859375 0 3.203125 0.75q1.359375 0.734375 2.171875 2.015625q0.828125 1.265625 1.109375 2.875q0.296875 1.59375 0.046875 3.28125l-10.78125 0l0 -2.046875l8.109375 0l-0.734375 0.484375q0.046875 -0.75 -0.078125 -1.515625q-0.109375 -0.765625 -0.453125 -1.40625q-0.328125 -0.640625 -0.953125 -1.03125q-0.609375 -0.390625 -1.578125 -0.390625q-1.140625 0 -1.953125 0.578125q-0.796875 0.5625 -1.21875 1.5625q-0.40625 0.984375 -0.40625 2.234375l0 1.5q0 1.3125 0.390625 2.328125q0.390625 1.0 1.15625 1.578125q0.78125 0.578125 1.96875 0.578125q1.109375 0 1.859375 -0.5q0.75 -0.515625 0.953125 -1.546875l3.8125 0q-0.234375 1.5 -1.125 2.65625q-0.890625 1.140625 -2.296875 1.796875q-1.40625 0.640625 -3.203125 0.640625zm32.256897 -0.453125l0 -9.09375q0 -1.71875 -0.828125 -2.59375q-0.828125 -0.890625 -2.171875 -0.890625q-1.703125 0 -2.6875 1.375q-0.96875 1.375 -0.96875 4.15625l-1.5625 0q0 -2.4375 0.453125 -4.140625q0.453125 -1.703125 1.296875 -2.75q0.84375 -1.046875 1.96875 -1.53125q1.140625 -0.5 2.515625 -0.5q1.90625 0 3.1875 0.859375q1.296875 0.859375 1.953125 2.40625q0.65625 1.546875 0.65625 3.609375l0 9.09375l-3.8125 0zm-21.09375 0l0 -15.515625l3.296875 0l0.421875 2.65625q0.765625 -1.5625 2.03125 -2.328125q1.265625 -0.78125 2.890625 -0.78125q1.921875 0 3.203125 0.859375q1.296875 0.859375 1.9375 2.40625q0.65625 1.546875 0.65625 3.609375l0 9.09375l-3.78125 0l0 -9.09375q0 -1.71875 -0.828125 -2.59375q-0.828125 -0.890625 -2.171875 -0.890625q-1.140625 0 -2.015625 0.625q-0.859375 0.625 -1.359375 1.890625q-0.5 1.25 -0.5 3.125l0 6.9375l-3.78125 0zm36.493042 0.453125q-2.140625 0 -3.859375 -0.90625q-1.71875 -0.921875 -2.734375 -2.734375q-1.0 -1.828125 -1.0 -4.5625q0 -2.78125 1.0 -4.59375q1.015625 -1.828125 2.734375 -2.71875q1.71875 -0.90625 3.859375 -0.90625q2.09375 0 3.796875 0.90625q1.703125 0.890625 2.703125 2.71875q1.015625 1.8125 1.015625 4.59375q0 2.734375 -1.015625 4.5625q-1.0 1.8125 -2.703125 2.734375q-1.703125 0.90625 -3.796875 0.90625zm-0.140625 -3.296875q1.125 0 2.0 -0.546875q0.875 -0.5625 1.375 -1.640625q0.5 -1.09375 0.5 -2.71875q0 -2.453125 -0.96875 -3.703125q-0.96875 -1.25 -2.640625 -1.25q-1.140625 0 -2.03125 0.5625q-0.875 0.546875 -1.375 1.65625q-0.5 1.09375 -0.5 2.734375q0 2.4375 0.984375 3.671875q0.984375 1.234375 2.65625 1.234375zm18.01831 3.296875q-1.953125 0 -3.625 -1.015625q-1.671875 -1.015625 -2.703125 -2.859375q-1.03125 -1.859375 -1.03125 -4.359375q0 -2.640625 1.03125 -4.46875q1.03125 -1.828125 2.703125 -2.765625q1.671875 -0.953125 3.625 -0.953125q1.53125 0 2.6875 0.5q1.15625 0.484375 1.96875 1.3125q0.828125 0.8125 1.28125 1.828125q0.46875 1.0 0.59375 2.03125l-3.8125 0.09375q-0.25 -1.03125 -0.953125 -1.703125q-0.6875 -0.671875 -1.796875 -0.671875q-0.90625 0 -1.71875 0.515625q-0.796875 0.5 -1.296875 1.5625q-0.5 1.046875 -0.5 2.71875q0 1.609375 0.46875 2.671875q0.46875 1.0625 1.265625 1.609375q0.8125 0.53125 1.78125 0.53125q1.4375 0 2.09375 -0.703125q0.65625 -0.703125 0.65625 -1.859375l3.8125 0q0 1.640625 -0.75 3.0q-0.75 1.359375 -2.21875 2.171875q-1.453125 0.8125 -3.5625 0.8125zm11.053406 -0.453125l0 -15.578125l3.78125 0l0 15.578125l-3.78125 0zm2.859375 -6.8125q0 -3.0625 0.6875 -5.0625q0.6875 -2.0 1.84375 -2.96875q1.15625 -0.96875 2.578125 -0.96875q0.390625 0 0.734375 0.046875q0.34375 0.046875 0.6875 0.15625l-0.078125 3.765625q-0.40625 -0.09375 -0.890625 -0.15625q-0.484375 -0.0625 -0.859375 -0.0625q-1.25 0 -2.09375 0.609375q-0.84375 0.59375 -1.265625 1.765625q-0.421875 1.15625 -0.421875 2.875l-0.921875 0zm19.591248 6.8125l-0.46875 -3.78125l0 -6.234375q0 -1.625 -0.671875 -2.40625q-0.65625 -0.796875 -2.25 -0.796875q-0.90625 0 -1.578125 0.28125q-0.671875 0.265625 -1.03125 0.78125q-0.359375 0.5 -0.359375 1.21875l-4.125 0q0 -1.765625 0.84375 -2.875q0.84375 -1.109375 2.4375 -1.625q1.59375 -0.53125 3.8125 -0.53125q2.015625 0 3.515625 0.65625q1.515625 0.640625 2.34375 1.984375q0.828125 1.34375 0.828125 3.4375l0 9.890625l-3.296875 0zm-5.078125 0.453125q-2.0 0 -3.34375 -0.6875q-1.328125 -0.703125 -2.0 -1.84375q-0.671875 -1.140625 -0.671875 -2.46875q0 -1.46875 0.765625 -2.46875q0.78125 -1.0 2.203125 -1.5q1.421875 -0.515625 3.359375 -0.515625q1.265625 0 2.390625 0.203125q1.125 0.1875 2.25 0.515625l0 2.203125q-0.875 -0.296875 -1.921875 -0.453125q-1.03125 -0.15625 -1.953125 -0.15625q-1.34375 0 -2.203125 0.5q-0.859375 0.484375 -0.859375 1.671875q0 0.859375 0.703125 1.484375q0.703125 0.625 2.234375 0.625q1.171875 0 1.984375 -0.5q0.8125 -0.515625 1.234375 -1.28125q0.4375 -0.765625 0.4375 -1.546875l0.890625 0q0 1.6875 -0.625 3.109375q-0.625 1.40625 -1.859375 2.265625q-1.21875 0.84375 -3.015625 0.84375zm19.157532 0q-1.375 0 -2.515625 -0.515625q-1.140625 -0.515625 -1.828125 -1.5625q-0.671875 -1.0625 -0.671875 -2.6875l0 -15.328125l3.765625 0l0 15.1875q0 1.921875 1.828125 1.921875q0.5625 0 1.125 -0.125q0.5625 -0.125 1.28125 -0.390625l0.546875 2.65625q-0.90625 0.359375 -1.75 0.59375q-0.84375 0.25 -1.78125 0.25zm-7.1875 -13.484375l0 -2.484375l10.171875 0l0 2.484375l-10.171875 0zm16.780273 -5.34375q-1.109375 0 -1.734375 -0.578125q-0.609375 -0.578125 -0.609375 -1.625q0 -1.0 0.609375 -1.59375q0.625 -0.609375 1.734375 -0.609375q1.078125 0 1.703125 0.609375q0.625 0.59375 0.625 1.59375q0 1.046875 -0.625 1.625q-0.625 0.578125 -1.703125 0.578125zm-1.890625 18.375l0 -15.578125l3.78125 0l0 15.578125l-3.78125 0zm9.027283 0l0 -3.078125l8.0625 -9.40625l-8.0625 0l0 -3.03125l12.21875 0l0 3.03125l-7.8125 9.40625l7.8125 0l0 3.078125l-12.21875 0zm22.777527 0.453125q-1.984375 0 -3.640625 -1.015625q-1.640625 -1.03125 -2.640625 -2.875q-0.984375 -1.859375 -0.984375 -4.34375q0 -2.5625 0.984375 -4.390625q0.984375 -1.84375 2.625 -2.8125q1.65625 -0.984375 3.65625 -0.984375q1.859375 0 3.203125 0.75q1.359375 0.734375 2.171875 2.015625q0.828125 1.265625 1.109375 2.875q0.296875 1.59375 0.046875 3.28125l-10.78125 0l0 -2.046875l8.109375 0l-0.734375 0.484375q0.046875 -0.75 -0.078125 -1.515625q-0.109375 -0.765625 -0.453125 -1.40625q-0.328125 -0.640625 -0.953125 -1.03125q-0.609375 -0.390625 -1.578125 -0.390625q-1.140625 0 -1.953125 0.578125q-0.796875 0.5625 -1.21875 1.5625q-0.40625 0.984375 -0.40625 2.234375l0 1.5q0 1.3125 0.390625 2.328125q0.390625 1.0 1.15625 1.578125q0.78125 0.578125 1.96875 0.578125q1.109375 0 1.859375 -0.5q0.75 -0.515625 0.953125 -1.546875l3.8125 0q-0.234375 1.5 -1.125 2.65625q-0.890625 1.140625 -2.296875 1.796875q-1.40625 0.640625 -3.203125 0.640625z" fill-rule="nonzero"/><path fill="#000000" fill-opacity="0.0" d="m644.64307 133.30708l278.67712 0l0 113.543304l-278.67712 0z" fill-rule="evenodd"/><path stroke="#ffffff" stroke-width="2.0" stroke-linejoin="round" stroke-linecap="butt" d="m644.64307 133.30708l278.67712 0l0 113.543304l-278.67712 0z" fill-rule="evenodd"/><path fill="#ffffff" d="m660.1997 146.26521q1.5 0 2.9375 0.78125q1.453125 0.78125 2.265625 2.234375q0.8125 1.4375 0.8125 3.0q0 2.5 -1.765625 4.265625q-1.765625 1.765625 -4.25 1.765625q-2.5 0 -4.265625 -1.765625q-1.765625 -1.765625 -1.765625 -4.265625q0 -1.5625 0.796875 -3.0q0.8125 -1.453125 2.265625 -2.234375q1.453125 -0.78125 2.96875 -0.78125z" fill-rule="nonzero"/><path fill="#ffffff" d="m701.0962 160.53084q-1.765625 0 -3.234375 -0.640625q-1.46875 -0.640625 -2.375 -1.890625q-0.890625 -1.25 -0.90625 -3.078125l2.125 0q0 1.234375 0.59375 2.03125q0.609375 0.78125 1.59375 1.171875q1.0 0.375 2.171875 0.375q1.28125 0 2.21875 -0.390625q0.9375 -0.40625 1.4375 -1.078125q0.515625 -0.671875 0.515625 -1.46875q0 -1.109375 -0.6875 -1.796875q-0.671875 -0.703125 -2.015625 -1.140625l-3.109375 -1.09375q-2.1875 -0.78125 -3.3125 -1.78125q-1.109375 -1.015625 -1.109375 -2.828125q0 -2.046875 1.5625 -3.328125q1.578125 -1.296875 4.484375 -1.296875q2.6875 0 4.1875 1.25q1.515625 1.234375 1.75 3.3125l-2.15625 0q-0.21875 -1.21875 -1.15625 -1.890625q-0.921875 -0.6875 -2.625 -0.6875q-1.75 0 -2.71875 0.78125q-0.953125 0.765625 -0.953125 1.9375q0 0.96875 0.609375 1.53125q0.609375 0.5625 1.90625 1.015625l3.640625 1.265625q1.890625 0.625 2.984375 1.765625q1.109375 1.125 1.109375 2.9375q0 1.390625 -0.75 2.53125q-0.75 1.125 -2.21875 1.8125q-1.453125 0.671875 -3.5625 0.671875zm15.941528 0q-1.734375 0 -3.09375 -0.890625q-1.359375 -0.890625 -2.15625 -2.46875q-0.796875 -1.59375 -0.796875 -3.640625q0 -2.203125 0.78125 -3.78125q0.796875 -1.59375 2.15625 -2.4375q1.359375 -0.84375 3.109375 -0.84375q1.53125 0 2.609375 0.625q1.078125 0.609375 1.734375 1.65625q0.65625 1.046875 0.90625 2.375q0.265625 1.328125 0.15625 2.734375l-9.6875 0l0 -1.34375l8.25 0l-0.640625 0.421875q0.046875 -0.828125 -0.09375 -1.65625q-0.140625 -0.828125 -0.5 -1.515625q-0.359375 -0.6875 -1.015625 -1.109375q-0.65625 -0.421875 -1.6875 -0.421875q-1.28125 0 -2.15625 0.65625q-0.859375 0.65625 -1.296875 1.734375q-0.4375 1.0625 -0.4375 2.3125l0 0.890625q0 1.40625 0.421875 2.515625q0.4375 1.09375 1.28125 1.75q0.859375 0.640625 2.15625 0.640625q1.3125 0 2.140625 -0.625q0.84375 -0.640625 1.03125 -1.875l2.265625 0q-0.203125 1.328125 -0.953125 2.296875q-0.734375 0.953125 -1.890625 1.484375q-1.140625 0.515625 -2.59375 0.515625zm9.737305 -0.34375l0 -19.09375l2.1875 0l0 19.09375l-2.1875 0zm8.574341 0l0 -15.453125q0 -1.328125 0.5 -2.171875q0.515625 -0.859375 1.375 -1.265625q0.859375 -0.40625 1.921875 -0.40625q0.578125 0 1.171875 0.09375q0.59375 0.078125 1.1875 0.25l-0.421875 1.734375q-0.421875 -0.171875 -0.84375 -0.25q-0.40625 -0.09375 -0.78125 -0.09375q-0.453125 0 -0.90625 0.171875q-0.4375 0.171875 -0.734375 0.640625q-0.296875 0.453125 -0.296875 1.328125l0 15.421875l-2.171875 0zm-2.1875 -11.875l0 -1.515625l7.140625 0l0 1.515625l-7.140625 0zm9.277466 4.671875l0 -1.890625l7.625 0l0 1.890625l-7.625 0zm16.322083 7.546875q-1.9375 0 -3.25 -0.546875q-1.296875 -0.5625 -1.96875 -1.53125q-0.671875 -0.984375 -0.71875 -2.234375l2.109375 0q0.0625 1.265625 1.015625 1.90625q0.96875 0.640625 2.625 0.640625q0.859375 0 1.578125 -0.28125q0.734375 -0.28125 1.171875 -0.765625q0.4375 -0.5 0.4375 -1.109375q0 -0.796875 -0.578125 -1.234375q-0.578125 -0.453125 -1.828125 -0.78125l-2.609375 -0.84375q-1.6875 -0.53125 -2.59375 -1.453125q-0.90625 -0.9375 -0.90625 -2.25q0 -1.625 1.421875 -2.59375q1.4375 -0.984375 3.765625 -0.984375q2.453125 0 3.8125 1.015625q1.359375 1.0 1.421875 2.515625l-2.15625 0q-0.125 -0.890625 -0.90625 -1.34375q-0.765625 -0.453125 -2.171875 -0.453125q-1.359375 0 -2.125 0.609375q-0.765625 0.609375 -0.765625 1.34375q0 1.390625 2.375 2.046875l2.671875 0.90625q1.71875 0.515625 2.625 1.359375q0.921875 0.828125 0.921875 2.140625q0 1.0 -0.65625 1.90625q-0.65625 0.890625 -1.859375 1.453125q-1.203125 0.5625 -2.859375 0.5625zm14.542114 0q-1.734375 0 -3.09375 -0.890625q-1.359375 -0.890625 -2.15625 -2.46875q-0.796875 -1.59375 -0.796875 -3.640625q0 -2.203125 0.78125 -3.78125q0.796875 -1.59375 2.15625 -2.4375q1.359375 -0.84375 3.109375 -0.84375q1.53125 0 2.609375 0.625q1.078125 0.609375 1.734375 1.65625q0.65625 1.046875 0.90625 2.375q0.265625 1.328125 0.15625 2.734375l-9.6875 0l0 -1.34375l8.25 0l-0.640625 0.421875q0.046875 -0.828125 -0.09375 -1.65625q-0.140625 -0.828125 -0.5 -1.515625q-0.359375 -0.6875 -1.015625 -1.109375q-0.65625 -0.421875 -1.6875 -0.421875q-1.28125 0 -2.15625 0.65625q-0.859375 0.65625 -1.296875 1.734375q-0.4375 1.0625 -0.4375 2.3125l0 0.890625q0 1.40625 0.421875 2.515625q0.4375 1.09375 1.28125 1.75q0.859375 0.640625 2.15625 0.640625q1.3125 0 2.140625 -0.625q0.84375 -0.640625 1.03125 -1.875l2.265625 0q-0.203125 1.328125 -0.953125 2.296875q-0.734375 0.953125 -1.890625 1.484375q-1.140625 0.515625 -2.59375 0.515625zm9.737305 -0.34375l0 -13.40625l2.1875 0l0 13.40625l-2.1875 0zm1.515625 -6.046875q0 -2.546875 0.484375 -4.234375q0.484375 -1.6875 1.421875 -2.515625q0.953125 -0.84375 2.3125 -0.84375q0.453125 0 0.828125 0.0625q0.375 0.0625 0.75 0.1875l-0.140625 2.15625q-0.390625 -0.125 -0.859375 -0.203125q-0.453125 -0.09375 -0.828125 -0.09375q-1.1875 0 -1.921875 0.6875q-0.71875 0.671875 -1.046875 1.90625q-0.328125 1.21875 -0.328125 2.890625l-0.671875 0zm6.2781982 -7.34375l2.5 0l4.203125 11.515625l-0.3125 0l4.203125 -11.515625l2.484375 0l-5.34375 13.390625l-2.375 0l-5.359375 -13.390625zm17.632446 -3.15625q-0.671875 0 -1.0625 -0.375q-0.390625 -0.390625 -0.390625 -1.03125q0 -0.609375 0.390625 -0.96875q0.390625 -0.375 1.0625 -0.375q0.671875 0 1.0625 0.375q0.390625 0.359375 0.390625 0.96875q0 0.640625 -0.390625 1.03125q-0.390625 0.375 -1.0625 0.375zm-1.09375 16.546875l0 -13.40625l2.1875 0l0 13.40625l-2.1875 0zm12.906494 0.34375q-1.609375 0 -3.0 -0.875q-1.390625 -0.875 -2.25 -2.453125q-0.859375 -1.578125 -0.859375 -3.734375q0 -2.21875 0.859375 -3.78125q0.859375 -1.5625 2.25 -2.390625q1.390625 -0.828125 3.0 -0.828125q1.140625 0 2.03125 0.34375q0.90625 0.34375 1.578125 0.953125q0.671875 0.59375 1.109375 1.359375q0.453125 0.765625 0.65625 1.59375l-2.234375 0.203125q-0.359375 -1.171875 -1.171875 -1.84375q-0.8125 -0.671875 -2.0 -0.671875q-0.984375 0 -1.859375 0.5625q-0.875 0.5625 -1.421875 1.6875q-0.546875 1.125 -0.546875 2.8125q0 1.546875 0.484375 2.6875q0.5 1.140625 1.359375 1.78125q0.875 0.625 1.984375 0.625q1.5625 0 2.359375 -0.765625q0.8125 -0.765625 0.8125 -2.125l2.234375 0q0 1.40625 -0.65625 2.5q-0.65625 1.09375 -1.875 1.734375q-1.203125 0.625 -2.84375 0.625zm14.385437 0q-1.734375 0 -3.09375 -0.890625q-1.359375 -0.890625 -2.15625 -2.46875q-0.796875 -1.59375 -0.796875 -3.640625q0 -2.203125 0.78125 -3.78125q0.796875 -1.59375 2.15625 -2.4375q1.359375 -0.84375 3.109375 -0.84375q1.53125 0 2.609375 0.625q1.078125 0.609375 1.734375 1.65625q0.65625 1.046875 0.90625 2.375q0.265625 1.328125 0.15625 2.734375l-9.6875 0l0 -1.34375l8.25 0l-0.640625 0.421875q0.046875 -0.828125 -0.09375 -1.65625q-0.140625 -0.828125 -0.5 -1.515625q-0.359375 -0.6875 -1.015625 -1.109375q-0.65625 -0.421875 -1.6875 -0.421875q-1.28125 0 -2.15625 0.65625q-0.859375 0.65625 -1.296875 1.734375q-0.4375 1.0625 -0.4375 2.3125l0 0.890625q0 1.40625 0.421875 2.515625q0.4375 1.09375 1.28125 1.75q0.859375 0.640625 2.15625 0.640625q1.3125 0 2.140625 -0.625q0.84375 -0.640625 1.03125 -1.875l2.265625 0q-0.203125 1.328125 -0.953125 2.296875q-0.734375 0.953125 -1.890625 1.484375q-1.140625 0.515625 -2.59375 0.515625zm21.168518 0q-1.625 0 -2.984375 -0.875q-1.34375 -0.875 -2.15625 -2.46875q-0.8125 -1.59375 -0.8125 -3.75q0 -2.140625 0.796875 -3.703125q0.796875 -1.578125 2.109375 -2.421875q1.328125 -0.84375 2.90625 -0.84375q1.484375 0 2.59375 0.71875q1.109375 0.703125 1.71875 2.046875q0.625 1.34375 0.625 3.25l-0.84375 0q0 -1.328125 -0.53125 -2.234375q-0.515625 -0.90625 -1.359375 -1.375q-0.84375 -0.46875 -1.796875 -0.46875q-1.09375 0 -2.0 0.609375q-0.90625 0.609375 -1.453125 1.734375q-0.53125 1.125 -0.53125 2.6875q0 1.59375 0.53125 2.75q0.546875 1.140625 1.453125 1.765625q0.90625 0.609375 2.0 0.609375q0.90625 0 1.75 -0.46875q0.84375 -0.484375 1.390625 -1.390625q0.546875 -0.921875 0.546875 -2.234375l0.84375 0q0 1.953125 -0.640625 3.3125q-0.640625 1.34375 -1.734375 2.046875q-1.078125 0.703125 -2.421875 0.703125zm4.3125 -0.34375l-0.359375 -3.140625l0 -15.953125l2.1875 0l0 19.09375l-1.828125 0zm15.777466 0l-0.265625 -2.9375l0 -5.75q0 -1.796875 -0.78125 -2.578125q-0.765625 -0.796875 -2.3125 -0.796875q-0.859375 0 -1.578125 0.25q-0.703125 0.25 -1.125 0.78125q-0.40625 0.515625 -0.40625 1.34375l-2.421875 0q0 -1.453125 0.703125 -2.34375q0.71875 -0.890625 1.96875 -1.28125q1.25 -0.40625 2.859375 -0.40625q1.546875 0 2.734375 0.515625q1.1875 0.515625 1.859375 1.640625q0.671875 1.125 0.671875 2.9375l0 8.625l-1.90625 0zm-4.5625 0.34375q-1.640625 0 -2.71875 -0.59375q-1.078125 -0.59375 -1.609375 -1.53125q-0.53125 -0.9375 -0.53125 -1.96875q0 -1.359375 0.671875 -2.203125q0.671875 -0.859375 1.84375 -1.25q1.1875 -0.40625 2.65625 -0.40625q1.046875 0 2.109375 0.203125q1.0625 0.203125 2.0625 0.578125l0 1.375q-0.84375 -0.34375 -1.90625 -0.53125q-1.046875 -0.203125 -1.921875 -0.203125q-1.34375 0 -2.28125 0.5625q-0.921875 0.546875 -0.921875 1.875q0 0.984375 0.703125 1.6875q0.71875 0.6875 2.265625 0.6875q1.09375 0 1.96875 -0.5q0.875 -0.515625 1.390625 -1.28125q0.515625 -0.78125 0.515625 -1.546875l0.53125 0q0 1.34375 -0.59375 2.5q-0.578125 1.140625 -1.65625 1.84375q-1.078125 0.703125 -2.578125 0.703125zm15.804565 0q-1.078125 0 -1.953125 -0.421875q-0.875 -0.421875 -1.375 -1.265625q-0.5 -0.84375 -0.5 -2.09375l0 -13.671875l2.15625 0l0 13.609375q0 2.078125 1.9375 2.078125q0.5625 0 1.09375 -0.125q0.546875 -0.140625 1.21875 -0.390625l0.3125 1.578125q-0.71875 0.296875 -1.421875 0.5q-0.703125 0.203125 -1.46875 0.203125zm-5.984375 -12.21875l0 -1.515625l8.53125 0l0 1.515625l-8.53125 0zm20.684204 11.875l-0.265625 -2.9375l0 -5.75q0 -1.796875 -0.78125 -2.578125q-0.765625 -0.796875 -2.3125 -0.796875q-0.859375 0 -1.578125 0.25q-0.703125 0.25 -1.125 0.78125q-0.40625 0.515625 -0.40625 1.34375l-2.421875 0q0 -1.453125 0.703125 -2.34375q0.71875 -0.890625 1.96875 -1.28125q1.25 -0.40625 2.859375 -0.40625q1.546875 0 2.734375 0.515625q1.1875 0.515625 1.859375 1.640625q0.671875 1.125 0.671875 2.9375l0 8.625l-1.90625 0zm-4.5625 0.34375q-1.640625 0 -2.71875 -0.59375q-1.078125 -0.59375 -1.609375 -1.53125q-0.53125 -0.9375 -0.53125 -1.96875q0 -1.359375 0.671875 -2.203125q0.671875 -0.859375 1.84375 -1.25q1.1875 -0.40625 2.65625 -0.40625q1.046875 0 2.109375 0.203125q1.0625 0.203125 2.0625 0.578125l0 1.375q-0.84375 -0.34375 -1.90625 -0.53125q-1.046875 -0.203125 -1.921875 -0.203125q-1.34375 0 -2.28125 0.5625q-0.921875 0.546875 -0.921875 1.875q0 0.984375 0.703125 1.6875q0.71875 0.6875 2.265625 0.6875q1.09375 0 1.96875 -0.5q0.875 -0.515625 1.390625 -1.28125q0.515625 -0.78125 0.515625 -1.546875l0.53125 0q0 1.34375 -0.59375 2.5q-0.578125 1.140625 -1.65625 1.84375q-1.078125 0.703125 -2.578125 0.703125z" fill-rule="nonzero"/><path fill="#ffffff" d="m700.1743 194.53084q-1.609375 0 -3.0 -0.875q-1.390625 -0.875 -2.25 -2.453125q-0.859375 -1.578125 -0.859375 -3.734375q0 -2.21875 0.859375 -3.78125q0.859375 -1.5625 2.25 -2.390625q1.390625 -0.828125 3.0 -0.828125q1.140625 0 2.03125 0.34375q0.90625 0.34375 1.578125 0.953125q0.671875 0.59375 1.109375 1.359375q0.453125 0.765625 0.65625 1.59375l-2.234375 0.203125q-0.359375 -1.171875 -1.171875 -1.84375q-0.8125 -0.671875 -2.0 -0.671875q-0.984375 0 -1.859375 0.5625q-0.875 0.5625 -1.421875 1.6875q-0.546875 1.125 -0.546875 2.8125q0 1.546875 0.484375 2.6875q0.5 1.140625 1.359375 1.78125q0.875 0.625 1.984375 0.625q1.5625 0 2.359375 -0.765625q0.8125 -0.765625 0.8125 -2.125l2.234375 0q0 1.40625 -0.65625 2.5q-0.65625 1.09375 -1.875 1.734375q-1.203125 0.625 -2.84375 0.625zm18.838562 -13.75l2.1875 0l0 13.40625l-2.1875 0l0 -13.40625zm-9.484375 0l2.1875 0l0 8.34375q0 1.671875 0.8125 2.546875q0.828125 0.859375 2.34375 0.859375q1.265625 0 2.1875 -0.671875q0.9375 -0.671875 1.4375 -1.84375q0.515625 -1.1875 0.515625 -2.71875l0.8125 0q0 2.25 -0.65625 3.859375q-0.640625 1.59375 -1.828125 2.4375q-1.171875 0.84375 -2.78125 0.84375q-1.5 0 -2.640625 -0.5625q-1.125 -0.5625 -1.765625 -1.703125q-0.625 -1.140625 -0.625 -2.890625l0 -8.5zm17.344543 13.40625l0 -19.09375l2.1875 0l0 19.09375l-2.1875 0zm11.949341 0.34375q-1.078125 0 -1.953125 -0.421875q-0.875 -0.421875 -1.375 -1.265625q-0.5 -0.84375 -0.5 -2.09375l0 -13.671875l2.15625 0l0 13.609375q0 2.078125 1.9375 2.078125q0.5625 0 1.09375 -0.125q0.546875 -0.140625 1.21875 -0.390625l0.3125 1.578125q-0.71875 0.296875 -1.421875 0.5q-0.703125 0.203125 -1.46875 0.203125zm-5.984375 -12.21875l0 -1.515625l8.53125 0l0 1.515625l-8.53125 0zm21.496704 -1.53125l2.1875 0l0 13.40625l-2.1875 0l0 -13.40625zm-9.484375 0l2.1875 0l0 8.34375q0 1.671875 0.8125 2.546875q0.828125 0.859375 2.34375 0.859375q1.265625 0 2.1875 -0.671875q0.9375 -0.671875 1.4375 -1.84375q0.515625 -1.1875 0.515625 -2.71875l0.8125 0q0 2.25 -0.65625 3.859375q-0.640625 1.59375 -1.828125 2.4375q-1.171875 0.84375 -2.78125 0.84375q-1.5 0 -2.640625 -0.5625q-1.125 -0.5625 -1.765625 -1.703125q-0.625 -1.140625 -0.625 -2.890625l0 -8.5zm17.344543 13.40625l0 -13.40625l2.1875 0l0 13.40625l-2.1875 0zm1.515625 -6.046875q0 -2.546875 0.484375 -4.234375q0.484375 -1.6875 1.421875 -2.515625q0.953125 -0.84375 2.3125 -0.84375q0.453125 0 0.828125 0.0625q0.375 0.0625 0.75 0.1875l-0.140625 2.15625q-0.390625 -0.125 -0.859375 -0.203125q-0.453125 -0.09375 -0.828125 -0.09375q-1.1875 0 -1.921875 0.6875q-0.71875 0.671875 -1.046875 1.90625q-0.328125 1.21875 -0.328125 2.890625l-0.671875 0zm13.246948 6.390625q-1.734375 0 -3.09375 -0.890625q-1.359375 -0.890625 -2.15625 -2.46875q-0.796875 -1.59375 -0.796875 -3.640625q0 -2.203125 0.78125 -3.78125q0.796875 -1.59375 2.15625 -2.4375q1.359375 -0.84375 3.109375 -0.84375q1.53125 0 2.609375 0.625q1.078125 0.609375 1.734375 1.65625q0.65625 1.046875 0.90625 2.375q0.265625 1.328125 0.15625 2.734375l-9.6875 0l0 -1.34375l8.25 0l-0.640625 0.421875q0.046875 -0.828125 -0.09375 -1.65625q-0.140625 -0.828125 -0.5 -1.515625q-0.359375 -0.6875 -1.015625 -1.109375q-0.65625 -0.421875 -1.6875 -0.421875q-1.28125 0 -2.15625 0.65625q-0.859375 0.65625 -1.296875 1.734375q-0.4375 1.0625 -0.4375 2.3125l0 0.890625q0 1.40625 0.421875 2.515625q0.4375 1.09375 1.28125 1.75q0.859375 0.640625 2.15625 0.640625q1.3125 0 2.140625 -0.625q0.84375 -0.640625 1.03125 -1.875l2.265625 0q-0.203125 1.328125 -0.953125 2.296875q-0.734375 0.953125 -1.890625 1.484375q-1.140625 0.515625 -2.59375 0.515625z" fill-rule="nonzero"/><path fill="#000000" fill-opacity="0.0" d="m36.680107 69.149605l278.67715 0l0 64.15748l-278.67715 0z" fill-rule="evenodd"/><path stroke="#ffffff" stroke-width="2.0" stroke-linejoin="round" stroke-linecap="butt" d="m36.680107 69.149605l278.67715 0l0 64.15748l-278.67715 0z" fill-rule="evenodd"/><path fill="#ffffff" d="m85.28326 92.182724l6.734375 0q3.15625 0 5.53125 1.28125q2.390625 1.265625 3.71875 3.609375q1.328125 2.328125 1.328125 5.5q0 3.15625 -1.328125 5.484375q-1.328125 2.328125 -3.71875 3.609375q-2.375 1.28125 -5.53125 1.28125l-6.734375 0l0 -20.765625zm3.78125 3.421875l0 13.953125l2.953125 0q2.015625 0 3.46875 -0.90625q1.46875 -0.921875 2.25 -2.5q0.796875 -1.578125 0.796875 -3.578125q0 -2.03125 -0.796875 -3.59375q-0.78125 -1.5625 -2.25 -2.46875q-1.453125 -0.90625 -3.46875 -0.90625l-2.953125 0zm28.077423 17.34375l-0.46875 -3.78125l0 -6.234375q0 -1.625 -0.671875 -2.40625q-0.65625 -0.796875 -2.25 -0.796875q-0.90625 0 -1.578125 0.28125q-0.671875 0.265625 -1.03125 0.78125q-0.359375 0.5 -0.359375 1.21875l-4.125 0q0 -1.765625 0.84375 -2.875q0.84375 -1.109375 2.4375 -1.625q1.59375 -0.53125 3.8125 -0.53125q2.015625 0 3.515625 0.65625q1.515625 0.640625 2.34375 1.984375q0.828125 1.34375 0.828125 3.4375l0 9.890625l-3.296875 0zm-5.078125 0.453125q-2.0 0 -3.34375 -0.6875q-1.328125 -0.703125 -2.0 -1.84375q-0.671875 -1.140625 -0.671875 -2.46875q0 -1.46875 0.765625 -2.46875q0.78125 -1.0 2.203125 -1.5q1.421875 -0.515625 3.359375 -0.515625q1.265625 0 2.390625 0.203125q1.125 0.1875 2.25 0.515625l0 2.203125q-0.875 -0.296875 -1.921875 -0.453125q-1.03125 -0.15625 -1.953125 -0.15625q-1.34375 0 -2.203125 0.5q-0.859375 0.484375 -0.859375 1.671875q0 0.859375 0.703125 1.484375q0.703125 0.625 2.234375 0.625q1.171875 0 1.984375 -0.5q0.8125 -0.515625 1.234375 -1.28125q0.4375 -0.765625 0.4375 -1.546875l0.890625 0q0 1.6875 -0.625 3.109375q-0.625 1.40625 -1.859375 2.265625q-1.21875 0.84375 -3.015625 0.84375zm19.157524 0q-1.375 0 -2.515625 -0.515625q-1.1406174 -0.515625 -1.8281174 -1.5625q-0.671875 -1.0625 -0.671875 -2.6875l0 -15.328125l3.7656174 0l0 15.1875q0 1.921875 1.828125 1.921875q0.5625 0 1.125 -0.125q0.5625 -0.125 1.28125 -0.390625l0.546875 2.65625q-0.90625 0.359375 -1.75 0.59375q-0.84375 0.25 -1.78125 0.25zm-7.1874924 -13.484375l0 -2.484375l10.171867 0l0 2.484375l-10.171867 0zm24.45214 13.03125l-0.46875 -3.78125l0 -6.234375q0 -1.625 -0.671875 -2.40625q-0.65625 -0.796875 -2.25 -0.796875q-0.90625 0 -1.578125 0.28125q-0.671875 0.265625 -1.03125 0.78125q-0.359375 0.5 -0.359375 1.21875l-4.125 0q0 -1.765625 0.84375 -2.875q0.84375 -1.109375 2.4375 -1.625q1.59375 -0.53125 3.8125 -0.53125q2.015625 0 3.515625 0.65625q1.515625 0.640625 2.34375 1.984375q0.828125 1.34375 0.828125 3.4375l0 9.890625l-3.296875 0zm-5.078125 0.453125q-2.0 0 -3.34375 -0.6875q-1.328125 -0.703125 -2.0 -1.84375q-0.671875 -1.140625 -0.671875 -2.46875q0 -1.46875 0.765625 -2.46875q0.78125 -1.0 2.203125 -1.5q1.421875 -0.515625 3.359375 -0.515625q1.265625 0 2.390625 0.203125q1.125 0.1875 2.25 0.515625l0 2.203125q-0.875 -0.296875 -1.921875 -0.453125q-1.03125 -0.15625 -1.953125 -0.15625q-1.34375 0 -2.203125 0.5q-0.859375 0.484375 -0.859375 1.671875q0 0.859375 0.703125 1.484375q0.703125 0.625 2.234375 0.625q1.171875 0 1.984375 -0.5q0.8125 -0.515625 1.234375 -1.28125q0.4375 -0.765625 0.4375 -1.546875l0.890625 0q0 1.6875 -0.625 3.109375q-0.625 1.40625 -1.859375 2.265625q-1.21875 0.84375 -3.015625 0.84375zm27.80043 0q-1.90625 0 -3.5625 -0.96875q-1.65625 -0.984375 -2.6875 -2.828125q-1.015625 -1.84375 -1.015625 -4.4375q0 -2.578125 1.0 -4.40625q1.015625 -1.828125 2.625 -2.796875q1.625 -0.984375 3.453125 -0.984375q1.5 0 2.765625 0.75q1.265625 0.75 2.03125 2.3125q0.765625 1.5625 0.765625 4.015625l-1.40625 0q0 -1.171875 -0.46875 -2.0q-0.46875 -0.828125 -1.265625 -1.25q-0.796875 -0.4375 -1.75 -0.4375q-1.140625 0 -2.03125 0.578125q-0.875 0.578125 -1.390625 1.65625q-0.515625 1.078125 -0.515625 2.5625q0 1.640625 0.59375 2.703125q0.609375 1.0625 1.53125 1.59375q0.921875 0.515625 1.875 0.515625q0.875 0 1.65625 -0.390625q0.796875 -0.40625 1.28125 -1.140625q0.484375 -0.734375 0.484375 -1.765625l0.734375 0q0 1.984375 -0.46875 3.5q-0.453125 1.5 -1.484375 2.359375q-1.03125 0.859375 -2.75 0.859375zm8.796875 7.578125q-2.609375 -0.65625 -3.71875 -2.046875q-1.109375 -1.390625 -1.109375 -3.875l0 -13.796875l1.34375 -3.828125l2.4375 0l0 17.921875q0 0.9375 0.1875 1.46875q0.1875 0.546875 0.65625 0.84375q0.484375 0.3125 1.296875 0.5625l-1.09375 2.75zm15.270035 -23.609375l3.78125 0l0 15.578125l-3.78125 0l0 -15.578125zm-10.65625 0l3.78125 0l0 9.53125q0 1.515625 0.75 2.28125q0.75 0.75 2.0625 0.75q1.125 0 2.03125 -0.578125q0.921875 -0.578125 1.46875 -1.71875q0.5625 -1.15625 0.5625 -2.84375l1.03125 0q0 2.84375 -0.75 4.71875q-0.734375 1.875 -2.03125 2.796875q-1.296875 0.921875 -2.984375 0.921875q-1.671875 0 -3.015625 -0.578125q-1.34375 -0.59375 -2.125 -1.90625q-0.78125 -1.3125 -0.78125 -3.453125l0 -9.921875zm30.267166 15.578125l-0.46875 -3.78125l0 -6.234375q0 -1.625 -0.671875 -2.40625q-0.65625 -0.796875 -2.25 -0.796875q-0.90625 0 -1.578125 0.28125q-0.671875 0.265625 -1.03125 0.78125q-0.359375 0.5 -0.359375 1.21875l-4.125 0q0 -1.765625 0.84375 -2.875q0.84375 -1.109375 2.4375 -1.625q1.59375 -0.53125 3.8125 -0.53125q2.015625 0 3.515625 0.65625q1.515625 0.640625 2.34375 1.984375q0.828125 1.34375 0.828125 3.4375l0 9.890625l-3.296875 0zm-5.078125 0.453125q-2.0 0 -3.34375 -0.6875q-1.328125 -0.703125 -2.0 -1.84375q-0.671875 -1.140625 -0.671875 -2.46875q0 -1.46875 0.765625 -2.46875q0.78125 -1.0 2.203125 -1.5q1.421875 -0.515625 3.359375 -0.515625q1.265625 0 2.390625 0.203125q1.125 0.1875 2.25 0.515625l0 2.203125q-0.875 -0.296875 -1.921875 -0.453125q-1.03125 -0.15625 -1.953125 -0.15625q-1.34375 0 -2.203125 0.5q-0.859375 0.484375 -0.859375 1.671875q0 0.859375 0.703125 1.484375q0.703125 0.625 2.234375 0.625q1.171875 0 1.984375 -0.5q0.8125 -0.515625 1.234375 -1.28125q0.4375 -0.765625 0.4375 -1.546875l0.890625 0q0 1.6875 -0.625 3.109375q-0.625 1.40625 -1.859375 2.265625q-1.21875 0.84375 -3.015625 0.84375zm13.907532 -0.453125l0 -21.953125l3.78125 0l0 21.953125l-3.78125 0zm11.962769 -18.375q-1.109375 0 -1.734375 -0.578125q-0.609375 -0.578125 -0.609375 -1.625q0 -1.0 0.609375 -1.59375q0.625 -0.609375 1.734375 -0.609375q1.078125 0 1.703125 0.609375q0.625 0.59375 0.625 1.59375q0 1.046875 -0.625 1.625q-0.625 0.578125 -1.703125 0.578125zm-1.890625 18.375l0 -15.578125l3.78125 0l0 15.578125l-3.78125 0zm15.417892 0.453125q-1.375 0 -2.515625 -0.515625q-1.140625 -0.515625 -1.828125 -1.5625q-0.671875 -1.0625 -0.671875 -2.6875l0 -15.328125l3.765625 0l0 15.1875q0 1.921875 1.828125 1.921875q0.5625 0 1.125 -0.125q0.5625 -0.125 1.28125 -0.390625l0.546875 2.65625q-0.90625 0.359375 -1.75 0.59375q-0.84375 0.25 -1.78125 0.25zm-7.1875 -13.484375l0 -2.484375l10.171875 0l0 2.484375l-10.171875 0zm12.202148 -2.484375l4.2812653 0l4.140625 12.21875l-0.671875 0l3.546875 -12.21875l3.84375 0l-5.953125 18.328125q-0.921875 2.75 -2.265625 3.984375q-1.328125 1.234375 -3.25 1.234375q-1.09375 0 -2.1406403 -0.25q-1.046875 -0.25 -2.140625 -0.765625l0 -3.328125q0.875 0.53125 1.703125 0.78125q0.82814026 0.265625 1.6562653 0.265625q0.75 0 1.3125 -0.40625q0.578125 -0.40625 0.984375 -1.140625q0.421875 -0.71875 0.71875 -1.6875l0.46875 -1.5l-6.2343903 -15.515625z" fill-rule="nonzero"/><path fill="#000000" fill-opacity="0.0" d="m36.67979 133.30708l278.6772 0l0 113.543304l-278.6772 0z" fill-rule="evenodd"/><path stroke="#ffffff" stroke-width="2.0" stroke-linejoin="round" stroke-linecap="butt" d="m36.67979 133.30708l278.6772 0l0 113.543304l-278.6772 0z" fill-rule="evenodd"/><path fill="#ffffff" d="m52.23643 146.26521q1.5 0 2.9375 0.78125q1.453125 0.78125 2.265625 2.234375q0.8125 1.4375 0.8125 3.0q0 2.5 -1.765625 4.265625q-1.765625 1.765625 -4.25 1.765625q-2.5 0 -4.265625 -1.765625q-1.765625 -1.765625 -1.765625 -4.265625q0 -1.5625 0.796875 -3.0q0.8125 -1.453125 2.265625 -2.234375q1.453125 -0.78125 2.96875 -0.78125z" fill-rule="nonzero"/><path fill="#ffffff" d="m87.50791 160.18709l0 -17.578125l6.578125 0q1.9375 0 3.203125 0.640625q1.28125 0.625 1.90625 1.671875q0.625 1.046875 0.625 2.28125q0 1.5 -0.828125 2.625q-0.828125 1.109375 -2.5 1.515625q1.078125 0.15625 1.890625 0.765625q0.828125 0.59375 1.28125 1.453125q0.46875 0.859375 0.46875 1.84375q0 0.890625 -0.296875 1.75q-0.296875 0.84375 -1.0 1.53125q-0.703125 0.6875 -1.875 1.09375q-1.15625 0.40625 -2.875 0.40625l-6.578125 0zm2.1875 -1.90625l4.359375 0q2.0 0 2.875 -0.828125q0.875 -0.84375 0.875 -2.171875q0 -1.328125 -0.953125 -2.125q-0.9375 -0.8125 -2.796875 -0.8125l-4.359375 0l0 5.9375zm0 -13.796875l0 5.984375l4.3125 0q1.640625 0 2.609375 -0.796875q0.96875 -0.8125 0.96875 -2.28125q0 -1.375 -0.953125 -2.140625q-0.9375 -0.765625 -2.59375 -0.765625l-4.34375 0zm24.308182 2.296875l2.1875 0l0 13.40625l-2.1875 0l0 -13.40625zm-9.484375 0l2.1875 0l0 8.34375q0 1.671875 0.8125 2.546875q0.828125 0.859375 2.34375 0.859375q1.265625 0 2.1875 -0.671875q0.9375 -0.671875 1.4375 -1.84375q0.515625 -1.1875 0.515625 -2.71875l0.8125 0q0 2.25 -0.65625 3.859375q-0.640625 1.59375 -1.828125 2.4375q-1.171875 0.84375 -2.78125 0.84375q-1.5 0 -2.640625 -0.5625q-1.125 -0.5625 -1.765625 -1.703125q-0.625 -1.140625 -0.625 -2.890625l0 -8.5zm18.578934 -3.140625q-0.671875 0 -1.0625 -0.375q-0.390625 -0.390625 -0.390625 -1.03125q0 -0.609375 0.390625 -0.96875q0.390625 -0.375 1.0625 -0.375q0.671875 0 1.0625 0.375q0.390625 0.359375 0.390625 0.96875q0 0.640625 -0.390625 1.03125q-0.390625 0.375 -1.0625 0.375zm-1.09375 16.546875l0 -13.40625l2.1875 0l0 13.40625l-2.1875 0zm8.203346 0l0 -19.09375l2.1875 0l0 19.09375l-2.1875 0zm12.621216 0.34375q-1.625 0 -2.984375 -0.875q-1.34375 -0.875 -2.15625 -2.46875q-0.8125 -1.59375 -0.8125 -3.75q0 -2.140625 0.796875 -3.703125q0.796875 -1.578125 2.109375 -2.421875q1.328125 -0.84375 2.90625 -0.84375q1.484375 0 2.59375 0.71875q1.109375 0.703125 1.71875 2.046875q0.625 1.34375 0.625 3.25l-0.84375 0q0 -1.328125 -0.53125 -2.234375q-0.515625 -0.90625 -1.359375 -1.375q-0.84375 -0.46875 -1.796875 -0.46875q-1.09375 0 -2.0 0.609375q-0.90625 0.609375 -1.453125 1.734375q-0.53125 1.125 -0.53125 2.6875q0 1.59375 0.53125 2.75q0.546875 1.140625 1.453125 1.765625q0.90625 0.609375 2.0 0.609375q0.90625 0 1.75 -0.46875q0.84375 -0.484375 1.390625 -1.390625q0.546875 -0.921875 0.546875 -2.234375l0.84375 0q0 1.953125 -0.640625 3.3125q-0.640625 1.34375 -1.734375 2.046875q-1.078125 0.703125 -2.421875 0.703125zm4.3125 -0.34375l-0.359375 -3.140625l0 -15.953125l2.1875 0l0 19.09375l-1.828125 0zm18.255539 0.34375q-1.078125 0 -1.953125 -0.421875q-0.875 -0.421875 -1.375 -1.265625q-0.5 -0.84375 -0.5 -2.09375l0 -13.671875l2.15625 0l0 13.609375q0 2.078125 1.9375 2.078125q0.5625 0 1.09375 -0.125q0.546875 -0.140625 1.21875 -0.390625l0.3125 1.578125q-0.71875 0.296875 -1.421875 0.5q-0.703125 0.203125 -1.46875 0.203125zm-5.984375 -12.21875l0 -1.515625l8.53125 0l0 1.515625l-8.53125 0zm12.402954 11.875l0 -13.40625l2.1875 0l0 13.40625l-2.1875 0zm1.515625 -6.046875q0 -2.546875 0.484375 -4.234375q0.484375 -1.6875 1.421875 -2.515625q0.953125 -0.84375 2.3125 -0.84375q0.453125 0 0.828125 0.0625q0.375 0.0625 0.75 0.1875l-0.140625 2.15625q-0.390625 -0.125 -0.859375 -0.203125q-0.453125 -0.09375 -0.828125 -0.09375q-1.1875 0 -1.921875 0.6875q-0.71875 0.671875 -1.046875 1.90625q-0.328125 1.21875 -0.328125 2.890625l-0.671875 0zm17.700089 -7.359375l2.1875 0l0 13.40625l-2.1875 0l0 -13.40625zm-9.484375 0l2.1875 0l0 8.34375q0 1.671875 0.8125 2.546875q0.828125 0.859375 2.34375 0.859375q1.265625 0 2.1875 -0.671875q0.9375 -0.671875 1.4375 -1.84375q0.515625 -1.1875 0.515625 -2.71875l0.8125 0q0 2.25 -0.65625 3.859375q-0.640625 1.59375 -1.828125 2.4375q-1.171875 0.84375 -2.78125 0.84375q-1.5 0 -2.640625 -0.5625q-1.125 -0.5625 -1.765625 -1.703125q-0.625 -1.140625 -0.625 -2.890625l0 -8.5zm22.157059 13.75q-1.9375 0 -3.25 -0.546875q-1.296875 -0.5625 -1.96875 -1.53125q-0.671875 -0.984375 -0.71875 -2.234375l2.109375 0q0.0625 1.265625 1.015625 1.90625q0.96875 0.640625 2.625 0.640625q0.859375 0 1.578125 -0.28125q0.734375 -0.28125 1.171875 -0.765625q0.4375 -0.5 0.4375 -1.109375q0 -0.796875 -0.578125 -1.234375q-0.578125 -0.453125 -1.828125 -0.78125l-2.609375 -0.84375q-1.6875 -0.53125 -2.59375 -1.453125q-0.90625 -0.9375 -0.90625 -2.25q0 -1.625 1.421875 -2.59375q1.4375 -0.984375 3.765625 -0.984375q2.453125 0 3.8125 1.015625q1.359375 1.0 1.421875 2.515625l-2.15625 0q-0.125 -0.890625 -0.90625 -1.34375q-0.765625 -0.453125 -2.171875 -0.453125q-1.359375 0 -2.125 0.609375q-0.765625 0.609375 -0.765625 1.34375q0 1.390625 2.375 2.046875l2.671875 0.90625q1.71875 0.515625 2.625 1.359375q0.921875 0.828125 0.921875 2.140625q0 1.0 -0.65625 1.90625q-0.65625 0.890625 -1.859375 1.453125q-1.203125 0.5625 -2.859375 0.5625zm14.0108185 0q-1.078125 0 -1.953125 -0.421875q-0.875 -0.421875 -1.375 -1.265625q-0.5 -0.84375 -0.5 -2.09375l0 -13.671875l2.15625 0l0 13.609375q0 2.078125 1.9375 2.078125q0.5625 0 1.09375 -0.125q0.546875 -0.140625 1.21875 -0.390625l0.3125 1.578125q-0.71875 0.296875 -1.421875 0.5q-0.703125 0.203125 -1.46875 0.203125zm-5.984375 -12.21875l0 -1.515625l8.53125 0l0 1.515625l-8.53125 0zm20.287308 -4.671875q-0.671875 0 -1.0625 -0.375q-0.390625 -0.390625 -0.390625 -1.03125q0 -0.609375 0.390625 -0.96875q0.390625 -0.375 1.0625 -0.375q0.671875 0 1.0625 0.375q0.390625 0.359375 0.390625 0.96875q0 0.640625 -0.390625 1.03125q-0.390625 0.375 -1.0625 0.375zm-1.09375 16.546875l0 -13.40625l2.1875 0l0 13.40625l-2.1875 0zm17.718964 0l0 -7.875q0 -1.90625 -0.921875 -2.90625q-0.90625 -1.0 -2.484375 -1.0q-1.203125 0 -2.09375 0.65625q-0.875 0.65625 -1.359375 1.890625q-0.46875 1.21875 -0.46875 2.90625l-0.84375 0q0 -2.34375 0.609375 -3.984375q0.625 -1.65625 1.796875 -2.53125q1.1875 -0.875 2.890625 -0.875q1.578125 0 2.703125 0.703125q1.125 0.703125 1.71875 2.03125q0.609375 1.3125 0.609375 3.109375l0 7.875l-2.15625 0zm-9.515625 0l0 -13.390625l1.875 0l0.3125 3.09375l0 10.296875l-2.1875 0z" fill-rule="nonzero"/><path fill="#ffffff" d="m92.28916 194.53084q-1.625 0 -2.984375 -0.875q-1.34375 -0.875 -2.15625 -2.46875q-0.8125 -1.59375 -0.8125 -3.75q0 -2.140625 0.796875 -3.703125q0.796875 -1.578125 2.109375 -2.421875q1.328125 -0.84375 2.90625 -0.84375q1.484375 0 2.59375 0.71875q1.109375 0.703125 1.71875 2.046875q0.625 1.34375 0.625 3.25l-0.84375 0q0 -1.328125 -0.53125 -2.234375q-0.515625 -0.90625 -1.359375 -1.375q-0.84375 -0.46875 -1.796875 -0.46875q-1.09375 0 -2.0 0.609375q-0.90625 0.609375 -1.453125 1.734375q-0.53125 1.125 -0.53125 2.6875q0 1.59375 0.53125 2.75q0.546875 1.140625 1.453125 1.765625q0.90625 0.609375 2.0 0.609375q0.90625 0 1.75 -0.46875q0.84375 -0.484375 1.390625 -1.390625q0.546875 -0.921875 0.546875 -2.234375l0.84375 0q0 1.953125 -0.640625 3.3125q-0.640625 1.34375 -1.734375 2.046875q-1.078125 0.703125 -2.421875 0.703125zm4.3125 -0.34375l-0.359375 -3.140625l0 -15.953125l2.1875 0l0 19.09375l-1.828125 0zm15.777435 0l-0.265625 -2.9375l0 -5.75q0 -1.796875 -0.78125 -2.578125q-0.765625 -0.796875 -2.3125 -0.796875q-0.859375 0 -1.578125 0.25q-0.703125 0.25 -1.125 0.78125q-0.40625 0.515625 -0.40625 1.34375l-2.421875 0q0 -1.453125 0.703125 -2.34375q0.71875 -0.890625 1.96875 -1.28125q1.25 -0.40625 2.859375 -0.40625q1.546875 0 2.734375 0.515625q1.1875 0.515625 1.859375 1.640625q0.671875 1.125 0.671875 2.9375l0 8.625l-1.90625 0zm-4.5625 0.34375q-1.640625 0 -2.71875 -0.59375q-1.078125 -0.59375 -1.609375 -1.53125q-0.53125 -0.9375 -0.53125 -1.96875q0 -1.359375 0.671875 -2.203125q0.671875 -0.859375 1.84375 -1.25q1.1875 -0.40625 2.65625 -0.40625q1.046875 0 2.109375 0.203125q1.0625 0.203125 2.0625 0.578125l0 1.375q-0.84375 -0.34375 -1.90625 -0.53125q-1.046875 -0.203125 -1.921875 -0.203125q-1.34375 0 -2.28125 0.5625q-0.921875 0.546875 -0.921875 1.875q0 0.984375 0.703125 1.6875q0.71875 0.6875 2.265625 0.6875q1.09375 0 1.96875 -0.5q0.875 -0.515625 1.390625 -1.28125q0.515625 -0.78125 0.515625 -1.546875l0.53125 0q0 1.34375 -0.59375 2.5q-0.578125 1.140625 -1.65625 1.84375q-1.078125 0.703125 -2.578125 0.703125zm15.804565 0q-1.078125 0 -1.953125 -0.421875q-0.875 -0.421875 -1.375 -1.265625q-0.5 -0.84375 -0.5 -2.09375l0 -13.671875l2.15625 0l0 13.609375q0 2.078125 1.9375 2.078125q0.5625 0 1.09375 -0.125q0.546875 -0.140625 1.21875 -0.390625l0.3125 1.578125q-0.71875 0.296875 -1.421875 0.5q-0.703125 0.203125 -1.46875 0.203125zm-5.984375 -12.21875l0 -1.515625l8.53125 0l0 1.515625l-8.53125 0zm20.684212 11.875l-0.265625 -2.9375l0 -5.75q0 -1.796875 -0.78125 -2.578125q-0.765625 -0.796875 -2.3125 -0.796875q-0.859375 0 -1.578125 0.25q-0.703125 0.25 -1.125 0.78125q-0.40625 0.515625 -0.40625 1.34375l-2.421875 0q0 -1.453125 0.703125 -2.34375q0.71875 -0.890625 1.96875 -1.28125q1.25 -0.40625 2.859375 -0.40625q1.546875 0 2.734375 0.515625q1.1875 0.515625 1.859375 1.640625q0.671875 1.125 0.671875 2.9375l0 8.625l-1.90625 0zm-4.5625 0.34375q-1.640625 0 -2.71875 -0.59375q-1.078125 -0.59375 -1.609375 -1.53125q-0.53125 -0.9375 -0.53125 -1.96875q0 -1.359375 0.671875 -2.203125q0.671875 -0.859375 1.84375 -1.25q1.1875 -0.40625 2.65625 -0.40625q1.046875 0 2.109375 0.203125q1.0625 0.203125 2.0625 0.578125l0 1.375q-0.84375 -0.34375 -1.90625 -0.53125q-1.046875 -0.203125 -1.921875 -0.203125q-1.34375 0 -2.28125 0.5625q-0.921875 0.546875 -0.921875 1.875q0 0.984375 0.703125 1.6875q0.71875 0.6875 2.265625 0.6875q1.09375 0 1.96875 -0.5q0.875 -0.515625 1.390625 -1.28125q0.515625 -0.78125 0.515625 -1.546875l0.53125 0q0 1.34375 -0.59375 2.5q-0.578125 1.140625 -1.65625 1.84375q-1.078125 0.703125 -2.578125 0.703125z" fill-rule="nonzero"/></g></svg>