<?xml version="1.0" encoding="utf-8"?>
<!-- Generator: Adobe Illustrator 24.0.2, SVG Export Plug-In . SVG Version: 6.00 Build 0)  -->
<svg version="1.1" id="Layer_1" xmlns="http://www.w3.org/2000/svg" xmlns:xlink="http://www.w3.org/1999/xlink" x="0px" y="0px"
     viewBox="0 0 400 100.8" style="enable-background:new 0 0 400 100.8;" xml:space="preserve">
<style type="text/css">
	.st0{fill:#FFFFFF;}
	.st1{opacity:0.15;fill:#FFFFFF;}
	.st2{fill:#00C5DB;}
	.st3{opacity:0.1;}
	.st4{fill:#E6E6E6;}
	.st5{fill:#53585A;}
</style>
    <g>
	<path class="st0" d="M173.2,67.1L165,47.3l-1.7,20.1h-7.3l3.1-33.1h7.4l9.3,22.3l9.3-22.3h7.4l3.1,33.1H188l-1.7-20.1L178,67.1
		H173.2z"/>
        <path class="st0" d="M198,67.4l12.8-33.1h7.1l12.9,33.1h-7.7l-2.4-6.2v0.1h-13v-0.1l-2.3,6.2H198z M209.8,55.3h8.9l-4.4-13.2
		L209.8,55.3z"/>
        <path class="st0" d="M253.2,55.1c0.9,3.5,2.2,6.3,5.5,6.3c1.1,0,2.5-0.6,3.4-1.4l2.6,5.1c-2.2,1.7-4,2.8-7.4,2.8
		c-7.8,0-10.3-8.8-10.6-12.3h-4.4v11.8H235V34.4h14.7c6.8,0,10.5,5.1,10.5,10.9C260.2,49.9,257.6,53.8,253.2,55.1z M248.7,49.8
		c2.6,0,4.2-1.9,4.2-4.6c0-2.8-1.6-4.7-4.2-4.7h-6.5v9.3H248.7z"/>
        <path class="st0" d="M299.4,74.6c-1.7,1.2-4.5,2.6-8.3,2.6c-6.4,0-10.8-4.3-11-9.5c-8-1.5-14.4-8.5-14.4-16.8
		c0-9.4,7.8-17.1,17.3-17.1c9.5,0,17.2,7.7,17.2,17.1c0,7.9-6,14.6-13.2,16.6c0.1,2.5,2,3.7,4.6,3.7c1.4,0,3.9-0.7,5.5-1.7
		L299.4,74.6z M283,61.2c5.4,0,9.9-4.3,9.9-10.3s-4.5-10.3-9.9-10.3c-5.5,0-10,4.3-10,10.3S277.5,61.2,283,61.2z"/>
        <path class="st0" d="M332,34.4v20.6c0,8.5-6.3,13-13.7,13c-7.4,0-13.7-4.5-13.7-13V34.4h7.3v20.6c0,4.6,2.9,6.9,6.3,6.9
		c3.4,0,6.4-2.3,6.4-6.9V34.4H332z"/>
        <path class="st0" d="M338.5,67.4V34.4h22v5.8h-14.6v8.1h12.7v5.8h-12.7v7.5h14.6v5.8H338.5z"/>
        <path class="st0" d="M393,67.4h-28.9v-4.7L382,40.2h-16.5v-5.8h26.4v4.8l-18.1,22.5H393V67.4z"/>
</g>
    <g>
	<g>
		<path class="st0" d="M65.7,48.2L50.3,17.5c-1,4.2-4.3,7.6-8.7,8.5l14.2,28.4C57.7,50.8,61.5,48.3,65.7,48.2z"/>
        <path class="st0" d="M119.1,77.6c0.4,0,0.8,0,1.1,0.1l-17.9-38.2c-1.9,3.6-5.7,5.9-9.8,5.9c0,0-0.1,0-0.1,0l17.4,37.1
			C111.9,79.5,115.3,77.6,119.1,77.6z"/>
        <path class="st0" d="M81.4,35.7L69.6,48.9c3.9,1.4,6.8,4.9,7.4,9l11.8-13.1C84.9,43.4,82,39.8,81.4,35.7z"/>
        <path class="st0" d="M29.4,19.9L10.2,77.8c0.8-0.2,1.6-0.3,2.5-0.3c3.3,0,6.4,1.5,8.5,3.9l18.3-55.3C35,26.2,31.2,23.7,29.4,19.9z
			"/>
        <path class="st0" d="M21.3,88.7c0-1.6-0.4-3.1-1.2-4.3c-0.2-0.3-0.4-0.6-0.6-0.9c-1.6-2.1-4.1-3.4-6.9-3.4c-1.2,0-2.4,0.3-3.4,0.7
			c-3.1,1.3-5.2,4.4-5.2,8c0,4.8,3.9,8.7,8.7,8.7C17.5,97.4,21.3,93.5,21.3,88.7z"/>
        <path class="st0" d="M48.1,15.1c0-1.1-0.2-2.1-0.6-3.1c-0.2-0.5-0.4-1-0.7-1.5c-1.5-2.5-4.3-4.1-7.4-4.1c-2.6,0-5,1.2-6.6,3.1
			c-1.3,1.5-2.1,3.5-2.1,5.6c0,0.2,0,0.4,0,0.6c0.2,3.7,2.8,6.7,6.2,7.7c0.8,0.2,1.6,0.4,2.5,0.4c0.3,0,0.6,0,0.8,0
			c0.1,0,0.2,0,0.2,0c1.1-0.1,2.1-0.5,3-0.9c0.2-0.1,0.5-0.3,0.7-0.4c1.7-1.1,3-2.8,3.6-4.9C48,16.7,48.1,15.9,48.1,15.1z"/>
        <path class="st0" d="M67.7,50.9c-0.3-0.1-0.5-0.1-0.8-0.1c-0.3,0-0.7-0.1-1.1-0.1c-4.1,0-7.6,2.9-8.5,6.8
			c-0.1,0.6-0.2,1.2-0.2,1.9c0,4.8,3.9,8.7,8.7,8.7c4.4,0,8-3.2,8.6-7.4c0.1-0.4,0.1-0.8,0.1-1.3c0-0.8-0.1-1.5-0.3-2.3
			C73.4,54,70.9,51.6,67.7,50.9z"/>
        <path class="st0" d="M92.5,42.9c0.8,0,1.5-0.1,2.2-0.3c0.2-0.1,0.5-0.1,0.7-0.2c0.5-0.2,0.9-0.4,1.3-0.6c0.2-0.1,0.4-0.2,0.6-0.4
			c0.4-0.3,0.8-0.6,1.1-0.9c0.2-0.2,0.3-0.3,0.5-0.5c1-1,1.7-2.3,2-3.7c0.2-0.7,0.3-1.4,0.3-2.2c0-4.8-3.9-8.7-8.7-8.7
			c-4.4,0-8,3.2-8.6,7.4c-0.1,0.4-0.1,0.8-0.1,1.3c0,4.2,2.9,7.6,6.8,8.5c0.2,0,0.3,0.1,0.5,0.1C91.6,42.8,92,42.9,92.5,42.9z"/>
        <path class="st0" d="M121.6,80.4c-0.8-0.2-1.6-0.4-2.5-0.4c-3.6,0-6.6,2.2-8,5.3c-0.5,1.1-0.7,2.2-0.7,3.4c0,4.8,3.9,8.7,8.7,8.7
			s8.7-3.9,8.7-8.7C127.8,84.8,125.1,81.5,121.6,80.4z"/>
	</g>
</g>
</svg>
