<svg id="Layer_1" data-name="Layer 1" xmlns="http://www.w3.org/2000/svg" viewBox="0 0 592.4 319.2"><defs><style>.cls-1,.cls-8{fill:none;}.cls-2{fill:#a8a8aa;fill-opacity:0.2;}.cls-2,.cls-3,.cls-5,.cls-6,.cls-7,.cls-9{fill-rule:evenodd;}.cls-3{fill:#595959;}.cls-4{fill:#fff;}.cls-5{fill:#212121;}.cls-6,.cls-9{fill:#74a4bc;}.cls-7{fill:#ffab40;}.cls-8,.cls-9{stroke:#74a4bc;stroke-width:2px;}.cls-8{stroke-linejoin:round;}.cls-9{stroke-miterlimit:10;}</style></defs><rect class="cls-1" x="-128.4" y="-141.8" width="960" height="540"/><path class="cls-2" d="M0,0H592.4V232.1H0Z"/><path class="cls-3" d="M19.4,79.3H575.3v70.9H19.4Z"/><path class="cls-4" d="M219,101.9h1.2v11.2H225v1.2h-6Zm8.2-.5a1,1,0,1,1-.7.3A1.08,1.08,0,0,1,227.2,101.4Zm-.6,3.8h1.2v9.2h-1.2Zm3.7,0h1.2v1.6a5.21,5.21,0,0,1,1.6-1.4,4.14,4.14,0,0,1,1.9-.5,3.45,3.45,0,0,1,1.8.5,3.33,3.33,0,0,1,1.2,1.4,6.61,6.61,0,0,1,.4,2.8v4.7h-1.2V110a9.85,9.85,0,0,0-.1-2.1,2.19,2.19,0,0,0-.8-1.4,2.46,2.46,0,0,0-1.5-.5,2.64,2.64,0,0,0-1.9.7,3.41,3.41,0,0,0-1.1,1.8,12.94,12.94,0,0,0-.2,2.5v3.4h-1.2v-9.2Zm18.3,6.1,1,.5a6.45,6.45,0,0,1-1.1,1.6,3.77,3.77,0,0,1-1.5.9,4.84,4.84,0,0,1-1.8.3,4.26,4.26,0,0,1-3.5-1.5,5.28,5.28,0,0,1-1.3-3.3,4.89,4.89,0,0,1,1.1-3.1,4.19,4.19,0,0,1,3.6-1.7,4.71,4.71,0,0,1,4.8,4.9h-8.3a3.62,3.62,0,0,0,1,2.6,3.32,3.32,0,0,0,2.5,1,6.75,6.75,0,0,0,1.4-.2,4.13,4.13,0,0,0,1.1-.7A8.51,8.51,0,0,0,248.6,111.3Zm0-2.5a5.23,5.23,0,0,0-.7-1.5,2.73,2.73,0,0,0-1.2-.9,4.19,4.19,0,0,0-1.5-.4,3.17,3.17,0,0,0-2.3.9,4.34,4.34,0,0,0-1.1,1.9Zm12.7-3.6v9.2h-1.2v-1.6a5.52,5.52,0,0,1-1.7,1.4,4.46,4.46,0,0,1-5.3-.9,4.83,4.83,0,0,1-1.4-3.5,4.78,4.78,0,0,1,4.8-4.8,4.23,4.23,0,0,1,2,.5,4.28,4.28,0,0,1,1.6,1.4v-1.7Zm-4.8.9a3.45,3.45,0,0,0-1.8.5,3,3,0,0,0-1.3,1.4,4.14,4.14,0,0,0-.5,1.9,4.49,4.49,0,0,0,.5,1.9,4.36,4.36,0,0,0,1.3,1.4,4.07,4.07,0,0,0,1.8.5,3.74,3.74,0,0,0,1.8-.5,3.25,3.25,0,0,0,1.3-1.3,4.14,4.14,0,0,0,.5-1.9,3.69,3.69,0,0,0-1.1-2.7A2.69,2.69,0,0,0,256.5,106.1Zm15.4-.9h1.2v7.3a9.41,9.41,0,0,1-.3,2.8,4.47,4.47,0,0,1-1.6,2,5.07,5.07,0,0,1-2.8.7,6.65,6.65,0,0,1-2.1-.3,3.77,3.77,0,0,1-1.5-.9,7.36,7.36,0,0,1-1.1-1.6H265a2.91,2.91,0,0,0,1.4,1.3,4.21,4.21,0,0,0,2,.4,3.94,3.94,0,0,0,2-.5,3.23,3.23,0,0,0,1.2-1.1,5.35,5.35,0,0,0,.4-2.2v-.5a4,4,0,0,1-1.6,1.3,4.55,4.55,0,0,1-2,.5,5.33,5.33,0,0,1-2.4-.6,4.56,4.56,0,0,1-2.3-4,5,5,0,0,1,.6-2.4,5.16,5.16,0,0,1,1.8-1.8,4.75,4.75,0,0,1,2.4-.6,4.06,4.06,0,0,1,1.9.4,5.52,5.52,0,0,1,1.7,1.4v-1.6Zm-3.5.9a4.14,4.14,0,0,0-1.9.5,3.25,3.25,0,0,0-1.3,1.3,4.14,4.14,0,0,0-.5,1.9,3.32,3.32,0,0,0,1,2.5,3.54,3.54,0,0,0,2.6,1,3.25,3.25,0,0,0,2.6-1,3.39,3.39,0,0,0,1-2.6,4.14,4.14,0,0,0-.5-1.9,2.74,2.74,0,0,0-1.3-1.3A3.29,3.29,0,0,0,268.4,106.1Zm14.9,5.2,1,.5a6.45,6.45,0,0,1-1.1,1.6,3.77,3.77,0,0,1-1.5.9,4.84,4.84,0,0,1-1.8.3,4.26,4.26,0,0,1-3.5-1.5,5.28,5.28,0,0,1-1.3-3.3,4.89,4.89,0,0,1,1.1-3.1,4.19,4.19,0,0,1,3.6-1.7,4.71,4.71,0,0,1,4.8,4.9h-8.3a3.62,3.62,0,0,0,1,2.6,3.32,3.32,0,0,0,2.5,1,6.75,6.75,0,0,0,1.4-.2,4.13,4.13,0,0,0,1.1-.7A3.45,3.45,0,0,0,283.3,111.3Zm0-2.5a5.23,5.23,0,0,0-.7-1.5,2.73,2.73,0,0,0-1.2-.9,4.19,4.19,0,0,0-1.5-.4,3.17,3.17,0,0,0-2.3.9,4.34,4.34,0,0,0-1.1,1.9Zm8.6-6.9h2.5a15.16,15.16,0,0,1,2.8.2,3.41,3.41,0,0,1,1.8,1.1,2.88,2.88,0,0,1,.7,2,3.45,3.45,0,0,1-.5,1.8,3.33,3.33,0,0,1-1.4,1.2,5.67,5.67,0,0,1-2.5.4l4.5,5.8h-1.5l-4.5-5.8h-.7v5.8h-1.2V101.9Zm1.3,1.2v4.2h2.1a7.45,7.45,0,0,0,1.8-.2,1.76,1.76,0,0,0,.9-.8,2.38,2.38,0,0,0,.3-1.2,2,2,0,0,0-.3-1.1,1.6,1.6,0,0,0-.9-.7,4.44,4.44,0,0,0-1.8-.2Zm16.7,8.2,1,.5a6.45,6.45,0,0,1-1.1,1.6,3.77,3.77,0,0,1-1.5.9,4.84,4.84,0,0,1-1.8.3,4.26,4.26,0,0,1-3.5-1.5,5.28,5.28,0,0,1-1.3-3.3,4.89,4.89,0,0,1,1.1-3.1,4.19,4.19,0,0,1,3.6-1.7,4.71,4.71,0,0,1,4.8,4.9H303a3.62,3.62,0,0,0,1,2.6,3.32,3.32,0,0,0,2.5,1,6.75,6.75,0,0,0,1.4-.2,4.13,4.13,0,0,0,1.1-.7A9.23,9.23,0,0,0,309.9,111.3Zm0-2.5a5.23,5.23,0,0,0-.7-1.5,2.73,2.73,0,0,0-1.2-.9,4.19,4.19,0,0,0-1.5-.4,3.17,3.17,0,0,0-2.3.9,4.34,4.34,0,0,0-1.1,1.9Zm3.6-3.6h1.2v1.7a5.21,5.21,0,0,1,1.6-1.4,4.46,4.46,0,0,1,5.3.9,4.76,4.76,0,0,1,1.4,3.4,5,5,0,0,1-1.4,3.5,4.46,4.46,0,0,1-5.3.9,5.52,5.52,0,0,1-1.7-1.4v5h-1.2V105.2Zm4.7.9a3.59,3.59,0,0,0-3.6,3.8,4.14,4.14,0,0,0,.5,1.9,3,3,0,0,0,1.4,1.3,3.49,3.49,0,0,0,3.6,0,3,3,0,0,0,1.3-1.4,3.86,3.86,0,0,0,0-3.8,3.53,3.53,0,0,0-1.3-1.4A4.06,4.06,0,0,0,318.2,106.1Zm11.4-1.2a4.54,4.54,0,0,1,3.5,1.5,5,5,0,0,1,0,6.7,4.32,4.32,0,0,1-3.5,1.4,4.62,4.62,0,0,1-4.8-4.8,4.45,4.45,0,0,1,1.3-3.3A4.54,4.54,0,0,1,329.6,104.9Zm0,1.2a3.41,3.41,0,0,0-2.5,1.1,3.54,3.54,0,0,0-1,2.6,4.14,4.14,0,0,0,.5,1.9,3.25,3.25,0,0,0,1.3,1.3,4.07,4.07,0,0,0,1.8.5,3.45,3.45,0,0,0,1.8-.5,3.25,3.25,0,0,0,1.3-1.3,4.14,4.14,0,0,0,.5-1.9,3.63,3.63,0,0,0-1.1-2.6A3.41,3.41,0,0,0,329.6,106.1Zm11.6.1-.8.8a2.8,2.8,0,0,0-1.9-.9,1.28,1.28,0,0,0-1,.4,1,1,0,0,0-.4.9,1.61,1.61,0,0,0,.3.9,4.56,4.56,0,0,0,1.4,1,5.93,5.93,0,0,1,1.8,1.3,2.46,2.46,0,0,1,.5,1.5,2.56,2.56,0,0,1-.8,1.9,2.79,2.79,0,0,1-2,.8,4,4,0,0,1-1.5-.3,2.34,2.34,0,0,1-1.2-1l.8-.8a2.42,2.42,0,0,0,1.9,1,1.66,1.66,0,0,0,1.2-.5,1.48,1.48,0,0,0,.2-2,4.16,4.16,0,0,0-1.5-1,4,4,0,0,1-1.7-1.3,2.3,2.3,0,0,1-.4-1.4,2.4,2.4,0,0,1,2.5-2.5A3,3,0,0,1,341.2,106.2Zm2.5-4.8a1,1,0,1,1-.7.3A1.33,1.33,0,0,1,343.7,101.4Zm-.5,3.8h1.2v9.2h-1.2Zm4.6-3.5H349v3.4h1.9v1H349v8.2h-1.2v-8.2h-1.6v-1h1.6Zm9.2,3.2a4.54,4.54,0,0,1,3.5,1.5,5,5,0,0,1,0,6.7,4.32,4.32,0,0,1-3.5,1.4,4.62,4.62,0,0,1-4.8-4.8,4.45,4.45,0,0,1,1.3-3.3A4.54,4.54,0,0,1,357,104.9Zm0,1.2a3.41,3.41,0,0,0-2.5,1.1,3.54,3.54,0,0,0-1,2.6,4.14,4.14,0,0,0,.5,1.9,3.25,3.25,0,0,0,1.3,1.3,3.74,3.74,0,0,0,1.8.5,3.45,3.45,0,0,0,1.8-.5,3.25,3.25,0,0,0,1.3-1.3,4.14,4.14,0,0,0,.5-1.9,3.63,3.63,0,0,0-1.1-2.6A3.27,3.27,0,0,0,357,106.1Zm6.6-.9h1.2v1.3a6.53,6.53,0,0,1,1.1-1.2,1.92,1.92,0,0,1,1.2-.4,2.61,2.61,0,0,1,1.1.3l-.6,1a2.07,2.07,0,0,0-.6-.2,1.61,1.61,0,0,0-1.1.5,2.68,2.68,0,0,0-.8,1.5,19.06,19.06,0,0,0-.2,3.2v3.1h-1.2v-9.1Zm4.6,0h1.2l3.2,7.1,3.1-7.1H377l-5.5,12.6h-1.3l1.8-4.1Z"/><path class="cls-4" d="M273,121h.8a12.27,12.27,0,0,0-.8,2.5,13.58,13.58,0,0,0-.3,2.9,24.52,24.52,0,0,0,.2,2.7c.2.8.4,1.6.6,2.2h-.8a6.39,6.39,0,0,1-.6-2.2,21.12,21.12,0,0,1-.2-2.6A15.55,15.55,0,0,1,273,121Zm2.3,2.3h.7v1a2,2,0,0,1,.8-.8,2.66,2.66,0,0,1,1.2-.3,2.35,2.35,0,0,1,.8.2c.2.1.5.2.6.4a2.93,2.93,0,0,1,.4.8,2.19,2.19,0,0,1,.9-1,2.84,2.84,0,0,1,1.2-.4,1.69,1.69,0,0,1,1,.3,2.7,2.7,0,0,1,.7.8,3.44,3.44,0,0,1,.2,1.6V129H283v-3.1a3.45,3.45,0,0,0-.1-1.2,1,1,0,0,0-.4-.5,1.88,1.88,0,0,0-.8-.2,1.69,1.69,0,0,0-1,.3,1.56,1.56,0,0,0-.6.8,5.94,5.94,0,0,0-.2,1.7V129h-.7v-2.9a4.55,4.55,0,0,0-.1-1.4,1.33,1.33,0,0,0-.5-.6,1.88,1.88,0,0,0-.8-.2,1.61,1.61,0,0,0-.9.3,2.7,2.7,0,0,0-.7.8,5.67,5.67,0,0,0-.2,1.6V129h-.7v-5.7Zm15.7,0V129h-.7v-1a2.54,2.54,0,0,1-1,.8,2.66,2.66,0,0,1-1.2.3,2.52,2.52,0,0,1-2-.9,2.78,2.78,0,0,1-.8-2.1,3.08,3.08,0,0,1,3-3,2.13,2.13,0,0,1,1.2.3,2.84,2.84,0,0,1,1,.9v-1Zm-3,.5a2,2,0,0,0-1.1.3,3,3,0,0,0-.8.8,2.28,2.28,0,0,0-.3,1.1,2,2,0,0,0,.3,1.1,2.36,2.36,0,0,0,.8.9,2.17,2.17,0,0,0,2.2,0,2,2,0,0,0,.8-.8,2.13,2.13,0,0,0,.3-1.2,1.86,1.86,0,0,0-.7-1.6A2.09,2.09,0,0,0,288,123.8Zm4.3-.5h.8v.8a2.31,2.31,0,0,1,.7-.7,1.08,1.08,0,0,1,.8-.2,1.42,1.42,0,0,1,.6.2l-.4.6a.76.76,0,0,0-.4-.1,1.08,1.08,0,0,0-.7.3,1.93,1.93,0,0,0-.5.9,9.27,9.27,0,0,0-.1,2V129h-.8Zm9.1,0V131h-.7v-3a3.51,3.51,0,0,1-1,.8,2.66,2.66,0,0,1-1.2.3,2.88,2.88,0,0,1-2.1-.9,2.78,2.78,0,0,1-.8-2.1,3.08,3.08,0,0,1,3-3,2.77,2.77,0,0,1,1.3.3,2.84,2.84,0,0,1,1,.9v-1Zm-2.9.5a2,2,0,0,0-1.1.3,3,3,0,0,0-.8.8,2.28,2.28,0,0,0-.3,1.1,2,2,0,0,0,.3,1.1,3.45,3.45,0,0,0,.8.9,2.17,2.17,0,0,0,2.2,0,2,2,0,0,0,.8-.8,2.13,2.13,0,0,0,.3-1.2,1.86,1.86,0,0,0-.7-1.6A2.09,2.09,0,0,0,298.5,123.8Zm4.5-.5h.7v2.6a4.15,4.15,0,0,0,.1,1.3,1.56,1.56,0,0,0,.6.8,1.69,1.69,0,0,0,1,.3,1.49,1.49,0,0,0,1-.3,2.41,2.41,0,0,0,.6-.8,4.55,4.55,0,0,0,.1-1.4v-2.6h.8V126a4.18,4.18,0,0,1-.3,1.8,1.76,1.76,0,0,1-.8.9,3.42,3.42,0,0,1-2.8,0,1.76,1.76,0,0,1-.8-.9,4.18,4.18,0,0,1-.3-1.8v-2.7Zm11.3,3.8.6.3a3.59,3.59,0,0,1-.7,1,4.05,4.05,0,0,1-.9.5,3.59,3.59,0,0,1-1.1.2,2.94,2.94,0,0,1-2.2-.9,3.18,3.18,0,0,1-.8-2,2.64,2.64,0,0,1,.7-1.9,2.79,2.79,0,0,1,2.2-1.1,2.84,2.84,0,0,1,2.3,1.1,3.08,3.08,0,0,1,.6,1.9h-5a2.11,2.11,0,0,0,.6,1.6,2,2,0,0,0,1.5.6,1.88,1.88,0,0,0,.8-.2,1.61,1.61,0,0,0,.7-.4A1.58,1.58,0,0,0,314.3,127.1Zm0-1.5a1.88,1.88,0,0,0-.4-.9,2.76,2.76,0,0,0-.8-.6,3,3,0,0,0-1-.2,2.17,2.17,0,0,0-1.4.5,3.46,3.46,0,0,0-.7,1.2Zm1.7-2.3h4.2l-3.2,5h3.1v.6h-4.4l3.2-5H316Zm5.7,7.9h-.8a12.48,12.48,0,0,0,1.1-5.3,24.52,24.52,0,0,0-.2-2.7,9.84,9.84,0,0,0-.6-2.2h.8a7.09,7.09,0,0,1,.6,2.2,11,11,0,0,1,.2,2.6,12.65,12.65,0,0,1-.3,2.8A19.75,19.75,0,0,1,321.7,131.2Z"/><path class="cls-5" d="M19.4,15.8H294.1V74.6H19.4Z"/><path class="cls-4" d="M100.4,32.4h1.2v9.3a3.37,3.37,0,0,0,.4,1.2,2.72,2.72,0,0,0,1,.8,3.53,3.53,0,0,0,1.4.3,5,5,0,0,0,1.2-.2,2.18,2.18,0,0,0,.9-.7,3.88,3.88,0,0,0,.6-1.1,9.27,9.27,0,0,0,.1-2V32.5h1.2V40a10.06,10.06,0,0,1-.3,2.7,3.8,3.8,0,0,1-1.3,1.8,3.65,3.65,0,0,1-2.4.8,4.41,4.41,0,0,1-2.6-.7,3.31,3.31,0,0,1-1.4-1.9,14.23,14.23,0,0,1-.2-2.6V32.4Zm15.7,4.3-.8.8a2.8,2.8,0,0,0-1.9-.9,1.28,1.28,0,0,0-1,.4,1,1,0,0,0-.4.9,1.61,1.61,0,0,0,.3.9,4.56,4.56,0,0,0,1.4,1,5.93,5.93,0,0,1,1.8,1.3,2.46,2.46,0,0,1,.5,1.5,2.56,2.56,0,0,1-.8,1.9,2.79,2.79,0,0,1-2,.8,4,4,0,0,1-1.5-.3,2.34,2.34,0,0,1-1.2-1l.8-.8a2.42,2.42,0,0,0,1.9,1,1.66,1.66,0,0,0,1.2-.5,1.48,1.48,0,0,0,.2-2,4.16,4.16,0,0,0-1.5-1,4,4,0,0,1-1.7-1.3A2.3,2.3,0,0,1,111,38a2.4,2.4,0,0,1,2.5-2.5A3.87,3.87,0,0,1,116.1,36.7Zm9.8,5.2,1,.5a6.45,6.45,0,0,1-1.1,1.6,3.77,3.77,0,0,1-1.5.9,4.84,4.84,0,0,1-1.8.3,4.26,4.26,0,0,1-3.5-1.5,5.28,5.28,0,0,1-1.3-3.3,4.89,4.89,0,0,1,1.1-3.1,4.19,4.19,0,0,1,3.6-1.7,4.71,4.71,0,0,1,4.8,4.9H119a3.62,3.62,0,0,0,1,2.6,3.32,3.32,0,0,0,2.5,1,6.75,6.75,0,0,0,1.4-.2,4.13,4.13,0,0,0,1.1-.7C125.2,42.9,125.6,42.4,125.9,41.9Zm0-2.5a5.23,5.23,0,0,0-.7-1.5A2.73,2.73,0,0,0,124,37a4.19,4.19,0,0,0-1.5-.4,3.17,3.17,0,0,0-2.3.9,4.34,4.34,0,0,0-1.1,1.9Zm3.1-3.7h1.2V37a6.53,6.53,0,0,1,1.1-1.2,1.92,1.92,0,0,1,1.2-.4,2.61,2.61,0,0,1,1.1.3l-.6,1a2.07,2.07,0,0,0-.6-.2,1.61,1.61,0,0,0-1.1.5,2.68,2.68,0,0,0-.8,1.5,19.06,19.06,0,0,0-.2,3.2v3.1H129Zm10.5-3.3h1.2V44.9h-1.2Zm3.9,3.3h1.2v1.6a5.21,5.21,0,0,1,1.6-1.4,4.14,4.14,0,0,1,1.9-.5,3.45,3.45,0,0,1,1.8.5,3.33,3.33,0,0,1,1.2,1.4,6.61,6.61,0,0,1,.4,2.8v4.7h-1.2V40.4a9.85,9.85,0,0,0-.1-2.1,2.19,2.19,0,0,0-.8-1.4,2.46,2.46,0,0,0-1.5-.5,2.64,2.64,0,0,0-1.9.7,3.41,3.41,0,0,0-1.1,1.8,12.94,12.94,0,0,0-.2,2.5v3.4h-1.2V35.7ZM155,32.3h1.2v3.4h1.9v1h-1.9v8.2H155V36.7h-1.6v-1H155Zm12.6,9.6,1,.5a6.45,6.45,0,0,1-1.1,1.6,3.77,3.77,0,0,1-1.5.9,4.84,4.84,0,0,1-1.8.3,4.26,4.26,0,0,1-3.5-1.5,5.28,5.28,0,0,1-1.3-3.3,4.89,4.89,0,0,1,1.1-3.1,4.19,4.19,0,0,1,3.6-1.7,4.71,4.71,0,0,1,4.8,4.9h-8.3a3.62,3.62,0,0,0,1,2.6,3.32,3.32,0,0,0,2.5,1,6.75,6.75,0,0,0,1.4-.2,4.13,4.13,0,0,0,1.1-.7C166.9,42.9,167.2,42.4,167.6,41.9Zm0-2.5a5.23,5.23,0,0,0-.7-1.5,2.73,2.73,0,0,0-1.2-.9,4.19,4.19,0,0,0-1.5-.4,3.17,3.17,0,0,0-2.3.9,4.34,4.34,0,0,0-1.1,1.9Zm3-3.7h1.2V37a6.53,6.53,0,0,1,1.1-1.2,1.92,1.92,0,0,1,1.2-.4,2.61,2.61,0,0,1,1.1.3l-.6,1a2.07,2.07,0,0,0-.6-.2,1.61,1.61,0,0,0-1.1.5,2.68,2.68,0,0,0-.8,1.5,19.06,19.06,0,0,0-.2,3.2v3.1h-1.2V35.7Zm9.5-3.6v1.2A2.61,2.61,0,0,0,179,33a1.27,1.27,0,0,0-.6.1l-.3.3v2.2H180v1h-2v8.2h-1.2V36.6h-1.2v-1h1.2V34.2a4.14,4.14,0,0,1,.2-1.4,1.34,1.34,0,0,1,.6-.7,1.8,1.8,0,0,1,1.1-.3C179.1,31.9,179.6,32,180.1,32.1Zm10.8,3.6v9.2h-1.2V43.3a5.52,5.52,0,0,1-1.7,1.4,4.46,4.46,0,0,1-5.3-.9,4.83,4.83,0,0,1-1.4-3.5,4.78,4.78,0,0,1,4.8-4.8,4.23,4.23,0,0,1,2,.5,4.28,4.28,0,0,1,1.6,1.4V35.7Zm-4.7.9a3.45,3.45,0,0,0-1.8.5,3,3,0,0,0-1.3,1.4,4.14,4.14,0,0,0-.5,1.9,4.49,4.49,0,0,0,.5,1.9,4.36,4.36,0,0,0,1.3,1.4,4.07,4.07,0,0,0,1.8.5,3.74,3.74,0,0,0,1.8-.5,3.25,3.25,0,0,0,1.3-1.3,4.14,4.14,0,0,0,.5-1.9,3.69,3.69,0,0,0-1.1-2.7A3,3,0,0,0,186.2,36.6Zm16.3,1-.9.6a3.82,3.82,0,0,0-3.3-1.6,4.11,4.11,0,0,0-2.8,1.1,3.63,3.63,0,0,0-1.1,2.6,4.14,4.14,0,0,0,.5,1.9,3.16,3.16,0,0,0,1.4,1.4,4.55,4.55,0,0,0,2,.5,3.82,3.82,0,0,0,3.3-1.6l.9.6a3.35,3.35,0,0,1-1.8,1.5,5.1,5.1,0,0,1-2.5.5,4.9,4.9,0,0,1-3.6-1.4,4.39,4.39,0,0,1-1.4-3.4,4.51,4.51,0,0,1,.7-2.5,4.45,4.45,0,0,1,1.8-1.8,5.83,5.83,0,0,1,2.6-.6,5.66,5.66,0,0,1,1.8.3,5.23,5.23,0,0,1,1.5.7A12.49,12.49,0,0,1,202.5,37.6Zm10,4.3,1,.5a6.45,6.45,0,0,1-1.1,1.6,3.77,3.77,0,0,1-1.5.9,4.84,4.84,0,0,1-1.8.3,4.26,4.26,0,0,1-3.5-1.5,5.28,5.28,0,0,1-1.3-3.3,4.89,4.89,0,0,1,1.1-3.1,4.19,4.19,0,0,1,3.6-1.7,4.71,4.71,0,0,1,4.8,4.9h-8.3a3.62,3.62,0,0,0,1,2.6,3.32,3.32,0,0,0,2.5,1,6.75,6.75,0,0,0,1.4-.2,4.13,4.13,0,0,0,1.1-.7A7.34,7.34,0,0,0,212.5,41.9Zm0-2.5a5.23,5.23,0,0,0-.7-1.5,2.73,2.73,0,0,0-1.2-.9,4.19,4.19,0,0,0-1.5-.4,3.17,3.17,0,0,0-2.3.9,4.34,4.34,0,0,0-1.1,1.9Z"/><path class="cls-4" d="M126.4,51.5h.8a12.27,12.27,0,0,0-.8,2.5,13.58,13.58,0,0,0-.3,2.9,24.52,24.52,0,0,0,.2,2.7c.2.8.4,1.6.6,2.2h-.8a6.39,6.39,0,0,1-.6-2.2,21.12,21.12,0,0,1-.2-2.6,12.65,12.65,0,0,1,.3-2.8A9.56,9.56,0,0,1,126.4,51.5Zm2.3,2.3h.7v1a2,2,0,0,1,.8-.8,2.66,2.66,0,0,1,1.2-.3,2.35,2.35,0,0,1,.8.2c.2.1.5.2.6.4a1.51,1.51,0,0,1,.4.8,2.19,2.19,0,0,1,.9-1,2.84,2.84,0,0,1,1.2-.4,1.69,1.69,0,0,1,1,.3,2.7,2.7,0,0,1,.7.8,6.27,6.27,0,0,1,.2,1.6v3.1h-.7V56.4a3.45,3.45,0,0,0-.1-1.2,1,1,0,0,0-.4-.5,1.88,1.88,0,0,0-.8-.2,1.69,1.69,0,0,0-1,.3,1.56,1.56,0,0,0-.6.8,5.94,5.94,0,0,0-.2,1.7v2.2h-.7V56.6a4.55,4.55,0,0,0-.1-1.4,1.33,1.33,0,0,0-.5-.6,1.88,1.88,0,0,0-.8-.2,1.61,1.61,0,0,0-.9.3,2.7,2.7,0,0,0-.7.8,5.67,5.67,0,0,0-.2,1.6v2.4h-.7V53.8Zm15.6,0v5.7h-.7v-1a2.54,2.54,0,0,1-1,.8,2.66,2.66,0,0,1-1.2.3,2.52,2.52,0,0,1-2-.9,2.78,2.78,0,0,1-.8-2.1,3.08,3.08,0,0,1,3-3,2.13,2.13,0,0,1,1.2.3,2.84,2.84,0,0,1,1,.9v-1Zm-2.9.6a2,2,0,0,0-1.1.3,3,3,0,0,0-.8.8,2.28,2.28,0,0,0-.3,1.1,2,2,0,0,0,.3,1.1,2.36,2.36,0,0,0,.8.9,2.17,2.17,0,0,0,2.2,0,2,2,0,0,0,.8-.8,2.13,2.13,0,0,0,.3-1.2,1.86,1.86,0,0,0-.7-1.6A2,2,0,0,0,141.4,54.4Zm4.3-.6h.8v.8a2.31,2.31,0,0,1,.7-.7,1.08,1.08,0,0,1,.8-.2,1.42,1.42,0,0,1,.6.2l-.4.6a.76.76,0,0,0-.4-.1,1.08,1.08,0,0,0-.7.3,1.93,1.93,0,0,0-.5.9,9.27,9.27,0,0,0-.1,2v1.9h-.8V53.8Zm9.1,0v7.7h-.7v-3a3.51,3.51,0,0,1-1,.8,2.66,2.66,0,0,1-1.2.3,2.88,2.88,0,0,1-2.1-.9,2.78,2.78,0,0,1-.8-2.1,3.08,3.08,0,0,1,3-3,2.77,2.77,0,0,1,1.3.3,2.84,2.84,0,0,1,1,.9v-1Zm-2.9.6a2,2,0,0,0-1.1.3,3,3,0,0,0-.8.8,2.28,2.28,0,0,0-.3,1.1,2,2,0,0,0,.3,1.1,2.36,2.36,0,0,0,.8.9,2.17,2.17,0,0,0,2.2,0,2,2,0,0,0,.8-.8,2.13,2.13,0,0,0,.3-1.2,1.86,1.86,0,0,0-.7-1.6A2,2,0,0,0,151.9,54.4Zm4.4-.6h.7v2.6a4.15,4.15,0,0,0,.1,1.3,1.56,1.56,0,0,0,.6.8,1.69,1.69,0,0,0,1,.3,1.49,1.49,0,0,0,1-.3,1.56,1.56,0,0,0,.6-.8,4.55,4.55,0,0,0,.1-1.4V53.7h.8v2.8a4.18,4.18,0,0,1-.3,1.8,1.76,1.76,0,0,1-.8.9,3.42,3.42,0,0,1-2.8,0,1.76,1.76,0,0,1-.8-.9,4.18,4.18,0,0,1-.3-1.8V53.8Zm11.4,3.8.6.3a3.59,3.59,0,0,1-.7,1,4.05,4.05,0,0,1-.9.5,3.59,3.59,0,0,1-1.1.2,2.94,2.94,0,0,1-2.2-.9,3.18,3.18,0,0,1-.8-2,2.64,2.64,0,0,1,.7-1.9,2.79,2.79,0,0,1,2.2-1.1,2.84,2.84,0,0,1,2.3,1.1,3.08,3.08,0,0,1,.6,1.9h-5.1a2.11,2.11,0,0,0,.6,1.6,2,2,0,0,0,1.5.6,1.88,1.88,0,0,0,.8-.2,1.61,1.61,0,0,0,.7-.4C167.2,58.3,167.4,58,167.7,57.6Zm0-1.5a1.88,1.88,0,0,0-.4-.9,2.76,2.76,0,0,0-.8-.6,3,3,0,0,0-1-.2,2.17,2.17,0,0,0-1.4.5,3.46,3.46,0,0,0-.7,1.2Zm1.6-2.3h4.2l-3.2,5h3.1v.6H169l3.2-5h-2.9Zm4.6,2.5h2.9v.6h-2.9Zm3.9-2.5h.7v2.6a4.15,4.15,0,0,0,.1,1.3,1.56,1.56,0,0,0,.6.8,1.69,1.69,0,0,0,1,.3,1.49,1.49,0,0,0,1-.3,1.56,1.56,0,0,0,.6-.8,4.55,4.55,0,0,0,.1-1.4V53.7h.8v2.8a4.18,4.18,0,0,1-.3,1.8,1.76,1.76,0,0,1-.8.9,3.42,3.42,0,0,1-2.8,0,1.76,1.76,0,0,1-.8-.9,4.18,4.18,0,0,1-.3-1.8V53.8Zm6.8-2.3a.52.52,0,0,1,.4.2.76.76,0,0,1,.2.4.52.52,0,0,1-.2.4.76.76,0,0,1-.4.2.52.52,0,0,1-.4-.2.76.76,0,0,1-.2-.4.52.52,0,0,1,.2-.4A.76.76,0,0,1,184.6,51.5Zm-.4,2.3h.7v5.7h-.7Zm3,7.9h-.8a12.48,12.48,0,0,0,1.1-5.3,24.52,24.52,0,0,0-.2-2.7,9.84,9.84,0,0,0-.6-2.2h.8a7.09,7.09,0,0,1,.6,2.2,11,11,0,0,1,.2,2.6,12.65,12.65,0,0,1-.3,2.8A16,16,0,0,1,187.2,61.7Z"/><path class="cls-6" d="M19.4,155H575.3v58.8H19.4Z"/><path class="cls-4" d="M193.8,184.1l1.8-12.5h.2l5.1,10.2,5-10.2h.2l1.8,12.5h-1.2l-1.2-8.9-4.4,8.9h-.3l-4.5-9-1.2,9Zm24-3.1,1,.5a6.45,6.45,0,0,1-1.1,1.6,3.77,3.77,0,0,1-1.5.9,4.84,4.84,0,0,1-1.8.3,4.26,4.26,0,0,1-3.5-1.5,5.28,5.28,0,0,1-1.3-3.3,4.89,4.89,0,0,1,1.1-3.1,4.19,4.19,0,0,1,3.6-1.7,4.71,4.71,0,0,1,4.8,4.9h-8.3a3.62,3.62,0,0,0,1,2.6,3.32,3.32,0,0,0,2.5,1,6.75,6.75,0,0,0,1.4-.2,4.13,4.13,0,0,0,1.1-.7A4.88,4.88,0,0,0,217.8,181Zm0-2.5a5.23,5.23,0,0,0-.7-1.5,2.73,2.73,0,0,0-1.2-.9,4.19,4.19,0,0,0-1.5-.4,3.17,3.17,0,0,0-2.3.9,4.34,4.34,0,0,0-1.1,1.9Zm4.6-7.1h1.2v3.4h1.9v1h-1.9V184h-1.2v-8.2h-1.6v-1h1.6Zm14,3.4V184h-1.2v-1.6a5.52,5.52,0,0,1-1.7,1.4,4.46,4.46,0,0,1-5.3-.9,4.83,4.83,0,0,1-1.4-3.5,4.78,4.78,0,0,1,4.8-4.8,4.23,4.23,0,0,1,2,.5,4.28,4.28,0,0,1,1.6,1.4v-1.7Zm-4.7,1a3.45,3.45,0,0,0-1.8.5,3,3,0,0,0-1.3,1.4,4.14,4.14,0,0,0-.5,1.9,4.49,4.49,0,0,0,.5,1.9,4.36,4.36,0,0,0,1.3,1.4,2.9,2.9,0,0,0,1.8.5,3.74,3.74,0,0,0,1.8-.5,3.25,3.25,0,0,0,1.3-1.3,4.14,4.14,0,0,0,.5-1.9,3.69,3.69,0,0,0-1.1-2.7A2.79,2.79,0,0,0,231.7,175.8Zm16.6-4.5v12.8h-1.2v-1.6a5.52,5.52,0,0,1-1.7,1.4,4.46,4.46,0,0,1-5.3-.9,4.83,4.83,0,0,1-1.4-3.5,4.78,4.78,0,0,1,4.8-4.8,4.23,4.23,0,0,1,2,.5,4.28,4.28,0,0,1,1.6,1.4v-5.2h1.2Zm-4.8,4.5a3.45,3.45,0,0,0-1.8.5,3,3,0,0,0-1.3,1.4,4.14,4.14,0,0,0-.5,1.9,4.49,4.49,0,0,0,.5,1.9,4.36,4.36,0,0,0,1.3,1.4,2.9,2.9,0,0,0,1.8.5,3.74,3.74,0,0,0,1.8-.5,3.25,3.25,0,0,0,1.3-1.3,4.14,4.14,0,0,0,.5-1.9A3.69,3.69,0,0,0,246,177,2.79,2.79,0,0,0,243.5,175.8Zm16.6-1V184h-1.2v-1.6a5.52,5.52,0,0,1-1.7,1.4,4.46,4.46,0,0,1-5.3-.9,4.83,4.83,0,0,1-1.4-3.5,4.78,4.78,0,0,1,4.8-4.8,4.23,4.23,0,0,1,2,.5,4.28,4.28,0,0,1,1.6,1.4v-1.7Zm-4.7,1a3.45,3.45,0,0,0-1.8.5,3,3,0,0,0-1.3,1.4,4.14,4.14,0,0,0-.5,1.9,4.49,4.49,0,0,0,.5,1.9,4.36,4.36,0,0,0,1.3,1.4,2.9,2.9,0,0,0,1.8.5,3.74,3.74,0,0,0,1.8-.5,3.25,3.25,0,0,0,1.3-1.3,4.14,4.14,0,0,0,.5-1.9,3.69,3.69,0,0,0-1.1-2.7A2.79,2.79,0,0,0,255.4,175.8Zm8.4-4.4H265v3.4h1.9v1H265V184h-1.2v-8.2h-1.6v-1h1.6Zm14,3.4V184h-1.2v-1.6a5.52,5.52,0,0,1-1.7,1.4,4.46,4.46,0,0,1-5.3-.9,4.83,4.83,0,0,1-1.4-3.5,4.78,4.78,0,0,1,4.8-4.8,4.23,4.23,0,0,1,2,.5,4.28,4.28,0,0,1,1.6,1.4v-1.7Zm-4.7,1a3.45,3.45,0,0,0-1.8.5,3,3,0,0,0-1.3,1.4,4.14,4.14,0,0,0-.5,1.9,4.49,4.49,0,0,0,.5,1.9,4.36,4.36,0,0,0,1.3,1.4,2.9,2.9,0,0,0,1.8.5,3.74,3.74,0,0,0,1.8-.5,3.25,3.25,0,0,0,1.3-1.3,4.14,4.14,0,0,0,.5-1.9,3.69,3.69,0,0,0-1.1-2.7A2.79,2.79,0,0,0,273.1,175.8Zm24-1.9-1,.8a5.26,5.26,0,0,0-2-1.6,5.34,5.34,0,0,0-2.5-.5,5.55,5.55,0,0,0-2.8.7,6.06,6.06,0,0,0-2,1.9,5.41,5.41,0,0,0,.9,6.5,5.44,5.44,0,0,0,3.9,1.5,5.86,5.86,0,0,0,4.4-2l1,.7a5.78,5.78,0,0,1-2.3,1.8,7.79,7.79,0,0,1-3.1.6,6.45,6.45,0,0,1-5.2-2.2,6.29,6.29,0,0,1-1.6-4.4,6,6,0,0,1,1.9-4.6,6.9,6.9,0,0,1,4.8-1.9,6.17,6.17,0,0,1,3.1.7A6.34,6.34,0,0,1,297.1,173.9Zm6.6.7a4.54,4.54,0,0,1,3.5,1.5,5,5,0,0,1,0,6.7,4.32,4.32,0,0,1-3.5,1.4,4.67,4.67,0,0,1-3.5-1.4,4.84,4.84,0,0,1-1.3-3.4,4.45,4.45,0,0,1,1.3-3.3A4.54,4.54,0,0,1,303.7,174.6Zm0,1.2a3.41,3.41,0,0,0-2.5,1.1,3.54,3.54,0,0,0-1,2.6,4.14,4.14,0,0,0,.5,1.9,3.25,3.25,0,0,0,1.3,1.3,4.07,4.07,0,0,0,1.8.5,3.45,3.45,0,0,0,1.8-.5,3.25,3.25,0,0,0,1.3-1.3,4.14,4.14,0,0,0,.5-1.9,3.63,3.63,0,0,0-1.1-2.6A3.41,3.41,0,0,0,303.7,175.8Zm6.8-4.5h1.2v12.8h-1.2Zm3.5,0h1.2v12.8H314Zm11.4,9.7,1,.5a6.45,6.45,0,0,1-1.1,1.6,3.77,3.77,0,0,1-1.5.9,4.84,4.84,0,0,1-1.8.3,4.26,4.26,0,0,1-3.5-1.5,5.28,5.28,0,0,1-1.3-3.3,4.89,4.89,0,0,1,1.1-3.1,4.19,4.19,0,0,1,3.6-1.7,4.71,4.71,0,0,1,4.8,4.9h-8.3a3.62,3.62,0,0,0,1,2.6,3.32,3.32,0,0,0,2.5,1,6.75,6.75,0,0,0,1.4-.2,4.13,4.13,0,0,0,1.1-.7A8.51,8.51,0,0,0,325.4,181Zm0-2.5a5.23,5.23,0,0,0-.7-1.5,2.73,2.73,0,0,0-1.2-.9,4.19,4.19,0,0,0-1.5-.4,3.17,3.17,0,0,0-2.3.9,4.34,4.34,0,0,0-1.1,1.9Zm12.4-1.7-.9.6a3.82,3.82,0,0,0-3.3-1.6,4.11,4.11,0,0,0-2.8,1.1,3.63,3.63,0,0,0-1.1,2.6,4.14,4.14,0,0,0,.5,1.9,3.16,3.16,0,0,0,1.4,1.4,4.55,4.55,0,0,0,2,.5,3.82,3.82,0,0,0,3.3-1.6l.9.6a3.35,3.35,0,0,1-1.8,1.5,7,7,0,0,1-2.5.5,4.9,4.9,0,0,1-3.6-1.4,4.39,4.39,0,0,1-1.4-3.4,4.51,4.51,0,0,1,.7-2.5,4.45,4.45,0,0,1,1.8-1.8,5.54,5.54,0,0,1,2.6-.6,5.66,5.66,0,0,1,1.8.3,5.23,5.23,0,0,1,1.5.7A2.73,2.73,0,0,1,337.8,176.8Zm3.4-5.4h1.2v3.4h1.9v1h-1.9V184h-1.2v-8.2h-1.6v-1h1.6Zm5.2-.3a1,1,0,1,1-.7.3A.91.91,0,0,1,346.4,171.1Zm-.6,3.7H347V184h-1.2Zm8-.2a4.54,4.54,0,0,1,3.5,1.5,5,5,0,0,1,0,6.7,4.32,4.32,0,0,1-3.5,1.4,4.67,4.67,0,0,1-3.5-1.4,4.84,4.84,0,0,1-1.3-3.4,4.45,4.45,0,0,1,1.3-3.3A4.54,4.54,0,0,1,353.8,174.6Zm0,1.2a3.41,3.41,0,0,0-2.5,1.1,3.54,3.54,0,0,0-1,2.6,4.14,4.14,0,0,0,.5,1.9,3.25,3.25,0,0,0,1.3,1.3,4.07,4.07,0,0,0,1.8.5,3.45,3.45,0,0,0,1.8-.5,3.25,3.25,0,0,0,1.3-1.3,4.14,4.14,0,0,0,.5-1.9,3.63,3.63,0,0,0-1.1-2.6A3.41,3.41,0,0,0,353.8,175.8Zm7-1H362v1.6a5.21,5.21,0,0,1,1.6-1.4,4.14,4.14,0,0,1,1.9-.5,3.45,3.45,0,0,1,1.8.5,3.33,3.33,0,0,1,1.2,1.4,8.76,8.76,0,0,1,.4,2.8v4.7h-1.2v-4.4a9.85,9.85,0,0,0-.1-2.1,2.19,2.19,0,0,0-.8-1.4,2.46,2.46,0,0,0-1.5-.5,2.64,2.64,0,0,0-1.9.7,3.41,3.41,0,0,0-1.1,1.8,12.94,12.94,0,0,0-.2,2.5v3.4h-1.2v-9.1Zm20.6-3.2,5.8,12.5h-1.3l-2-4.1h-5.4l-2,4.1h-1.4l5.9-12.5Zm-.1,2.6-2.1,4.5h4.2Zm7.9-2.6h2.5a16.53,16.53,0,0,1,2.9.2,2.83,2.83,0,0,1,1.7,1.1,3.21,3.21,0,0,1,0,4,3.67,3.67,0,0,1-1.8,1.1,20,20,0,0,1-3.2.2h-.9V184h-1.2Zm1.2,1.2V177h2.1a7.75,7.75,0,0,0,1.9-.2,1.76,1.76,0,0,0,.9-.8,2.13,2.13,0,0,0,.3-1.2,2,2,0,0,0-.3-1.1,1.76,1.76,0,0,0-.9-.8,7.45,7.45,0,0,0-1.8-.2h-2.2Zm8.9-1.2h1.2v12.5h-1.2Z"/><path class="cls-4" d="M262.5,190.7h.8a12.27,12.27,0,0,0-.8,2.5,13.58,13.58,0,0,0-.3,2.9,24.52,24.52,0,0,0,.2,2.7c.2.8.4,1.6.6,2.2h-.8a6.39,6.39,0,0,1-.6-2.2,21.12,21.12,0,0,1-.2-2.6,15.55,15.55,0,0,1,1.1-5.5Zm5,2.1a2.7,2.7,0,0,1,2.2,1,3.18,3.18,0,0,1,.8,2,3.23,3.23,0,0,1-.8,2.1,2.88,2.88,0,0,1-2.1.9,2.58,2.58,0,0,1-2.1-.9,3.23,3.23,0,0,1-.8-2.1,2.79,2.79,0,0,1,.8-2A2.33,2.33,0,0,1,267.5,192.8Zm0,.8a1.8,1.8,0,0,0-1.5.7,2.36,2.36,0,0,0-.7,1.6,2,2,0,0,0,.3,1.1,2,2,0,0,0,.8.8,2.17,2.17,0,0,0,2.2,0,3,3,0,0,0,.8-.8,2.28,2.28,0,0,0,.3-1.1,2,2,0,0,0-.7-1.6A1.8,1.8,0,0,0,267.5,193.6Zm4.3-.6h.7v1a2.84,2.84,0,0,1,1-.9,2.77,2.77,0,0,1,1.3-.3,3,3,0,0,1,2.1,5.1,2.66,2.66,0,0,1-2,.9,2.38,2.38,0,0,1-1.2-.3,3.92,3.92,0,0,1-1-.8v3H272V193Zm2.9.5a2,2,0,0,0-1.6.7,2.27,2.27,0,0,0-.6,1.6,2.66,2.66,0,0,0,.3,1.2,3,3,0,0,0,.8.8,2.17,2.17,0,0,0,2.2,0,1.76,1.76,0,0,0,.8-.9,2.28,2.28,0,0,0,.3-1.1,2,2,0,0,0-.3-1.1,2,2,0,0,0-.8-.8A1.5,1.5,0,0,0,274.7,193.5Zm9.1,3.3.6.3a3.59,3.59,0,0,1-.7,1,4.05,4.05,0,0,1-.9.5,3.59,3.59,0,0,1-1.1.2,2.94,2.94,0,0,1-2.2-.9,3.18,3.18,0,0,1-.8-2,2.64,2.64,0,0,1,.7-1.9,2.79,2.79,0,0,1,2.2-1.1,2.84,2.84,0,0,1,2.3,1.1,3.08,3.08,0,0,1,.6,1.9h-5.1a2.11,2.11,0,0,0,.6,1.6,2,2,0,0,0,1.5.6,1.88,1.88,0,0,0,.8-.2,1.61,1.61,0,0,0,.7-.4A1.39,1.39,0,0,0,283.8,196.8Zm0-1.6a1.88,1.88,0,0,0-.4-.9,2.76,2.76,0,0,0-.8-.6,3,3,0,0,0-1-.2,2.17,2.17,0,0,0-1.4.5,3.46,3.46,0,0,0-.7,1.2ZM286,193h.7v1a2.84,2.84,0,0,1,1-.9,2.38,2.38,0,0,1,1.2-.3,2,2,0,0,1,1.1.3,1.6,1.6,0,0,1,.7.9,3.92,3.92,0,0,1,.2,1.7v2.9h-.7v-2.7a4.15,4.15,0,0,0-.1-1.3c-.1-.4-.2-.7-.5-.8a1.4,1.4,0,0,0-.9-.3,1.92,1.92,0,0,0-1.2.4,2.59,2.59,0,0,0-.7,1.1,5.76,5.76,0,0,0-.1,1.5v2.1H286Zm6.4-2.2h.7v7.8h-.7Zm2.4-.1a.52.52,0,0,1,.4.2.76.76,0,0,1,.2.4.52.52,0,0,1-.2.4.76.76,0,0,1-.4.2.52.52,0,0,1-.4-.2.76.76,0,0,1-.2-.4.52.52,0,0,1,.2-.4A.4.4,0,0,1,294.8,190.7Zm-.3,2.3h.7v5.7h-.7Zm2.2,0h.7v1a2.84,2.84,0,0,1,1-.9,2.38,2.38,0,0,1,1.2-.3,2,2,0,0,1,1.1.3,1.6,1.6,0,0,1,.7.9,3.92,3.92,0,0,1,.2,1.7v2.9h-.7v-2.7a4.15,4.15,0,0,0-.1-1.3c-.1-.4-.2-.7-.5-.8a1.4,1.4,0,0,0-.9-.3,1.92,1.92,0,0,0-1.2.4,2.59,2.59,0,0,0-.7,1.1,5.76,5.76,0,0,0-.1,1.5v2.1h-.7Zm11.3,3.8.6.3a3.59,3.59,0,0,1-.7,1,4.05,4.05,0,0,1-.9.5,3.59,3.59,0,0,1-1.1.2,2.94,2.94,0,0,1-2.2-.9,3.18,3.18,0,0,1-.8-2,2.64,2.64,0,0,1,.7-1.9,2.79,2.79,0,0,1,2.2-1.1,2.84,2.84,0,0,1,2.3,1.1,3.08,3.08,0,0,1,.6,1.9h-5.1a2.11,2.11,0,0,0,.6,1.6,2,2,0,0,0,1.5.6,1.88,1.88,0,0,0,.8-.2,1.61,1.61,0,0,0,.7-.4A1.39,1.39,0,0,0,308,196.8Zm0-1.6a1.88,1.88,0,0,0-.4-.9,2.76,2.76,0,0,0-.8-.6,3,3,0,0,0-1-.2,2.17,2.17,0,0,0-1.4.5,3.46,3.46,0,0,0-.7,1.2Zm7.8-2.2v5.7h-.7v-1a2.54,2.54,0,0,1-1,.8,2.66,2.66,0,0,1-1.2.3,2.52,2.52,0,0,1-2-.9,2.78,2.78,0,0,1-.8-2.1,3.08,3.08,0,0,1,3-3,2.13,2.13,0,0,1,1.2.3,2.84,2.84,0,0,1,1,.9v-1Zm-2.9.5a2,2,0,0,0-1.1.3,3,3,0,0,0-.8.8,2.28,2.28,0,0,0-.3,1.1,2,2,0,0,0,.3,1.1,2.36,2.36,0,0,0,.8.9,2.17,2.17,0,0,0,2.2,0,2,2,0,0,0,.8-.8,2.13,2.13,0,0,0,.3-1.2,1.86,1.86,0,0,0-.7-1.6A2.53,2.53,0,0,0,312.9,193.5Zm9.4-.5h.7v4.5a7.45,7.45,0,0,1-.2,1.8,2.34,2.34,0,0,1-1,1.2,3.06,3.06,0,0,1-1.7.4,5.07,5.07,0,0,1-1.3-.2,1.46,1.46,0,0,1-.9-.6,4.31,4.31,0,0,1-.7-1h.8a1.55,1.55,0,0,0,.8.8,2.5,2.5,0,0,0,1.3.3,2.13,2.13,0,0,0,1.2-.3,1.58,1.58,0,0,0,.7-.7,4.14,4.14,0,0,0,.2-1.4v-.3a3.92,3.92,0,0,1-1,.8,2.77,2.77,0,0,1-1.3.3,2.82,2.82,0,0,1-1.5-.4,3.57,3.57,0,0,1-1.1-1,3.26,3.26,0,0,1-.4-1.4,2.82,2.82,0,0,1,.4-1.5,2.91,2.91,0,0,1,1.1-1.1,2.6,2.6,0,0,1,1.5-.4,2.66,2.66,0,0,1,1.2.3,4.36,4.36,0,0,1,1.1.9v-1Zm-2.2.5a2,2,0,0,0-1.1.3,2,2,0,0,0-.8.8,2.17,2.17,0,0,0,.3,2.6,2.27,2.27,0,0,0,1.6.6,2.06,2.06,0,0,0,2.2-2.2,2,2,0,0,0-.3-1.1,3,3,0,0,0-.8-.8A3.59,3.59,0,0,0,320.1,193.5Zm9.3,3.3.6.3a3.59,3.59,0,0,1-.7,1,4.05,4.05,0,0,1-.9.5,3.59,3.59,0,0,1-1.1.2,2.94,2.94,0,0,1-2.2-.9,3.18,3.18,0,0,1-.8-2,2.64,2.64,0,0,1,.7-1.9,2.79,2.79,0,0,1,2.2-1.1,2.84,2.84,0,0,1,2.3,1.1,3.08,3.08,0,0,1,.6,1.9H325a2.11,2.11,0,0,0,.6,1.6,2,2,0,0,0,1.5.6,1.88,1.88,0,0,0,.8-.2,1.61,1.61,0,0,0,.7-.4C328.9,197.4,329.1,197.1,329.4,196.8Zm0-1.6a1.88,1.88,0,0,0-.4-.9,2.76,2.76,0,0,0-.8-.6,3,3,0,0,0-1-.2,2.17,2.17,0,0,0-1.4.5,3.46,3.46,0,0,0-.7,1.2Zm2.8,5.7h-.8a12.48,12.48,0,0,0,1.1-5.3,24.52,24.52,0,0,0-.2-2.7,9.84,9.84,0,0,0-.6-2.2h.8a7.09,7.09,0,0,1,.6,2.2,11,11,0,0,1,.2,2.6,12.65,12.65,0,0,1-.3,2.8A19.75,19.75,0,0,1,332.2,200.9Z"/><path class="cls-5" d="M300.6,15.8H575.3V74.6H300.6Z"/><path class="cls-4" d="M408.3,43.5l1.8,2.3h-1.5l-1.3-1.6a6.65,6.65,0,0,1-3.4.9,6.41,6.41,0,0,1-4.7-1.9,6.19,6.19,0,0,1-1.9-4.6,6.29,6.29,0,0,1,.9-3.3,6.89,6.89,0,0,1,2.4-2.4,6.29,6.29,0,0,1,3.3-.9,6.41,6.41,0,0,1,4.7,1.9,6.26,6.26,0,0,1,1.9,4.7,7.08,7.08,0,0,1-.5,2.6A6.58,6.58,0,0,1,408.3,43.5Zm-.8-.9a5.28,5.28,0,0,0,1.6-3.9,5,5,0,0,0-.7-2.7,5.24,5.24,0,0,0-2-1.9,5.18,5.18,0,0,0-5.2,0,5.21,5.21,0,0,0-2.6,4.6,5.37,5.37,0,0,0,1.5,3.8,5.14,5.14,0,0,0,3.7,1.5,5,5,0,0,0,2.7-.7l-2.8-3.5h1.5Zm5.1-6.9h1.2V40a9.47,9.47,0,0,0,.2,2.2,2.21,2.21,0,0,0,1,1.3,3.14,3.14,0,0,0,3.4,0,2.34,2.34,0,0,0,1-1.2,9.86,9.86,0,0,0,.2-2.3V35.7h1.2v4.5a7.2,7.2,0,0,1-.5,2.9,3.74,3.74,0,0,1-1.3,1.5,3.79,3.79,0,0,1-2.2.5,4.77,4.77,0,0,1-2.2-.5,3.74,3.74,0,0,1-1.3-1.5,7.46,7.46,0,0,1-.4-2.9V35.7ZM431,41.9l1,.5a6.45,6.45,0,0,1-1.1,1.6,3.77,3.77,0,0,1-1.5.9,4.84,4.84,0,0,1-1.8.3,4.26,4.26,0,0,1-3.5-1.5,5.28,5.28,0,0,1-1.3-3.3,4.89,4.89,0,0,1,1.1-3.1,4.19,4.19,0,0,1,3.6-1.7,4.71,4.71,0,0,1,4.8,4.9H424a3.62,3.62,0,0,0,1,2.6,3.32,3.32,0,0,0,2.5,1,6.75,6.75,0,0,0,1.4-.2,4.13,4.13,0,0,0,1.1-.7A7.34,7.34,0,0,0,431,41.9Zm0-2.5a5.23,5.23,0,0,0-.7-1.5,2.73,2.73,0,0,0-1.2-.9,4.19,4.19,0,0,0-1.5-.4,3.17,3.17,0,0,0-2.3.9,4.34,4.34,0,0,0-1.1,1.9Zm3.1-3.7h1.2V37a6.53,6.53,0,0,1,1.1-1.2,1.92,1.92,0,0,1,1.2-.4,2.61,2.61,0,0,1,1.1.3l-.6,1a2.07,2.07,0,0,0-.6-.2,1.61,1.61,0,0,0-1.1.5,2.68,2.68,0,0,0-.8,1.5,19.06,19.06,0,0,0-.2,3.2v3.1h-1.2V35.7Zm4.7,0H440l3.2,7.1,3.1-7.1h1.3L442,48.3h-1.3l1.8-4.1Zm20.3-3.3,5.8,12.5h-1.3l-2-4.1h-5.4l-2,4.1H453l5.9-12.5Zm-.1,2.7-2.1,4.5h4.2Zm7.9-2.7h2.5a16.53,16.53,0,0,1,2.9.2,2.83,2.83,0,0,1,1.7,1.1,3.21,3.21,0,0,1,0,4,3.27,3.27,0,0,1-1.8,1.1,20,20,0,0,1-3.2.2h-.9v5.8h-1.2Zm1.2,1.3v4.2h2.1a7.75,7.75,0,0,0,1.9-.2,1.76,1.76,0,0,0,.9-.8,2.38,2.38,0,0,0,.3-1.2,2,2,0,0,0-.3-1.1,1.76,1.76,0,0,0-.9-.8,7.45,7.45,0,0,0-1.8-.2h-2.2Zm8.8-1.3h1.2V44.9h-1.2Z"/><path class="cls-4" d="M398.8,51.5h.8a12.27,12.27,0,0,0-.8,2.5,13.58,13.58,0,0,0-.3,2.9,24.52,24.52,0,0,0,.2,2.7c.2.8.4,1.6.6,2.2h-.8a6.39,6.39,0,0,1-.6-2.2,21.12,21.12,0,0,1-.2-2.6,12.65,12.65,0,0,1,.3-2.8A14.56,14.56,0,0,1,398.8,51.5Zm7.2,2.3h.7v4.5a7.45,7.45,0,0,1-.2,1.8,2.34,2.34,0,0,1-1,1.2,3.06,3.06,0,0,1-1.7.4,5.07,5.07,0,0,1-1.3-.2,1.46,1.46,0,0,1-.9-.6,4.31,4.31,0,0,1-.7-1h.8a1.55,1.55,0,0,0,.8.8,2.5,2.5,0,0,0,1.3.3,2.13,2.13,0,0,0,1.2-.3,1.58,1.58,0,0,0,.7-.7,4.14,4.14,0,0,0,.2-1.4v-.3a3.92,3.92,0,0,1-1,.8,2.77,2.77,0,0,1-1.3.3,2.82,2.82,0,0,1-1.5-.4,3.57,3.57,0,0,1-1.1-1,2.3,2.3,0,0,1-.4-1.4,2.82,2.82,0,0,1,.4-1.5,2.91,2.91,0,0,1,1.1-1.1,2.6,2.6,0,0,1,1.5-.4,2.66,2.66,0,0,1,1.2.3,4.36,4.36,0,0,1,1.1.9v-1Zm-2.1.6a2,2,0,0,0-1.1.3,2,2,0,0,0-.8.8,2.17,2.17,0,0,0,.3,2.6,2.43,2.43,0,0,0,3.2,0,2.11,2.11,0,0,0,.6-1.6,2,2,0,0,0-.3-1.1,3,3,0,0,0-.8-.8A4.25,4.25,0,0,0,403.9,54.4Zm4.1-.6h.8v.8a2.31,2.31,0,0,1,.7-.7,1.08,1.08,0,0,1,.8-.2,1.42,1.42,0,0,1,.6.2l-.4.6a.76.76,0,0,0-.4-.1,1.08,1.08,0,0,0-.7.3,1.93,1.93,0,0,0-.5.9,9.27,9.27,0,0,0-.1,2v1.9H408Zm9.2,0v5.7h-.7v-1a2.54,2.54,0,0,1-1,.8,2.66,2.66,0,0,1-1.2.3,2.52,2.52,0,0,1-2-.9,2.78,2.78,0,0,1-.8-2.1,3.08,3.08,0,0,1,3-3,2.13,2.13,0,0,1,1.2.3,2.84,2.84,0,0,1,1,.9v-1Zm-3,.6a2,2,0,0,0-1.1.3,3,3,0,0,0-.8.8,2.28,2.28,0,0,0-.3,1.1,2,2,0,0,0,.3,1.1,2.36,2.36,0,0,0,.8.9,2.17,2.17,0,0,0,2.2,0,2,2,0,0,0,.8-.8,2.13,2.13,0,0,0,.3-1.2,1.86,1.86,0,0,0-.7-1.6A1.75,1.75,0,0,0,414.2,54.4Zm4.6-.6h.7v1a2.84,2.84,0,0,1,1-.9,2.77,2.77,0,0,1,1.3-.3,3,3,0,0,1,2.1,5.1,2.66,2.66,0,0,1-2,.9,2.38,2.38,0,0,1-1.2-.3,3.92,3.92,0,0,1-1-.8v3H419V53.8Zm2.9.6a2,2,0,0,0-1.6.7,2.27,2.27,0,0,0-.6,1.6,2.66,2.66,0,0,0,.3,1.2,3,3,0,0,0,.8.8,2.28,2.28,0,0,0,1.1.3,2,2,0,0,0,1.1-.3,1.76,1.76,0,0,0,.8-.9,2.28,2.28,0,0,0,.3-1.1,2,2,0,0,0-.3-1.1,2,2,0,0,0-.8-.8A1.5,1.5,0,0,0,421.7,54.4Zm4.4-2.7h.7v3.2a2.84,2.84,0,0,1,1-.9,2.28,2.28,0,0,1,1.1-.3,2,2,0,0,1,1.1.3,1.6,1.6,0,0,1,.7.9,3.92,3.92,0,0,1,.2,1.7v2.9h-.7V56.8a4.15,4.15,0,0,0-.1-1.3c-.1-.4-.2-.7-.5-.8a1.4,1.4,0,0,0-.9-.3,1.92,1.92,0,0,0-1.2.4,2.59,2.59,0,0,0-.7,1.1,5.76,5.76,0,0,0-.1,1.5v2.1H426V51.7Zm12.1,2.1v7.7h-.7v-3a3.51,3.51,0,0,1-1,.8,2.66,2.66,0,0,1-1.2.3,2.88,2.88,0,0,1-2.1-.9,2.78,2.78,0,0,1-.8-2.1,3.08,3.08,0,0,1,3-3,2.77,2.77,0,0,1,1.3.3,2.84,2.84,0,0,1,1,.9v-1Zm-2.9.6a2,2,0,0,0-1.1.3,3,3,0,0,0-.8.8,2.28,2.28,0,0,0-.3,1.1,2,2,0,0,0,.3,1.1,2.36,2.36,0,0,0,.8.9,2.17,2.17,0,0,0,2.2,0,2,2,0,0,0,.8-.8,2.13,2.13,0,0,0,.3-1.2,1.86,1.86,0,0,0-.7-1.6A2,2,0,0,0,435.3,54.4Zm4.4-2.7h.7v7.8h-.7Zm7.3,3.6V53.1h.7v2.2H450V56h-2.3v2.2H447V56h-2.3v-.7Zm7.5-3.5H456a7.16,7.16,0,0,1,1.7.1,1.64,1.64,0,0,1,1.1.7,1.75,1.75,0,0,1,.4,1.2,2,2,0,0,1-.3,1.1,1.78,1.78,0,0,1-.8.7,3.42,3.42,0,0,1-1.5.2l2.8,3.6h-1l-2.8-3.6h-.4v3.6h-.8V51.8Zm.7.8v2.6h1.3a3.11,3.11,0,0,0,1.1-.1,1.33,1.33,0,0,0,.6-.5,1.33,1.33,0,0,0,0-1.4,1.21,1.21,0,0,0-.5-.5,3.11,3.11,0,0,0-1.1-.1Zm5.7-.8h4.4v.8h-3.6V55h3.6v.8h-3.6v3h3.6v.8h-4.4Zm4.9,6.3.7-.4c.5.8,1,1.3,1.6,1.3a1.45,1.45,0,0,0,.7-.2,1.21,1.21,0,0,0,.5-.5,1.45,1.45,0,0,0,.2-.7,1.6,1.6,0,0,0-.3-.8,8.14,8.14,0,0,0-1.3-1.2c-.6-.5-1-.8-1.2-1a1.92,1.92,0,0,1-.4-1.2,2.92,2.92,0,0,1,.2-.9,2.34,2.34,0,0,1,.7-.7,1.64,1.64,0,0,1,1-.2,1.69,1.69,0,0,1,1,.3,3.14,3.14,0,0,1,1,1l-.6.5a6.53,6.53,0,0,0-.7-.8,1.45,1.45,0,0,0-.7-.2,1.14,1.14,0,0,0-.8.3,1.07,1.07,0,0,0-.2,1.2,1.76,1.76,0,0,0,.4.5,6.22,6.22,0,0,0,1,.8,6,6,0,0,1,1.4,1.3,3,3,0,0,1,.4,1.1,2.2,2.2,0,0,1-.6,1.5,2,2,0,0,1-1.5.6,2,2,0,0,1-1.3-.4A2.76,2.76,0,0,1,465.8,58.1Zm5.4-5.5v-.8h4.2v.8h-1.7v6.9h-.8V52.6Zm5.8,9.1h-.8a12.48,12.48,0,0,0,1.1-5.3,24.52,24.52,0,0,0-.2-2.7,9.84,9.84,0,0,0-.6-2.2h.8a7.09,7.09,0,0,1,.6,2.2,11,11,0,0,1,.2,2.6,12.65,12.65,0,0,1-.3,2.8A9.9,9.9,0,0,1,477,61.7Z"/><path class="cls-6" d="M25.7,254.7H179v27.5H25.7Z"/><path class="cls-4" d="M53.7,266.4a2.7,2.7,0,0,1,2.2,1,3.18,3.18,0,0,1,.8,2,3.23,3.23,0,0,1-.8,2.1,2.88,2.88,0,0,1-2.1.9,2.58,2.58,0,0,1-2.1-.9,3.23,3.23,0,0,1-.8-2.1,2.79,2.79,0,0,1,.8-2A2.12,2.12,0,0,1,53.7,266.4Zm0,.7a1.8,1.8,0,0,0-1.5.7,2.36,2.36,0,0,0-.7,1.6,2,2,0,0,0,.3,1.1,2,2,0,0,0,.8.8,2.17,2.17,0,0,0,2.2,0,3,3,0,0,0,.8-.8,2.28,2.28,0,0,0,.3-1.1,2,2,0,0,0-.7-1.6A1.8,1.8,0,0,0,53.7,267.1Zm4.3-.5h.7v1a2.84,2.84,0,0,1,1-.9,2.77,2.77,0,0,1,1.3-.3,3,3,0,0,1,2.1,5.1,2.66,2.66,0,0,1-2,.9,2.38,2.38,0,0,1-1.2-.3,3.92,3.92,0,0,1-1-.8v3H58Zm2.9.5a2,2,0,0,0-1.6.7,2.27,2.27,0,0,0-.6,1.6,2.66,2.66,0,0,0,.3,1.2,3,3,0,0,0,.8.8,2.17,2.17,0,0,0,2.2,0,1.76,1.76,0,0,0,.8-.9,2.28,2.28,0,0,0,.3-1.1,2,2,0,0,0-.3-1.1,2,2,0,0,0-.8-.8A1.5,1.5,0,0,0,60.9,267.1Zm9.1,3.2.6.3a3.59,3.59,0,0,1-.7,1,4.05,4.05,0,0,1-.9.5,3.59,3.59,0,0,1-1.1.2,2.94,2.94,0,0,1-2.2-.9,3.18,3.18,0,0,1-.8-2,2.64,2.64,0,0,1,.7-1.9,2.79,2.79,0,0,1,2.2-1.1,2.84,2.84,0,0,1,2.3,1.1,3.08,3.08,0,0,1,.6,1.9H65.6a2.11,2.11,0,0,0,.6,1.6,2,2,0,0,0,1.5.6,1.88,1.88,0,0,0,.8-.2,1.61,1.61,0,0,0,.7-.4C69.6,271,69.8,270.7,70,270.3Zm0-1.5a1.88,1.88,0,0,0-.4-.9,2.76,2.76,0,0,0-.8-.6,3,3,0,0,0-1-.2,2.17,2.17,0,0,0-1.4.5,3.46,3.46,0,0,0-.7,1.2Zm2.2-2.2h.7v1a2.84,2.84,0,0,1,1-.9,2.38,2.38,0,0,1,1.2-.3,2,2,0,0,1,1.1.3,1.6,1.6,0,0,1,.7.9,3.92,3.92,0,0,1,.2,1.7v2.9h-.7v-2.7a4.15,4.15,0,0,0-.1-1.3c-.1-.4-.2-.7-.5-.8a1.4,1.4,0,0,0-.9-.3,1.92,1.92,0,0,0-1.2.4,2.59,2.59,0,0,0-.7,1.1,5.76,5.76,0,0,0-.1,1.5v2.1h-.7Zm6.4-2.2h.7v7.8h-.7Zm2.5-.2a.52.52,0,0,1,.4.2.76.76,0,0,1,.2.4.52.52,0,0,1-.2.4.76.76,0,0,1-.4.2.52.52,0,0,1-.4-.2.76.76,0,0,1-.2-.4.71.71,0,0,1,.6-.6Zm-.4,2.4h.7v5.7h-.7Zm2.3,0h.7v1a2.84,2.84,0,0,1,1-.9,2.38,2.38,0,0,1,1.2-.3,2,2,0,0,1,1.1.3,1.6,1.6,0,0,1,.7.9,3.92,3.92,0,0,1,.2,1.7v2.9h-.7v-2.7a4.15,4.15,0,0,0-.1-1.3c-.1-.4-.2-.7-.5-.8a1.4,1.4,0,0,0-.9-.3,1.92,1.92,0,0,0-1.2.4,2.59,2.59,0,0,0-.7,1.1,5.76,5.76,0,0,0-.1,1.5v2.1H83Zm11.2,3.7.6.3a3.59,3.59,0,0,1-.7,1,4.05,4.05,0,0,1-.9.5,3.59,3.59,0,0,1-1.1.2,2.94,2.94,0,0,1-2.2-.9,3.18,3.18,0,0,1-.8-2,2.64,2.64,0,0,1,.7-1.9,2.79,2.79,0,0,1,2.2-1.1,2.84,2.84,0,0,1,2.3,1.1,3.08,3.08,0,0,1,.6,1.9H90a2.11,2.11,0,0,0,.6,1.6,2,2,0,0,0,1.5.6,1.88,1.88,0,0,0,.8-.2,1.61,1.61,0,0,0,.7-.4C93.8,271,94,270.7,94.2,270.3Zm0-1.5a1.88,1.88,0,0,0-.4-.9,2.76,2.76,0,0,0-.8-.6,3,3,0,0,0-1-.2,2.17,2.17,0,0,0-1.4.5,3.46,3.46,0,0,0-.7,1.2Zm7.8-2.2v5.7h-.7v-1a2.54,2.54,0,0,1-1,.8,2.66,2.66,0,0,1-1.2.3,2.52,2.52,0,0,1-2-.9,2.78,2.78,0,0,1-.8-2.1,3.08,3.08,0,0,1,3-3,2.13,2.13,0,0,1,1.2.3,2.84,2.84,0,0,1,1,.9v-1Zm-2.9.5a2,2,0,0,0-1.1.3,3,3,0,0,0-.8.8,2.28,2.28,0,0,0-.3,1.1,2,2,0,0,0,.3,1.1,2.36,2.36,0,0,0,.8.9,2.17,2.17,0,0,0,2.2,0,2,2,0,0,0,.8-.8,2.13,2.13,0,0,0,.3-1.2,1.86,1.86,0,0,0-.7-1.6A1.75,1.75,0,0,0,99.1,267.1Zm9.5-.5h.7v4.5a7.45,7.45,0,0,1-.2,1.8,2.34,2.34,0,0,1-1,1.2,3.06,3.06,0,0,1-1.7.4,5.07,5.07,0,0,1-1.3-.2,1.46,1.46,0,0,1-.9-.6,4.31,4.31,0,0,1-.7-1h.8a1.55,1.55,0,0,0,.8.8,2.5,2.5,0,0,0,1.3.3,2.13,2.13,0,0,0,1.2-.3,1.58,1.58,0,0,0,.7-.7,4.14,4.14,0,0,0,.2-1.4v-.3a3.92,3.92,0,0,1-1,.8,2.77,2.77,0,0,1-1.3.3,2.82,2.82,0,0,1-1.5-.4,3.57,3.57,0,0,1-1.1-1,2.3,2.3,0,0,1-.4-1.4,2.82,2.82,0,0,1,.4-1.5,2.91,2.91,0,0,1,1.1-1.1,2.6,2.6,0,0,1,1.5-.4,2.66,2.66,0,0,1,1.2.3,4.36,4.36,0,0,1,1.1.9v-1Zm-2.2.5a2,2,0,0,0-1.1.3,2,2,0,0,0-.8.8,2.17,2.17,0,0,0,.3,2.6,2.27,2.27,0,0,0,1.6.6,2.06,2.06,0,0,0,2.2-2.2,2,2,0,0,0-.3-1.1,3,3,0,0,0-.8-.8A3.59,3.59,0,0,0,106.4,267.1Zm9.2,3.2.6.3a3.59,3.59,0,0,1-.7,1,4.05,4.05,0,0,1-.9.5,3.59,3.59,0,0,1-1.1.2,2.94,2.94,0,0,1-2.2-.9,3.18,3.18,0,0,1-.8-2,2.64,2.64,0,0,1,.7-1.9,2.79,2.79,0,0,1,2.2-1.1,2.84,2.84,0,0,1,2.3,1.1,3.08,3.08,0,0,1,.6,1.9h-5.1a2.11,2.11,0,0,0,.6,1.6,2,2,0,0,0,1.5.6,1.88,1.88,0,0,0,.8-.2,1.61,1.61,0,0,0,.7-.4C115.2,271,115.4,270.7,115.6,270.3Zm0-1.5a1.88,1.88,0,0,0-.4-.9,2.76,2.76,0,0,0-.8-.6,3,3,0,0,0-1-.2,2.17,2.17,0,0,0-1.4.5,3.46,3.46,0,0,0-.7,1.2Zm1.7.2h2.9v.6h-2.9Zm9.7-2.4v5.7h-.7v-1a2.54,2.54,0,0,1-1,.8,2.66,2.66,0,0,1-1.2.3,2.52,2.52,0,0,1-2-.9,2.78,2.78,0,0,1-.8-2.1,3.08,3.08,0,0,1,3-3,2.13,2.13,0,0,1,1.2.3,2.84,2.84,0,0,1,1,.9v-1Zm-3,.5a2,2,0,0,0-1.1.3,3,3,0,0,0-.8.8,2.28,2.28,0,0,0-.3,1.1,2,2,0,0,0,.3,1.1,2.36,2.36,0,0,0,.8.9,2.17,2.17,0,0,0,2.2,0,2,2,0,0,0,.8-.8,2.13,2.13,0,0,0,.3-1.2,1.86,1.86,0,0,0-.7-1.6A1.75,1.75,0,0,0,124,267.1Zm4.8-2.9a.52.52,0,0,1,.4.2.76.76,0,0,1,.2.4.52.52,0,0,1-.2.4.76.76,0,0,1-.4.2.52.52,0,0,1-.4-.2.76.76,0,0,1-.2-.4.52.52,0,0,1,.2-.4A.76.76,0,0,1,128.8,264.2Zm-.3,2.4h.7v5.7h-.7Zm1.9,0h.8v.8a2.31,2.31,0,0,1,.7-.7,1.08,1.08,0,0,1,.8-.2,1.42,1.42,0,0,1,.6.2l-.4.6a.76.76,0,0,0-.4-.1,1.08,1.08,0,0,0-.7.3,1.93,1.93,0,0,0-.5.9,9.27,9.27,0,0,0-.1,2v1.9h-.8v-5.7Zm5.9-2.2v.7a2.54,2.54,0,0,0-.7-.2.37.37,0,0,0-.3.1c-.1.1-.2.1-.2.2v1.4h1.2v.6H135v5h-.7v-5h-.8v-.6h.8v-.9a2.22,2.22,0,0,1,.1-.9.78.78,0,0,1,.4-.4,1.45,1.45,0,0,1,.7-.2A4.5,4.5,0,0,1,136.3,264.4Zm.9,0h.7v7.8h-.7Zm4.9,2a2.7,2.7,0,0,1,2.2,1,3.18,3.18,0,0,1,.8,2,3.23,3.23,0,0,1-.8,2.1,2.88,2.88,0,0,1-2.1.9,2.72,2.72,0,0,1-2.1-.9,3.23,3.23,0,0,1-.8-2.1,2.79,2.79,0,0,1,.8-2A2.12,2.12,0,0,1,142.1,266.4Zm0,.7a1.8,1.8,0,0,0-1.5.7,2.36,2.36,0,0,0-.7,1.6,2,2,0,0,0,.3,1.1,2,2,0,0,0,.8.8,2.17,2.17,0,0,0,2.2,0,3,3,0,0,0,.8-.8,2.28,2.28,0,0,0,.3-1.1,2,2,0,0,0-.7-1.6A1.8,1.8,0,0,0,142.1,267.1Zm3.5-.5h.8l1.7,4.1,1.8-4.1h.1l1.8,4.1,1.8-4.1h.8l-2.5,5.7h-.1l-1.8-4-1.8,4H148Z"/><path class="cls-7" d="M19.4,279H185.3v40.3H19.4Z"/><path class="cls-4" d="M80.8,292.8l5.8,12.5H85.3l-2-4.1H78l-2,4.1H74.6l5.9-12.5Zm-.1,2.6-2.1,4.5h4.2Zm8.1-3.2a1,1,0,1,1-.7.3A.91.91,0,0,1,88.8,292.2Zm-.6,3.8h1.2v9.2H88.2Zm3.2,0h1.2v1.3a6.53,6.53,0,0,1,1.1-1.2,1.92,1.92,0,0,1,1.2-.4,2.61,2.61,0,0,1,1.1.3l-.6,1a2.07,2.07,0,0,0-.6-.2,1.61,1.61,0,0,0-1.1.5,2.68,2.68,0,0,0-.8,1.5,19.06,19.06,0,0,0-.2,3.2v3.1H91.5V296Zm9.5-3.5v1.2a2.61,2.61,0,0,0-1.1-.3,1.27,1.27,0,0,0-.6.1l-.3.3V296h1.9v1H98.9v8.2H97.7V297H96.5v-1h1.2v-1.4a4.14,4.14,0,0,1,.2-1.4,1.34,1.34,0,0,1,.6-.7,1.8,1.8,0,0,1,1.1-.3A4.51,4.51,0,0,1,100.9,292.5Zm1.4,0h1.2v12.8h-1.2Zm8,3.3a4.54,4.54,0,0,1,3.5,1.5,5,5,0,0,1,0,6.7,4.32,4.32,0,0,1-3.5,1.4,4.67,4.67,0,0,1-3.5-1.4,4.84,4.84,0,0,1-1.3-3.4,4.45,4.45,0,0,1,1.3-3.3A4.54,4.54,0,0,1,110.3,295.8Zm0,1.2a3.41,3.41,0,0,0-2.5,1.1,3.54,3.54,0,0,0-1,2.6,4.14,4.14,0,0,0,.5,1.9,3.25,3.25,0,0,0,1.3,1.3,4.07,4.07,0,0,0,1.8.5,3.45,3.45,0,0,0,1.8-.5,3.25,3.25,0,0,0,1.3-1.3,4.14,4.14,0,0,0,.5-1.9,3.63,3.63,0,0,0-1.1-2.6A3.41,3.41,0,0,0,110.3,297Zm5.8-1h1.2l2.8,6.7,3-6.7h.2l2.9,6.7,2.9-6.7h1.2l-4,9.2h-.2l-2.9-6.6-3,6.6H120Z"/><path class="cls-8" d="M102.3,254.7V228.4"/><path class="cls-9" d="M105.6,228.5l-3.3-9.1L99,228.5Z"/><path class="cls-6" d="M220.7,254.7H374v27.5H220.7Z"/><path class="cls-4" d="M252.1,266.4a2.7,2.7,0,0,1,2.2,1,3.18,3.18,0,0,1,.8,2,3.44,3.44,0,0,1-.8,2.1,2.88,2.88,0,0,1-2.1.9,2.72,2.72,0,0,1-2.1-.9,3.23,3.23,0,0,1-.8-2.1,2.79,2.79,0,0,1,.8-2A2.12,2.12,0,0,1,252.1,266.4Zm0,.7a1.8,1.8,0,0,0-1.5.7,2.57,2.57,0,0,0-.7,1.6,2,2,0,0,0,.3,1.1,3,3,0,0,0,.8.8,2.17,2.17,0,0,0,2.2,0,3,3,0,0,0,.8-.8,2,2,0,0,0,.3-1.1,2,2,0,0,0-.7-1.6A2.33,2.33,0,0,0,252.1,267.1Zm4.3-.5h.7v1a2.84,2.84,0,0,1,1-.9,2.77,2.77,0,0,1,1.3-.3,3,3,0,0,1,2.1,5.1,2.66,2.66,0,0,1-2,.9,2.38,2.38,0,0,1-1.2-.3,3.92,3.92,0,0,1-1-.8v3h-.7v-7.7Zm2.9.5a2,2,0,0,0-1.6.7,2.27,2.27,0,0,0-.6,1.6,2.66,2.66,0,0,0,.3,1.2,3,3,0,0,0,.8.8,2.28,2.28,0,0,0,1.1.3,2,2,0,0,0,1.1-.3,1.76,1.76,0,0,0,.8-.9,2.28,2.28,0,0,0,.3-1.1,2,2,0,0,0-.3-1.1,2,2,0,0,0-.8-.8A1.5,1.5,0,0,0,259.3,267.1Zm9.1,3.2.6.3a3.59,3.59,0,0,1-.7,1,4.05,4.05,0,0,1-.9.5,3.59,3.59,0,0,1-1.1.2,2.94,2.94,0,0,1-2.2-.9,3.18,3.18,0,0,1-.8-2,2.64,2.64,0,0,1,.7-1.9,2.79,2.79,0,0,1,2.2-1.1,2.84,2.84,0,0,1,2.3,1.1,3.08,3.08,0,0,1,.6,1.9H264a2.11,2.11,0,0,0,.6,1.6,2,2,0,0,0,1.5.6,1.88,1.88,0,0,0,.8-.2,1.61,1.61,0,0,0,.7-.4C268,271,268.2,270.7,268.4,270.3Zm0-1.5a1.88,1.88,0,0,0-.4-.9,2.76,2.76,0,0,0-.8-.6,3,3,0,0,0-1-.2,2.17,2.17,0,0,0-1.4.5,3.46,3.46,0,0,0-.7,1.2Zm2.2-2.2h.7v1a2.84,2.84,0,0,1,1-.9,2.38,2.38,0,0,1,1.2-.3,2,2,0,0,1,1.1.3,1.6,1.6,0,0,1,.7.9,6.53,6.53,0,0,1,.2,1.7v2.9h-.7v-2.7a4.15,4.15,0,0,0-.1-1.3c-.1-.4-.2-.7-.5-.8a1.4,1.4,0,0,0-.9-.3,1.92,1.92,0,0,0-1.2.4,2.59,2.59,0,0,0-.7,1.1,5.76,5.76,0,0,0-.1,1.5v2.1h-.7Zm6.4-2.2h.7v7.8H277Zm2.5-.2a.52.52,0,0,1,.4.2.6.6,0,0,1-.4,1,.52.52,0,0,1-.4-.2.5.5,0,0,1,0-.8A.52.52,0,0,1,279.5,264.2Zm-.4,2.4h.7v5.7h-.7Zm2.2,0h.7v1a2.84,2.84,0,0,1,1-.9,2.38,2.38,0,0,1,1.2-.3,2,2,0,0,1,1.1.3,1.6,1.6,0,0,1,.7.9,6.53,6.53,0,0,1,.2,1.7v2.9h-.7v-2.7a4.15,4.15,0,0,0-.1-1.3c-.1-.4-.2-.7-.5-.8a1.4,1.4,0,0,0-.9-.3,1.92,1.92,0,0,0-1.2.4,2.59,2.59,0,0,0-.7,1.1,5.76,5.76,0,0,0-.1,1.5v2.1h-.7Zm11.3,3.7.6.3a3.59,3.59,0,0,1-.7,1,4.05,4.05,0,0,1-.9.5,3.59,3.59,0,0,1-1.1.2,2.94,2.94,0,0,1-2.2-.9,2.71,2.71,0,0,1-.8-2,2.64,2.64,0,0,1,.7-1.9,2.79,2.79,0,0,1,2.2-1.1,2.84,2.84,0,0,1,2.3,1.1,3.08,3.08,0,0,1,.6,1.9h-5.1a2.11,2.11,0,0,0,.6,1.6,2,2,0,0,0,1.5.6,1.88,1.88,0,0,0,.8-.2,2.51,2.51,0,0,0,.7-.4C292.2,271,292.4,270.7,292.6,270.3Zm0-1.5a1.88,1.88,0,0,0-.4-.9,2.76,2.76,0,0,0-.8-.6,3,3,0,0,0-1-.2,2.17,2.17,0,0,0-1.4.5,3.46,3.46,0,0,0-.7,1.2Zm7.8-2.2v5.7h-.7v-1a2.54,2.54,0,0,1-1,.8,2.66,2.66,0,0,1-1.2.3,2.52,2.52,0,0,1-2-.9,2.78,2.78,0,0,1-.8-2.1,3.08,3.08,0,0,1,3-3,2.13,2.13,0,0,1,1.2.3,2.84,2.84,0,0,1,1,.9v-1Zm-2.9.5a2,2,0,0,0-1.1.3,3,3,0,0,0-.8.8,2.28,2.28,0,0,0-.3,1.1,2,2,0,0,0,.3,1.1,2.36,2.36,0,0,0,.8.9,2.17,2.17,0,0,0,2.2,0,2,2,0,0,0,.8-.8,2.13,2.13,0,0,0,.3-1.2,1.86,1.86,0,0,0-.7-1.6A1.89,1.89,0,0,0,297.5,267.1Zm9.4-.5h.7v4.5a7.45,7.45,0,0,1-.2,1.8,2.34,2.34,0,0,1-1,1.2,3.06,3.06,0,0,1-1.7.4,5.07,5.07,0,0,1-1.3-.2,1.46,1.46,0,0,1-.9-.6,4.31,4.31,0,0,1-.7-1h.8a1.55,1.55,0,0,0,.8.8,2.5,2.5,0,0,0,1.3.3,2.13,2.13,0,0,0,1.2-.3,1.58,1.58,0,0,0,.7-.7,4.14,4.14,0,0,0,.2-1.4v-.3a3.92,3.92,0,0,1-1,.8,2.77,2.77,0,0,1-1.3.3,2.82,2.82,0,0,1-1.5-.4,3.57,3.57,0,0,1-1.1-1,2.3,2.3,0,0,1-.4-1.4,2.82,2.82,0,0,1,.4-1.5,2.91,2.91,0,0,1,1.1-1.1,2.6,2.6,0,0,1,1.5-.4,2.66,2.66,0,0,1,1.2.3,4.36,4.36,0,0,1,1.1.9v-1Zm-2.1.5a2,2,0,0,0-1.1.3,2,2,0,0,0-.8.8,2.17,2.17,0,0,0,.3,2.6,2.27,2.27,0,0,0,1.6.6,2.06,2.06,0,0,0,2.2-2.2,2,2,0,0,0-.3-1.1,3,3,0,0,0-.8-.8A2,2,0,0,0,304.8,267.1Zm9.2,3.2.6.3a3.59,3.59,0,0,1-.7,1,4.05,4.05,0,0,1-.9.5,3.59,3.59,0,0,1-1.1.2,2.94,2.94,0,0,1-2.2-.9,3.18,3.18,0,0,1-.8-2,2.64,2.64,0,0,1,.7-1.9,2.79,2.79,0,0,1,2.2-1.1,2.84,2.84,0,0,1,2.3,1.1,3.08,3.08,0,0,1,.6,1.9h-5.1a2.11,2.11,0,0,0,.6,1.6,2,2,0,0,0,1.5.6,1.88,1.88,0,0,0,.8-.2,1.61,1.61,0,0,0,.7-.4C313.6,271,313.8,270.7,314,270.3Zm0-1.5a1.88,1.88,0,0,0-.4-.9,2.76,2.76,0,0,0-.8-.6,3,3,0,0,0-1-.2,2.17,2.17,0,0,0-1.4.5,3.46,3.46,0,0,0-.7,1.2Zm1.7.2h2.9v.6h-2.9Zm6.8-1.8-.5.5a1.74,1.74,0,0,0-1.1-.6,1.42,1.42,0,0,0-.6.2.55.55,0,0,0-.2.5.76.76,0,0,0,.2.5,1.71,1.71,0,0,0,.9.6,6.29,6.29,0,0,1,1.1.8,1.61,1.61,0,0,1,.3.9,1.85,1.85,0,0,1-.5,1.2,1.66,1.66,0,0,1-1.2.5,2.92,2.92,0,0,1-.9-.2,1.34,1.34,0,0,1-.7-.6l.5-.5a1.73,1.73,0,0,0,1.2.6,1,1,0,0,0,1-1,1.42,1.42,0,0,0-.2-.6,1.71,1.71,0,0,0-.9-.6c-.5-.3-.9-.5-1-.8a1.61,1.61,0,0,1-.3-.9,1.38,1.38,0,0,1,1.5-1.5A5.27,5.27,0,0,1,322.5,267.2Zm1.3-.6h.7v1a2.84,2.84,0,0,1,1-.9,2.77,2.77,0,0,1,1.3-.3,3,3,0,0,1,2.1,5.1,2.66,2.66,0,0,1-2,.9,2.38,2.38,0,0,1-1.2-.3,3.92,3.92,0,0,1-1-.8v3H324v-7.7Zm2.9.5a2,2,0,0,0-1.6.7,2.27,2.27,0,0,0-.6,1.6,2.66,2.66,0,0,0,.3,1.2,3,3,0,0,0,.8.8,2.28,2.28,0,0,0,1.1.3,2,2,0,0,0,1.1-.3,1.76,1.76,0,0,0,.8-.9,2.28,2.28,0,0,0,.3-1.1,2,2,0,0,0-.3-1.1,2,2,0,0,0-.8-.8A1.37,1.37,0,0,0,326.7,267.1Zm10-.5v5.7H336v-1a2.54,2.54,0,0,1-1,.8,2.66,2.66,0,0,1-1.2.3,2.52,2.52,0,0,1-2-.9,2.78,2.78,0,0,1-.8-2.1,3.08,3.08,0,0,1,3-3,2.13,2.13,0,0,1,1.2.3,2.84,2.84,0,0,1,1,.9v-1Zm-2.9.5a2,2,0,0,0-1.1.3,3,3,0,0,0-.8.8,2.28,2.28,0,0,0-.3,1.1,2,2,0,0,0,.3,1.1,2.36,2.36,0,0,0,.8.9,2.17,2.17,0,0,0,2.2,0,2,2,0,0,0,.8-.8,2.13,2.13,0,0,0,.3-1.2,1.86,1.86,0,0,0-.7-1.6A1.89,1.89,0,0,0,333.8,267.1Zm4.3-.5h.8v.8a2.31,2.31,0,0,1,.7-.7,1.08,1.08,0,0,1,.8-.2,1.42,1.42,0,0,1,.6.2l-.4.6a.76.76,0,0,0-.4-.1,1.08,1.08,0,0,0-.7.3,1.93,1.93,0,0,0-.5.9,9.27,9.27,0,0,0-.1,2v1.9h-.8Zm3.5-2.2h.7v4.5l2.6-2.3H346l-3.1,2.7,3.3,3h-1l-2.8-2.5v2.5h-.7v-7.9Z"/><path class="cls-7" d="M214.5,279H380.3v40.3H214.5Z"/><path class="cls-4" d="M274.5,302.9l1-.6c.8,1.4,1.6,2.1,2.6,2.1a2.66,2.66,0,0,0,1.2-.3,2,2,0,0,0,.8-.8,1.91,1.91,0,0,0-.1-2.2,10.25,10.25,0,0,0-2.1-2,8.66,8.66,0,0,1-1.9-1.7,3.41,3.41,0,0,1-.7-1.9,2.82,2.82,0,0,1,.4-1.5,3.84,3.84,0,0,1,1.1-1.1,2.82,2.82,0,0,1,1.5-.4,3.53,3.53,0,0,1,1.7.4,6,6,0,0,1,1.6,1.6l-1,.8a6.58,6.58,0,0,0-1.2-1.2,2,2,0,0,0-1.1-.3,1.66,1.66,0,0,0-1.2.5,1.61,1.61,0,0,0-.5,1.1,2.35,2.35,0,0,0,.2.8,3.28,3.28,0,0,0,.6.8,12.16,12.16,0,0,0,1.6,1.2,8.94,8.94,0,0,1,2.2,2.1,3.29,3.29,0,0,1,.6,1.9,2.9,2.9,0,0,1-1,2.3,3.74,3.74,0,0,1-2.5,1,3.94,3.94,0,0,1-2.1-.6A4.36,4.36,0,0,1,274.5,302.9Zm9.7-6.9h1.2v1.7a5.21,5.21,0,0,1,1.6-1.4,4.46,4.46,0,0,1,5.3.9,4.76,4.76,0,0,1,1.4,3.4,5,5,0,0,1-1.4,3.5,4.46,4.46,0,0,1-5.3.9,5.52,5.52,0,0,1-1.7-1.4v5h-1.2V296Zm4.8.9a3.59,3.59,0,0,0-3.6,3.8,4.14,4.14,0,0,0,.5,1.9,3,3,0,0,0,1.4,1.3,3.49,3.49,0,0,0,3.6,0,3,3,0,0,0,1.3-1.4,3.86,3.86,0,0,0,0-3.8,3.53,3.53,0,0,0-1.3-1.4A7.19,7.19,0,0,0,289,296.9Zm16.2-.9v9.2H304v-1.6a5.52,5.52,0,0,1-1.7,1.4,4.46,4.46,0,0,1-5.3-.9,4.83,4.83,0,0,1-1.4-3.5,4.78,4.78,0,0,1,4.8-4.8,4.23,4.23,0,0,1,2,.5,4.28,4.28,0,0,1,1.6,1.4V296Zm-4.7.9a3.45,3.45,0,0,0-1.8.5,3,3,0,0,0-1.3,1.4,4.14,4.14,0,0,0-.5,1.9,4.49,4.49,0,0,0,.5,1.9,4.36,4.36,0,0,0,1.3,1.4,4.07,4.07,0,0,0,1.8.5,3.74,3.74,0,0,0,1.8-.5,3.25,3.25,0,0,0,1.3-1.3,4.14,4.14,0,0,0,.5-1.9,3.69,3.69,0,0,0-1.1-2.7A3,3,0,0,0,300.5,296.9Zm6.9-.9h1.2v1.3a6.53,6.53,0,0,1,1.1-1.2,1.92,1.92,0,0,1,1.2-.4,2.61,2.61,0,0,1,1.1.3l-.6,1a2.07,2.07,0,0,0-.6-.2,1.61,1.61,0,0,0-1.1.5,2.68,2.68,0,0,0-.8,1.5,19.06,19.06,0,0,0-.2,3.2v3.1h-1.2V296Zm5.7-3.5h1.2v7.3l4.3-3.7h1.7l-5,4.4,5.3,4.8h-1.7l-4.6-4.1v4.1h-1.2V292.5Z"/><path class="cls-8" d="M297.4,254.7V228.4"/><path class="cls-9" d="M300.7,228.5l-3.3-9.1-3.3,9.1Z"/><path class="cls-6" d="M415.7,254.7H569V279H415.7Z"/><path class="cls-4" d="M451.6,264.8a2.7,2.7,0,0,1,2.2,1,3.18,3.18,0,0,1,.8,2,3.23,3.23,0,0,1-.8,2.1,2.88,2.88,0,0,1-2.1.9,2.58,2.58,0,0,1-2.1-.9,3.23,3.23,0,0,1-.8-2.1,2.79,2.79,0,0,1,.8-2A2.12,2.12,0,0,1,451.6,264.8Zm0,.7a1.8,1.8,0,0,0-1.5.7,2.36,2.36,0,0,0-.7,1.6,2,2,0,0,0,.3,1.1,2,2,0,0,0,.8.8,2.17,2.17,0,0,0,2.2,0,3,3,0,0,0,.8-.8,2.28,2.28,0,0,0,.3-1.1,2,2,0,0,0-.7-1.6A1.8,1.8,0,0,0,451.6,265.5Zm4.3-.6h.7v1a2.84,2.84,0,0,1,1-.9,2.77,2.77,0,0,1,1.3-.3,3,3,0,0,1,2.1,5.1,2.66,2.66,0,0,1-2,.9,2.38,2.38,0,0,1-1.2-.3,3.92,3.92,0,0,1-1-.8v3h-.7v-7.7Zm2.9.6a2,2,0,0,0-1.6.7,2.27,2.27,0,0,0-.6,1.6,2.66,2.66,0,0,0,.3,1.2,3,3,0,0,0,.8.8,2.28,2.28,0,0,0,1.1.3,2,2,0,0,0,1.1-.3,1.76,1.76,0,0,0,.8-.9,2.28,2.28,0,0,0,.3-1.1,2,2,0,0,0-.3-1.1,2,2,0,0,0-.8-.8A1.5,1.5,0,0,0,458.8,265.5Zm9.2,3.2.6.3a3.59,3.59,0,0,1-.7,1,4.05,4.05,0,0,1-.9.5,3.59,3.59,0,0,1-1.1.2,2.94,2.94,0,0,1-2.2-.9,3.18,3.18,0,0,1-.8-2,2.64,2.64,0,0,1,.7-1.9,2.79,2.79,0,0,1,2.2-1.1,2.84,2.84,0,0,1,2.3,1.1,3.08,3.08,0,0,1,.6,1.9h-5.1a2.11,2.11,0,0,0,.6,1.6,2,2,0,0,0,1.5.6,1.88,1.88,0,0,0,.8-.2,1.61,1.61,0,0,0,.7-.4C467.5,269.4,467.7,269.1,468,268.7Zm0-1.5a1.88,1.88,0,0,0-.4-.9,2.76,2.76,0,0,0-.8-.6,3,3,0,0,0-1-.2,2.17,2.17,0,0,0-1.4.5,3.46,3.46,0,0,0-.7,1.2Zm2.1-2.3h.7v1a2.84,2.84,0,0,1,1-.9,2.38,2.38,0,0,1,1.2-.3,2,2,0,0,1,1.1.3,1.6,1.6,0,0,1,.7.9,3.92,3.92,0,0,1,.2,1.7v2.9h-.7v-2.7a4.15,4.15,0,0,0-.1-1.3c-.1-.4-.2-.7-.5-.8a1.4,1.4,0,0,0-.9-.3,1.92,1.92,0,0,0-1.2.4,2.59,2.59,0,0,0-.7,1.1,5.76,5.76,0,0,0-.1,1.5v2.1h-.7Zm6.4-2.1h.7v7.8h-.7Zm2.5-.2a.52.52,0,0,1,.4.2.76.76,0,0,1,.2.4.52.52,0,0,1-.2.4.76.76,0,0,1-.4.2.52.52,0,0,1-.4-.2.76.76,0,0,1-.2-.4.71.71,0,0,1,.6-.6Zm-.4,2.3h.7v5.7h-.7Zm2.3,0h.7v1a2.84,2.84,0,0,1,1-.9,2.38,2.38,0,0,1,1.2-.3,2,2,0,0,1,1.1.3,1.6,1.6,0,0,1,.7.9,3.92,3.92,0,0,1,.2,1.7v2.9h-.7v-2.7a4.15,4.15,0,0,0-.1-1.3c-.1-.4-.2-.7-.5-.8a1.4,1.4,0,0,0-.9-.3,1.92,1.92,0,0,0-1.2.4,2.59,2.59,0,0,0-.7,1.1,5.76,5.76,0,0,0-.1,1.5v2.1h-.7Zm11.2,3.8.6.3a3.59,3.59,0,0,1-.7,1,4.05,4.05,0,0,1-.9.5,3.59,3.59,0,0,1-1.1.2,2.94,2.94,0,0,1-2.2-.9,3.18,3.18,0,0,1-.8-2,2.64,2.64,0,0,1,.7-1.9,2.79,2.79,0,0,1,2.2-1.1,2.84,2.84,0,0,1,2.3,1.1,3.08,3.08,0,0,1,.6,1.9h-5.1a2.11,2.11,0,0,0,.6,1.6,2,2,0,0,0,1.5.6,1.88,1.88,0,0,0,.8-.2,1.61,1.61,0,0,0,.7-.4C491.7,269.4,491.9,269.1,492.1,268.7Zm0-1.5a1.88,1.88,0,0,0-.4-.9,2.76,2.76,0,0,0-.8-.6,3,3,0,0,0-1-.2,2.17,2.17,0,0,0-1.4.5,3.46,3.46,0,0,0-.7,1.2Zm7.8-2.3v5.7h-.7v-1a2.54,2.54,0,0,1-1,.8,2.66,2.66,0,0,1-1.2.3,2.52,2.52,0,0,1-2-.9,2.78,2.78,0,0,1-.8-2.1,3.08,3.08,0,0,1,3-3,2.13,2.13,0,0,1,1.2.3,2.84,2.84,0,0,1,1,.9v-1Zm-2.9.6a2,2,0,0,0-1.1.3,3,3,0,0,0-.8.8,2.28,2.28,0,0,0-.3,1.1,2,2,0,0,0,.3,1.1,2.36,2.36,0,0,0,.8.9,2.17,2.17,0,0,0,2.2,0,2,2,0,0,0,.8-.8,2.13,2.13,0,0,0,.3-1.2,1.86,1.86,0,0,0-.7-1.6A1.75,1.75,0,0,0,497,265.5Zm9.5-.6h.7v4.5a7.45,7.45,0,0,1-.2,1.8,2.34,2.34,0,0,1-1,1.2,3.06,3.06,0,0,1-1.7.4,5.07,5.07,0,0,1-1.3-.2,1.46,1.46,0,0,1-.9-.6,4.31,4.31,0,0,1-.7-1h.8a1.55,1.55,0,0,0,.8.8,2.5,2.5,0,0,0,1.3.3,2.13,2.13,0,0,0,1.2-.3,1.58,1.58,0,0,0,.7-.7,4.14,4.14,0,0,0,.2-1.4v-.3a3.92,3.92,0,0,1-1,.8,2.77,2.77,0,0,1-1.3.3,2.82,2.82,0,0,1-1.5-.4,3.57,3.57,0,0,1-1.1-1,2.3,2.3,0,0,1-.4-1.4,2.82,2.82,0,0,1,.4-1.5,2.91,2.91,0,0,1,1.1-1.1,2.6,2.6,0,0,1,1.5-.4,2.66,2.66,0,0,1,1.2.3,4.36,4.36,0,0,1,1.1.9v-1Zm-2.2.6a2,2,0,0,0-1.1.3,2,2,0,0,0-.8.8,2.17,2.17,0,0,0,.3,2.6,2.27,2.27,0,0,0,1.6.6,2.06,2.06,0,0,0,2.2-2.2,2,2,0,0,0-.3-1.1,3,3,0,0,0-.8-.8A3.59,3.59,0,0,0,504.3,265.5Zm9.2,3.2.6.3a3.59,3.59,0,0,1-.7,1,4.05,4.05,0,0,1-.9.5,3.59,3.59,0,0,1-1.1.2,2.94,2.94,0,0,1-2.2-.9,3.18,3.18,0,0,1-.8-2,2.64,2.64,0,0,1,.7-1.9,2.79,2.79,0,0,1,2.2-1.1,2.84,2.84,0,0,1,2.3,1.1,3.08,3.08,0,0,1,.6,1.9h-5.1a2.11,2.11,0,0,0,.6,1.6,2,2,0,0,0,1.5.6,1.88,1.88,0,0,0,.8-.2,1.61,1.61,0,0,0,.7-.4C513.1,269.4,513.3,269.1,513.5,268.7Zm0-1.5a1.88,1.88,0,0,0-.4-.9,2.76,2.76,0,0,0-.8-.6,3,3,0,0,0-1-.2,2.17,2.17,0,0,0-1.4.5,3.46,3.46,0,0,0-.7,1.2Zm1.7.2h2.9v.6h-2.9Zm9.7-4.6v7.8h-.7v-1a3.51,3.51,0,0,1-1,.8,2.66,2.66,0,0,1-1.2.3,2.88,2.88,0,0,1-2.1-.9,2.78,2.78,0,0,1-.8-2.1,3.08,3.08,0,0,1,3-3,2.77,2.77,0,0,1,1.3.3,2.84,2.84,0,0,1,1,.9v-3.2h.5Zm-3,2.7a2,2,0,0,0-1.1.3,3,3,0,0,0-.8.8,2.28,2.28,0,0,0-.3,1.1,2,2,0,0,0,.3,1.1,2.36,2.36,0,0,0,.8.9,2.17,2.17,0,0,0,2.2,0,2,2,0,0,0,.8-.8,2.13,2.13,0,0,0,.3-1.2,1.86,1.86,0,0,0-.7-1.6A1.75,1.75,0,0,0,521.9,265.5Zm4.7,5.1v-7.8h.7V266a2.35,2.35,0,0,1,1-.8,4.22,4.22,0,0,1,1.2-.3,2.52,2.52,0,0,1,2,.9,3,3,0,0,1-2.1,5.1,2.13,2.13,0,0,1-1.2-.3,2.84,2.84,0,0,1-1-.9v1h-.6Zm2.9-.6a2,2,0,0,0,1.1-.3,3,3,0,0,0,.8-.8,2.66,2.66,0,0,0,.3-1.2,2,2,0,0,0-.3-1.1,2,2,0,0,0-.8-.8,2.17,2.17,0,0,0-2.2,0,2,2,0,0,0-.8.8,2.13,2.13,0,0,0-.3,1.2,2.06,2.06,0,0,0,2.2,2.2Zm4.9-7.2h.7v2.1h1.1v.6h-1.1v5h-.7v-5h-1v-.6h1Z"/><path class="cls-7" d="M409.5,279H575.3v40.3H409.5Z"/><path class="cls-4" d="M488.1,292.5v12.8h-1.2v-1.6a5.52,5.52,0,0,1-1.7,1.4,4.46,4.46,0,0,1-5.3-.9,4.83,4.83,0,0,1-1.4-3.5,4.78,4.78,0,0,1,4.8-4.8,4.23,4.23,0,0,1,2,.5,4.28,4.28,0,0,1,1.6,1.4v-5.2h1.2Zm-4.8,4.4a3.45,3.45,0,0,0-1.8.5,3,3,0,0,0-1.3,1.4,4.14,4.14,0,0,0-.5,1.9,4.49,4.49,0,0,0,.5,1.9,4.36,4.36,0,0,0,1.3,1.4,2.9,2.9,0,0,0,1.8.5,3.74,3.74,0,0,0,1.8-.5,3.25,3.25,0,0,0,1.3-1.3,4.14,4.14,0,0,0,.5-1.9,3.69,3.69,0,0,0-1.1-2.7A2.91,2.91,0,0,0,483.3,296.9Zm7.5,8.3V292.4H492v5.1a4.57,4.57,0,0,1,1.7-1.4,4.92,4.92,0,0,1,2-.5A4.53,4.53,0,0,1,499,297a4.83,4.83,0,0,1,0,6.8,4.53,4.53,0,0,1-3.3,1.4,4.23,4.23,0,0,1-2-.5,5.21,5.21,0,0,1-1.6-1.4V305h-1.3Zm4.8-.9a3.45,3.45,0,0,0,1.8-.5,3,3,0,0,0,1.3-1.4,4.14,4.14,0,0,0,.5-1.9,4.49,4.49,0,0,0-.5-1.9,3.53,3.53,0,0,0-1.3-1.4,3.74,3.74,0,0,0-1.8-.5,4.14,4.14,0,0,0-1.9.5,3.25,3.25,0,0,0-1.3,1.3,4.14,4.14,0,0,0-.5,1.9,3.62,3.62,0,0,0,1,2.7A3.38,3.38,0,0,0,495.6,304.3Zm8-11.7h1.2V296h1.9v1h-1.9v8.2h-1.2V297H502v-1h1.6Z"/><path class="cls-8" d="M492.4,254.7V228.4"/><path class="cls-9" d="M495.7,228.5l-3.3-9.1-3.3,9.1Z"/></svg>