<svg version="1.1" viewBox="0.0 0.0 960.3805774278215 486.0787401574803" fill="none" stroke="none" stroke-linecap="square" stroke-miterlimit="10" xmlns:xlink="http://www.w3.org/1999/xlink" xmlns="http://www.w3.org/2000/svg"><clipPath id="p.0"><path d="m0 0l960.38055 0l0 486.07874l-960.38055 0l0 -486.07874z" clip-rule="nonzero"/></clipPath><g clip-path="url(#p.0)"><path fill="#000000" fill-opacity="0.0" d="m0 0l960.38055 0l0 486.07874l-960.38055 0z" fill-rule="evenodd"/><path fill="#000000" fill-opacity="0.0" d="m406.5121 354.9603l-96.88187 0l0 41.606293" fill-rule="evenodd"/><path stroke="#424c58" stroke-width="2.0" stroke-linejoin="round" stroke-linecap="butt" d="m406.5121 354.9603l-96.88187 0l0 41.606293" fill-rule="evenodd"/><path fill="#000000" fill-opacity="0.0" d="m405.77982 354.96423l92.409454 0l0 41.606293" fill-rule="evenodd"/><path stroke="#424c58" stroke-width="2.0" stroke-linejoin="round" stroke-linecap="butt" d="m405.77982 354.96423l92.409454 0l0 41.606293" fill-rule="evenodd"/><path fill="#ffffff" d="m225.37823 396.5666l168.50394 0l0 43.590546l-168.50394 0z" fill-rule="evenodd"/><path stroke="#ffffff" stroke-width="2.0" stroke-linejoin="round" stroke-linecap="butt" d="m225.37823 396.5666l168.50394 0l0 43.590546l-168.50394 0z" fill-rule="evenodd"/><path fill="#191f26" d="m274.06464 412.57748l4.203125 0q1.984375 0 3.46875 0.796875q1.484375 0.796875 2.3125 2.265625q0.84375 1.453125 0.84375 3.4375q0 1.96875 -0.84375 3.4375q-0.828125 1.453125 -2.3125 2.25q-1.484375 0.796875 -3.46875 0.796875l-4.203125 0l0 -12.984375zm2.359375 2.140625l0 8.71875l1.84375 0q1.25 0 2.171875 -0.5625q0.921875 -0.578125 1.40625 -1.5625q0.5 -0.984375 0.5 -2.234375q0 -1.265625 -0.5 -2.234375q-0.484375 -0.984375 -1.40625 -1.546875q-0.921875 -0.578125 -2.171875 -0.578125l-1.84375 0zm16.32373 11.125q-0.90625 0 -1.65625 -0.5q-0.75 -0.515625 -1.203125 -1.53125q-0.453125 -1.015625 -0.453125 -2.546875l0.71875 0q0 0.734375 0.328125 1.28125q0.328125 0.546875 0.84375 0.859375q0.53125 0.296875 1.09375 0.296875q0.6875 0 1.21875 -0.375q0.546875 -0.390625 0.859375 -1.0625q0.3125 -0.6875 0.3125 -1.609375q0 -0.890625 -0.3125 -1.546875q-0.296875 -0.671875 -0.84375 -1.03125q-0.546875 -0.375 -1.265625 -0.375q-0.578125 0 -1.09375 0.28125q-0.515625 0.28125 -0.828125 0.828125q-0.3125 0.53125 -0.3125 1.296875l-0.71875 0q0 -1.484375 0.421875 -2.484375q0.421875 -1.015625 1.203125 -1.53125q0.796875 -0.515625 1.875 -0.515625q1.1875 0 2.140625 0.625q0.96875 0.625 1.546875 1.78125q0.578125 1.140625 0.578125 2.671875q0 1.5625 -0.609375 2.734375q-0.59375 1.15625 -1.609375 1.8125q-1.0 0.640625 -2.234375 0.640625zm-4.953125 -0.28125l0 -13.71875l2.359375 0l0 11.3125l-0.8125 2.40625l-1.546875 0zm9.985596 -10.9375l0 -2.046875l10.390625 0l0 2.046875l-4.546875 0l0.53125 -0.546875l0 11.484375l-2.359375 0l0 -11.484375l0.53125 0.546875l-4.546875 0zm16.651886 10.9375l-0.3125 -2.359375l0 -3.90625q0 -1.015625 -0.421875 -1.5q-0.40625 -0.5 -1.390625 -0.5q-0.578125 0 -1.0 0.171875q-0.40625 0.171875 -0.640625 0.484375q-0.21875 0.3125 -0.21875 0.765625l-2.578125 0q0 -1.09375 0.53125 -1.78125q0.53125 -0.703125 1.515625 -1.03125q1.0 -0.328125 2.390625 -0.328125q1.265625 0 2.203125 0.40625q0.9375 0.40625 1.453125 1.25q0.515625 0.84375 0.515625 2.140625l0 6.1875l-2.046875 0zm-3.1875 0.28125q-1.25 0 -2.09375 -0.4375q-0.828125 -0.4375 -1.25 -1.140625q-0.421875 -0.71875 -0.421875 -1.546875q0 -0.921875 0.484375 -1.546875q0.484375 -0.625 1.375 -0.9375q0.890625 -0.3125 2.109375 -0.3125q0.78125 0 1.484375 0.125q0.71875 0.109375 1.40625 0.3125l0 1.390625q-0.546875 -0.1875 -1.203125 -0.28125q-0.640625 -0.109375 -1.203125 -0.109375q-0.84375 0 -1.390625 0.3125q-0.53125 0.3125 -0.53125 1.046875q0 0.546875 0.4375 0.9375q0.4375 0.390625 1.390625 0.390625q0.734375 0 1.234375 -0.3125q0.515625 -0.328125 0.78125 -0.8125q0.265625 -0.484375 0.265625 -0.953125l0.5625 0q0 1.046875 -0.390625 1.9375q-0.390625 0.875 -1.15625 1.40625q-0.765625 0.53125 -1.890625 0.53125zm13.653107 0q-0.90625 0 -1.65625 -0.5q-0.75 -0.515625 -1.203125 -1.53125q-0.453125 -1.015625 -0.453125 -2.546875l0.71875 0q0 0.734375 0.328125 1.28125q0.328125 0.546875 0.84375 0.859375q0.53125 0.296875 1.09375 0.296875q0.6875 0 1.21875 -0.375q0.546875 -0.390625 0.859375 -1.0625q0.3125 -0.6875 0.3125 -1.609375q0 -0.890625 -0.3125 -1.546875q-0.296875 -0.671875 -0.84375 -1.03125q-0.546875 -0.375 -1.265625 -0.375q-0.578125 0 -1.09375 0.28125q-0.515625 0.28125 -0.828125 0.828125q-0.3125 0.53125 -0.3125 1.296875l-0.71875 0q0 -1.484375 0.421875 -2.484375q0.421875 -1.015625 1.203125 -1.53125q0.796875 -0.515625 1.875 -0.515625q1.1875 0 2.140625 0.625q0.96875 0.625 1.546875 1.78125q0.578125 1.140625 0.578125 2.671875q0 1.5625 -0.609375 2.734375q-0.59375 1.15625 -1.609375 1.8125q-1.0 0.640625 -2.234375 0.640625zm-4.953125 -0.28125l0 -13.71875l2.359375 0l0 11.3125l-0.8125 2.40625l-1.546875 0zm12.279968 0l0 -13.71875l2.359375 0l0 13.71875l-2.359375 0zm9.714996 0.28125q-1.25 0 -2.28125 -0.640625q-1.015625 -0.640625 -1.640625 -1.796875q-0.625 -1.15625 -0.625 -2.703125q0 -1.59375 0.609375 -2.75q0.625 -1.15625 1.65625 -1.765625q1.03125 -0.609375 2.28125 -0.609375q1.15625 0 2.0 0.46875q0.84375 0.46875 1.359375 1.265625q0.515625 0.796875 0.6875 1.796875q0.1875 1.0 0.03125 2.046875l-6.75 0l0 -1.28125l5.078125 0l-0.453125 0.3125q0.015625 -0.46875 -0.0625 -0.953125q-0.0625 -0.484375 -0.28125 -0.875q-0.203125 -0.40625 -0.59375 -0.640625q-0.375 -0.25 -0.984375 -0.25q-0.71875 0 -1.21875 0.359375q-0.5 0.359375 -0.765625 0.984375q-0.25 0.609375 -0.25 1.390625l0 0.9375q0 0.828125 0.234375 1.453125q0.25 0.625 0.734375 0.984375q0.484375 0.359375 1.234375 0.359375q0.6875 0 1.15625 -0.3125q0.46875 -0.328125 0.59375 -0.96875l2.390625 0q-0.15625 0.953125 -0.71875 1.671875q-0.546875 0.703125 -1.4375 1.109375q-0.875 0.40625 -1.984375 0.40625z" fill-rule="nonzero"/><path fill="#ffffff" d="m413.9373 396.57053l168.50394 0l0 43.590546l-168.50394 0z" fill-rule="evenodd"/><path stroke="#ffffff" stroke-width="2.0" stroke-linejoin="round" stroke-linecap="butt" d="m413.9373 396.57053l168.50394 0l0 43.590546l-168.50394 0z" fill-rule="evenodd"/><path fill="#191f26" d="m469.6793 425.84705q-1.34375 0 -2.484375 -0.46875q-1.125 -0.46875 -1.84375 -1.421875q-0.703125 -0.96875 -0.75 -2.453125l2.328125 0q0 0.75 0.359375 1.234375q0.375 0.484375 1.0 0.71875q0.625 0.234375 1.375 0.234375q0.71875 0 1.28125 -0.1875q0.5625 -0.203125 0.890625 -0.546875q0.328125 -0.359375 0.328125 -0.84375q0 -0.65625 -0.40625 -1.015625q-0.390625 -0.375 -1.25 -0.6875l-2.5625 -1.03125q-1.5 -0.578125 -2.296875 -1.359375q-0.796875 -0.78125 -0.796875 -2.15625q0 -1.578125 1.25 -2.546875q1.25 -0.984375 3.484375 -0.984375q2.171875 0 3.359375 1.015625q1.203125 1.015625 1.359375 2.8125l-2.3125 0q-0.140625 -0.765625 -0.71875 -1.21875q-0.5625 -0.46875 -1.6875 -0.46875q-1.0 0 -1.578125 0.421875q-0.578125 0.40625 -0.578125 1.03125q0 0.546875 0.359375 0.859375q0.359375 0.3125 1.140625 0.59375l2.828125 1.109375q1.453125 0.5625 2.21875 1.421875q0.765625 0.84375 0.765625 2.109375q0 1.171875 -0.59375 2.03125q-0.578125 0.859375 -1.71875 1.328125q-1.125 0.46875 -2.75 0.46875zm11.515625 0q-0.859375 0 -1.578125 -0.3125q-0.71875 -0.328125 -1.140625 -0.984375q-0.421875 -0.671875 -0.421875 -1.6875l0 -9.578125l2.359375 0l0 9.5q0 1.203125 1.140625 1.203125q0.34375 0 0.6875 -0.078125q0.359375 -0.078125 0.8125 -0.25l0.34375 1.671875q-0.5625 0.21875 -1.09375 0.359375q-0.53125 0.15625 -1.109375 0.15625zm-4.5 -8.421875l0 -1.5625l6.359375 0l0 1.5625l-6.359375 0zm9.108734 8.140625l0 -9.734375l2.359375 0l0 9.734375l-2.359375 0zm1.78125 -4.265625q0 -1.90625 0.421875 -3.15625q0.4375 -1.25 1.15625 -1.84375q0.734375 -0.609375 1.625 -0.609375q0.234375 0 0.453125 0.03125q0.21875 0.03125 0.421875 0.078125l-0.03125 2.359375q-0.265625 -0.046875 -0.578125 -0.09375q-0.296875 -0.046875 -0.53125 -0.046875q-0.78125 0 -1.3125 0.375q-0.515625 0.375 -0.78125 1.109375q-0.265625 0.734375 -0.265625 1.796875l-0.578125 0zm9.693756 4.546875q-1.25 0 -2.28125 -0.640625q-1.015625 -0.640625 -1.640625 -1.796875q-0.625 -1.15625 -0.625 -2.703125q0 -1.59375 0.609375 -2.75q0.625 -1.15625 1.65625 -1.765625q1.03125 -0.609375 2.28125 -0.609375q1.15625 0 2.0 0.46875q0.84375 0.46875 1.359375 1.265625q0.515625 0.796875 0.6875 1.796875q0.1875 1.0 0.03125 2.046875l-6.75 0l0 -1.28125l5.078125 0l-0.453125 0.3125q0.015625 -0.46875 -0.0625 -0.953125q-0.0625 -0.484375 -0.28125 -0.875q-0.203125 -0.40625 -0.59375 -0.640625q-0.375 -0.25 -0.984375 -0.25q-0.71875 0 -1.21875 0.359375q-0.5 0.359375 -0.765625 0.984375q-0.25 0.609375 -0.25 1.390625l0 0.9375q0 0.828125 0.234375 1.453125q0.25 0.625 0.734375 0.984375q0.484375 0.359375 1.234375 0.359375q0.6875 0 1.15625 -0.3125q0.46875 -0.328125 0.59375 -0.96875l2.390625 0q-0.15625 0.953125 -0.71875 1.671875q-0.546875 0.703125 -1.4375 1.109375q-0.875 0.40625 -1.984375 0.40625zm13.162476 -0.28125l-0.3125 -2.359375l0 -3.90625q0 -1.015625 -0.421875 -1.5q-0.40625 -0.5 -1.390625 -0.5q-0.578125 0 -1.0 0.171875q-0.40625 0.171875 -0.640625 0.484375q-0.21875 0.3125 -0.21875 0.765625l-2.578125 0q0 -1.09375 0.53125 -1.78125q0.53125 -0.703125 1.515625 -1.03125q1.0 -0.328125 2.390625 -0.328125q1.265625 0 2.203125 0.40625q0.9375 0.40625 1.453125 1.25q0.5156555 0.84375 0.5156555 2.140625l0 6.1875l-2.0469055 0zm-3.1875 0.28125q-1.25 0 -2.09375 -0.4375q-0.828125 -0.4375 -1.25 -1.140625q-0.421875 -0.71875 -0.421875 -1.546875q0 -0.921875 0.484375 -1.546875q0.484375 -0.625 1.375 -0.9375q0.890625 -0.3125 2.109375 -0.3125q0.78125 0 1.484375 0.125q0.71875 0.109375 1.40625 0.3125l0 1.390625q-0.546875 -0.1875 -1.203125 -0.28125q-0.640625 -0.109375 -1.203125 -0.109375q-0.84375 0 -1.390625 0.3125q-0.53125 0.3125 -0.53125 1.046875q0 0.546875 0.4375 0.9375q0.4375 0.390625 1.390625 0.390625q0.734375 0 1.234375 -0.3125q0.515625 -0.328125 0.78125 -0.8125q0.265625 -0.484375 0.265625 -0.953125l0.5625 0q0 1.046875 -0.390625 1.9375q-0.390625 0.875 -1.15625 1.40625q-0.765625 0.53125 -1.890625 0.53125zm21.887482 -0.28125l0 -5.6875q0 -1.078125 -0.53125 -1.625q-0.515625 -0.546875 -1.359375 -0.546875q-1.0625 0 -1.671875 0.859375q-0.609375 0.859375 -0.609375 2.59375l-0.96875 0q0 -1.53125 0.28125 -2.59375q0.28125 -1.0625 0.796875 -1.71875q0.53125 -0.65625 1.234375 -0.953125q0.71875 -0.3125 1.578125 -0.3125q1.1875 0 1.984375 0.546875q0.8125 0.53125 1.21875 1.5q0.421875 0.96875 0.421875 2.25l0 5.6875l-2.375 0zm-13.1875 0l0 -9.703125l2.0625 0l0.265625 1.65625q0.46875 -0.96875 1.25 -1.453125q0.796875 -0.484375 1.828125 -0.484375q1.1875 0 1.984375 0.546875q0.8125 0.53125 1.21875 1.5q0.40625 0.96875 0.40625 2.25l0 5.6875l-2.359375 0l0 -5.6875q0 -1.078125 -0.515625 -1.625q-0.515625 -0.546875 -1.359375 -0.546875q-0.703125 0 -1.25 0.390625q-0.546875 0.390625 -0.859375 1.171875q-0.3125 0.78125 -0.3125 1.953125l0 4.34375l-2.359375 0z" fill-rule="nonzero"/><path fill="#000000" fill-opacity="0.0" d="m626.81366 41.54987l149.73224 0l0 43.59055l-149.73224 0z" fill-rule="evenodd"/><path stroke="#424c58" stroke-width="2.0" stroke-linejoin="round" stroke-linecap="butt" d="m626.81366 41.54987l149.73224 0l0 43.59055l-149.73224 0z" fill-rule="evenodd"/><path fill="#ffffff" d="m685.7573 69.99827l0 -2.359375q0.8125 0.46875 1.578125 0.6875q0.765625 0.203125 1.40625 0.203125q0.859375 0 1.25 -0.5q0.390625 -0.5 0.390625 -1.53125l0 -8.9375l2.375 0l0 8.9375q0 1.578125 -0.484375 2.53125q-0.484375 0.953125 -1.34375 1.375q-0.859375 0.421875 -1.984375 0.421875q-0.875 0 -1.6875 -0.234375q-0.796875 -0.234375 -1.5 -0.59375zm14.244995 0.828125q-1.34375 0 -2.421875 -0.5625q-1.0625 -0.578125 -1.703125 -1.703125q-0.625 -1.140625 -0.625 -2.859375q0 -1.734375 0.625 -2.875q0.640625 -1.140625 1.703125 -1.703125q1.078125 -0.5625 2.421875 -0.5625q1.296875 0 2.359375 0.5625q1.078125 0.5625 1.703125 1.703125q0.625 1.140625 0.625 2.875q0 1.71875 -0.625 2.859375q-0.625 1.125 -1.703125 1.703125q-1.0625 0.5625 -2.359375 0.5625zm-0.09375 -2.0625q0.703125 0 1.25 -0.34375q0.546875 -0.34375 0.859375 -1.015625q0.3125 -0.6875 0.3125 -1.703125q0 -1.53125 -0.609375 -2.3125q-0.59375 -0.78125 -1.640625 -0.78125q-0.71875 0 -1.265625 0.34375q-0.546875 0.34375 -0.875 1.03125q-0.3125 0.6875 -0.3125 1.71875q0 1.53125 0.609375 2.296875q0.625 0.765625 1.671875 0.765625zm12.538696 2.0625q-0.90625 0 -1.65625 -0.5q-0.75 -0.515625 -1.203125 -1.53125q-0.453125 -1.015625 -0.453125 -2.546875l0.71875 0q0 0.734375 0.328125 1.28125q0.328125 0.546875 0.84375 0.859375q0.53125 0.296875 1.09375 0.296875q0.6875 0 1.21875 -0.375q0.546875 -0.390625 0.859375 -1.0625q0.3125 -0.6875 0.3125 -1.609375q0 -0.890625 -0.3125 -1.546875q-0.296875 -0.671875 -0.84375 -1.03125q-0.546875 -0.375 -1.265625 -0.375q-0.578125 0 -1.09375 0.28125q-0.515625 0.28125 -0.828125 0.828125q-0.3125 0.53125 -0.3125 1.296875l-0.71875 0q0 -1.484375 0.421875 -2.484375q0.421875 -1.015625 1.203125 -1.53125q0.796875 -0.515625 1.875 -0.515625q1.1875 0 2.140625 0.625q0.96875 0.625 1.546875 1.78125q0.578125 1.140625 0.578125 2.671875q0 1.5625 -0.609375 2.734375q-0.59375 1.15625 -1.609375 1.8125q-1.0 0.640625 -2.234375 0.640625zm-4.953125 -0.28125l0 -13.71875l2.359375 0l0 11.3125l-0.8125 2.40625l-1.546875 0z" fill-rule="nonzero"/><path fill="#000000" fill-opacity="0.0" d="m332.67322 152.62335l149.7323 0l0 43.59056l-149.7323 0z" fill-rule="evenodd"/><path stroke="#424c58" stroke-width="2.0" stroke-linejoin="round" stroke-linecap="butt" d="m332.67322 152.62335l149.7323 0l0 43.59056l-149.7323 0z" fill-rule="evenodd"/><path fill="#ffffff" d="m372.36877 168.63426l4.203125 0q1.984375 0 3.46875 0.796875q1.484375 0.796875 2.3125 2.265625q0.84375 1.453125 0.84375 3.4375q0 1.96875 -0.84375 3.4375q-0.828125 1.453125 -2.3125 2.25q-1.484375 0.796875 -3.46875 0.796875l-4.203125 0l0 -12.984375zm2.359375 2.140625l0 8.71875l1.84375 0q1.25 0 2.171875 -0.5625q0.921875 -0.578125 1.40625 -1.5625q0.5 -0.984375 0.5 -2.234375q0 -1.265625 -0.5 -2.234375q-0.484375 -0.984375 -1.40625 -1.546875q-0.921875 -0.578125 -2.171875 -0.578125l-1.84375 0zm17.558105 10.84375l-0.3125 -2.359375l0 -3.90625q0 -1.015625 -0.421875 -1.5q-0.40625 -0.5 -1.390625 -0.5q-0.578125 0 -1.0 0.171875q-0.40625 0.171875 -0.640625 0.484375q-0.21875 0.3125 -0.21875 0.765625l-2.578125 0q0 -1.09375 0.53125 -1.78125q0.53125 -0.703125 1.515625 -1.03125q1.0 -0.328125 2.390625 -0.328125q1.265625 0 2.203125 0.40625q0.9375 0.40625 1.453125 1.25q0.515625 0.84375 0.515625 2.140625l0 6.1875l-2.046875 0zm-3.1875 0.28125q-1.25 0 -2.09375 -0.4375q-0.828125 -0.4375 -1.25 -1.140625q-0.421875 -0.71875 -0.421875 -1.546875q0 -0.921875 0.484375 -1.546875q0.484375 -0.625 1.375 -0.9375q0.890625 -0.3125 2.109375 -0.3125q0.78125 0 1.484375 0.125q0.71875 0.109375 1.40625 0.3125l0 1.390625q-0.546875 -0.1875 -1.203125 -0.28125q-0.640625 -0.109375 -1.203125 -0.109375q-0.84375 0 -1.390625 0.3125q-0.53125 0.3125 -0.53125 1.046875q0 0.546875 0.4375 0.9375q0.4375 0.390625 1.390625 0.390625q0.734375 0 1.234375 -0.3125q0.515625 -0.328125 0.78125 -0.8125q0.265625 -0.484375 0.265625 -0.953125l0.5625 0q0 1.046875 -0.390625 1.9375q-0.390625 0.875 -1.15625 1.40625q-0.765625 0.53125 -1.890625 0.53125zm11.981232 0q-0.859375 0 -1.578125 -0.3125q-0.71875 -0.328125 -1.140625 -0.984375q-0.421875 -0.671875 -0.421875 -1.6875l0 -9.578125l2.359375 0l0 9.5q0 1.203125 1.140625 1.203125q0.34375 0 0.6875 -0.078125q0.359375 -0.078125 0.8125 -0.25l0.34375 1.671875q-0.5625 0.21875 -1.09375 0.359375q-0.53125 0.15625 -1.109375 0.15625zm-4.5 -8.421875l0 -1.5625l6.359375 0l0 1.5625l-6.359375 0zm15.296265 8.140625l-0.3125 -2.359375l0 -3.90625q0 -1.015625 -0.421875 -1.5q-0.40625 -0.5 -1.390625 -0.5q-0.578125 0 -1.0 0.171875q-0.40625 0.171875 -0.640625 0.484375q-0.21875 0.3125 -0.21875 0.765625l-2.578125 0q0 -1.09375 0.53125 -1.78125q0.53125 -0.703125 1.515625 -1.03125q1.0 -0.328125 2.390625 -0.328125q1.265625 0 2.203125 0.40625q0.9375 0.40625 1.453125 1.25q0.515625 0.84375 0.515625 2.140625l0 6.1875l-2.046875 0zm-3.1875 0.28125q-1.25 0 -2.09375 -0.4375q-0.828125 -0.4375 -1.25 -1.140625q-0.421875 -0.71875 -0.421875 -1.546875q0 -0.921875 0.484375 -1.546875q0.484375 -0.625 1.375 -0.9375q0.890625 -0.3125 2.109375 -0.3125q0.78125 0 1.484375 0.125q0.71875 0.109375 1.40625 0.3125l0 1.390625q-0.546875 -0.1875 -1.203125 -0.28125q-0.640625 -0.109375 -1.203125 -0.109375q-0.84375 0 -1.390625 0.3125q-0.53125 0.3125 -0.53125 1.046875q0 0.546875 0.4375 0.9375q0.4375 0.390625 1.390625 0.390625q0.734375 0 1.234375 -0.3125q0.515625 -0.328125 0.78125 -0.8125q0.265625 -0.484375 0.265625 -0.953125l0.5625 0q0 1.046875 -0.390625 1.9375q-0.390625 0.875 -1.15625 1.40625q-0.765625 0.53125 -1.890625 0.53125zm12.324982 0q-1.40625 0 -2.421875 -0.375q-1.0 -0.390625 -1.546875 -1.109375q-0.53125 -0.734375 -0.53125 -1.75l2.171875 0q0.03125 0.71875 0.5625 1.046875q0.546875 0.328125 1.484375 0.328125q0.5 0 0.890625 -0.140625q0.40625 -0.15625 0.625 -0.421875q0.21875 -0.265625 0.21875 -0.578125q0 -0.40625 -0.296875 -0.640625q-0.296875 -0.234375 -0.9375 -0.4375l-2.125 -0.765625q-1.140625 -0.40625 -1.75 -1.078125q-0.609375 -0.671875 -0.609375 -1.59375q0 -1.234375 1.109375 -1.984375q1.125 -0.765625 2.984375 -0.765625q1.875 0 2.875 0.828125q1.015625 0.8125 1.046875 2.0625l-2.21875 0q-0.046875 -0.484375 -0.453125 -0.765625q-0.40625 -0.28125 -1.25 -0.28125q-0.75 0 -1.171875 0.3125q-0.421875 0.296875 -0.421875 0.703125q0 0.6875 1.1875 1.046875l2.296875 0.859375q1.109375 0.375 1.734375 0.984375q0.625 0.59375 0.625 1.515625q0 0.765625 -0.515625 1.453125q-0.515625 0.6875 -1.4375 1.125q-0.921875 0.421875 -2.125 0.421875zm10.549988 0q-1.25 0 -2.28125 -0.640625q-1.015625 -0.640625 -1.640625 -1.796875q-0.625 -1.15625 -0.625 -2.703125q0 -1.59375 0.609375 -2.75q0.625 -1.15625 1.65625 -1.765625q1.03125 -0.609375 2.28125 -0.609375q1.15625 0 2.0 0.46875q0.84375 0.46875 1.359375 1.265625q0.515625 0.796875 0.6875 1.796875q0.1875 1.0 0.03125 2.046875l-6.75 0l0 -1.28125l5.078125 0l-0.453125 0.3125q0.015625 -0.46875 -0.0625 -0.953125q-0.0625 -0.484375 -0.28125 -0.875q-0.203125 -0.40625 -0.59375 -0.640625q-0.375 -0.25 -0.984375 -0.25q-0.71875 0 -1.21875 0.359375q-0.5 0.359375 -0.765625 0.984375q-0.25 0.609375 -0.25 1.390625l0 0.9375q0 0.828125 0.234375 1.453125q0.25 0.625 0.734375 0.984375q0.484375 0.359375 1.234375 0.359375q0.6875 0 1.15625 -0.3125q0.46875 -0.328125 0.59375 -0.96875l2.390625 0q-0.15625 0.953125 -0.71875 1.671875q-0.546875 0.703125 -1.4375 1.109375q-0.875 0.40625 -1.984375 0.40625zm10.256226 0q-0.859375 0 -1.578125 -0.3125q-0.71875 -0.328125 -1.140625 -0.984375q-0.421875 -0.671875 -0.421875 -1.6875l0 -9.578125l2.359375 0l0 9.5q0 1.203125 1.140625 1.203125q0.34375 0 0.6875 -0.078125q0.359375 -0.078125 0.8125 -0.25l0.34375 1.671875q-0.5625 0.21875 -1.09375 0.359375q-0.53125 0.15625 -1.109375 0.15625zm-4.5 -8.421875l0 -1.5625l6.359375 0l0 1.5625l-6.359375 0z" fill-rule="nonzero"/><path fill="#000000" fill-opacity="0.0" d="m626.81366 152.62204l149.73224 0l0 43.59056l-149.73224 0z" fill-rule="evenodd"/><path stroke="#424c58" stroke-width="2.0" stroke-linejoin="round" stroke-linecap="butt" d="m626.81366 152.62204l149.73224 0l0 43.59056l-149.73224 0z" fill-rule="evenodd"/><path fill="#ffffff" d="m647.9323 181.07045l0 -2.359375q0.8125 0.46875 1.578125 0.6875q0.765625 0.203125 1.40625 0.203125q0.859375 0 1.25 -0.5q0.390625 -0.5 0.390625 -1.53125l0 -8.9375l2.375 0l0 8.9375q0 1.578125 -0.484375 2.53125q-0.484375 0.953125 -1.34375 1.375q-0.859375 0.421875 -1.984375 0.421875q-0.875 0 -1.6875 -0.234375q-0.796875 -0.234375 -1.5 -0.59375zm14.244995 0.828125q-1.34375 0 -2.421875 -0.5625q-1.0625 -0.578125 -1.703125 -1.703125q-0.625 -1.140625 -0.625 -2.859375q0 -1.734375 0.625 -2.875q0.640625 -1.140625 1.703125 -1.703125q1.078125 -0.5625 2.421875 -0.5625q1.296875 0 2.359375 0.5625q1.078125 0.5625 1.703125 1.703125q0.625 1.140625 0.625 2.875q0 1.71875 -0.625 2.859375q-0.625 1.125 -1.703125 1.703125q-1.0625 0.5625 -2.359375 0.5625zm-0.09375 -2.0625q0.703125 0 1.25 -0.34375q0.546875 -0.34375 0.859375 -1.015625q0.3125 -0.6875 0.3125 -1.703125q0 -1.53125 -0.609375 -2.3125q-0.59375 -0.78125 -1.640625 -0.78125q-0.71875 0 -1.265625 0.34375q-0.546875 0.34375 -0.875 1.03125q-0.3125 0.6875 -0.3125 1.71875q0 1.53125 0.609375 2.296875q0.625 0.765625 1.671875 0.765625zm12.538757 2.0625q-0.90625 0 -1.65625 -0.5q-0.75 -0.515625 -1.203125 -1.53125q-0.453125 -1.015625 -0.453125 -2.546875l0.71875 0q0 0.734375 0.328125 1.28125q0.328125 0.546875 0.84375 0.859375q0.53125 0.296875 1.09375 0.296875q0.6875 0 1.21875 -0.375q0.546875 -0.390625 0.859375 -1.0625q0.3125 -0.6875 0.3125 -1.609375q0 -0.890625 -0.3125 -1.546875q-0.296875 -0.671875 -0.84375 -1.03125q-0.546875 -0.375 -1.265625 -0.375q-0.578125 0 -1.09375 0.28125q-0.515625 0.28125 -0.828125 0.828125q-0.3125 0.53125 -0.3125 1.296875l-0.71875 0q0 -1.484375 0.421875 -2.484375q0.421875 -1.015625 1.203125 -1.53125q0.796875 -0.515625 1.875 -0.515625q1.1875 0 2.140625 0.625q0.96875 0.625 1.546875 1.78125q0.578125 1.140625 0.578125 2.671875q0 1.5625 -0.609375 2.734375q-0.59375 1.15625 -1.609375 1.8125q-1.0 0.640625 -2.234375 0.640625zm-4.953125 -0.28125l0 -13.71875l2.359375 0l0 11.3125l-0.8125 2.40625l-1.546875 0zm21.38684 -2.578125l3.3125 -10.40625l2.484375 0l-4.46875 12.984375l-2.46875 0l-4.40625 -12.984375l2.5 0l3.28125 10.40625l-0.234375 0zm10.828125 2.859375q-1.25 0 -2.28125 -0.640625q-1.015625 -0.640625 -1.640625 -1.796875q-0.625 -1.15625 -0.625 -2.703125q0 -1.59375 0.609375 -2.75q0.625 -1.15625 1.65625 -1.765625q1.03125 -0.609375 2.28125 -0.609375q1.15625 0 2.0 0.46875q0.84375 0.46875 1.359375 1.265625q0.515625 0.796875 0.6875 1.796875q0.1875 1.0 0.03125 2.046875l-6.75 0l0 -1.28125l5.078125 0l-0.453125 0.3125q0.015625 -0.46875 -0.0625 -0.953125q-0.0625 -0.484375 -0.28125 -0.875q-0.203125 -0.40625 -0.59375 -0.640625q-0.375 -0.25 -0.984375 -0.25q-0.71875 0 -1.21875 0.359375q-0.5 0.359375 -0.765625 0.984375q-0.25 0.609375 -0.25 1.390625l0 0.9375q0 0.828125 0.234375 1.453125q0.25 0.625 0.734375 0.984375q0.484375 0.359375 1.234375 0.359375q0.6875 0 1.15625 -0.3125q0.46875 -0.328125 0.59375 -0.96875l2.390625 0q-0.15625 0.953125 -0.71875 1.671875q-0.546875 0.703125 -1.4375 1.109375q-0.875 0.40625 -1.984375 0.40625zm6.9749756 -0.28125l0 -9.734375l2.359375 0l0 9.734375l-2.359375 0zm1.78125 -4.265625q0 -1.90625 0.421875 -3.15625q0.4375 -1.25 1.15625 -1.84375q0.734375 -0.609375 1.625 -0.609375q0.234375 0 0.453125 0.03125q0.21875 0.03125 0.421875 0.078125l-0.03125 2.359375q-0.265625 -0.046875 -0.578125 -0.09375q-0.296875 -0.046875 -0.53125 -0.046875q-0.78125 0 -1.3125 0.375q-0.515625 0.375 -0.78125 1.109375q-0.265625 0.734375 -0.265625 1.796875l-0.578125 0zm9.693787 4.546875q-1.40625 0 -2.421875 -0.375q-1.0 -0.390625 -1.546875 -1.109375q-0.53125 -0.734375 -0.53125 -1.75l2.171875 0q0.03125 0.71875 0.5625 1.046875q0.546875 0.328125 1.484375 0.328125q0.5 0 0.890625 -0.140625q0.40625 -0.15625 0.625 -0.421875q0.21875 -0.265625 0.21875 -0.578125q0 -0.40625 -0.296875 -0.640625q-0.296875 -0.234375 -0.9375 -0.4375l-2.125 -0.765625q-1.140625 -0.40625 -1.75 -1.078125q-0.609375 -0.671875 -0.609375 -1.59375q0 -1.234375 1.109375 -1.984375q1.125 -0.765625 2.984375 -0.765625q1.875 0 2.875 0.828125q1.015625 0.8125 1.046875 2.0625l-2.21875 0q-0.046875 -0.484375 -0.453125 -0.765625q-0.40625 -0.28125 -1.25 -0.28125q-0.75 0 -1.171875 0.3125q-0.421875 0.296875 -0.421875 0.703125q0 0.6875 1.1875 1.046875l2.296875 0.859375q1.109375 0.375 1.734375 0.984375q0.625 0.59375 0.625 1.515625q0 0.765625 -0.515625 1.453125q-0.515625 0.6875 -1.4375 1.125q-0.921875 0.421875 -2.125 0.421875zm8.299988 -11.765625q-0.6875 0 -1.078125 -0.359375q-0.375 -0.359375 -0.375 -1.015625q0 -0.625 0.375 -1.0q0.390625 -0.375 1.078125 -0.375q0.6875 0 1.078125 0.375q0.390625 0.375 0.390625 1.0q0 0.65625 -0.390625 1.015625q-0.390625 0.359375 -1.078125 0.359375zm-1.171875 11.484375l0 -9.734375l2.359375 0l0 9.734375l-2.359375 0zm10.184998 0.28125q-1.34375 0 -2.421875 -0.5625q-1.0625 -0.578125 -1.703125 -1.703125q-0.625 -1.140625 -0.625 -2.859375q0 -1.734375 0.625 -2.875q0.640625 -1.140625 1.703125 -1.703125q1.078125 -0.5625 2.421875 -0.5625q1.296875 0 2.359375 0.5625q1.078125 0.5625 1.703125 1.703125q0.625 1.140625 0.625 2.875q0 1.71875 -0.625 2.859375q-0.625 1.125 -1.703125 1.703125q-1.0625 0.5625 -2.359375 0.5625zm-0.09375 -2.0625q0.703125 0 1.25 -0.34375q0.546875 -0.34375 0.859375 -1.015625q0.3125 -0.6875 0.3125 -1.703125q0 -1.53125 -0.609375 -2.3125q-0.59375 -0.78125 -1.640625 -0.78125q-0.71875 0 -1.265625 0.34375q-0.546875 0.34375 -0.875 1.03125q-0.3125 0.6875 -0.3125 1.71875q0 1.53125 0.609375 2.296875q0.625 0.765625 1.671875 0.765625zm14.241821 1.78125l0 -5.6875q0 -1.078125 -0.515625 -1.625q-0.515625 -0.546875 -1.359375 -0.546875q-0.703125 0 -1.25 0.390625q-0.546875 0.390625 -0.859375 1.171875q-0.3125 0.78125 -0.3125 1.953125l-0.78125 0q0 -1.890625 0.46875 -3.140625q0.46875 -1.25 1.328125 -1.875q0.859375 -0.625 2.03125 -0.625q1.1875 0 1.984375 0.546875q0.8125 0.53125 1.21875 1.5q0.40625 0.96875 0.40625 2.25l0 5.6875l-2.359375 0zm-6.65625 0l0 -9.703125l2.0625 0l0.296875 1.921875l0 7.78125l-2.359375 0z" fill-rule="nonzero"/><path fill="#000000" fill-opacity="0.0" d="m626.81366 263.69553l149.73224 0l0 43.590576l-149.73224 0z" fill-rule="evenodd"/><path stroke="#424c58" stroke-width="2.0" stroke-linejoin="round" stroke-linecap="butt" d="m626.81366 263.69553l149.73224 0l0 43.590576l-149.73224 0z" fill-rule="evenodd"/><path fill="#ffffff" d="m684.6042 292.69083l0 -12.984375l4.796875 0q2.328125 0 3.578125 1.09375q1.25 1.09375 1.25 2.890625q0 1.765625 -1.25 2.859375q-1.25 1.078125 -3.578125 1.078125l-2.4375 0l0 5.0625l-2.359375 0zm7.015625 0l-3.4375 -6.078125l2.515625 0l4.0 6.078125l-3.078125 0zm-4.65625 -6.640625l2.203125 0q1.296875 0 1.96875 -0.59375q0.671875 -0.59375 0.671875 -1.546875q0 -0.96875 -0.609375 -1.5625q-0.609375 -0.59375 -1.796875 -0.59375l-2.4375 0l0 4.296875zm16.963745 -3.09375l2.375 0l0 9.734375l-2.375 0l0 -9.734375zm-6.65625 0l2.359375 0l0 5.953125q0 0.953125 0.46875 1.4375q0.46875 0.46875 1.296875 0.46875q0.703125 0 1.265625 -0.359375q0.578125 -0.375 0.921875 -1.09375q0.34375 -0.71875 0.34375 -1.765625l0.640625 0q0 1.78125 -0.453125 2.953125q-0.453125 1.15625 -1.265625 1.75q-0.8125 0.578125 -1.875 0.578125q-1.046875 0 -1.890625 -0.375q-0.828125 -0.375 -1.328125 -1.1875q-0.484375 -0.828125 -0.484375 -2.171875l0 -6.1875zm19.399353 9.734375l0 -5.6875q0 -1.078125 -0.515625 -1.625q-0.515625 -0.546875 -1.359375 -0.546875q-0.703125 0 -1.25 0.390625q-0.546875 0.390625 -0.859375 1.171875q-0.3125 0.78125 -0.3125 1.953125l-0.78125 0q0 -1.890625 0.46875 -3.140625q0.46875 -1.25 1.328125 -1.875q0.859375 -0.625 2.03125 -0.625q1.1875 0 1.984375 0.546875q0.8125 0.53125 1.21875 1.5q0.40625 0.96875 0.40625 2.25l0 5.6875l-2.359375 0zm-6.65625 0l0 -9.703125l2.0625 0l0.296875 1.921875l0 7.78125l-2.359375 0z" fill-rule="nonzero"/><path fill="#000000" fill-opacity="0.0" d="m323.2874 263.69724l168.50394 0l0 43.590546l-168.50394 0z" fill-rule="evenodd"/><path stroke="#424c58" stroke-width="2.0" stroke-linejoin="round" stroke-linecap="butt" d="m323.2874 263.69724l168.50394 0l0 43.590546l-168.50394 0z" fill-rule="evenodd"/><path fill="#000000" fill-opacity="0.0" d="m701.6798 85.14042l0 33.74061l0.06298828 0l0 33.755463" fill-rule="evenodd"/><path stroke="#424c58" stroke-width="2.0" stroke-linejoin="round" stroke-linecap="butt" d="m701.6798 85.14042l0 33.74061l0.06298828 0l0 33.755463" fill-rule="evenodd"/><path fill="#000000" fill-opacity="0.0" d="m701.6798 196.2126l0 67.49605" fill-rule="evenodd"/><path stroke="#424c58" stroke-width="2.0" stroke-linejoin="round" stroke-linecap="butt" d="m701.6798 196.2126l0 67.49605" fill-rule="evenodd"/><path fill="#000000" fill-opacity="0.0" d="m626.81366 285.4908l-135.02365 0" fill-rule="evenodd"/><path stroke="#424c58" stroke-width="2.0" stroke-linejoin="round" stroke-linecap="butt" d="m626.81366 285.4908l-135.02365 0" fill-rule="evenodd"/><path fill="#000000" fill-opacity="0.0" d="m626.81366 174.41733l-144.40945 0" fill-rule="evenodd"/><path stroke="#424c58" stroke-width="2.0" stroke-linejoin="round" stroke-linecap="butt" d="m626.81366 174.41733l-144.40945 0" fill-rule="evenodd"/><path fill="#000000" fill-opacity="0.0" d="m701.6798 122.161415l36.69287 0l0 26.677162l-36.69287 0z" fill-rule="evenodd"/><path fill="#424c58" d="m719.3972 134.31062l-2.53125 2.984375l1.640625 1.109375l1.921875 -3.28125l1.921875 3.390625l1.609375 -1.171875l-2.4375 -2.953125l3.625 -0.828125l-0.59375 -1.90625l-3.390625 1.484375l0.359375 -3.984375l-2.0 0l0.328125 3.921875l-3.421875 -1.5l-0.59375 1.859375l3.5625 0.875z" fill-rule="nonzero"/><path fill="#000000" fill-opacity="0.0" d="m701.6798 83.28459l36.69287 0l0 26.677162l-36.69287 0z" fill-rule="evenodd"/><path fill="#424c58" d="m721.91284 103.54317l0 -13.265625l-0.140625 0l-5.765625 2.09375l0 2.203125l3.34375 -1.203125l0 10.171875l2.5625 0z" fill-rule="nonzero"/><path fill="#000000" fill-opacity="0.0" d="m701.6798 235.09317l36.69287 0l0 26.677185l-36.69287 0z" fill-rule="evenodd"/><path fill="#424c58" d="m719.3972 247.24239l-2.53125 2.984375l1.640625 1.109375l1.921875 -3.28125l1.921875 3.390625l1.609375 -1.171875l-2.4375 -2.953125l3.625 -0.828125l-0.59375 -1.90625l-3.390625 1.484375l0.359375 -3.984375l-2.0 0l0.328125 3.921875l-3.421875 -1.5l-0.59375 1.859375l3.5625 0.875z" fill-rule="nonzero"/><path fill="#000000" fill-opacity="0.0" d="m701.6798 196.21635l36.69287 0l0 26.677155l-36.69287 0z" fill-rule="evenodd"/><path fill="#424c58" d="m721.91284 216.47493l0 -13.265625l-0.140625 0l-5.765625 2.09375l0 2.203125l3.34375 -1.203125l0 10.171875l2.5625 0z" fill-rule="nonzero"/><path fill="#000000" fill-opacity="0.0" d="m407.53806 236.05643l36.6929 0l0 26.677155l-36.6929 0z" fill-rule="evenodd"/><path fill="#424c58" d="m425.2555 248.20564l-2.53125 2.984375l1.640625 1.109375l1.921875 -3.28125l1.921875 3.390625l1.609375 -1.171875l-2.4375 -2.953125l3.625 -0.828125l-0.59375 -1.90625l-3.390625 1.484375l0.359375 -3.984375l-2.0 0l0.328125 3.921875l-3.421875 -1.5l-0.59375 1.859375l3.5625 0.875z" fill-rule="nonzero"/><path fill="#000000" fill-opacity="0.0" d="m407.53806 197.1796l36.6929 0l0 26.67717l-36.6929 0z" fill-rule="evenodd"/><path fill="#424c58" d="m427.77112 217.43819l0 -13.265625l-0.140625 0l-5.765625 2.09375l0 2.203125l3.34375 -1.203125l0 10.171875l2.5625 0z" fill-rule="nonzero"/><path fill="#000000" fill-opacity="0.0" d="m590.1207 258.81476l36.692932 0l0 26.677185l-36.692932 0z" fill-rule="evenodd"/><path fill="#424c58" d="m610.35376 279.07336l0 -13.265625l-0.140625 0l-5.765625 2.09375l0 2.203125l3.34375 -1.203125l0 10.171875l2.5625 0z" fill-rule="nonzero"/><path fill="#000000" fill-opacity="0.0" d="m491.79266 258.81235l36.69287 0l0 26.677155l-36.69287 0z" fill-rule="evenodd"/><path fill="#424c58" d="m509.51007 270.96155l-2.53125 2.984375l1.640625 1.109375l1.921875 -3.28125l1.921875 3.390625l1.609375 -1.171875l-2.4375 -2.953125l3.625 -0.828125l-0.59375 -1.90625l-3.390625 1.484375l0.359375 -3.984375l-2.0 0l0.328125 3.921875l-3.421875 -1.5l-0.59375 1.859375l3.5625 0.875z" fill-rule="nonzero"/><path fill="#000000" fill-opacity="0.0" d="m585.4265 147.74129l36.692932 0l0 26.677155l-36.692932 0z" fill-rule="evenodd"/><path fill="#424c58" d="m605.65955 167.99986l0 -13.265625l-0.140625 0l-5.765625 2.09375l0 2.203125l3.34375 -1.203125l0 10.171875l2.5625 0z" fill-rule="nonzero"/><path fill="#000000" fill-opacity="0.0" d="m487.09842 147.73885l36.6929 0l0 26.67717l-36.6929 0z" fill-rule="evenodd"/><path fill="#424c58" d="m504.81586 159.88805l-2.53125 2.984375l1.640625 1.109375l1.921875 -3.28125l1.921875 3.390625l1.609375 -1.171875l-2.4375 -2.953125l3.625 -0.828125l-0.59375 -1.90625l-3.390625 1.484375l0.359375 -3.984375l-2.0 0l0.328125 3.921875l-3.421875 -1.5l-0.59375 1.859375l3.5625 0.875z" fill-rule="nonzero"/><path fill="#000000" fill-opacity="0.0" d="m407.53937 196.21391l0 67.49605" fill-rule="evenodd"/><path stroke="#424c58" stroke-width="2.0" stroke-linejoin="round" stroke-linecap="butt" d="m407.53937 196.21391l0 67.49605" fill-rule="evenodd"/><path fill="#424c58" d="m79.91732 152.62335l149.73227 0l0 43.59056l-149.73227 0z" fill-rule="evenodd"/><path stroke="#424c58" stroke-width="2.0" stroke-linejoin="round" stroke-linecap="butt" d="m79.91732 152.62335l149.73227 0l0 43.59056l-149.73227 0z" fill-rule="evenodd"/><path fill="#ffffff" d="m128.33348 181.89989q-1.3437424 0 -2.4843674 -0.46875q-1.125 -0.46875 -1.84375 -1.421875q-0.703125 -0.96875 -0.75 -2.453125l2.328125 0q0 0.75 0.359375 1.234375q0.375 0.484375 1.0 0.71875q0.625 0.234375 1.3749924 0.234375q0.71875 0 1.28125 -0.1875q0.5625 -0.203125 0.890625 -0.546875q0.328125 -0.359375 0.328125 -0.84375q0 -0.65625 -0.40625 -1.015625q-0.390625 -0.375 -1.25 -0.6875l-2.5624924 -1.03125q-1.5 -0.578125 -2.296875 -1.359375q-0.796875 -0.78125 -0.796875 -2.15625q0 -1.578125 1.25 -2.546875q1.25 -0.984375 3.4843674 -0.984375q2.171875 0 3.359375 1.015625q1.203125 1.015625 1.359375 2.8125l-2.3125 0q-0.140625 -0.765625 -0.71875 -1.21875q-0.5625 -0.46875 -1.6875 -0.46875q-0.9999924 0 -1.5781174 0.421875q-0.578125 0.40625 -0.578125 1.03125q0 0.546875 0.359375 0.859375q0.359375 0.3125 1.140625 0.59375l2.8281174 1.109375q1.453125 0.5625 2.21875 1.421875q0.765625 0.84375 0.765625 2.109375q0 1.171875 -0.59375 2.03125q-0.578125 0.859375 -1.71875 1.328125q-1.125 0.46875 -2.75 0.46875zm12.062485 0q-1.34375 0 -2.421875 -0.5625q-1.0625 -0.578125 -1.703125 -1.703125q-0.625 -1.140625 -0.625 -2.859375q0 -1.734375 0.625 -2.875q0.640625 -1.140625 1.703125 -1.703125q1.078125 -0.5625 2.421875 -0.5625q1.296875 0 2.359375 0.5625q1.078125 0.5625 1.703125 1.703125q0.625 1.140625 0.625 2.875q0 1.71875 -0.625 2.859375q-0.625 1.125 -1.703125 1.703125q-1.0625 0.5625 -2.359375 0.5625zm-0.09375 -2.0625q0.703125 0 1.25 -0.34375q0.546875 -0.34375 0.859375 -1.015625q0.3125 -0.6875 0.3125 -1.703125q0 -1.53125 -0.609375 -2.3125q-0.59375 -0.78125 -1.640625 -0.78125q-0.71875 0 -1.265625 0.34375q-0.546875 0.34375 -0.875 1.03125q-0.3125 0.6875 -0.3125 1.71875q0 1.53125 0.609375 2.296875q0.625 0.765625 1.671875 0.765625zm14.038742 -7.953125l2.375 0l0 9.734375l-2.375 0l0 -9.734375zm-6.65625 0l2.359375 0l0 5.953125q0 0.953125 0.46875 1.4375q0.46875 0.46875 1.296875 0.46875q0.703125 0 1.265625 -0.359375q0.578125 -0.375 0.921875 -1.09375q0.34375 -0.71875 0.34375 -1.765625l0.640625 0q0 1.78125 -0.453125 2.953125q-0.453125 1.15625 -1.265625 1.75q-0.8125 0.578125 -1.875 0.578125q-1.046875 0 -1.890625 -0.375q-0.828125 -0.375 -1.328125 -1.1875q-0.484375 -0.828125 -0.484375 -2.171875l0 -6.1875zm12.743118 9.734375l0 -9.734375l2.359375 0l0 9.734375l-2.359375 0zm1.78125 -4.265625q0 -1.90625 0.421875 -3.15625q0.4375 -1.25 1.15625 -1.84375q0.734375 -0.609375 1.625 -0.609375q0.234375 0 0.453125 0.03125q0.21875 0.03125 0.421875 0.078125l-0.03125 2.359375q-0.265625 -0.046875 -0.578125 -0.09375q-0.296875 -0.046875 -0.53125 -0.046875q-0.78125 0 -1.3125 0.375q-0.515625 0.375 -0.78125 1.109375q-0.265625 0.734375 -0.265625 1.796875l-0.578125 0zm9.756241 4.546875q-1.234375 0 -2.28125 -0.625q-1.03125 -0.640625 -1.6875 -1.796875q-0.640625 -1.15625 -0.640625 -2.71875q0 -1.65625 0.640625 -2.796875q0.65625 -1.140625 1.6875 -1.734375q1.046875 -0.59375 2.28125 -0.59375q0.9375 0 1.65625 0.3125q0.734375 0.296875 1.234375 0.8125q0.515625 0.515625 0.8125 1.15625q0.296875 0.625 0.375 1.265625l-2.390625 0.0625q-0.15625 -0.640625 -0.59375 -1.0625q-0.4375 -0.421875 -1.125 -0.421875q-0.5625 0 -1.0625 0.3125q-0.5 0.3125 -0.828125 0.984375q-0.3125 0.65625 -0.3125 1.703125q0 1.0 0.296875 1.671875q0.296875 0.65625 0.796875 1.0q0.5 0.328125 1.109375 0.328125q0.90625 0 1.3125 -0.4375q0.40625 -0.4375 0.40625 -1.15625l2.390625 0q0 1.015625 -0.46875 1.875q-0.46875 0.84375 -1.390625 1.359375q-0.90625 0.5 -2.21875 0.5zm10.527496 0q-1.25 0 -2.28125 -0.640625q-1.015625 -0.640625 -1.640625 -1.796875q-0.625 -1.15625 -0.625 -2.703125q0 -1.59375 0.609375 -2.75q0.625 -1.15625 1.65625 -1.765625q1.03125 -0.609375 2.28125 -0.609375q1.15625 0 2.0 0.46875q0.84375 0.46875 1.359375 1.265625q0.515625 0.796875 0.6875 1.796875q0.1875 1.0 0.03125 2.046875l-6.75 0l0 -1.28125l5.078125 0l-0.453125 0.3125q0.015625 -0.46875 -0.0625 -0.953125q-0.0625 -0.484375 -0.28125 -0.875q-0.203125 -0.40625 -0.59375 -0.640625q-0.375 -0.25 -0.984375 -0.25q-0.71875 0 -1.21875 0.359375q-0.5 0.359375 -0.765625 0.984375q-0.25 0.609375 -0.25 1.390625l0 0.9375q0 0.828125 0.234375 1.453125q0.25 0.625 0.734375 0.984375q0.484375 0.359375 1.234375 0.359375q0.6875 0 1.15625 -0.3125q0.46875 -0.328125 0.59375 -0.96875l2.390625 0q-0.15625 0.953125 -0.71875 1.671875q-0.546875 0.703125 -1.4375 1.109375q-0.875 0.40625 -1.984375 0.40625z" fill-rule="nonzero"/><path fill="#000000" fill-opacity="0.0" d="m332.67322 174.41864l-103.02362 0" fill-rule="evenodd"/><path stroke="#424c58" stroke-width="2.0" stroke-linejoin="round" stroke-linecap="butt" d="m332.67322 174.41864l-103.02362 0" fill-rule="evenodd"/><path fill="#000000" fill-opacity="0.0" d="m229.64699 147.74129l36.692917 0l0 26.677155l-36.692917 0z" fill-rule="evenodd"/><path fill="#424c58" d="m249.88002 167.99986l0 -13.265625l-0.140625 0l-5.765625 2.09375l0 2.203125l3.34375 -1.203125l0 10.171875l2.5625 0z" fill-rule="nonzero"/><path fill="#000000" fill-opacity="0.0" d="m291.28217 147.74147l36.6929 0l0 26.67717l-36.6929 0z" fill-rule="evenodd"/><path fill="#424c58" d="m308.99957 159.89067l-2.53125 2.984375l1.640625 1.109375l1.921875 -3.28125l1.921875 3.390625l1.609375 -1.171875l-2.4375 -2.953125l3.625 -0.828125l-0.59375 -1.90625l-3.390625 1.484375l0.359375 -3.984375l-2.0 0l0.328125 3.921875l-3.421875 -1.5l-0.59375 1.859375l3.5625 0.875z" fill-rule="nonzero"/><path fill="#000000" fill-opacity="0.0" d="m55.52231 203.72704l166.51968 0l0 91.33858l-166.51968 0z" fill-rule="evenodd"/><path fill="#5fb7a0" d="m83.701996 220.13391q0.859375 0 1.6875 0.453125q0.828125 0.4375 1.28125 1.265625q0.46875 0.828125 0.46875 1.71875q0 1.421875 -1.015625 2.4375q-1.0 1.0 -2.421875 1.0q-1.4375 0 -2.453125 -1.0q-1.0 -1.015625 -1.0 -2.4375q0 -0.90625 0.453125 -1.71875q0.46875 -0.828125 1.296875 -1.265625q0.828125 -0.453125 1.703125 -0.453125z" fill-rule="nonzero"/><path fill="#5fb7a0" d="m115.91293 216.71204l-2.328125 0l0 11.375l1.765625 0l0 -3.859375l-0.109375 -4.890625l1.59375 5.234375l0.96875 0l1.75 -5.421875l-0.109375 5.078125l0 3.859375l1.765625 0l0 -11.375l-2.328125 0l-1.5625 4.859375l-1.40625 -4.859375zm11.0390625 5.4375l-2.390625 -5.4375l-2.078125 0l3.53125 7.25l0 4.125l1.84375 0l0.015625 -4.0625l3.5625 -7.3125l-2.09375 0l-2.390625 5.4375zm11.8671875 3.0q0 0.375 -0.15625 0.671875q-0.15625 0.28125 -0.421875 0.484375q-0.28125 0.203125 -0.65625 0.3125q-0.359375 0.09375 -0.796875 0.09375q-0.5 0 -0.9375 -0.125q-0.421875 -0.125 -0.734375 -0.390625q-0.3125 -0.25 -0.5 -0.625q-0.1875 -0.390625 -0.21875 -0.921875l-1.875 0q0 0.828125 0.328125 1.46875q0.328125 0.625 0.875 1.09375q0.609375 0.5 1.421875 0.765625q0.8125 0.265625 1.640625 0.265625q0.796875 0 1.5 -0.203125q0.71875 -0.203125 1.25 -0.609375q0.53125 -0.375 0.84375 -0.953125q0.328125 -0.578125 0.328125 -1.34375q0 -0.8125 -0.375 -1.4375q-0.359375 -0.640625 -0.953125 -1.09375q-0.484375 -0.359375 -1.0625 -0.609375q-0.578125 -0.25 -1.171875 -0.421875q-0.484375 -0.140625 -0.921875 -0.296875q-0.421875 -0.171875 -0.765625 -0.390625q-0.328125 -0.21875 -0.53125 -0.515625q-0.1875 -0.296875 -0.1875 -0.6875q0 -0.359375 0.140625 -0.65625q0.15625 -0.296875 0.421875 -0.515625q0.265625 -0.203125 0.625 -0.3125q0.359375 -0.109375 0.796875 -0.109375q0.484375 0 0.859375 0.140625q0.390625 0.140625 0.65625 0.390625q0.25 0.265625 0.390625 0.625q0.15625 0.34375 0.1875 0.78125l1.859375 0q0 -0.78125 -0.3125 -1.40625q-0.296875 -0.640625 -0.828125 -1.109375q-0.53125 -0.453125 -1.25 -0.703125q-0.71875 -0.25 -1.546875 -0.25q-0.78125 0 -1.484375 0.21875q-0.703125 0.203125 -1.234375 0.609375q-0.53125 0.421875 -0.84375 1.0q-0.3125 0.578125 -0.3125 1.3125q0 0.671875 0.265625 1.203125q0.265625 0.53125 0.75 0.953125q0.46875 0.421875 1.140625 0.75q0.6875 0.328125 1.484375 0.5625q0.53125 0.140625 0.953125 0.328125q0.421875 0.1875 0.734375 0.40625q0.296875 0.25 0.453125 0.5625q0.171875 0.296875 0.171875 0.6875zm11.4765625 -1.859375l0 -1.5625q-0.015625 -0.609375 -0.109375 -1.1875q-0.078125 -0.59375 -0.265625 -1.125q-0.234375 -0.65625 -0.609375 -1.1875q-0.359375 -0.546875 -0.859375 -0.921875q-0.46875 -0.359375 -1.0625 -0.546875q-0.578125 -0.203125 -1.265625 -0.203125q-0.703125 0 -1.28125 0.203125q-0.5625 0.1875 -1.03125 0.546875q-0.484375 0.359375 -0.828125 0.875q-0.34375 0.515625 -0.5625 1.140625q-0.1875 0.546875 -0.296875 1.15625q-0.09375 0.609375 -0.09375 1.25l0 1.5625q0 0.59375 0.09375 1.171875q0.109375 0.578125 0.3125 1.09375q0.21875 0.578125 0.5625 1.078125q0.34375 0.484375 0.796875 0.84375q0.46875 0.359375 1.046875 0.5625q0.578125 0.203125 1.28125 0.203125q0.296875 0 0.5625 -0.046875q0.28125 -0.03125 0.546875 -0.09375l2.1875 1.953125l1.25 -1.125l-1.921875 -1.671875q0.375 -0.328125 0.640625 -0.75q0.28125 -0.421875 0.46875 -0.890625q0.203125 -0.53125 0.3125 -1.125q0.109375 -0.59375 0.125 -1.203125zm-1.90625 -1.578125l0 1.578125q0 0.359375 -0.046875 0.734375q-0.03125 0.375 -0.125 0.734375q-0.109375 0.421875 -0.296875 0.78125q-0.1875 0.359375 -0.46875 0.625q-0.25 0.21875 -0.578125 0.359375q-0.328125 0.140625 -0.75 0.140625q-0.421875 0 -0.75 -0.125q-0.3125 -0.140625 -0.546875 -0.375q-0.28125 -0.265625 -0.46875 -0.625q-0.171875 -0.375 -0.28125 -0.8125q-0.078125 -0.34375 -0.125 -0.703125q-0.03125 -0.375 -0.03125 -0.734375l0 -1.578125q0 -0.375 0.03125 -0.75q0.03125 -0.390625 0.109375 -0.75q0.09375 -0.484375 0.28125 -0.875q0.1875 -0.40625 0.46875 -0.6875q0.25 -0.234375 0.5625 -0.359375q0.328125 -0.140625 0.75 -0.140625q0.421875 0 0.75 0.140625q0.34375 0.125 0.59375 0.359375q0.25 0.25 0.4375 0.59375q0.1875 0.34375 0.28125 0.75q0.109375 0.390625 0.15625 0.84375q0.046875 0.4375 0.046875 0.875zm5.7578125 4.828125l0 -9.828125l-1.890625 0l0 11.375l7.3125 0l0 -1.546875l-5.421875 0z" fill-rule="nonzero"/><path fill="#5fb7a0" d="m83.701996 239.13391q0.859375 0 1.6875 0.453125q0.828125 0.4375 1.28125 1.265625q0.46875 0.828125 0.46875 1.71875q0 1.421875 -1.015625 2.4375q-1.0 1.0 -2.421875 1.0q-1.4375 0 -2.453125 -1.0q-1.0 -1.015625 -1.0 -2.4375q0 -0.90625 0.453125 -1.71875q0.46875 -0.828125 1.296875 -1.265625q0.828125 -0.453125 1.703125 -0.453125z" fill-rule="nonzero"/><path fill="#5fb7a0" d="m115.70981 242.74329l1.921875 0q0.859375 0 1.578125 -0.25q0.734375 -0.25 1.25 -0.703125q0.53125 -0.453125 0.8125 -1.09375q0.296875 -0.640625 0.296875 -1.421875q0 -0.828125 -0.296875 -1.484375q-0.28125 -0.65625 -0.8125 -1.109375q-0.515625 -0.46875 -1.25 -0.71875q-0.71875 -0.25 -1.578125 -0.25l-3.796875 0l0 11.375l1.875 0l0 -4.34375zm0 -1.53125l0 -3.96875l1.921875 0q0.484375 0 0.859375 0.15625q0.375 0.140625 0.640625 0.421875q0.265625 0.265625 0.40625 0.640625q0.140625 0.375 0.140625 0.828125q0 0.40625 -0.140625 0.765625q-0.140625 0.34375 -0.40625 0.609375q-0.265625 0.25 -0.640625 0.40625q-0.375 0.140625 -0.859375 0.140625l-1.921875 0zm15.2890625 0.9375l0 -1.5q0 -0.703125 -0.125 -1.359375q-0.125 -0.671875 -0.375 -1.25q-0.21875 -0.53125 -0.5625 -0.984375q-0.328125 -0.453125 -0.78125 -0.796875q-0.453125 -0.328125 -1.03125 -0.515625q-0.5625 -0.1875 -1.25 -0.1875q-0.671875 0 -1.234375 0.1875q-0.546875 0.171875 -0.984375 0.515625q-0.453125 0.34375 -0.796875 0.8125q-0.328125 0.453125 -0.546875 1.015625q-0.234375 0.578125 -0.359375 1.234375q-0.109375 0.640625 -0.109375 1.328125l0 1.5q0 0.671875 0.109375 1.296875q0.109375 0.625 0.328125 1.1875q0.21875 0.578125 0.5625 1.0625q0.34375 0.484375 0.796875 0.828125q0.4375 0.328125 1.0 0.53125q0.578125 0.1875 1.25 0.1875q0.65625 0 1.203125 -0.171875q0.5625 -0.1875 1.015625 -0.5q0.46875 -0.34375 0.828125 -0.828125q0.359375 -0.484375 0.59375 -1.046875q0.234375 -0.578125 0.34375 -1.21875q0.125 -0.640625 0.125 -1.328125zm-1.890625 -1.515625l0 1.515625q0 0.421875 -0.046875 0.84375q-0.046875 0.40625 -0.140625 0.78125q-0.109375 0.421875 -0.296875 0.78125q-0.171875 0.359375 -0.453125 0.609375q-0.234375 0.234375 -0.5625 0.375q-0.3125 0.125 -0.71875 0.125q-0.40625 0 -0.734375 -0.140625q-0.3125 -0.140625 -0.546875 -0.375q-0.25 -0.25 -0.4375 -0.609375q-0.171875 -0.359375 -0.265625 -0.78125q-0.09375 -0.375 -0.140625 -0.78125q-0.03125 -0.40625 -0.03125 -0.828125l0 -1.515625q0 -0.421875 0.03125 -0.828125q0.046875 -0.421875 0.140625 -0.796875q0.109375 -0.4375 0.296875 -0.796875q0.1875 -0.359375 0.453125 -0.609375q0.234375 -0.21875 0.53125 -0.328125q0.3125 -0.125 0.6875 -0.125q0.40625 0 0.71875 0.125q0.3125 0.125 0.546875 0.34375q0.28125 0.25 0.46875 0.609375q0.1875 0.34375 0.3125 0.78125q0.09375 0.375 0.140625 0.796875q0.046875 0.40625 0.046875 0.828125zm9.7109375 3.515625q0 0.375 -0.15625 0.671875q-0.15625 0.28125 -0.421875 0.484375q-0.28125 0.203125 -0.65625 0.3125q-0.359375 0.09375 -0.796875 0.09375q-0.5 0 -0.9375 -0.125q-0.421875 -0.125 -0.734375 -0.390625q-0.3125 -0.25 -0.5 -0.625q-0.1875 -0.390625 -0.21875 -0.921875l-1.875 0q0 0.828125 0.328125 1.46875q0.328125 0.625 0.875 1.09375q0.609375 0.5 1.421875 0.765625q0.8125 0.265625 1.640625 0.265625q0.796875 0 1.5 -0.203125q0.71875 -0.203125 1.25 -0.609375q0.53125 -0.375 0.84375 -0.953125q0.328125 -0.578125 0.328125 -1.34375q0 -0.8125 -0.375 -1.4375q-0.359375 -0.640625 -0.953125 -1.09375q-0.484375 -0.359375 -1.0625 -0.609375q-0.578125 -0.25 -1.171875 -0.421875q-0.484375 -0.140625 -0.921875 -0.296875q-0.421875 -0.171875 -0.765625 -0.390625q-0.328125 -0.21875 -0.53125 -0.515625q-0.1875 -0.296875 -0.1875 -0.6875q0 -0.359375 0.140625 -0.65625q0.15625 -0.296875 0.421875 -0.515625q0.265625 -0.203125 0.625 -0.3125q0.359375 -0.109375 0.796875 -0.109375q0.484375 0 0.859375 0.140625q0.390625 0.140625 0.65625 0.390625q0.25 0.265625 0.390625 0.625q0.15625 0.34375 0.1875 0.78125l1.859375 0q0 -0.78125 -0.3125 -1.40625q-0.296875 -0.640625 -0.828125 -1.109375q-0.53125 -0.453125 -1.25 -0.703125q-0.71875 -0.25 -1.546875 -0.25q-0.78125 0 -1.484375 0.21875q-0.703125 0.203125 -1.234375 0.609375q-0.53125 0.421875 -0.84375 1.0q-0.3125 0.578125 -0.3125 1.3125q0 0.671875 0.265625 1.203125q0.265625 0.53125 0.75 0.953125q0.46875 0.421875 1.140625 0.75q0.6875 0.328125 1.484375 0.5625q0.53125 0.140625 0.953125 0.328125q0.421875 0.1875 0.734375 0.40625q0.296875 0.25 0.453125 0.5625q0.171875 0.296875 0.171875 0.6875zm11.7421875 -6.890625l0 -1.546875l-8.859375 0l0 1.546875l3.484375 0l0 9.828125l1.875 0l0 -9.828125l3.5 0zm9.1640625 8.421875l-0.015625 -4.34375l-3.90625 0l0 1.453125l2.0625 0l-0.015625 2.28125q-0.125 0.15625 -0.34375 0.28125q-0.203125 0.125 -0.453125 0.203125q-0.25 0.078125 -0.53125 0.109375q-0.28125 0.03125 -0.5625 0.03125q-0.453125 0 -0.828125 -0.140625q-0.359375 -0.15625 -0.625 -0.4375q-0.21875 -0.203125 -0.390625 -0.46875q-0.15625 -0.28125 -0.265625 -0.59375q-0.15625 -0.421875 -0.234375 -0.90625q-0.0625 -0.484375 -0.0625 -1.015625l0 -1.46875q0 -0.46875 0.046875 -0.90625q0.0625 -0.4375 0.171875 -0.8125q0.140625 -0.4375 0.34375 -0.796875q0.203125 -0.359375 0.484375 -0.59375q0.25 -0.21875 0.546875 -0.328125q0.3125 -0.125 0.671875 -0.125q0.484375 0 0.84375 0.140625q0.375 0.140625 0.625 0.40625q0.234375 0.25 0.375 0.609375q0.140625 0.359375 0.203125 0.8125l1.84375 0q-0.078125 -0.8125 -0.375 -1.46875q-0.28125 -0.65625 -0.78125 -1.109375q-0.484375 -0.453125 -1.1875 -0.6875q-0.6875 -0.25 -1.59375 -0.25q-0.65625 0 -1.234375 0.1875q-0.5625 0.1875 -1.03125 0.53125q-0.421875 0.328125 -0.765625 0.78125q-0.328125 0.4375 -0.578125 0.96875q-0.25 0.578125 -0.375 1.25q-0.125 0.671875 -0.140625 1.40625l0 1.453125q0.015625 0.75 0.15625 1.4375q0.140625 0.6875 0.40625 1.265625q0.25 0.546875 0.609375 1.0q0.359375 0.4375 0.828125 0.75q0.453125 0.3125 1.015625 0.484375q0.578125 0.171875 1.234375 0.171875q0.71875 0 1.34375 -0.15625q0.625 -0.140625 1.15625 -0.390625q0.421875 -0.203125 0.75 -0.46875q0.34375 -0.265625 0.578125 -0.546875zm5.7890625 -3.015625l2.1875 4.421875l2.0 0l0 -0.109375l-2.421875 -4.75q0.46875 -0.21875 0.84375 -0.5q0.390625 -0.296875 0.65625 -0.671875q0.28125 -0.390625 0.421875 -0.859375q0.15625 -0.484375 0.15625 -1.0625q0 -0.859375 -0.296875 -1.484375q-0.296875 -0.640625 -0.828125 -1.078125q-0.53125 -0.421875 -1.28125 -0.640625q-0.734375 -0.21875 -1.625 -0.21875l-3.609375 0l0 11.375l1.875 0l0 -4.421875l1.921875 0zm-1.921875 -1.53125l0 -3.890625l1.734375 0q0.484375 0 0.875 0.125q0.390625 0.125 0.671875 0.359375q0.296875 0.25 0.4375 0.625q0.15625 0.359375 0.15625 0.859375q0 0.4375 -0.140625 0.78125q-0.140625 0.34375 -0.390625 0.578125q-0.28125 0.265625 -0.6875 0.421875q-0.390625 0.140625 -0.890625 0.140625l-1.765625 0zm14.3984375 0.84375l0 -1.515625l-4.703125 0l0 -3.203125l5.453125 0l0 -1.546875l-7.34375 0l0 11.375l7.375 0l0 -1.546875l-5.484375 0l0 -3.5625l4.703125 0zm8.8359375 2.171875q0 0.375 -0.15625 0.671875q-0.15625 0.28125 -0.421875 0.484375q-0.28125 0.203125 -0.65625 0.3125q-0.359375 0.09375 -0.796875 0.09375q-0.5 0 -0.9375 -0.125q-0.421875 -0.125 -0.734375 -0.390625q-0.3125 -0.25 -0.5 -0.625q-0.1875 -0.390625 -0.21875 -0.921875l-1.875 0q0 0.828125 0.328125 1.46875q0.328125 0.625 0.875 1.09375q0.609375 0.5 1.421875 0.765625q0.8125 0.265625 1.640625 0.265625q0.796875 0 1.5 -0.203125q0.71875 -0.203125 1.25 -0.609375q0.53125 -0.375 0.84375 -0.953125q0.328125 -0.578125 0.328125 -1.34375q0 -0.8125 -0.375 -1.4375q-0.359375 -0.640625 -0.953125 -1.09375q-0.484375 -0.359375 -1.0625 -0.609375q-0.578125 -0.25 -1.171875 -0.421875q-0.484375 -0.140625 -0.921875 -0.296875q-0.421875 -0.171875 -0.765625 -0.390625q-0.328125 -0.21875 -0.53125 -0.515625q-0.1875 -0.296875 -0.1875 -0.6875q0 -0.359375 0.140625 -0.65625q0.15625 -0.296875 0.421875 -0.515625q0.265625 -0.203125 0.625 -0.3125q0.359375 -0.109375 0.796875 -0.109375q0.484375 0 0.859375 0.140625q0.390625 0.140625 0.65625 0.390625q0.25 0.265625 0.390625 0.625q0.15625 0.34375 0.1875 0.78125l1.859375 0q0 -0.78125 -0.3125 -1.40625q-0.296875 -0.640625 -0.828125 -1.109375q-0.53125 -0.453125 -1.25 -0.703125q-0.71875 -0.25 -1.546875 -0.25q-0.78125 0 -1.484375 0.21875q-0.703125 0.203125 -1.234375 0.609375q-0.53125 0.421875 -0.84375 1.0q-0.3125 0.578125 -0.3125 1.3125q0 0.671875 0.265625 1.203125q0.265625 0.53125 0.75 0.953125q0.46875 0.421875 1.140625 0.75q0.6875 0.328125 1.484375 0.5625q0.53125 0.140625 0.953125 0.328125q0.421875 0.1875 0.734375 0.40625q0.296875 0.25 0.453125 0.5625q0.171875 0.296875 0.171875 0.6875zm11.4765625 -1.859375l0 -1.5625q-0.015625 -0.609375 -0.109375 -1.1875q-0.078125 -0.59375 -0.265625 -1.125q-0.234375 -0.65625 -0.609375 -1.1875q-0.359375 -0.546875 -0.859375 -0.921875q-0.46875 -0.359375 -1.0625 -0.546875q-0.578125 -0.203125 -1.265625 -0.203125q-0.703125 0 -1.28125 0.203125q-0.5625 0.1875 -1.03125 0.546875q-0.484375 0.359375 -0.828125 0.875q-0.34375 0.515625 -0.5625 1.140625q-0.1875 0.546875 -0.296875 1.15625q-0.09375 0.609375 -0.09375 1.25l0 1.5625q0 0.59375 0.09375 1.171875q0.109375 0.578125 0.3125 1.09375q0.21875 0.578125 0.5625 1.078125q0.34375 0.484375 0.796875 0.84375q0.46875 0.359375 1.046875 0.5625q0.578125 0.203125 1.28125 0.203125q0.296875 0 0.5625 -0.046875q0.28125 -0.03125 0.546875 -0.09375l2.1875 1.953125l1.25 -1.125l-1.921875 -1.671875q0.375 -0.328125 0.640625 -0.75q0.28125 -0.421875 0.46875 -0.890625q0.203125 -0.53125 0.3125 -1.125q0.109375 -0.59375 0.125 -1.203125zm-1.90625 -1.578125l0 1.578125q0 0.359375 -0.046875 0.734375q-0.03125 0.375 -0.125 0.734375q-0.109375 0.421875 -0.296875 0.78125q-0.1875 0.359375 -0.46875 0.625q-0.25 0.21875 -0.578125 0.359375q-0.328125 0.140625 -0.75 0.140625q-0.421875 0 -0.75 -0.125q-0.3125 -0.140625 -0.546875 -0.375q-0.28125 -0.265625 -0.46875 -0.625q-0.171875 -0.375 -0.28125 -0.8125q-0.078125 -0.34375 -0.125 -0.703125q-0.03125 -0.375 -0.03125 -0.734375l0 -1.578125q0 -0.375 0.03125 -0.75q0.03125 -0.390625 0.109375 -0.75q0.09375 -0.484375 0.28125 -0.875q0.1875 -0.40625 0.46875 -0.6875q0.25 -0.234375 0.5625 -0.359375q0.328125 -0.140625 0.75 -0.140625q0.421875 0 0.75 0.140625q0.34375 0.125 0.59375 0.359375q0.25 0.25 0.4375 0.59375q0.1875 0.34375 0.28125 0.75q0.109375 0.390625 0.15625 0.84375q0.046875 0.4375 0.046875 0.875zm5.7578125 4.828125l0 -9.828125l-1.890625 0l0 11.375l7.3125 0l0 -1.546875l-5.421875 0z" fill-rule="nonzero"/><path fill="#5fb7a0" d="m83.701996 258.1339q0.859375 0 1.6875 0.453125q0.828125 0.4375 1.28125 1.265625q0.46875 0.828125 0.46875 1.71875q0 1.421875 -1.015625 2.4375q-1.0 1.0 -2.421875 1.0q-1.4375 0 -2.453125 -1.0q-1.0 -1.015625 -1.0 -2.4375q0 -0.90625 0.453125 -1.71875q0.46875 -0.828125 1.296875 -1.265625q0.828125 -0.453125 1.703125 -0.453125z" fill-rule="nonzero"/><path fill="#5fb7a0" d="m117.50668 261.66516l2.1875 4.421875l2.0 0l0 -0.109375l-2.421875 -4.75q0.46875 -0.21875 0.84375 -0.5q0.390625 -0.296875 0.65625 -0.671875q0.28125 -0.390625 0.421875 -0.859375q0.15625 -0.484375 0.15625 -1.0625q0 -0.859375 -0.296875 -1.484375q-0.296875 -0.640625 -0.828125 -1.078125q-0.53125 -0.421875 -1.28125 -0.640625q-0.734375 -0.21875 -1.625 -0.21875l-3.609375 0l0 11.375l1.875 0l0 -4.421875l1.921875 0zm-1.921875 -1.53125l0 -3.890625l1.734375 0q0.484375 0 0.875 0.125q0.390625 0.125 0.671875 0.359375q0.296875 0.25 0.4375 0.625q0.15625 0.359375 0.15625 0.859375q0 0.4375 -0.140625 0.78125q-0.140625 0.34375 -0.390625 0.578125q-0.28125 0.265625 -0.6875 0.421875q-0.390625 0.140625 -0.890625 0.140625l-1.765625 0zm14.3984375 0.84375l0 -1.515625l-4.703125 0l0 -3.203125l5.453125 0l0 -1.546875l-7.34375 0l0 11.375l7.375 0l0 -1.546875l-5.484375 0l0 -3.5625l4.703125 0zm2.8203125 5.109375l2.875 0q0.78125 0 1.46875 -0.1875q0.6875 -0.1875 1.25 -0.546875q0.5 -0.3125 0.90625 -0.765625q0.40625 -0.453125 0.703125 -1.015625q0.296875 -0.5625 0.453125 -1.25q0.15625 -0.703125 0.15625 -1.46875l0 -0.890625q0 -0.8125 -0.171875 -1.515625q-0.171875 -0.71875 -0.484375 -1.3125q-0.296875 -0.5625 -0.75 -1.015625q-0.453125 -0.46875 -1.03125 -0.78125q-0.53125 -0.296875 -1.1875 -0.453125q-0.640625 -0.171875 -1.375 -0.171875l-2.8125 0l0 11.375zm1.90625 -9.84375l0.90625 0q0.453125 0 0.84375 0.109375q0.390625 0.09375 0.703125 0.265625q0.4375 0.25 0.75 0.640625q0.3125 0.375 0.5 0.859375q0.140625 0.390625 0.21875 0.859375q0.078125 0.453125 0.078125 0.96875l0 0.90625q0 0.515625 -0.078125 0.984375q-0.078125 0.453125 -0.21875 0.84375q-0.171875 0.46875 -0.453125 0.828125q-0.265625 0.34375 -0.609375 0.578125q-0.328125 0.234375 -0.75 0.359375q-0.421875 0.109375 -0.921875 0.109375l-0.96875 0l0 -8.3125zm13.7109375 6.90625q0 0.375 -0.15625 0.671875q-0.15625 0.28125 -0.421875 0.484375q-0.28125 0.203125 -0.65625 0.3125q-0.359375 0.09375 -0.796875 0.09375q-0.5 0 -0.9375 -0.125q-0.421875 -0.125 -0.734375 -0.390625q-0.3125 -0.25 -0.5 -0.625q-0.1875 -0.390625 -0.21875 -0.921875l-1.875 0q0 0.828125 0.328125 1.46875q0.328125 0.625 0.875 1.09375q0.609375 0.5 1.421875 0.765625q0.8125 0.265625 1.640625 0.265625q0.796875 0 1.5 -0.203125q0.71875 -0.203125 1.25 -0.609375q0.53125 -0.375 0.84375 -0.953125q0.328125 -0.578125 0.328125 -1.34375q0 -0.8125 -0.375 -1.4375q-0.359375 -0.640625 -0.953125 -1.09375q-0.484375 -0.359375 -1.0625 -0.609375q-0.578125 -0.25 -1.171875 -0.421875q-0.484375 -0.140625 -0.921875 -0.296875q-0.421875 -0.171875 -0.765625 -0.390625q-0.328125 -0.21875 -0.53125 -0.515625q-0.1875 -0.296875 -0.1875 -0.6875q0 -0.359375 0.140625 -0.65625q0.15625 -0.296875 0.421875 -0.515625q0.265625 -0.203125 0.625 -0.3125q0.359375 -0.109375 0.796875 -0.109375q0.484375 0 0.859375 0.140625q0.390625 0.140625 0.65625 0.390625q0.25 0.265625 0.390625 0.625q0.15625 0.34375 0.1875 0.78125l1.859375 0q0 -0.78125 -0.3125 -1.40625q-0.296875 -0.640625 -0.828125 -1.109375q-0.53125 -0.453125 -1.25 -0.703125q-0.71875 -0.25 -1.546875 -0.25q-0.78125 0 -1.484375 0.21875q-0.703125 0.203125 -1.234375 0.609375q-0.53125 0.421875 -0.84375 1.0q-0.3125 0.578125 -0.3125 1.3125q0 0.671875 0.265625 1.203125q0.265625 0.53125 0.75 0.953125q0.46875 0.421875 1.140625 0.75q0.6875 0.328125 1.484375 0.5625q0.53125 0.140625 0.953125 0.328125q0.421875 0.1875 0.734375 0.40625q0.296875 0.25 0.453125 0.5625q0.171875 0.296875 0.171875 0.6875zm11.0234375 2.9375l0 -11.375l-1.828125 0l0 4.75l-3.828125 0l0 -4.75l-1.828125 0l0 11.375l1.828125 0l0 -5.078125l3.828125 0l0 5.078125l1.828125 0zm2.5390625 -11.375l0 1.546875l2.375 0l0 8.28125l-2.375 0l0 1.546875l6.703125 0l0 -1.546875l-2.4375 0l0 -8.28125l2.4375 0l0 -1.546875l-6.703125 0zm16.164062 6.53125l0 -1.546875l-4.8125 0l0 -3.4375l5.5 0l0 -1.546875l-7.390625 0l0 11.375l1.890625 0l0 -4.84375l4.8125 0zm10.8203125 -4.984375l0 -1.546875l-8.859375 0l0 1.546875l3.484375 0l0 9.828125l1.875 0l0 -9.828125l3.5 0z" fill-rule="nonzero"/><path fill="#5fb7a0" d="m83.701996 277.1339q0.859375 0 1.6875 0.453125q0.828125 0.4375 1.28125 1.265625q0.46875 0.828125 0.46875 1.71875q0 1.421875 -1.015625 2.4375q-1.0 1.0 -2.421875 1.0q-1.4375 0 -2.453125 -1.0q-1.0 -1.015625 -1.0 -2.4375q0 -0.90625 0.453125 -1.71875q0.46875 -0.828125 1.296875 -1.265625q0.828125 -0.453125 1.703125 -0.453125z" fill-rule="nonzero"/><path fill="#5fb7a0" d="m119.61606 282.14954q0 0.375 -0.15625 0.671875q-0.15625 0.28125 -0.421875 0.484375q-0.28125 0.203125 -0.65625 0.3125q-0.359375 0.09375 -0.796875 0.09375q-0.5 0 -0.9375 -0.125q-0.421875 -0.125 -0.734375 -0.390625q-0.3125 -0.25 -0.5 -0.625q-0.1875 -0.390625 -0.21875 -0.921875l-1.875 0q0 0.828125 0.328125 1.46875q0.328125 0.625 0.875 1.09375q0.609375 0.5 1.421875 0.765625q0.8125 0.265625 1.640625 0.265625q0.796875 0 1.5 -0.203125q0.71875 -0.203125 1.25 -0.609375q0.53125 -0.375 0.84375 -0.953125q0.328125 -0.578125 0.328125 -1.34375q0 -0.8125 -0.375 -1.4375q-0.359375 -0.640625 -0.953125 -1.09375q-0.484375 -0.359375 -1.0625 -0.609375q-0.578125 -0.25 -1.171875 -0.421875q-0.484375 -0.140625 -0.921875 -0.296875q-0.421875 -0.171875 -0.765625 -0.390625q-0.328125 -0.21875 -0.53125 -0.515625q-0.1875 -0.296875 -0.1875 -0.6875q0 -0.359375 0.140625 -0.65625q0.15625 -0.296875 0.421875 -0.515625q0.265625 -0.203125 0.625 -0.3125q0.359375 -0.109375 0.796875 -0.109375q0.484375 0 0.859375 0.140625q0.390625 0.140625 0.65625 0.390625q0.25 0.265625 0.390625 0.625q0.15625 0.34375 0.1875 0.78125l1.859375 0q0 -0.78125 -0.3125 -1.40625q-0.296875 -0.640625 -0.828125 -1.109375q-0.53125 -0.453125 -1.25 -0.703125q-0.71875 -0.25 -1.546875 -0.25q-0.78125 0 -1.484375 0.21875q-0.703125 0.203125 -1.234375 0.609375q-0.53125 0.421875 -0.84375 1.0q-0.3125 0.578125 -0.3125 1.3125q0 0.671875 0.265625 1.203125q0.265625 0.53125 0.75 0.953125q0.46875 0.421875 1.140625 0.75q0.6875 0.328125 1.484375 0.5625q0.53125 0.140625 0.953125 0.328125q0.421875 0.1875 0.734375 0.40625q0.296875 0.25 0.453125 0.5625q0.171875 0.296875 0.171875 0.6875zm11.0234375 2.9375l0 -11.375l-1.890625 0l-0.015625 7.796875l-3.671875 -7.796875l-1.90625 0l0 11.375l1.890625 0l0.015625 -7.828125l3.6875 7.828125l1.890625 0zm9.9609375 -4.9375l0 -1.5q0 -0.703125 -0.125 -1.359375q-0.125 -0.671875 -0.375 -1.25q-0.21875 -0.53125 -0.5625 -0.984375q-0.328125 -0.453125 -0.78125 -0.796875q-0.453125 -0.328125 -1.03125 -0.515625q-0.5625 -0.1875 -1.25 -0.1875q-0.671875 0 -1.234375 0.1875q-0.546875 0.171875 -0.984375 0.515625q-0.453125 0.34375 -0.796875 0.8125q-0.328125 0.453125 -0.546875 1.015625q-0.234375 0.578125 -0.359375 1.234375q-0.109375 0.640625 -0.109375 1.328125l0 1.5q0 0.671875 0.109375 1.296875q0.109375 0.625 0.328125 1.1875q0.21875 0.578125 0.5625 1.0625q0.34375 0.484375 0.796875 0.828125q0.4375 0.328125 1.0 0.53125q0.578125 0.1875 1.25 0.1875q0.65625 0 1.203125 -0.171875q0.5625 -0.1875 1.015625 -0.5q0.46875 -0.34375 0.828125 -0.828125q0.359375 -0.484375 0.59375 -1.046875q0.234375 -0.578125 0.34375 -1.21875q0.125 -0.640625 0.125 -1.328125zm-1.890625 -1.515625l0 1.515625q0 0.421875 -0.046875 0.84375q-0.046875 0.40625 -0.140625 0.78125q-0.109375 0.421875 -0.296875 0.78125q-0.171875 0.359375 -0.453125 0.609375q-0.234375 0.234375 -0.5625 0.375q-0.3125 0.125 -0.71875 0.125q-0.40625 0 -0.734375 -0.140625q-0.3125 -0.140625 -0.546875 -0.375q-0.25 -0.25 -0.4375 -0.609375q-0.171875 -0.359375 -0.265625 -0.78125q-0.09375 -0.375 -0.140625 -0.78125q-0.03125 -0.40625 -0.03125 -0.828125l0 -1.515625q0 -0.421875 0.03125 -0.828125q0.046875 -0.421875 0.140625 -0.796875q0.109375 -0.4375 0.296875 -0.796875q0.1875 -0.359375 0.453125 -0.609375q0.234375 -0.21875 0.53125 -0.328125q0.3125 -0.125 0.6875 -0.125q0.40625 0 0.71875 0.125q0.3125 0.125 0.546875 0.34375q0.28125 0.25 0.46875 0.609375q0.1875 0.34375 0.3125 0.78125q0.09375 0.375 0.140625 0.796875q0.046875 0.40625 0.046875 0.828125zm4.4609375 6.453125l1.78125 0l1.140625 -6.96875l0.078125 -0.53125l0.078125 0.53125l1.15625 6.96875l1.78125 0l1.5 -11.375l-1.75 0l-0.796875 6.984375l-0.046875 0.46875l-0.078125 -0.46875l-1.140625 -6.984375l-1.4375 0l-1.09375 6.953125l-0.078125 0.46875l-0.046875 -0.4375l-0.78125 -6.984375l-1.75 0l1.484375 11.375zm15.7734375 -4.84375l0 -1.546875l-4.8125 0l0 -3.4375l5.5 0l0 -1.546875l-7.390625 0l0 11.375l1.890625 0l0 -4.84375l4.8125 0zm4.8046875 3.296875l0 -9.828125l-1.890625 0l0 11.375l7.3125 0l0 -1.546875l-5.421875 0zm13.0703125 -1.078125l0.765625 2.625l1.953125 0l-3.640625 -11.375l-1.671875 0l-3.703125 11.375l1.953125 0l0.78125 -2.625l3.5625 0zm-3.09375 -1.609375l1.328125 -4.5l1.3125 4.5l-2.640625 0zm10.2890625 -0.703125l3.078125 4.9375l2.25 0l-4.09375 -6.375l3.890625 -5.0l-2.296875 0l-3.0 3.96875l-1.0625 1.375l0 -5.34375l-1.890625 0l0 11.375l1.890625 0l0 -3.5625l1.234375 -1.375zm13.1796875 -0.171875l0 -1.515625l-4.703125 0l0 -3.203125l5.453125 0l0 -1.546875l-7.34375 0l0 11.375l7.375 0l0 -1.546875l-5.484375 0l0 -3.5625l4.703125 0z" fill-rule="nonzero"/><path fill="#5fb7a0" d="m83.701996 296.1339q0.859375 0 1.6875 0.453125q0.828125 0.4375 1.28125 1.265625q0.46875 0.828125 0.46875 1.71875q0 1.421875 -1.015625 2.4375q-1.0 1.0 -2.421875 1.0q-1.4375 0 -2.453125 -1.0q-1.0 -1.015625 -1.0 -2.4375q0 -0.90625 0.453125 -1.71875q0.46875 -0.828125 1.296875 -1.265625q0.828125 -0.453125 1.703125 -0.453125z" fill-rule="nonzero"/><path fill="#5fb7a0" d="m116.80356 299.14954l3.078125 4.9375l2.25 0l-4.09375 -6.375l3.890625 -5.0l-2.296875 0l-3.0 3.96875l-1.0625 1.375l0 -5.34375l-1.890625 0l0 11.375l1.890625 0l0 -3.5625l1.234375 -1.375zm12.0078125 2.3125l0.765625 2.625l1.953125 0l-3.640625 -11.375l-1.671875 0l-3.703125 11.375l1.953125 0l0.78125 -2.625l3.5625 0zm-3.09375 -1.609375l1.328125 -4.5l1.3125 4.5l-2.640625 0zm14.0234375 -0.609375l0 -1.546875l-4.8125 0l0 -3.4375l5.5 0l0 -1.546875l-7.390625 0l0 11.375l1.890625 0l0 -4.84375l4.8125 0zm5.8671875 -0.09375l3.078125 4.9375l2.25 0l-4.09375 -6.375l3.890625 -5.0l-2.296875 0l-3.0 3.96875l-1.0625 1.375l0 -5.34375l-1.890625 0l0 11.375l1.890625 0l0 -3.5625l1.234375 -1.375zm12.0078125 2.3125l0.765625 2.625l1.953125 0l-3.640625 -11.375l-1.671875 0l-3.703125 11.375l1.953125 0l0.78125 -2.625l3.5625 0zm-3.09375 -1.609375l1.328125 -4.5l1.3125 4.5l-2.640625 0z" fill-rule="nonzero"/><path fill="#5fb7a0" d="m83.701996 315.1339q0.859375 0 1.6875 0.453125q0.828125 0.4375 1.28125 1.265625q0.46875 0.828125 0.46875 1.71875q0 1.421875 -1.015625 2.4375q-1.0 1.0 -2.421875 1.0q-1.4375 0 -2.453125 -1.0q-1.0 -1.015625 -1.0 -2.4375q0 -0.90625 0.453125 -1.71875q0.46875 -0.828125 1.296875 -1.265625q0.828125 -0.453125 1.703125 -0.453125z" fill-rule="nonzero"/><path fill="#5fb7a0" d="m119.61606 320.14954q0 0.375 -0.15625 0.671875q-0.15625 0.28125 -0.421875 0.484375q-0.28125 0.203125 -0.65625 0.3125q-0.359375 0.09375 -0.796875 0.09375q-0.5 0 -0.9375 -0.125q-0.421875 -0.125 -0.734375 -0.390625q-0.3125 -0.25 -0.5 -0.625q-0.1875 -0.390625 -0.21875 -0.921875l-1.875 0q0 0.828125 0.328125 1.46875q0.328125 0.625 0.875 1.09375q0.609375 0.5 1.421875 0.765625q0.8125 0.265625 1.640625 0.265625q0.796875 0 1.5 -0.203125q0.71875 -0.203125 1.25 -0.609375q0.53125 -0.375 0.84375 -0.953125q0.328125 -0.578125 0.328125 -1.34375q0 -0.8125 -0.375 -1.4375q-0.359375 -0.640625 -0.953125 -1.09375q-0.484375 -0.359375 -1.0625 -0.609375q-0.578125 -0.25 -1.171875 -0.421875q-0.484375 -0.140625 -0.921875 -0.296875q-0.421875 -0.171875 -0.765625 -0.390625q-0.328125 -0.21875 -0.53125 -0.515625q-0.1875 -0.296875 -0.1875 -0.6875q0 -0.359375 0.140625 -0.65625q0.15625 -0.296875 0.421875 -0.515625q0.265625 -0.203125 0.625 -0.3125q0.359375 -0.109375 0.796875 -0.109375q0.484375 0 0.859375 0.140625q0.390625 0.140625 0.65625 0.390625q0.25 0.265625 0.390625 0.625q0.15625 0.34375 0.1875 0.78125l1.859375 0q0 -0.78125 -0.3125 -1.40625q-0.296875 -0.640625 -0.828125 -1.109375q-0.53125 -0.453125 -1.25 -0.703125q-0.71875 -0.25 -1.546875 -0.25q-0.78125 0 -1.484375 0.21875q-0.703125 0.203125 -1.234375 0.609375q-0.53125 0.421875 -0.84375 1.0q-0.3125 0.578125 -0.3125 1.3125q0 0.671875 0.265625 1.203125q0.265625 0.53125 0.75 0.953125q0.46875 0.421875 1.140625 0.75q0.6875 0.328125 1.484375 0.5625q0.53125 0.140625 0.953125 0.328125q0.421875 0.1875 0.734375 0.40625q0.296875 0.25 0.453125 0.5625q0.171875 0.296875 0.171875 0.6875zm5.6953125 -3.59375l0 1.46875l1.125 0q0.484375 0 0.875 0.109375q0.390625 0.109375 0.671875 0.34375q0.28125 0.234375 0.421875 0.59375q0.15625 0.34375 0.15625 0.828125q0 0.4375 -0.125 0.78125q-0.125 0.34375 -0.375 0.5625q-0.25 0.25 -0.609375 0.375q-0.359375 0.109375 -0.8125 0.109375q-0.421875 0 -0.78125 -0.125q-0.34375 -0.125 -0.59375 -0.34375q-0.25 -0.21875 -0.390625 -0.53125q-0.140625 -0.328125 -0.140625 -0.703125l-1.859375 0q0 0.796875 0.296875 1.40625q0.3125 0.59375 0.828125 1.0q0.515625 0.40625 1.1875 0.609375q0.6875 0.203125 1.421875 0.203125q0.8125 0 1.515625 -0.21875q0.703125 -0.234375 1.21875 -0.65625q0.5 -0.421875 0.796875 -1.046875q0.296875 -0.625 0.296875 -1.421875q0 -0.421875 -0.109375 -0.828125q-0.09375 -0.40625 -0.328125 -0.75q-0.21875 -0.34375 -0.578125 -0.625q-0.359375 -0.28125 -0.859375 -0.453125q0.421875 -0.1875 0.734375 -0.46875q0.328125 -0.28125 0.546875 -0.609375q0.203125 -0.328125 0.3125 -0.671875q0.109375 -0.359375 0.109375 -0.703125q0 -0.796875 -0.265625 -1.390625q-0.265625 -0.609375 -0.75 -1.03125q-0.484375 -0.40625 -1.15625 -0.609375q-0.671875 -0.203125 -1.484375 -0.203125q-0.78125 0 -1.453125 0.234375q-0.65625 0.234375 -1.140625 0.640625q-0.484375 0.421875 -0.765625 1.0q-0.265625 0.5625 -0.265625 1.25l1.875 0q0 -0.375 0.125 -0.671875q0.140625 -0.296875 0.390625 -0.5q0.234375 -0.21875 0.546875 -0.328125q0.328125 -0.109375 0.71875 -0.109375q0.421875 0 0.75 0.125q0.34375 0.109375 0.5625 0.3125q0.21875 0.234375 0.328125 0.5625q0.109375 0.3125 0.109375 0.71875q0 0.375 -0.125 0.703125q-0.109375 0.3125 -0.34375 0.53125q-0.234375 0.25 -0.609375 0.390625q-0.375 0.140625 -0.875 0.140625l-1.125 0z" fill-rule="nonzero"/><path fill="#000000" fill-opacity="0.0" d="m774.0853 23.454706l166.51965 0l0 81.385826l-166.51965 0z" fill-rule="evenodd"/><path fill="#5fb7a0" d="m802.265 39.861584q0.859375 0 1.6875 0.453125q0.828125 0.4375 1.28125 1.265625q0.46875 0.828125 0.46875 1.71875q0 1.421875 -1.015625 2.4375q-1.0 1.0 -2.421875 1.0q-1.4375 0 -2.453125 -1.0q-1.0 -1.015625 -1.0 -2.4375q0 -0.90625 0.453125 -1.71875q0.46875 -0.828125 1.296875 -1.265625q0.828125 -0.453125 1.703125 -0.453125z" fill-rule="nonzero"/><path fill="#5fb7a0" d="m832.2416 47.81471l3.9375 0q0.84375 0 1.5625 -0.21875q0.71875 -0.21875 1.25 -0.640625q0.515625 -0.40625 0.8125 -1.015625q0.296875 -0.625 0.296875 -1.4375q0 -0.46875 -0.140625 -0.875q-0.125 -0.421875 -0.375 -0.765625q-0.234375 -0.328125 -0.59375 -0.578125q-0.359375 -0.25 -0.875 -0.390625l0 -0.015625q0.34375 -0.140625 0.609375 -0.3125q0.265625 -0.171875 0.46875 -0.40625q0.296875 -0.328125 0.453125 -0.734375q0.171875 -0.421875 0.171875 -0.90625q0 -0.796875 -0.296875 -1.375q-0.296875 -0.59375 -0.828125 -0.96875q-0.53125 -0.375 -1.265625 -0.546875q-0.71875 -0.1875 -1.546875 -0.1875l-3.640625 0l0 11.375zm1.890625 -5.140625l2.15625 0q0.453125 0 0.8125 0.140625q0.359375 0.125 0.609375 0.359375q0.25 0.234375 0.375 0.5625q0.125 0.328125 0.125 0.765625q0 0.40625 -0.15625 0.734375q-0.140625 0.328125 -0.421875 0.5625q-0.265625 0.21875 -0.640625 0.34375q-0.359375 0.125 -0.796875 0.125l-2.0625 0l0 -3.59375zm0 -1.4375l0 -3.25l1.765625 0q0.484375 0.015625 0.875 0.125q0.40625 0.09375 0.671875 0.328125q0.234375 0.1875 0.359375 0.484375q0.140625 0.296875 0.140625 0.6875q0 0.375 -0.140625 0.671875q-0.140625 0.28125 -0.390625 0.484375q-0.265625 0.234375 -0.65625 0.359375q-0.375 0.109375 -0.84375 0.109375l-1.78125 0zm13.2421875 3.953125l0.765625 2.625l1.953125 0l-3.640625 -11.375l-1.671875 0l-3.703125 11.375l1.953125 0l0.78125 -2.625l3.5625 0zm-3.09375 -1.609375l1.328125 -4.5l1.3125 4.5l-2.640625 0zm15.2421875 -5.59375l0 -1.546875l-8.859375 0l0 1.546875l3.484375 0l0 9.828125l1.875 0l0 -9.828125l3.5 0zm9.2109375 6.328125l-1.875 0q-0.046875 0.515625 -0.203125 0.921875q-0.15625 0.390625 -0.421875 0.65625q-0.265625 0.265625 -0.640625 0.40625q-0.375 0.140625 -0.859375 0.140625q-0.40625 0 -0.71875 -0.109375q-0.3125 -0.109375 -0.5625 -0.328125q-0.234375 -0.203125 -0.40625 -0.484375q-0.15625 -0.28125 -0.265625 -0.625q-0.140625 -0.421875 -0.21875 -0.921875q-0.0625 -0.5 -0.0625 -1.0625l0 -1.578125q0 -0.453125 0.046875 -0.890625q0.0625 -0.453125 0.15625 -0.84375q0.140625 -0.4375 0.34375 -0.796875q0.203125 -0.375 0.515625 -0.59375q0.234375 -0.1875 0.515625 -0.28125q0.296875 -0.109375 0.671875 -0.109375q0.515625 0 0.890625 0.15625q0.375 0.140625 0.640625 0.4375q0.25 0.28125 0.390625 0.703125q0.140625 0.40625 0.1875 0.90625l1.875 0q-0.078125 -0.84375 -0.375 -1.53125q-0.296875 -0.703125 -0.796875 -1.203125q-0.5 -0.484375 -1.21875 -0.75q-0.703125 -0.265625 -1.59375 -0.265625q-0.671875 0 -1.234375 0.1875q-0.546875 0.171875 -1.015625 0.5q-0.484375 0.34375 -0.859375 0.84375q-0.359375 0.5 -0.59375 1.109375q-0.21875 0.546875 -0.328125 1.171875q-0.109375 0.609375 -0.109375 1.265625l0 1.5625q0 0.6875 0.109375 1.328125q0.109375 0.640625 0.34375 1.1875q0.21875 0.5625 0.546875 1.03125q0.34375 0.453125 0.78125 0.78125q0.46875 0.359375 1.046875 0.5625q0.59375 0.1875 1.296875 0.1875q0.859375 0 1.5625 -0.265625q0.71875 -0.265625 1.234375 -0.75q0.5 -0.484375 0.8125 -1.15625q0.3125 -0.671875 0.390625 -1.5zm9.2734375 3.5l0 -11.375l-1.828125 0l0 4.75l-3.828125 0l0 -4.75l-1.828125 0l0 11.375l1.828125 0l0 -5.078125l3.828125 0l0 5.078125l1.828125 0z" fill-rule="nonzero"/><path fill="#5fb7a0" d="m802.265 58.861584q0.859375 0 1.6875 0.453125q0.828125 0.4375 1.28125 1.265625q0.46875 0.828125 0.46875 1.71875q0 1.421875 -1.015625 2.4374962q-1.0 1.0 -2.421875 1.0q-1.4375 0 -2.453125 -1.0q-1.0 -1.0156212 -1.0 -2.4374962q0 -0.90625 0.453125 -1.71875q0.46875 -0.828125 1.296875 -1.265625q0.828125 -0.453125 1.703125 -0.453125z" fill-rule="nonzero"/><path fill="#5fb7a0" d="m838.1791 63.87721q0 0.3749962 -0.15625 0.6718712q-0.15625 0.28125 -0.421875 0.484375q-0.28125 0.203125 -0.65625 0.3125q-0.359375 0.09375 -0.796875 0.09375q-0.5 0 -0.9375 -0.125q-0.421875 -0.125 -0.734375 -0.390625q-0.3125 -0.25 -0.5 -0.625q-0.1875 -0.3906212 -0.21875 -0.9218712l-1.875 0q0 0.8281212 0.328125 1.4687462q0.328125 0.625 0.875 1.09375q0.609375 0.5 1.421875 0.765625q0.8125 0.265625 1.640625 0.265625q0.796875 0 1.5 -0.203125q0.71875 -0.203125 1.25 -0.609375q0.53125 -0.375 0.84375 -0.953125q0.328125 -0.578125 0.328125 -1.3437462q0 -0.8125 -0.375 -1.4375q-0.359375 -0.640625 -0.953125 -1.09375q-0.484375 -0.359375 -1.0625 -0.609375q-0.578125 -0.25 -1.171875 -0.421875q-0.484375 -0.140625 -0.921875 -0.296875q-0.421875 -0.171875 -0.765625 -0.390625q-0.328125 -0.21875 -0.53125 -0.515625q-0.1875 -0.296875 -0.1875 -0.6875q0 -0.359375 0.140625 -0.65625q0.15625 -0.296875 0.421875 -0.515625q0.265625 -0.203125 0.625 -0.3125q0.359375 -0.109375 0.796875 -0.109375q0.484375 0 0.859375 0.140625q0.390625 0.140625 0.65625 0.390625q0.25 0.265625 0.390625 0.625q0.15625 0.34375 0.1875 0.78125l1.859375 0q0 -0.78125 -0.3125 -1.40625q-0.296875 -0.640625 -0.828125 -1.109375q-0.53125 -0.453125 -1.25 -0.703125q-0.71875 -0.25 -1.546875 -0.25q-0.78125 0 -1.484375 0.21875q-0.703125 0.203125 -1.234375 0.609375q-0.53125 0.421875 -0.84375 1.0q-0.3125 0.578125 -0.3125 1.3125q0 0.671875 0.265625 1.203125q0.265625 0.53125 0.75 0.953125q0.46875 0.421875 1.140625 0.75q0.6875 0.328125 1.484375 0.5625q0.53125 0.140625 0.953125 0.328125q0.421875 0.1875 0.734375 0.40625q0.296875 0.25 0.453125 0.5625q0.171875 0.296875 0.171875 0.6875zm11.7421875 -6.890625l0 -1.546875l-8.859375 0l0 1.546875l3.484375 0l0 9.828121l1.875 0l0 -9.828121l3.5 0zm5.3515625 5.40625l2.1875 4.421871l2.0 0l0 -0.109375l-2.421875 -4.749996q0.46875 -0.21875 0.84375 -0.5q0.390625 -0.296875 0.65625 -0.671875q0.28125 -0.390625 0.421875 -0.859375q0.15625 -0.484375 0.15625 -1.0625q0 -0.859375 -0.296875 -1.484375q-0.296875 -0.640625 -0.828125 -1.078125q-0.53125 -0.421875 -1.28125 -0.640625q-0.734375 -0.21875 -1.625 -0.21875l-3.609375 0l0 11.374996l1.875 0l0 -4.421871l1.921875 0zm-1.921875 -1.53125l0 -3.890625l1.734375 0q0.484375 0 0.875 0.125q0.390625 0.125 0.671875 0.359375q0.296875 0.25 0.4375 0.625q0.15625 0.359375 0.15625 0.859375q0 0.4375 -0.140625 0.78125q-0.140625 0.34375 -0.390625 0.578125q-0.28125 0.265625 -0.6875 0.421875q-0.390625 0.140625 -0.890625 0.140625l-1.765625 0zm14.3984375 0.84375l0 -1.515625l-4.703125 0l0 -3.203125l5.453125 0l0 -1.546875l-7.34375 0l0 11.374996l7.375 0l0 -1.546875l-5.484375 0l0 -3.5624962l4.703125 0zm8.4296875 2.4843712l0.765625 2.625l1.953125 0l-3.640625 -11.374996l-1.671875 0l-3.703125 11.374996l1.953125 0l0.78125 -2.625l3.5625 0zm-3.09375 -1.6093712l1.328125 -4.5l1.3125 4.5l-2.640625 0zm9.3984375 -7.140625l-2.328125 0l0 11.374996l1.765625 0l0 -3.8593712l-0.109375 -4.890625l1.59375 5.234375l0.96875 0l1.75 -5.421875l-0.109375 5.078125l0 3.8593712l1.765625 0l0 -11.374996l-2.328125 0l-1.5625 4.859375l-1.40625 -4.859375z" fill-rule="nonzero"/><path fill="#5fb7a0" d="m802.265 77.86158q0.859375 0 1.6875 0.453125q0.828125 0.4375 1.28125 1.265625q0.46875 0.828125 0.46875 1.71875q0 1.421875 -1.015625 2.4375q-1.0 1.0 -2.421875 1.0q-1.4375 0 -2.453125 -1.0q-1.0 -1.015625 -1.0 -2.4375q0 -0.90625 0.453125 -1.71875q0.46875 -0.828125 1.296875 -1.265625q0.828125 -0.453125 1.703125 -0.453125z" fill-rule="nonzero"/><path fill="#5fb7a0" d="m838.1791 82.877205q0 0.375 -0.15625 0.671875q-0.15625 0.28125 -0.421875 0.484375q-0.28125 0.203125 -0.65625 0.3125q-0.359375 0.09375 -0.796875 0.09375q-0.5 0 -0.9375 -0.125q-0.421875 -0.125 -0.734375 -0.390625q-0.3125 -0.25 -0.5 -0.625q-0.1875 -0.390625 -0.21875 -0.921875l-1.875 0q0 0.828125 0.328125 1.46875q0.328125 0.625 0.875 1.09375q0.609375 0.5 1.421875 0.765625q0.8125 0.265625 1.640625 0.265625q0.796875 0 1.5 -0.203125q0.71875 -0.203125 1.25 -0.609375q0.53125 -0.375 0.84375 -0.953125q0.328125 -0.578125 0.328125 -1.34375q0 -0.8125 -0.375 -1.4375q-0.359375 -0.640625 -0.953125 -1.09375q-0.484375 -0.359375 -1.0625 -0.609375q-0.578125 -0.25 -1.171875 -0.421875q-0.484375 -0.140625 -0.921875 -0.296875q-0.421875 -0.171875 -0.765625 -0.390625q-0.328125 -0.21875 -0.53125 -0.515625q-0.1875 -0.296875 -0.1875 -0.6875q0 -0.359375 0.140625 -0.65625q0.15625 -0.296875 0.421875 -0.515625q0.265625 -0.203125 0.625 -0.3125q0.359375 -0.109375 0.796875 -0.109375q0.484375 0 0.859375 0.140625q0.390625 0.140625 0.65625 0.390625q0.25 0.265625 0.390625 0.625q0.15625 0.34375 0.1875 0.78125l1.859375 0q0 -0.78125 -0.3125 -1.40625q-0.296875 -0.640625 -0.828125 -1.109375q-0.53125 -0.453125 -1.25 -0.703125q-0.71875 -0.25 -1.546875 -0.25q-0.78125 0 -1.484375 0.21875q-0.703125 0.203125 -1.234375 0.609375q-0.53125 0.421875 -0.84375 1.0q-0.3125 0.578125 -0.3125 1.3125q0 0.671875 0.265625 1.203125q0.265625 0.53125 0.75 0.953125q0.46875 0.421875 1.140625 0.75q0.6875 0.328125 1.484375 0.5625q0.53125 0.140625 0.953125 0.328125q0.421875 0.1875 0.734375 0.40625q0.296875 0.25 0.453125 0.5625q0.171875 0.296875 0.171875 0.6875zm10.3671875 -2.171875l0 -1.515625l-4.703125 0l0 -3.203125l5.453125 0l0 -1.546875l-7.34375 0l0 11.375l7.375 0l0 -1.546875l-5.484375 0l0 -3.5625l4.703125 0zm6.7265625 0.6875l2.1875 4.421875l2.0 0l0 -0.109375l-2.421875 -4.75q0.46875 -0.21875 0.84375 -0.5q0.390625 -0.296875 0.65625 -0.671875q0.28125 -0.390625 0.421875 -0.859375q0.15625 -0.484375 0.15625 -1.0625q0 -0.859375 -0.296875 -1.484375q-0.296875 -0.640625 -0.828125 -1.078125q-0.53125 -0.421875 -1.28125 -0.640625q-0.734375 -0.21875 -1.625 -0.21875l-3.609375 0l0 11.375l1.875 0l0 -4.421875l1.921875 0zm-1.921875 -1.53125l0 -3.890625l1.734375 0q0.484375 0 0.875 0.125q0.390625 0.125 0.671875 0.359375q0.296875 0.25 0.4375 0.625q0.15625 0.359375 0.15625 0.859375q0 0.4375 -0.140625 0.78125q-0.140625 0.34375 -0.390625 0.578125q-0.28125 0.265625 -0.6875 0.421875q-0.390625 0.140625 -0.890625 0.140625l-1.765625 0zm10.4140625 5.953125l1.828125 0l3.5 -11.375l-2.046875 0l-2.171875 7.859375l-0.203125 0.6875l-0.1875 -0.671875l-2.15625 -7.875l-2.0625 0l3.5 11.375zm7.1796875 -11.375l0 1.546875l2.375 0l0 8.28125l-2.375 0l0 1.546875l6.703125 0l0 -1.546875l-2.4375 0l0 -8.28125l2.4375 0l0 -1.546875l-6.703125 0zm16.992188 7.875l-1.875 0q-0.046875 0.515625 -0.203125 0.921875q-0.15625 0.390625 -0.421875 0.65625q-0.265625 0.265625 -0.640625 0.40625q-0.375 0.140625 -0.859375 0.140625q-0.40625 0 -0.71875 -0.109375q-0.3125 -0.109375 -0.5625 -0.328125q-0.234375 -0.203125 -0.40625 -0.484375q-0.15625 -0.28125 -0.265625 -0.625q-0.140625 -0.421875 -0.21875 -0.921875q-0.0625 -0.5 -0.0625 -1.0625l0 -1.578125q0 -0.453125 0.046875 -0.890625q0.0625 -0.453125 0.15625 -0.84375q0.140625 -0.4375 0.34375 -0.796875q0.203125 -0.375 0.515625 -0.59375q0.234375 -0.1875 0.515625 -0.28125q0.296875 -0.109375 0.671875 -0.109375q0.515625 0 0.890625 0.15625q0.375 0.140625 0.640625 0.4375q0.25 0.28125 0.390625 0.703125q0.140625 0.40625 0.1875 0.90625l1.875 0q-0.078125 -0.84375 -0.375 -1.53125q-0.296875 -0.703125 -0.796875 -1.203125q-0.5 -0.484375 -1.21875 -0.75q-0.703125 -0.265625 -1.59375 -0.265625q-0.671875 0 -1.234375 0.1875q-0.546875 0.171875 -1.015625 0.5q-0.484375 0.34375 -0.859375 0.84375q-0.359375 0.5 -0.59375 1.109375q-0.21875 0.546875 -0.328125 1.171875q-0.109375 0.609375 -0.109375 1.265625l0 1.5625q0 0.6875 0.109375 1.328125q0.109375 0.640625 0.34375 1.1875q0.21875 0.5625 0.546875 1.03125q0.34375 0.453125 0.78125 0.78125q0.46875 0.359375 1.046875 0.5625q0.59375 0.1875 1.296875 0.1875q0.859375 0 1.5625 -0.265625q0.71875 -0.265625 1.234375 -0.75q0.5 -0.484375 0.8125 -1.15625q0.3125 -0.671875 0.390625 -1.5zm8.6171875 -1.609375l0 -1.515625l-4.703125 0l0 -3.203125l5.453125 0l0 -1.546875l-7.34375 0l0 11.375l7.375 0l0 -1.546875l-5.484375 0l0 -3.5625l4.703125 0z" fill-rule="nonzero"/><path fill="#000000" fill-opacity="0.0" d="m310.73227 263.6822l192.56696 0l0 43.590546l-192.56696 0z" fill-rule="evenodd"/><path fill="#ffffff" d="m334.0202 278.89783l4.203125 0q1.984375 0 3.46875 0.796875q1.484375 0.796875 2.3125 2.265625q0.84375 1.453125 0.84375 3.4375q0 1.96875 -0.84375 3.4375q-0.828125 1.453125 -2.3125 2.25q-1.484375 0.796875 -3.46875 0.796875l-4.203125 0l0 -12.984375zm2.359375 2.140625l0 8.71875l1.84375 0q1.25 0 2.171875 -0.5625q0.921875 -0.578125 1.40625 -1.5625q0.5 -0.984375 0.5 -2.234375q0 -1.265625 -0.5 -2.234375q-0.484375 -0.984375 -1.40625 -1.546875q-0.921875 -0.578125 -2.171875 -0.578125l-1.84375 0zm17.558105 10.84375l-0.3125 -2.359375l0 -3.90625q0 -1.015625 -0.421875 -1.5q-0.40625 -0.5 -1.390625 -0.5q-0.578125 0 -1.0 0.171875q-0.40625 0.171875 -0.640625 0.484375q-0.21875 0.3125 -0.21875 0.765625l-2.578125 0q0 -1.09375 0.53125 -1.78125q0.53125 -0.703125 1.515625 -1.03125q1.0 -0.328125 2.390625 -0.328125q1.265625 0 2.203125 0.40625q0.9375 0.40625 1.453125 1.25q0.515625 0.84375 0.515625 2.140625l0 6.1875l-2.046875 0zm-3.1875 0.28125q-1.25 0 -2.09375 -0.4375q-0.828125 -0.4375 -1.25 -1.140625q-0.421875 -0.71875 -0.421875 -1.546875q0 -0.921875 0.484375 -1.546875q0.484375 -0.625 1.375 -0.9375q0.890625 -0.3125 2.109375 -0.3125q0.78125 0 1.484375 0.125q0.71875 0.109375 1.40625 0.3125l0 1.390625q-0.546875 -0.1875 -1.203125 -0.28125q-0.640625 -0.109375 -1.203125 -0.109375q-0.84375 0 -1.390625 0.3125q-0.53125 0.3125 -0.53125 1.046875q0 0.546875 0.4375 0.9375q0.4375 0.390625 1.390625 0.390625q0.734375 0 1.234375 -0.3125q0.515625 -0.328125 0.78125 -0.8125q0.265625 -0.484375 0.265625 -0.953125l0.5625 0q0 1.046875 -0.390625 1.9375q-0.390625 0.875 -1.15625 1.40625q-0.765625 0.53125 -1.890625 0.53125zm11.981232 0q-0.859375 0 -1.578125 -0.3125q-0.71875 -0.328125 -1.140625 -0.984375q-0.421875 -0.671875 -0.421875 -1.6875l0 -9.578125l2.359375 0l0 9.5q0 1.203125 1.140625 1.203125q0.34375 0 0.6875 -0.078125q0.359375 -0.078125 0.8125 -0.25l0.34375 1.671875q-0.5625 0.21875 -1.09375 0.359375q-0.53125 0.15625 -1.109375 0.15625zm-4.5 -8.421875l0 -1.5625l6.359375 0l0 1.5625l-6.359375 0zm15.296234 8.140625l-0.3125 -2.359375l0 -3.90625q0 -1.015625 -0.421875 -1.5q-0.40625 -0.5 -1.390625 -0.5q-0.578125 0 -1.0 0.171875q-0.40625 0.171875 -0.640625 0.484375q-0.21875 0.3125 -0.21875 0.765625l-2.578125 0q0 -1.09375 0.53125 -1.78125q0.53125 -0.703125 1.515625 -1.03125q1.0 -0.328125 2.390625 -0.328125q1.265625 0 2.203125 0.40625q0.9375 0.40625 1.453125 1.25q0.515625 0.84375 0.515625 2.140625l0 6.1875l-2.046875 0zm-3.1875 0.28125q-1.25 0 -2.09375 -0.4375q-0.828125 -0.4375 -1.25 -1.140625q-0.421875 -0.71875 -0.421875 -1.546875q0 -0.921875 0.484375 -1.546875q0.484375 -0.625 1.375 -0.9375q0.890625 -0.3125 2.109375 -0.3125q0.78125 0 1.484375 0.125q0.71875 0.109375 1.40625 0.3125l0 1.390625q-0.546875 -0.1875 -1.203125 -0.28125q-0.640625 -0.109375 -1.203125 -0.109375q-0.84375 0 -1.390625 0.3125q-0.53125 0.3125 -0.53125 1.046875q0 0.546875 0.4375 0.9375q0.4375 0.390625 1.390625 0.390625q0.734375 0 1.234375 -0.3125q0.515625 -0.328125 0.78125 -0.8125q0.265625 -0.484375 0.265625 -0.953125l0.5625 0q0 1.046875 -0.390625 1.9375q-0.390625 0.875 -1.15625 1.40625q-0.765625 0.53125 -1.890625 0.53125zm12.324982 0q-1.40625 0 -2.421875 -0.375q-1.0 -0.390625 -1.546875 -1.109375q-0.53125 -0.734375 -0.53125 -1.75l2.171875 0q0.03125 0.71875 0.5625 1.046875q0.546875 0.328125 1.484375 0.328125q0.5 0 0.890625 -0.140625q0.40625 -0.15625 0.625 -0.421875q0.21875 -0.265625 0.21875 -0.578125q0 -0.40625 -0.296875 -0.640625q-0.296875 -0.234375 -0.9375 -0.4375l-2.125 -0.765625q-1.140625 -0.40625 -1.75 -1.078125q-0.609375 -0.671875 -0.609375 -1.59375q0 -1.234375 1.109375 -1.984375q1.125 -0.765625 2.984375 -0.765625q1.875 0 2.875 0.828125q1.015625 0.8125 1.046875 2.0625l-2.21875 0q-0.046875 -0.484375 -0.453125 -0.765625q-0.40625 -0.28125 -1.25 -0.28125q-0.75 0 -1.171875 0.3125q-0.421875 0.296875 -0.421875 0.703125q0 0.6875 1.1875 1.046875l2.296875 0.859375q1.109375 0.375 1.734375 0.984375q0.625 0.59375 0.625 1.515625q0 0.765625 -0.515625 1.453125q-0.515625 0.6875 -1.4375 1.125q-0.921875 0.421875 -2.125 0.421875zm10.549988 0q-1.25 0 -2.28125 -0.640625q-1.015625 -0.640625 -1.640625 -1.796875q-0.625 -1.15625 -0.625 -2.703125q0 -1.59375 0.609375 -2.75q0.625 -1.15625 1.65625 -1.765625q1.03125 -0.609375 2.28125 -0.609375q1.15625 0 2.0 0.46875q0.84375 0.46875 1.359375 1.265625q0.515625 0.796875 0.6875 1.796875q0.1875 1.0 0.03125 2.046875l-6.75 0l0 -1.28125l5.078125 0l-0.453125 0.3125q0.015625 -0.46875 -0.0625 -0.953125q-0.0625 -0.484375 -0.28125 -0.875q-0.203125 -0.40625 -0.59375 -0.640625q-0.375 -0.25 -0.984375 -0.25q-0.71875 0 -1.21875 0.359375q-0.5 0.359375 -0.765625 0.984375q-0.25 0.609375 -0.25 1.390625l0 0.9375q0 0.828125 0.234375 1.453125q0.25 0.625 0.734375 0.984375q0.484375 0.359375 1.234375 0.359375q0.6875 0 1.15625 -0.3125q0.46875 -0.328125 0.59375 -0.96875l2.390625 0q-0.15625 0.953125 -0.71875 1.671875q-0.546875 0.703125 -1.4375 1.109375q-0.875 0.40625 -1.984375 0.40625zm10.256256 0q-0.859375 0 -1.578125 -0.3125q-0.71875 -0.328125 -1.140625 -0.984375q-0.421875 -0.671875 -0.421875 -1.6875l0 -9.578125l2.359375 0l0 9.5q0 1.203125 1.140625 1.203125q0.34375 0 0.6875 -0.078125q0.359375 -0.078125 0.8125 -0.25l0.34375 1.671875q-0.5625 0.21875 -1.09375 0.359375q-0.53125 0.15625 -1.109375 0.15625zm-4.5 -8.421875l0 -1.5625l6.359375 0l0 1.5625l-6.359375 0zm18.215607 5.5625l3.3125 -10.40625l2.484375 0l-4.46875 12.984375l-2.46875 0l-4.40625 -12.984375l2.5 0l3.28125 10.40625l-0.234375 0zm10.828125 2.859375q-1.25 0 -2.28125 -0.640625q-1.015625 -0.640625 -1.640625 -1.796875q-0.625 -1.15625 -0.625 -2.703125q0 -1.59375 0.609375 -2.75q0.625 -1.15625 1.65625 -1.765625q1.03125 -0.609375 2.28125 -0.609375q1.15625 0 2.0 0.46875q0.84375 0.46875 1.359375 1.265625q0.515625 0.796875 0.6875 1.796875q0.1875 1.0 0.03125 2.046875l-6.75 0l0 -1.28125l5.078125 0l-0.453125 0.3125q0.015625 -0.46875 -0.0625 -0.953125q-0.0625 -0.484375 -0.28125 -0.875q-0.203125 -0.40625 -0.59375 -0.640625q-0.375 -0.25 -0.984375 -0.25q-0.71875 0 -1.21875 0.359375q-0.5 0.359375 -0.765625 0.984375q-0.25 0.609375 -0.25 1.390625l0 0.9375q0 0.828125 0.234375 1.453125q0.25 0.625 0.734375 0.984375q0.484375 0.359375 1.234375 0.359375q0.6875 0 1.15625 -0.3125q0.46875 -0.328125 0.59375 -0.96875l2.390625 0q-0.15625 0.953125 -0.71875 1.671875q-0.546875 0.703125 -1.4375 1.109375q-0.875 0.40625 -1.984375 0.40625zm6.9749756 -0.28125l0 -9.734375l2.359375 0l0 9.734375l-2.359375 0zm1.78125 -4.265625q0 -1.90625 0.421875 -3.15625q0.4375 -1.25 1.15625 -1.84375q0.734375 -0.609375 1.625 -0.609375q0.234375 0 0.453125 0.03125q0.21875 0.03125 0.421875 0.078125l-0.03125 2.359375q-0.265625 -0.046875 -0.578125 -0.09375q-0.296875 -0.046875 -0.53125 -0.046875q-0.78125 0 -1.3125 0.375q-0.515625 0.375 -0.78125 1.109375q-0.265625 0.734375 -0.265625 1.796875l-0.578125 0zm9.693726 4.546875q-1.40625 0 -2.421875 -0.375q-1.0 -0.390625 -1.546875 -1.109375q-0.53125 -0.734375 -0.53125 -1.75l2.171875 0q0.03125 0.71875 0.5625 1.046875q0.546875 0.328125 1.484375 0.328125q0.5 0 0.890625 -0.140625q0.40625 -0.15625 0.625 -0.421875q0.21875 -0.265625 0.21875 -0.578125q0 -0.40625 -0.296875 -0.640625q-0.296875 -0.234375 -0.9375 -0.4375l-2.125 -0.765625q-1.140625 -0.40625 -1.75 -1.078125q-0.609375 -0.671875 -0.609375 -1.59375q0 -1.234375 1.109375 -1.984375q1.125 -0.765625 2.984375 -0.765625q1.875 0 2.875 0.828125q1.015625 0.8125 1.046875 2.0625l-2.21875 0q-0.046875 -0.484375 -0.453125 -0.765625q-0.40625 -0.28125 -1.25 -0.28125q-0.75 0 -1.171875 0.3125q-0.421875 0.296875 -0.421875 0.703125q0 0.6875 1.1875 1.046875l2.296875 0.859375q1.109375 0.375 1.734375 0.984375q0.625 0.59375 0.625 1.515625q0 0.765625 -0.515625 1.453125q-0.515625 0.6875 -1.4375 1.125q-0.921875 0.421875 -2.125 0.421875zm8.299988 -11.765625q-0.6875 0 -1.078125 -0.359375q-0.375 -0.359375 -0.375 -1.015625q0 -0.625 0.375 -1.0q0.390625 -0.375 1.078125 -0.375q0.6875 0 1.078125 0.375q0.390625 0.375 0.390625 1.0q0 0.65625 -0.390625 1.015625q-0.390625 0.359375 -1.078125 0.359375zm-1.171875 11.484375l0 -9.734375l2.359375 0l0 9.734375l-2.359375 0zm10.184998 0.28125q-1.34375 0 -2.421875 -0.5625q-1.0625 -0.578125 -1.703125 -1.703125q-0.625 -1.140625 -0.625 -2.859375q0 -1.734375 0.625 -2.875q0.640625 -1.140625 1.703125 -1.703125q1.078125 -0.5625 2.421875 -0.5625q1.296875 0 2.359375 0.5625q1.078125 0.5625 1.703125 1.703125q0.625 1.140625 0.625 2.875q0 1.71875 -0.625 2.859375q-0.625 1.125 -1.703125 1.703125q-1.0625 0.5625 -2.359375 0.5625zm-0.09375 -2.0625q0.703125 0 1.25 -0.34375q0.546875 -0.34375 0.859375 -1.015625q0.3125 -0.6875 0.3125 -1.703125q0 -1.53125 -0.609375 -2.3125q-0.59375 -0.78125 -1.640625 -0.78125q-0.71875 0 -1.265625 0.34375q-0.546875 0.34375 -0.875 1.03125q-0.3125 0.6875 -0.3125 1.71875q0 1.53125 0.609375 2.296875q0.625 0.765625 1.671875 0.765625zm14.241882 1.78125l0 -5.6875q0 -1.078125 -0.515625 -1.625q-0.515625 -0.546875 -1.359375 -0.546875q-0.703125 0 -1.25 0.390625q-0.546875 0.390625 -0.859375 1.171875q-0.3125 0.78125 -0.3125 1.953125l-0.78125 0q0 -1.890625 0.46875 -3.140625q0.46875 -1.25 1.328125 -1.875q0.859375 -0.625 2.03125 -0.625q1.1875 0 1.984375 0.546875q0.8125 0.53125 1.21875 1.5q0.40625 0.96875 0.40625 2.25l0 5.6875l-2.359375 0zm-6.65625 0l0 -9.703125l2.0625 0l0.296875 1.921875l0 7.78125l-2.359375 0z" fill-rule="nonzero"/><path fill="#000000" fill-opacity="0.0" d="m406.81232 307.2874l0.40945435 47.685028" fill-rule="evenodd"/><path stroke="#424c58" stroke-width="2.0" stroke-linejoin="round" stroke-linecap="butt" d="m406.81232 307.2874l0.40945435 47.685028" fill-rule="evenodd"/></g></svg>