<svg id="Layer_1" data-name="Layer 1" xmlns="http://www.w3.org/2000/svg" viewBox="0 0 733.97 100.8"><defs><style>.cls-1{fill:#fff;}.cls-2{fill:none;stroke:#fff;stroke-miterlimit:10;stroke-width:3px;}</style></defs><path class="cls-1" d="M173.2,67.1,165,47.3l-1.7,20.1H156l3.1-33.1h7.4l9.3,22.3,9.3-22.3h7.4l3.1,33.1H188l-1.7-20.1L178,67.1Z"/><path class="cls-1" d="M198,67.4l12.8-33.1h7.1l12.9,33.1h-7.7l-2.4-6.2v.1h-13v-.1l-2.3,6.2Zm11.8-12.1h8.9l-4.4-13.2Z"/><path class="cls-1" d="M253.2,55.1c.9,3.5,2.2,6.3,5.5,6.3a5.67,5.67,0,0,0,3.4-1.4l2.6,5.1c-2.2,1.7-4,2.8-7.4,2.8-7.8,0-10.3-8.8-10.6-12.3h-4.4V67.4H235v-33h14.7c6.8,0,10.5,5.1,10.5,10.9A9.82,9.82,0,0,1,253.2,55.1Zm-4.5-5.3c2.6,0,4.2-1.9,4.2-4.6s-1.6-4.7-4.2-4.7h-6.5v9.3Z"/><path class="cls-1" d="M299.4,74.6a14.28,14.28,0,0,1-8.3,2.6c-6.4,0-10.8-4.3-11-9.5-8-1.5-14.4-8.5-14.4-16.8a17.25,17.25,0,0,1,34.5,0c0,7.9-6,14.6-13.2,16.6.1,2.5,2,3.7,4.6,3.7a12.44,12.44,0,0,0,5.5-1.7ZM283,61.2a10,10,0,0,0,9.9-10.3,10,10,0,1,0-19.9,0A10,10,0,0,0,283,61.2Z"/><path class="cls-1" d="M332,34.4V55c0,8.5-6.3,13-13.7,13s-13.7-4.5-13.7-13V34.4h7.3V55c0,4.6,2.9,6.9,6.3,6.9s6.4-2.3,6.4-6.9V34.4Z"/><path class="cls-1" d="M338.5,67.4v-33h22v5.8H345.9v8.1h12.7v5.8H345.9v7.5h14.6v5.8Z"/><path class="cls-1" d="M393,67.4H364.1V62.7L382,40.2H365.5V34.4h26.4v4.8L373.8,61.7H393Z"/><path class="cls-1" d="M65.7,48.2,50.3,17.5A11.3,11.3,0,0,1,41.6,26L55.8,54.4A11.65,11.65,0,0,1,65.7,48.2Z"/><path class="cls-1" d="M119.1,77.6a3.75,3.75,0,0,1,1.1.1L102.3,39.5a11.13,11.13,0,0,1-9.8,5.9h-.1l17.4,37.1A11.33,11.33,0,0,1,119.1,77.6Z"/><path class="cls-1" d="M81.4,35.7,69.6,48.9a11.41,11.41,0,0,1,7.4,9L88.8,44.8A11.55,11.55,0,0,1,81.4,35.7Z"/><path class="cls-1" d="M29.4,19.9,10.2,77.8a10.07,10.07,0,0,1,2.5-.3,11.37,11.37,0,0,1,8.5,3.9L39.5,26.1A10.77,10.77,0,0,1,29.4,19.9Z"/><path class="cls-1" d="M21.3,88.7a7.72,7.72,0,0,0-1.2-4.3l-.6-.9a8.62,8.62,0,0,0-6.9-3.4,9.37,9.37,0,0,0-3.4.7,8.6,8.6,0,0,0-5.2,8,8.71,8.71,0,0,0,8.7,8.7A8.77,8.77,0,0,0,21.3,88.7Z"/><path class="cls-1" d="M48.1,15.1a8.15,8.15,0,0,0-.6-3.1,10.09,10.09,0,0,0-.7-1.5,8.73,8.73,0,0,0-16.1,4.6v.6a8.57,8.57,0,0,0,6.2,7.7,10.05,10.05,0,0,0,2.5.4h1a9.54,9.54,0,0,0,3-.9c.2-.1.5-.3.7-.4a8.61,8.61,0,0,0,3.6-4.9A7.66,7.66,0,0,0,48.1,15.1Z"/><path class="cls-1" d="M67.7,50.9a2.2,2.2,0,0,0-.8-.1c-.3,0-.7-.1-1.1-.1a8.78,8.78,0,0,0-8.5,6.8,11.08,11.08,0,0,0-.2,1.9,8.7,8.7,0,0,0,17.3,1.3,5.28,5.28,0,0,0,.1-1.3,9.08,9.08,0,0,0-.3-2.3A8.56,8.56,0,0,0,67.7,50.9Z"/><path class="cls-1" d="M92.5,42.9a7.8,7.8,0,0,0,2.2-.3c.2-.1.5-.1.7-.2.5-.2.9-.4,1.3-.6a2.09,2.09,0,0,0,.6-.4,10.63,10.63,0,0,0,1.1-.9l.5-.5a7.47,7.47,0,0,0,2-3.7,7.8,7.8,0,0,0,.3-2.2,8.7,8.7,0,0,0-17.3-1.3,5.28,5.28,0,0,0-.1,1.3,8.69,8.69,0,0,0,6.8,8.5c.2,0,.3.1.5.1A6.75,6.75,0,0,0,92.5,42.9Z"/><path class="cls-1" d="M121.6,80.4a10.05,10.05,0,0,0-2.5-.4,8.79,8.79,0,0,0-8,5.3,8,8,0,0,0-.7,3.4,8.7,8.7,0,0,0,17.4,0A8.83,8.83,0,0,0,121.6,80.4Z"/><polygon class="cls-1" points="484.09 38.96 484.09 28.26 478.71 28.26 478.71 44.33 494.79 44.33 494.79 38.96 484.09 38.96"/><polygon class="cls-1" points="505.44 17.56 478.71 17.56 478.71 25.57 484.04 25.57 484.04 22.93 500.11 22.93 500.11 38.96 497.43 38.96 497.43 44.33 505.44 44.33 505.44 17.56"/><path class="cls-1" d="M512.53,17.56h8.24V37.48h11.86v6.85h-20.1Z"/><path class="cls-1" d="M536.15,17.56h20.7v6.85H544.39v3.34h10.7v6.39h-10.7V44.33h-8.24Z"/><path class="cls-1" d="M572.74,17.65h2.82L586,44.33H583.3L580.06,36H567.92l-3.19,8.29H562Zm-4,16.21h10.47L574,20.2Z"/><path class="cls-1" d="M589.55,17.65h2.55V44.33h-2.55Z"/><path class="cls-1" d="M621.6,37.74a6.9,6.9,0,0,0,.89-2.44,17.68,17.68,0,0,0,.2-2.62h2.17a20,20,0,0,1-.46,3.53A9.79,9.79,0,0,1,623,39.48l4.24,5h-2.93l-2.54-3.08a10.25,10.25,0,0,1-3.66,2.9,11.11,11.11,0,0,1-4.56.86,8.9,8.9,0,0,1-3.19-.56A7.93,7.93,0,0,1,607.81,43a7.31,7.31,0,0,1-1.74-2.44,7.82,7.82,0,0,1-.63-3.16,6.83,6.83,0,0,1,.51-2.68,8.52,8.52,0,0,1,1.35-2.24,10.46,10.46,0,0,1,2-1.79,15.66,15.66,0,0,1,2.39-1.36,20.78,20.78,0,0,1-1.92-2.65,5.91,5.91,0,0,1-.86-3.17,4.71,4.71,0,0,1,.47-2.18,4.52,4.52,0,0,1,1.26-1.61,5.28,5.28,0,0,1,1.86-1,7.92,7.92,0,0,1,2.26-.33,6.17,6.17,0,0,1,2.21.4,5.39,5.39,0,0,1,1.73,1.09,4.88,4.88,0,0,1,1.52,3.54,5.66,5.66,0,0,1-.41,2.26,5.84,5.84,0,0,1-1.12,1.7A9.79,9.79,0,0,1,617,28.78c-.63.41-1.28.82-2,1.22ZM613,30.91a10.84,10.84,0,0,0-2,1.21,8.75,8.75,0,0,0-1.59,1.57,7.64,7.64,0,0,0-1.06,1.86,5.35,5.35,0,0,0-.4,2.05,5.83,5.83,0,0,0,.45,2.33,5.1,5.1,0,0,0,1.23,1.75,5.21,5.21,0,0,0,1.84,1.12,6.44,6.44,0,0,0,2.34.4,7,7,0,0,0,3.7-1,11.1,11.1,0,0,0,2.91-2.51Zm4.63-6a3.23,3.23,0,0,0-3.07-4.55,3.87,3.87,0,0,0-1.31.21,3.63,3.63,0,0,0-1.1.62,2.87,2.87,0,0,0-.78,1,3,3,0,0,0-.29,1.3,3.46,3.46,0,0,0,.29,1.26A9,9,0,0,0,612,26.1c.28.43.57.85.88,1.25s.59.74.84,1c.72-.44,1.45-.91,2.18-1.43A4.69,4.69,0,0,0,617.59,24.94Z"/><path class="cls-1" d="M639.25,44.47v-26h8.89q1.08,0,2.13.06a14.14,14.14,0,0,1,2.06.25,10.52,10.52,0,0,1,2,.6,9.76,9.76,0,0,1,1.86,1.05,7.89,7.89,0,0,1,2.13,2.29,13.73,13.73,0,0,1,1.32,2.86,17.6,17.6,0,0,1,.69,3,24.47,24.47,0,0,1,.2,2.83,21,21,0,0,1-.17,2.64,16.76,16.76,0,0,1-.52,2.63,13.54,13.54,0,0,1-1,2.45,9.49,9.49,0,0,1-1.5,2.16,8.08,8.08,0,0,1-2,1.62,10.29,10.29,0,0,1-2.24,1,13.65,13.65,0,0,1-2.44.47,24.3,24.3,0,0,1-2.57.13Zm2.45-2.1h5.9a23.5,23.5,0,0,0,3.13-.2,9,9,0,0,0,3-1,6,6,0,0,0,2.13-1.77A9.62,9.62,0,0,0,657.16,37a13.37,13.37,0,0,0,.69-2.77,21.55,21.55,0,0,0,.2-2.79,22.92,22.92,0,0,0-.18-2.87,12,12,0,0,0-.69-2.78,9.39,9.39,0,0,0-1.37-2.43,6.85,6.85,0,0,0-2.25-1.82,7.53,7.53,0,0,0-2.74-.8,29,29,0,0,0-3.22-.18h-5.9Z"/><path class="cls-1" d="M662.06,44.47l10.23-26h2.79l10,26h-2.54l-3-8.17H667.66l-3.07,8.17ZM668.5,34.2h10.19l-5.1-13.67Z"/><path class="cls-1" d="M685.31,18.43h18.94v2.1H696V44.47h-2.46V20.53h-8.24Z"/><path class="cls-1" d="M703.57,44.47l10.23-26h2.78l10,26H724l-3-8.17H709.17l-3.07,8.17ZM710,34.2h10.2l-5.1-13.67Z"/><rect class="cls-1" x="478.71" y="56.02" width="247.85" height="1.18"/><path class="cls-1" d="M478.83,67.53H481V83.67h-2.21Z"/><path class="cls-1" d="M484.7,67.53h2.57l8.05,13v-13h2.09V83.67H495l-8.16-13v13H484.7Z"/><path class="cls-1" d="M512.48,68.7a5.77,5.77,0,0,1,1.86,3.67h-2.13A4.07,4.07,0,0,0,507.8,69,4.76,4.76,0,0,0,504,70.66a7.78,7.78,0,0,0-1.44,5.15,7.53,7.53,0,0,0,1.3,4.6,4.51,4.51,0,0,0,3.88,1.76,4.07,4.07,0,0,0,3.62-1.85,7.25,7.25,0,0,0,1-2.57h2.13A7.32,7.32,0,0,1,512.62,82a6.59,6.59,0,0,1-5.12,2.08,6.73,6.73,0,0,1-4.68-1.71q-2.47-2.25-2.48-7a8.92,8.92,0,0,1,1.87-5.86,6.77,6.77,0,0,1,5.57-2.48A6.48,6.48,0,0,1,512.48,68.7Z"/><path class="cls-1" d="M519.79,67.53v10a5.84,5.84,0,0,0,.66,2.93,3.51,3.51,0,0,0,3.33,1.75c1.87,0,3.14-.63,3.81-1.9a6,6,0,0,0,.54-2.78v-10h2.21v9.06a10.4,10.4,0,0,1-.81,4.58Q528.06,84.1,524,84.1c-2.73,0-4.59-1-5.56-2.93a10.4,10.4,0,0,1-.81-4.58V67.53Z"/><path class="cls-1" d="M533.74,67.53h7a4.65,4.65,0,0,1,4.06,1.69,3.87,3.87,0,0,1,.7,2.31,3.63,3.63,0,0,1-.86,2.5,4.19,4.19,0,0,1-1.3,1A5.65,5.65,0,0,1,545.18,76,3.84,3.84,0,0,1,546.26,79a4.47,4.47,0,0,1-1,2.83,5.56,5.56,0,0,1-4.68,1.89h-6.86Zm6.16,6.82a5.1,5.1,0,0,0,2.18-.38,2.23,2.23,0,0,0,1.22-2.18,2.1,2.1,0,0,0-1.3-2.13,5.77,5.77,0,0,0-2.18-.31h-3.94v5Zm.74,7.45a3.37,3.37,0,0,0,2.89-1.16,2.87,2.87,0,0,0,.55-1.78,2.37,2.37,0,0,0-1.59-2.4,6,6,0,0,0-2.23-.34h-4.38V81.8Z"/><path class="cls-1" d="M553.61,67.53h2.47l5.86,16.14h-2.4l-1.64-4.84h-6.38l-1.75,4.84h-2.24Zm3.59,9.52-2.45-7.13-2.6,7.13Z"/><path class="cls-1" d="M574.12,67.53v1.92h-5.44V83.67h-2.21V69.45H561V67.53Z"/><path class="cls-1" d="M576.73,67.53h2.21V83.67h-2.21Z"/><path class="cls-1" d="M595.9,69.83a8.89,8.89,0,0,1,1.6,5.49,9.53,9.53,0,0,1-1.83,6,8.16,8.16,0,0,1-12,.35,9.33,9.33,0,0,1-1.9-6,9.46,9.46,0,0,1,1.63-5.6,7,7,0,0,1,6.17-3Q593.84,67.09,595.9,69.83ZM594,80.12a8.71,8.71,0,0,0,1.29-4.76,6.8,6.8,0,0,0-1.49-4.59A5.1,5.1,0,0,0,589.7,69a5.29,5.29,0,0,0-4.08,1.72A7.25,7.25,0,0,0,584,75.83a7.46,7.46,0,0,0,1.36,4.52,5.09,5.09,0,0,0,4.4,1.85A4.55,4.55,0,0,0,594,80.12Z"/><path class="cls-1" d="M600.22,67.53h2.58l8.05,13v-13h2.09V83.67h-2.46l-8.17-13v13h-2.09Z"/><path class="cls-1" d="M623.16,67.53h7.22a4.87,4.87,0,0,1,3.46,1.21,4.37,4.37,0,0,1,1.32,3.41A5,5,0,0,1,634,75.44a4.43,4.43,0,0,1-3.6,1.4h-5v6.83h-2.19Zm8.48,2.22a4.59,4.59,0,0,0-2-.35h-4.32V75h4.32a4.07,4.07,0,0,0,2.37-.63,2.48,2.48,0,0,0,.91-2.21A2.41,2.41,0,0,0,631.64,69.75Z"/><path class="cls-1" d="M638.34,67.53h7.34a7.14,7.14,0,0,1,3,.53,3.82,3.82,0,0,1,2.23,3.82,4,4,0,0,1-2.27,3.85,3.43,3.43,0,0,1,1.42,1,3.61,3.61,0,0,1,.53,2l.08,2.16a6.34,6.34,0,0,0,.15,1.38,1.37,1.37,0,0,0,.71,1v.36h-2.69a2,2,0,0,1-.17-.54,10.88,10.88,0,0,1-.11-1.27l-.13-2.7A2.27,2.27,0,0,0,647.27,77a4.58,4.58,0,0,0-1.91-.29h-4.83v6.92h-2.19Zm7.1,7.39a4,4,0,0,0,2.37-.61,2.56,2.56,0,0,0,.87-2.22,2.42,2.42,0,0,0-1.22-2.36,4,4,0,0,0-1.74-.33h-5.19v5.52Z"/><path class="cls-1" d="M667.74,69.83a9,9,0,0,1,1.6,5.49,9.59,9.59,0,0,1-1.83,6,8.16,8.16,0,0,1-12,.35,9.22,9.22,0,0,1-1.9-6,9.53,9.53,0,0,1,1.62-5.6,7,7,0,0,1,6.18-3Q665.69,67.09,667.74,69.83Zm-1.93,10.29a8.88,8.88,0,0,0,1.29-4.76,6.8,6.8,0,0,0-1.49-4.59A5.1,5.1,0,0,0,661.54,69a5.33,5.33,0,0,0-4.09,1.72,7.29,7.29,0,0,0-1.58,5.08,7.39,7.39,0,0,0,1.36,4.52,5.09,5.09,0,0,0,4.4,1.85A4.56,4.56,0,0,0,665.81,80.12Z"/><path class="cls-1" d="M680,78.86a6.77,6.77,0,0,1-.6,3.17q-1.12,2.07-4.27,2.07a4.93,4.93,0,0,1-3.1-1c-.86-.65-1.29-1.82-1.29-3.5V78.46h2v1.15a3,3,0,0,0,.59,2,2.33,2.33,0,0,0,1.84.66,2.25,2.25,0,0,0,2.29-1.2,7.92,7.92,0,0,0,.33-2.78V67.53H680Z"/><path class="cls-1" d="M683.63,67.53h11.72v2h-9.59v4.9h8.86v1.87h-8.86v5.48h9.75v1.92H683.63Z"/><path class="cls-1" d="M710,68.7a5.68,5.68,0,0,1,1.86,3.67h-2.13a4.06,4.06,0,0,0-4.4-3.38,4.78,4.78,0,0,0-3.79,1.67,7.78,7.78,0,0,0-1.44,5.15,7.6,7.6,0,0,0,1.3,4.6,4.52,4.52,0,0,0,3.88,1.76,4.07,4.07,0,0,0,3.62-1.85,7.06,7.06,0,0,0,1-2.57H712A7.38,7.38,0,0,1,710.11,82a7.3,7.3,0,0,1-9.8.37q-2.49-2.25-2.49-7a9,9,0,0,1,1.87-5.86,6.8,6.8,0,0,1,5.57-2.48A6.46,6.46,0,0,1,710,68.7Z"/><path class="cls-1" d="M726.65,67.53v1.92h-5.44V83.67H719V69.45h-5.44V67.53Z"/><path class="cls-2" d="M437,6.4V97.5"/></svg>