<svg id="GRAPH" xmlns="http://www.w3.org/2000/svg" viewBox="0 0 877.38 523.21"><defs><style>.cls-1,.cls-2,.cls-3{stroke:#454f5b;}.cls-1,.cls-2{stroke-linecap:round;}.cls-2{fill:none;}.cls-3,.cls-4,.cls-6,.cls-7{fill:#fff;}.cls-3,.cls-4,.cls-7{stroke-width:2px;}.cls-4{stroke:#fff;}.cls-5{fill:#454f5b;}.cls-6{isolation:isolate;font-size:8px;font-family:ArialMT, Arial;}.cls-7{stroke:#71ddbf;}.cls-8{fill:#71ddbf;}</style></defs><path class="cls-1" d="M115.2,137.08h95"/><path class="cls-1" d="M396.2,317.08h95"/><path class="cls-1" d="M115.2,77.08h95"/><path class="cls-1" d="M115.2,317.08h95"/><path class="cls-1" d="M676.2,257.08h95"/><path class="cls-1" d="M115.2,437.08h95"/><path class="cls-2" d="M396.2,317.08c8.33,30,16.66,60,25,60h70"/><path class="cls-1" d="M255.2,137.08h376"/><path class="cls-2" d="M536.2,317.08h25c23.33,0,46.66-90,70-180"/><path class="cls-2" d="M255.2,137.08c8.33,20.75,16.66,41.5,25,60,23.33,51.79,46.66,85.9,70,120"/><path class="cls-2" d="M255.2,77.08h25c23.33,0,46.66,120,70,240"/><path class="cls-1" d="M255.2,317.08h95"/><path class="cls-2" d="M255.2,377.08h25c23.33,0,46.66-30,70-60"/><path class="cls-2" d="M255.2,437.08h25c23.33,0,46.66-60,70-120"/><path class="cls-2" d="M255.2,137.08c4.78,60,9.56,120,14.35,120H631.2"/><path class="cls-2" d="M536.2,377.08h25c23.33,0,46.66-60,70-120"/><rect class="cls-3" x="221.2" y="123.08" width="28" height="28" rx="4"/><rect class="cls-4" x="223.2" y="125.08" width="24" height="24" rx="4"/><path class="cls-5" d="M242.2,131.37v1.42c0,1.26-3.14,2.29-7,2.29s-7-1-7-2.29v-1.42c0-1.26,3.13-2.29,7-2.29S242.2,130.11,242.2,131.37Zm0,3.21v3.21c0,1.26-3.14,2.29-7,2.29s-7-1-7-2.29v-3.21c1.5,1,4.25,1.52,7,1.52S240.69,135.62,242.2,134.58Zm0,5v3.21c0,1.26-3.14,2.29-7,2.29s-7-1-7-2.29v-3.21c1.5,1,4.25,1.52,7,1.52S240.69,140.62,242.2,139.58Z"/><path class="cls-5" d="M210.2,141.1v-8a.62.62,0,0,1,1.06-.44l4,4a.63.63,0,0,1,0,.88l-4,4A.62.62,0,0,1,210.2,141.1Z"/><text class="cls-6" transform="translate(205.19 161.08)">public.customers</text><rect class="cls-3" x="502.2" y="303.08" width="28" height="28" rx="4"/><rect class="cls-4" x="504.2" y="305.08" width="24" height="24" rx="4"/><path class="cls-5" d="M523.2,311.37v1.42c0,1.26-3.14,2.29-7,2.29s-7-1-7-2.29v-1.42c0-1.26,3.13-2.29,7-2.29S523.2,310.11,523.2,311.37Zm0,3.21v3.21c0,1.26-3.14,2.29-7,2.29s-7-1-7-2.29v-3.21c1.5,1,4.25,1.52,7,1.52S521.69,315.62,523.2,314.58Zm0,5v3.21c0,1.26-3.14,2.29-7,2.29s-7-1-7-2.29v-3.21c1.5,1,4.25,1.52,7,1.52S521.69,320.62,523.2,319.58Z"/><path class="cls-5" d="M491.2,321.1v-8a.62.62,0,0,1,1.06-.44l4,4a.63.63,0,0,1,0,.88l-4,4A.62.62,0,0,1,491.2,321.1Z"/><text class="cls-6" transform="translate(487.74 341.08)">public.discounts</text><rect class="cls-3" x="221.2" y="63.08" width="28" height="28" rx="4"/><rect class="cls-4" x="223.2" y="65.08" width="24" height="24" rx="4"/><path class="cls-5" d="M242.2,71.37v1.42c0,1.26-3.14,2.29-7,2.29s-7-1-7-2.29V71.37c0-1.26,3.13-2.29,7-2.29S242.2,70.11,242.2,71.37Zm0,3.21v3.21c0,1.26-3.14,2.29-7,2.29s-7-1-7-2.29V74.58c1.5,1,4.25,1.52,7,1.52S240.69,75.62,242.2,74.58Zm0,5v3.21c0,1.26-3.14,2.29-7,2.29s-7-1-7-2.29V79.58c1.5,1,4.25,1.52,7,1.52S240.69,80.62,242.2,79.58Z"/><path class="cls-5" d="M210.2,81.1v-8a.62.62,0,0,1,1.06-.44l4,4a.63.63,0,0,1,0,.88l-4,4A.62.62,0,0,1,210.2,81.1Z"/><text class="cls-6" transform="translate(211.63 101.08)">public.drivers</text><rect class="cls-3" x="221.2" y="303.08" width="28" height="28" rx="4"/><rect class="cls-4" x="223.2" y="305.08" width="24" height="24" rx="4"/><path class="cls-5" d="M242.2,311.37v1.42c0,1.26-3.14,2.29-7,2.29s-7-1-7-2.29v-1.42c0-1.26,3.13-2.29,7-2.29S242.2,310.11,242.2,311.37Zm0,3.21v3.21c0,1.26-3.14,2.29-7,2.29s-7-1-7-2.29v-3.21c1.5,1,4.25,1.52,7,1.52S240.69,315.62,242.2,314.58Zm0,5v3.21c0,1.26-3.14,2.29-7,2.29s-7-1-7-2.29v-3.21c1.5,1,4.25,1.52,7,1.52S240.69,320.62,242.2,319.58Z"/><path class="cls-5" d="M210.2,321.1v-8a.62.62,0,0,1,1.06-.44l4,4a.63.63,0,0,1,0,.88l-4,4A.62.62,0,0,1,210.2,321.1Z"/><text class="cls-6" transform="translate(201.4 341.08)">public.order_status</text><rect class="cls-3" x="221.2" y="363.08" width="28" height="28" rx="4"/><rect class="cls-4" x="223.2" y="365.08" width="24" height="24" rx="4"/><path class="cls-5" d="M242.2,371.37v1.42c0,1.26-3.14,2.29-7,2.29s-7-1-7-2.29v-1.42c0-1.26,3.13-2.29,7-2.29S242.2,370.11,242.2,371.37Zm0,3.21v3.21c0,1.26-3.14,2.29-7,2.29s-7-1-7-2.29v-3.21c1.5,1,4.25,1.52,7,1.52S240.69,375.62,242.2,374.58Zm0,5v3.21c0,1.26-3.14,2.29-7,2.29s-7-1-7-2.29v-3.21c1.5,1,4.25,1.52,7,1.52S240.69,380.62,242.2,379.58Z"/><text class="cls-6" transform="translate(197.17 401.08)">public.orders_7_days</text><rect class="cls-3" x="782.2" y="243.08" width="28" height="28" rx="4"/><rect class="cls-4" x="784.2" y="245.08" width="24" height="24" rx="4"/><path class="cls-5" d="M803.2,251.37v1.42c0,1.26-3.14,2.29-7,2.29s-7-1-7-2.29v-1.42c0-1.26,3.13-2.29,7-2.29S803.2,250.11,803.2,251.37Zm0,3.21v3.21c0,1.26-3.14,2.29-7,2.29s-7-1-7-2.29v-3.21c1.5,1,4.25,1.52,7,1.52S801.69,255.62,803.2,254.58Zm0,5v3.21c0,1.26-3.14,2.29-7,2.29s-7-1-7-2.29v-3.21c1.5,1,4.25,1.52,7,1.52S801.69,260.62,803.2,259.58Z"/><path class="cls-5" d="M771.2,261.1v-8a.62.62,0,0,1,1.06-.44l4,4a.63.63,0,0,1,0,.88l-4,4A.62.62,0,0,1,771.2,261.1Z"/><text class="cls-6" transform="translate(752.61 281.08)">public.pop…ay_of_week</text><rect class="cls-3" x="221.2" y="423.08" width="28" height="28" rx="4"/><rect class="cls-4" x="223.2" y="425.08" width="24" height="24" rx="4"/><path class="cls-5" d="M242.2,431.37v1.42c0,1.26-3.14,2.29-7,2.29s-7-1-7-2.29v-1.42c0-1.26,3.13-2.29,7-2.29S242.2,430.11,242.2,431.37Zm0,3.21v3.21c0,1.26-3.14,2.29-7,2.29s-7-1-7-2.29v-3.21c1.5,1,4.25,1.52,7,1.52S240.69,435.62,242.2,434.58Zm0,5v3.21c0,1.26-3.14,2.29-7,2.29s-7-1-7-2.29v-3.21c1.5,1,4.25,1.52,7,1.52S240.69,440.62,242.2,439.58Z"/><path class="cls-5" d="M210.2,441.1v-8a.62.62,0,0,1,1.06-.44l4,4a.63.63,0,0,1,0,.88l-4,4A.62.62,0,0,1,210.2,441.1Z"/><text class="cls-6" transform="translate(203.63 461.08)">public.restaurants</text><rect class="cls-7" x="502.2" y="363.08" width="28" height="28" rx="4"/><rect class="cls-4" x="504.2" y="365.08" width="24" height="24" rx="4"/><path class="cls-8" d="M523.2,371.37v1.42c0,1.26-3.14,2.29-7,2.29s-7-1-7-2.29v-1.42c0-1.26,3.13-2.29,7-2.29S523.2,370.11,523.2,371.37Zm0,3.21v3.21c0,1.26-3.14,2.29-7,2.29s-7-1-7-2.29v-3.21c1.5,1,4.25,1.52,7,1.52S521.69,375.62,523.2,374.58Zm0,5v3.21c0,1.26-3.14,2.29-7,2.29s-7-1-7-2.29v-3.21c1.5,1,4.25,1.52,7,1.52S521.69,380.62,523.2,379.58Z"/><path class="cls-5" d="M491.2,381.1v-8a.62.62,0,0,1,1.06-.44l4,4a.63.63,0,0,1,0,.88l-4,4A.62.62,0,0,1,491.2,381.1Z"/><text class="cls-6" transform="translate(475.74 401.08)">public.top…very_times</text><circle class="cls-3" cx="376.2" cy="317.08" r="14"/><circle class="cls-4" cx="376.2" cy="317.08" r="12"/><path class="cls-5" d="M383.43,319l-1.33-.77a6.25,6.25,0,0,0,0-2.2l1.33-.77a.37.37,0,0,0,.17-.43,7.83,7.83,0,0,0-1.71-3,.37.37,0,0,0-.46-.07l-1.33.77a5.94,5.94,0,0,0-1.9-1.1v-1.53a.37.37,0,0,0-.3-.37,7.84,7.84,0,0,0-3.41,0,.38.38,0,0,0-.29.37v1.53a6,6,0,0,0-1.9,1.1l-1.33-.77a.37.37,0,0,0-.46.07,7.57,7.57,0,0,0-1.71,3,.37.37,0,0,0,.17.44l1.33.77a6.2,6.2,0,0,0,0,2.19L369,319a.38.38,0,0,0-.17.44,7.53,7.53,0,0,0,1.71,2.95.37.37,0,0,0,.46.07l1.33-.76a5.81,5.81,0,0,0,1.9,1.09v1.54a.38.38,0,0,0,.29.37,8,8,0,0,0,3.42,0,.38.38,0,0,0,.29-.37v-1.54a6.1,6.1,0,0,0,1.9-1.09l1.33.76a.36.36,0,0,0,.46-.07,7.53,7.53,0,0,0,1.71-2.95A.37.37,0,0,0,383.43,319Zm-7.23.63a2.5,2.5,0,1,1,2.5-2.5A2.5,2.5,0,0,1,376.2,319.58Z"/><path class="cls-5" d="M351.2,321.1v-8a.62.62,0,0,1,1.06-.44l4,4a.63.63,0,0,1,0,.88l-4,4A.62.62,0,0,1,351.2,321.1Z"/><text class="cls-6" transform="translate(328.84 341.08)">example.de…mes_7_days</text><circle class="cls-3" cx="656.2" cy="137.08" r="14"/><circle class="cls-4" cx="656.2" cy="137.08" r="12"/><path class="cls-5" d="M663.43,139l-1.33-.77a6.25,6.25,0,0,0,0-2.2l1.33-.77a.37.37,0,0,0,.17-.43,7.83,7.83,0,0,0-1.71-3,.37.37,0,0,0-.46-.07l-1.33.77a5.94,5.94,0,0,0-1.9-1.1v-1.53a.37.37,0,0,0-.3-.37,7.84,7.84,0,0,0-3.41,0,.38.38,0,0,0-.29.37v1.53a6,6,0,0,0-1.9,1.1l-1.33-.77a.37.37,0,0,0-.46.07,7.57,7.57,0,0,0-1.71,3,.37.37,0,0,0,.17.44l1.33.77a6.2,6.2,0,0,0,0,2.19L649,139a.38.38,0,0,0-.17.44,7.53,7.53,0,0,0,1.71,3,.37.37,0,0,0,.46.07l1.33-.76a5.81,5.81,0,0,0,1.9,1.09v1.54a.38.38,0,0,0,.29.37,8,8,0,0,0,3.42,0,.38.38,0,0,0,.29-.37v-1.54a6.1,6.1,0,0,0,1.9-1.09l1.33.76a.36.36,0,0,0,.46-.07,7.53,7.53,0,0,0,1.71-3A.37.37,0,0,0,663.43,139Zm-7.23.63a2.5,2.5,0,1,1,2.5-2.5A2.5,2.5,0,0,1,656.2,139.58Z"/><path class="cls-5" d="M631.2,141.1v-8a.62.62,0,0,1,1.06-.44l4,4a.63.63,0,0,1,0,.88l-4,4A.62.62,0,0,1,631.2,141.1Z"/><text class="cls-6" transform="translate(611.29 161.08)">example.em…_discounts</text><circle class="cls-3" cx="95.2" cy="137.08" r="14"/><circle class="cls-4" cx="95.2" cy="137.08" r="12"/><path class="cls-5" d="M102.43,139l-1.33-.77a6.25,6.25,0,0,0,0-2.2l1.33-.77a.37.37,0,0,0,.17-.43,7.83,7.83,0,0,0-1.71-3,.37.37,0,0,0-.46-.07l-1.33.77a5.94,5.94,0,0,0-1.9-1.1v-1.53a.37.37,0,0,0-.3-.37,7.84,7.84,0,0,0-3.41,0,.38.38,0,0,0-.29.37v1.53a6,6,0,0,0-1.9,1.1L90,131.75a.37.37,0,0,0-.46.07,7.57,7.57,0,0,0-1.71,3,.37.37,0,0,0,.17.44l1.33.77a6.2,6.2,0,0,0,0,2.19L88,139a.38.38,0,0,0-.17.44,7.53,7.53,0,0,0,1.71,3,.37.37,0,0,0,.46.07l1.33-.76a5.81,5.81,0,0,0,1.9,1.09v1.54a.38.38,0,0,0,.29.37,8,8,0,0,0,3.42,0,.38.38,0,0,0,.29-.37v-1.54a6.1,6.1,0,0,0,1.9-1.09l1.33.76a.36.36,0,0,0,.46-.07,7.53,7.53,0,0,0,1.71-3A.37.37,0,0,0,102.43,139Zm-7.23.63a2.5,2.5,0,1,1,2.5-2.5A2.5,2.5,0,0,1,95.2,139.58Z"/><text class="cls-6" transform="translate(50.96 161.08)">example.et…_customers</text><circle class="cls-3" cx="95.2" cy="77.08" r="14"/><circle class="cls-4" cx="95.2" cy="77.08" r="12"/><path class="cls-5" d="M102.43,79l-1.33-.77a6.25,6.25,0,0,0,0-2.2l1.33-.77a.37.37,0,0,0,.17-.43,7.83,7.83,0,0,0-1.71-3,.37.37,0,0,0-.46-.07l-1.33.77a5.94,5.94,0,0,0-1.9-1.1V69.89a.37.37,0,0,0-.3-.37,7.84,7.84,0,0,0-3.41,0,.38.38,0,0,0-.29.37v1.53a6,6,0,0,0-1.9,1.1L90,71.75a.37.37,0,0,0-.46.07,7.57,7.57,0,0,0-1.71,3,.37.37,0,0,0,.17.44L89.3,76a6.2,6.2,0,0,0,0,2.19L88,79a.38.38,0,0,0-.17.44,7.53,7.53,0,0,0,1.71,3,.37.37,0,0,0,.46.07l1.33-.76a5.81,5.81,0,0,0,1.9,1.09v1.54a.38.38,0,0,0,.29.37,8,8,0,0,0,3.42,0,.38.38,0,0,0,.29-.37V82.74a6.1,6.1,0,0,0,1.9-1.09l1.33.76a.36.36,0,0,0,.46-.07,7.53,7.53,0,0,0,1.71-3A.37.37,0,0,0,102.43,79Zm-7.23.63a2.5,2.5,0,1,1,2.5-2.5A2.5,2.5,0,0,1,95.2,79.58Z"/><text class="cls-6" transform="translate(60.52 101.08)">example.etl_drivers</text><circle class="cls-3" cx="95.2" cy="317.08" r="14"/><circle class="cls-4" cx="95.2" cy="317.08" r="12"/><path class="cls-5" d="M102.43,319l-1.33-.77a6.25,6.25,0,0,0,0-2.2l1.33-.77a.37.37,0,0,0,.17-.43,7.83,7.83,0,0,0-1.71-3,.37.37,0,0,0-.46-.07l-1.33.77a5.94,5.94,0,0,0-1.9-1.1v-1.53a.37.37,0,0,0-.3-.37,7.84,7.84,0,0,0-3.41,0,.38.38,0,0,0-.29.37v1.53a6,6,0,0,0-1.9,1.1L90,311.75a.37.37,0,0,0-.46.07,7.57,7.57,0,0,0-1.71,3,.37.37,0,0,0,.17.44l1.33.77a6.2,6.2,0,0,0,0,2.19L88,319a.38.38,0,0,0-.17.44,7.53,7.53,0,0,0,1.71,2.95.37.37,0,0,0,.46.07l1.33-.76a5.81,5.81,0,0,0,1.9,1.09v1.54a.38.38,0,0,0,.29.37,8,8,0,0,0,3.42,0,.38.38,0,0,0,.29-.37v-1.54a6.1,6.1,0,0,0,1.9-1.09l1.33.76a.36.36,0,0,0,.46-.07,7.53,7.53,0,0,0,1.71-2.95A.37.37,0,0,0,102.43,319Zm-7.23.63a2.5,2.5,0,1,1,2.5-2.5A2.5,2.5,0,0,1,95.2,319.58Z"/><text class="cls-6" transform="translate(52.95 341.08)">example.et…der_status</text><circle class="cls-3" cx="95.2" cy="437.08" r="14"/><circle class="cls-4" cx="95.2" cy="437.08" r="12"/><path class="cls-5" d="M102.43,439l-1.33-.77a6.25,6.25,0,0,0,0-2.2l1.33-.77a.37.37,0,0,0,.17-.43,7.83,7.83,0,0,0-1.71-3,.37.37,0,0,0-.46-.07l-1.33.77a5.94,5.94,0,0,0-1.9-1.1v-1.53a.37.37,0,0,0-.3-.37,7.84,7.84,0,0,0-3.41,0,.38.38,0,0,0-.29.37v1.53a6,6,0,0,0-1.9,1.1L90,431.75a.37.37,0,0,0-.46.07,7.57,7.57,0,0,0-1.71,3,.37.37,0,0,0,.17.44l1.33.77a6.2,6.2,0,0,0,0,2.19L88,439a.38.38,0,0,0-.17.44,7.53,7.53,0,0,0,1.71,2.95.37.37,0,0,0,.46.07l1.33-.76a5.81,5.81,0,0,0,1.9,1.09v1.54a.38.38,0,0,0,.29.37,8,8,0,0,0,3.42,0,.38.38,0,0,0,.29-.37v-1.54a6.1,6.1,0,0,0,1.9-1.09l1.33.76a.36.36,0,0,0,.46-.07,7.53,7.53,0,0,0,1.71-2.95A.37.37,0,0,0,102.43,439Zm-7.23.63a2.5,2.5,0,1,1,2.5-2.5A2.5,2.5,0,0,1,95.2,439.58Z"/><text class="cls-6" transform="translate(52.95 461.08)">example.et…estaurants</text><circle class="cls-3" cx="656.2" cy="257.08" r="14"/><circle class="cls-4" cx="656.2" cy="257.08" r="12"/><path class="cls-5" d="M663.43,259l-1.33-.77a6.25,6.25,0,0,0,0-2.2l1.33-.77a.37.37,0,0,0,.17-.43,7.83,7.83,0,0,0-1.71-3,.37.37,0,0,0-.46-.07l-1.33.77a5.94,5.94,0,0,0-1.9-1.1v-1.53a.37.37,0,0,0-.3-.37,7.84,7.84,0,0,0-3.41,0,.38.38,0,0,0-.29.37v1.53a6,6,0,0,0-1.9,1.1l-1.33-.77a.37.37,0,0,0-.46.07,7.57,7.57,0,0,0-1.71,3,.37.37,0,0,0,.17.44l1.33.77a6.2,6.2,0,0,0,0,2.19L649,259a.38.38,0,0,0-.17.44,7.53,7.53,0,0,0,1.71,2.95.37.37,0,0,0,.46.07l1.33-.76a5.81,5.81,0,0,0,1.9,1.09v1.54a.38.38,0,0,0,.29.37,8,8,0,0,0,3.42,0,.38.38,0,0,0,.29-.37v-1.54a6.1,6.1,0,0,0,1.9-1.09l1.33.76a.36.36,0,0,0,.46-.07,7.53,7.53,0,0,0,1.71-2.95A.37.37,0,0,0,663.43,259Zm-7.23.63a2.5,2.5,0,1,1,2.5-2.5A2.5,2.5,0,0,1,656.2,259.58Z"/><path class="cls-5" d="M631.2,261.1v-8a.62.62,0,0,1,1.06-.44l4,4a.63.63,0,0,1,0,.88l-4,4A.62.62,0,0,1,631.2,261.1Z"/><text class="cls-6" transform="translate(611.06 281.08)">example.or…ay_of_week</text></svg>