<svg width="223" height="81" viewBox="0 0 223 81" fill="none" xmlns="http://www.w3.org/2000/svg">
<path d="M138.7 12.53V67.8201H127.49V62.1801C126.32 64.1601 124.63 65.77 122.58 66.79C120.38 67.89 117.89 68.47 115.4 68.47C112.32 68.54 109.25 67.66 106.68 65.91C104.04 64.15 101.99 61.7401 100.67 58.8801C99.2101 55.5801 98.4701 52.07 98.5501 48.48C98.4801 44.89 99.2101 41.38 100.67 38.15C101.99 35.37 104.04 32.95 106.6 31.27C109.24 29.59 112.31 28.78 115.39 28.85C117.81 28.85 120.22 29.36 122.35 30.46C124.4 31.49 126.09 33.0201 127.26 34.9301V16.2501L138.69 12.51L138.7 12.53ZM125.22 56.91C126.68 55.01 127.49 52.2201 127.49 48.6301C127.49 45.0401 126.76 42.3301 125.22 40.4301C123.68 38.5301 121.26 37.4301 118.78 37.5001C116.29 37.3501 113.87 38.45 112.26 40.36C110.72 42.26 109.92 44.9701 109.92 48.4901C109.92 52.0101 110.73 54.86 112.26 56.84C113.8 58.82 116.29 59.92 118.78 59.84C121.56 59.84 123.76 58.81 125.22 56.91ZM178.76 31.2C181.4 32.88 183.45 35.3 184.69 38.08C186.15 41.3 186.89 44.82 186.81 48.41C186.88 52 186.15 55.5901 184.69 58.8101C183.37 61.6701 181.32 64.08 178.68 65.84C176.12 67.52 173.04 68.4 169.97 68.33C167.48 68.4 164.99 67.82 162.79 66.65C160.74 65.62 159.05 64.01 157.96 62.04V67.7501H146.68V16.26L158.03 12.52V35.08C159.13 33.1 160.81 31.49 162.86 30.47C165.06 29.3 167.47 28.71 169.96 28.79C173.04 28.72 176.11 29.6 178.75 31.21L178.76 31.2ZM173.19 56.83C174.73 54.85 175.46 52.07 175.46 48.41C175.46 44.75 174.73 42.18 173.19 40.28C171.65 38.38 169.53 37.42 166.75 37.42C164.26 37.27 161.84 38.37 160.23 40.35C158.69 42.33 157.96 45.0401 157.96 48.55C157.96 52.06 158.69 54.92 160.23 56.83C161.77 58.81 164.18 59.91 166.75 59.76C169.24 59.91 171.66 58.81 173.19 56.83ZM202.49 38.23H212.16V29.73H202.49V17.1301L191.14 20.79V53.23C191.14 58.06 192.39 61.8001 194.88 64.4401C197.37 67.0801 200.96 68.39 205.65 68.39C207.85 68.46 210.04 68.1 212.17 67.36V58.5701C211 58.8601 209.68 59.08 208.43 59.08C206.82 59.15 205.28 58.6401 204.11 57.6201C203.08 56.6701 202.5 55.13 202.5 53.01V38.22L202.49 38.23Z" fill="white"/>
<path d="M77.55 3.37C79.45 5.2 80.7 7.62 80.99 10.25C80.99 11.35 80.7 12.08 80.04 13.47C79.38 14.86 71.25 28.92 68.83 32.8C67.44 35.07 66.71 37.78 66.71 40.42C66.71 43.06 67.44 45.77 68.83 48.04C71.25 51.92 79.38 66.06 80.04 67.45C80.7 68.84 80.99 69.5 80.99 70.6C80.7 73.24 79.53 75.65 77.62 77.41C75.79 79.31 73.37 80.56 70.81 80.78C69.71 80.78 68.98 80.49 67.66 79.83C66.34 79.17 51.99 71.26 48.11 68.84C47.82 68.69 47.52 68.47 47.16 68.33L27.97 56.98C28.41 60.64 30.02 64.16 32.66 66.72C33.17 67.23 33.69 67.67 34.27 68.11C33.83 68.33 33.32 68.55 32.88 68.84C29 71.26 14.86 79.39 13.47 80.05C12.08 80.71 11.42 81 10.25 81C7.61 80.71 5.2 79.54 3.44 77.63C1.54 75.8 0.29 73.38 0 70.75C0.07 69.65 0.37 68.55 0.95 67.6C1.61 66.21 9.74 52.07 12.16 48.19C13.55 45.92 14.28 43.28 14.28 40.57C14.28 37.86 13.55 35.22 12.16 32.95C9.74 28.92 1.54 14.79 0.95 13.4C0.36 12.45 0.07 11.35 0 10.25C0.29 7.61 1.46 5.2 3.37 3.37C5.2 1.47 7.62 0.29 10.25 0C11.35 0.07 12.45 0.369951 13.47 0.949951C14.64 1.45995 24.97 7.47 30.46 10.69L31.71 11.42C32.15 11.71 32.52 11.93 32.81 12.08L33.4 12.45L52.95 24.02C52.51 19.63 50.24 15.6 46.72 12.89C47.16 12.67 47.67 12.45 48.11 12.16C51.99 9.73997 66.13 1.53995 67.52 0.949951C68.47 0.359951 69.57 0.07 70.74 0C73.3 0.29 75.72 1.46 77.55 3.37ZM41.52 45.7L45.69 41.53C46.28 40.94 46.28 40.07 45.69 39.48L41.52 35.31C40.93 34.72 40.06 34.72 39.47 35.31L35.3 39.48C34.71 40.07 34.71 40.94 35.3 41.53L39.47 45.7C39.98 46.2099 40.93 46.2099 41.52 45.7ZM77.55 3.37C79.45 5.2 80.7 7.62 80.99 10.25C80.99 11.35 80.7 12.08 80.04 13.47C79.38 14.86 71.25 28.92 68.83 32.8C67.44 35.07 66.71 37.78 66.71 40.42C66.71 43.06 67.44 45.77 68.83 48.04C71.25 51.92 79.38 66.06 80.04 67.45C80.7 68.84 80.99 69.5 80.99 70.6C80.7 73.24 79.53 75.65 77.62 77.41C75.79 79.31 73.37 80.56 70.81 80.78C69.71 80.78 68.98 80.49 67.66 79.83C66.34 79.17 51.99 71.26 48.11 68.84C47.82 68.69 47.52 68.47 47.16 68.33L27.97 56.98C28.41 60.64 30.02 64.16 32.66 66.72C33.17 67.23 33.69 67.67 34.27 68.11C33.83 68.33 33.32 68.55 32.88 68.84C29 71.26 14.86 79.39 13.47 80.05C12.08 80.71 11.42 81 10.25 81C7.61 80.71 5.2 79.54 3.44 77.63C1.54 75.8 0.29 73.38 0 70.75C0.07 69.65 0.37 68.55 0.95 67.6C1.61 66.21 9.74 52.07 12.16 48.19C13.55 45.92 14.28 43.28 14.28 40.57C14.28 37.86 13.55 35.22 12.16 32.95C9.74 28.92 1.54 14.79 0.95 13.4C0.36 12.45 0.07 11.35 0 10.25C0.29 7.61 1.46 5.2 3.37 3.37C5.2 1.47 7.62 0.29 10.25 0C11.35 0.07 12.45 0.369951 13.47 0.949951C14.64 1.45995 24.97 7.47 30.46 10.69L31.71 11.42C32.15 11.71 32.52 11.93 32.81 12.08L33.4 12.45L52.95 24.02C52.51 19.63 50.24 15.6 46.72 12.89C47.16 12.67 47.67 12.45 48.11 12.16C51.99 9.73997 66.13 1.53995 67.52 0.949951C68.47 0.359951 69.57 0.07 70.74 0C73.3 0.29 75.72 1.46 77.55 3.37ZM41.52 45.7L45.69 41.53C46.28 40.94 46.28 40.07 45.69 39.48L41.52 35.31C40.93 34.72 40.06 34.72 39.47 35.31L35.3 39.48C34.71 40.07 34.71 40.94 35.3 41.53L39.47 45.7C39.98 46.2099 40.93 46.2099 41.52 45.7Z" fill="white"/>
<path d="M222.15 64.3599L220.94 67.7499H220.5L219.29 64.3699V67.7499H218.52V63.1299H219.48L220.72 66.5599L221.96 63.1299H222.92V67.7499H222.15V64.3599Z" fill="white"/>
<path d="M217.84 63.8298H216.57V67.7499H215.79V63.8298H214.52V63.1299H217.84V63.8298Z" fill="white"/>
</svg>
