<?xml version="1.0" standalone="no"?>
<!DOCTYPE svg PUBLIC "-//W3C//DTD SVG 20010904//EN"
 "http://www.w3.org/TR/2001/REC-SVG-20010904/DTD/svg10.dtd">
<svg version="1.0" xmlns="http://www.w3.org/2000/svg"
 width="225.000000pt" height="225.000000pt" viewBox="0 0 225.000000 225.000000"
 preserveAspectRatio="xMidYMid meet">

<g transform="translate(0.000000,225.000000) scale(0.100000,-0.100000)"
fill="#000000" stroke="none">
<path d="M711 1554 c-19 -8 -50 -24 -69 -36 l-35 -22 57 -13 c92 -21 145 -66
189 -160 21 -45 22 -64 25 -335 l4 -288 104 0 104 0 0 268 c0 282 -8 365 -42
444 -25 59 -101 130 -156 146 -53 16 -140 14 -181 -4z"/>
<path d="M1160 1283 c0 -373 16 -452 110 -536 54 -48 103 -67 178 -67 57 0 87
9 152 47 l45 27 -58 13 c-88 20 -139 60 -179 140 l-33 68 -3 287 -4 288 -104
0 -104 0 0 -267z"/>
<path d="M1721 1228 c2 -347 0 -367 -52 -439 l-21 -30 38 6 c103 19 186 81
226 169 21 48 23 65 26 334 l4 282 -112 0 -111 0 2 -322z"/>
<path d="M537 1479 c-90 -21 -160 -79 -199 -164 -22 -48 -23 -64 -26 -332 l-4
-283 112 0 111 0 -2 323 c-2 345 1 366 51 438 23 32 20 33 -43 18z"/>
</g>
</svg>
