<?xml version="1.0" encoding="utf-8"?>
<!-- Generator: Adobe Illustrator 24.0.2, SVG Export Plug-In . SVG Version: 6.00 Build 0)  -->
<svg version="1.1" id="Layer_1" xmlns="http://www.w3.org/2000/svg" x="0px" y="0px"
	 viewBox="0 0 400 300" style="enable-background:new 0 0 400 300;" xml:space="preserve">
<style type="text/css">
	.st0{fill:#FFFFFF;}
	.st1{opacity:0.15;fill:#FFFFFF;}
	.st2{fill:#00C5DB;}
	.st3{opacity:0.1;}
	.st4{fill:#E6E6E6;}
	.st5{fill:#53585A;}
</style>
<g>
	<path class="st0" d="M122.2,67.1l45.5,90.9c5.8-11.7,17.9-19.6,31.3-19.9l-49-98.1C146.8,53.6,136,64.3,122.2,67.1z"/>
	<path class="st0" d="M284.7,129.1c-0.1,0-0.2,0-0.3,0l55.8,118.8c6.6-9.8,17.6-15.9,29.7-15.9c1.2,0,2.5,0.1,3.7,0.2l-57.3-122
		C310.1,121.7,298.1,129.1,284.7,129.1z"/>
	<path class="st0" d="M235,169.1l37.9-42c-12.6-4.4-21.7-15.7-23.6-28.9l-37.9,42C224,144.6,233.2,155.9,235,169.1z"/>
	<path class="st0" d="M56.5,244.6L115,67.9c-14,0-26.3-8.3-32.1-20.3L21.5,232.9c2.6-0.6,5.2-0.9,7.9-0.9
		C39.9,232,49.8,236.8,56.5,244.6z"/>
	<path class="st0" d="M1.7,267.8c0,15.3,12.4,27.7,27.7,27.7c15.3,0,27.7-12.4,27.7-27.7c0-5.1-1.4-9.8-3.7-13.9c-0.6-1-1.3-2-2-3
		c-5.1-6.6-13-10.9-22-10.9c-3.9,0-7.6,0.8-11,2.3C8.6,246.6,1.7,256.4,1.7,267.8z"/>
	<path class="st0" d="M107.1,58.7c2.5,0.8,5.2,1.2,7.9,1.2c0.9,0,1.8-0.1,2.6-0.1c0.3,0,0.5-0.1,0.8-0.1c3.4-0.4,6.7-1.5,9.6-3
		c0.7-0.4,1.4-0.8,2.1-1.3c5.5-3.6,9.7-9.1,11.6-15.6c0.7-2.4,1.1-5,1.1-7.6c0-3.5-0.7-6.9-1.9-10c-0.6-1.6-1.4-3.2-2.3-4.7
		C133.7,9.7,125,4.4,115,4.4c-8.4,0-16,3.8-21.1,9.8c-4.1,4.8-6.6,11.1-6.6,18c0,0.6,0.1,1.2,0.1,1.8
		C88.1,45.7,96.2,55.5,107.1,58.7z"/>
	<path class="st0" d="M171.9,173.9c0,15.3,12.4,27.7,27.7,27.7c13.9,0,25.4-10.3,27.4-23.7c0.2-1.3,0.3-2.7,0.3-4
		c0-2.5-0.3-4.9-0.9-7.2c-2.7-9.9-10.8-17.7-20.9-19.9c-0.8-0.2-1.7-0.3-2.5-0.4c-1.1-0.1-2.2-0.2-3.4-0.2
		c-13.2,0-24.3,9.3-27.1,21.7C172.1,169.8,171.9,171.8,171.9,173.9z"/>
	<path class="st0" d="M278.8,120.5c0.5,0.1,1.1,0.2,1.6,0.3c1.4,0.2,2.8,0.4,4.2,0.4c2.4,0,4.8-0.3,7-0.9c0.7-0.2,1.5-0.4,2.2-0.7
		c1.4-0.5,2.8-1.1,4.1-1.9c0.7-0.4,1.3-0.8,1.9-1.2c1.3-0.8,2.4-1.8,3.5-2.8c0.5-0.5,1.1-1,1.6-1.6c3-3.3,5.3-7.4,6.4-11.9
		c0.6-2.2,0.9-4.5,0.9-6.9c0-15.3-12.4-27.7-27.7-27.7c-13.9,0-25.4,10.3-27.4,23.7c-0.2,1.3-0.3,2.7-0.3,4
		C257,106.7,266.3,117.8,278.8,120.5z"/>
	<path class="st0" d="M377.7,241.2c-2.5-0.7-5.1-1.2-7.9-1.2c-11.4,0-21.2,6.9-25.5,16.8c-1.4,3.4-2.3,7.1-2.3,10.9
		c0,15.3,12.4,27.7,27.7,27.7s27.7-12.4,27.7-27.7C397.5,255.2,389.1,244.6,377.7,241.2z"/>
</g>
</svg>
