<?xml version="1.0" standalone="no"?>
<!DOCTYPE svg PUBLIC "-//W3C//DTD SVG 20010904//EN"
 "http://www.w3.org/TR/2001/REC-SVG-20010904/DTD/svg10.dtd">
<svg version="1.0" xmlns="http://www.w3.org/2000/svg"
 width="140.000000pt" height="110.000000pt" viewBox="0 0 140.000000 110.000000"
 preserveAspectRatio="xMidYMid meet">
    <style>
        @media (prefers-color-scheme: dark) {
            path {
                fill: white;
            }
        }
    </style>
    <g transform="translate(0.000000,110.000000) scale(0.100000,-0.100000)"
    fill="#000000" stroke="none">
        <path d="M324 900 c-85 -35 -60 -164 31 -164 72 0 111 84 63 138 -26 29 -63
        39 -94 26z"/>
        <path d="M449 768 c-7 -16 -15 -28 -18 -28 -3 0 -17 -9 -29 -18 l-24 -18 68
        -136 68 -137 33 30 c19 16 40 29 48 29 8 0 15 3 14 8 0 4 -33 72 -73 152 -73
        142 -74 144 -87 118z"/>
        <path d="M159 485 c-92 -277 -93 -285 -71 -285 13 0 37 -7 53 -16 17 -8 32
        -14 34 -12 6 7 177 530 173 532 -1 1 -18 8 -36 16 -18 7 -39 21 -46 31 -11 16
        -25 -18 -107 -266z"/>
        <path d="M844 706 c-44 -19 -62 -67 -41 -110 32 -69 122 -69 154 0 21 43 4 86
        -42 108 -39 19 -32 19 -71 2z"/>
        <path d="M710 549 l-52 -60 31 -31 c17 -17 31 -37 31 -44 0 -16 16 -19 22 -5
        2 5 25 32 51 60 l48 51 -30 26 c-17 14 -31 32 -31 39 0 32 -20 21 -70 -36z"/>
        <path d="M947 544 c-15 -13 -37 -24 -48 -24 -10 0 -19 -2 -19 -4 0 -2 27 -60
        60 -129 33 -69 71 -151 84 -182 l25 -56 21 21 c11 11 34 23 50 27 17 3 30 7
        30 9 0 7 -162 349 -169 356 -3 4 -19 -4 -34 -18z"/>
        <path d="M593 462 c-30 -5 -63 -48 -63 -84 0 -38 48 -88 85 -88 37 0 85 50 85
        88 0 56 -48 93 -107 84z"/>
        <path d="M30 150 c-62 -62 -11 -162 75 -146 65 13 90 93 45 141 -30 32 -91 34
        -120 5z"/>
        <path d="M1081 144 c-42 -53 -19 -124 46 -140 53 -14 113 46 99 99 -17 69
        -104 93 -145 41z"/>
    </g>
</svg>
