<svg version="1.1" viewBox="0.0 0.0 708.8005249343832 400.12860892388454" fill="none" stroke="none" stroke-linecap="square" stroke-miterlimit="10" xmlns:xlink="http://www.w3.org/1999/xlink" xmlns="http://www.w3.org/2000/svg"><clipPath id="p.0"><path d="m0 0l708.80054 0l0 400.1286l-708.80054 0l0 -400.1286z" clip-rule="nonzero"/></clipPath><g clip-path="url(#p.0)"><path fill="#000000" fill-opacity="0.0" d="m0 0l708.80054 0l0 400.1286l-708.80054 0z" fill-rule="evenodd"/><path fill="#000000" fill-opacity="0.0" d="m25.087978 230.42783l0 0c0 -5.018402 4.0682144 -9.086624 9.086613 -9.086624l0 0c2.4099197 0 4.721138 0.9573364 6.425209 2.6614075c1.7040672 1.704071 2.6614075 4.0152893 2.6614075 6.4252167l0 0c0 5.018387 -4.068218 9.086609 -9.0866165 9.086609l0 0c-5.0183983 0 -9.086613 -4.068222 -9.086613 -9.086609z" fill-rule="evenodd"/><path stroke="#ffffff" stroke-width="3.0" stroke-linejoin="round" stroke-linecap="butt" d="m25.087978 230.42783l0 0c0 -5.018402 4.0682144 -9.086624 9.086613 -9.086624l0 0c2.4099197 0 4.721138 0.9573364 6.425209 2.6614075c1.7040672 1.704071 2.6614075 4.0152893 2.6614075 6.4252167l0 0c0 5.018387 -4.068218 9.086609 -9.0866165 9.086609l0 0c-5.0183983 0 -9.086613 -4.068222 -9.086613 -9.086609z" fill-rule="evenodd"/><path fill="#000000" fill-opacity="0.0" d="m164.3452 55.81365l0 0c0 -5.0183983 4.068222 -9.086613 9.086624 -9.086613l0 0c2.409912 0 4.7211304 0.9573364 6.4252014 2.6614075c1.704071 1.704071 2.6614075 4.0152855 2.6614075 6.425205l0 0c0 5.0183983 -4.068207 9.086613 -9.086609 9.086613l0 0c-5.018402 0 -9.086624 -4.0682144 -9.086624 -9.086613z" fill-rule="evenodd"/><path stroke="#424c58" stroke-width="3.0" stroke-linejoin="round" stroke-linecap="butt" d="m164.3452 55.81365l0 0c0 -5.0183983 4.068222 -9.086613 9.086624 -9.086613l0 0c2.409912 0 4.7211304 0.9573364 6.4252014 2.6614075c1.704071 1.704071 2.6614075 4.0152855 2.6614075 6.425205l0 0c0 5.0183983 -4.068207 9.086613 -9.086609 9.086613l0 0c-5.018402 0 -9.086624 -4.0682144 -9.086624 -9.086613z" fill-rule="evenodd"/><path fill="#000000" fill-opacity="0.0" d="m164.3452 99.46719l0 0c0 -5.018402 4.068222 -9.0866165 9.086624 -9.0866165l0 0c2.409912 0 4.7211304 0.9573364 6.4252014 2.6614075c1.704071 1.704071 2.6614075 4.0152893 2.6614075 6.425209l0 0c0 5.0183945 -4.068207 9.086609 -9.086609 9.086609l0 0c-5.018402 0 -9.086624 -4.0682144 -9.086624 -9.086609z" fill-rule="evenodd"/><path stroke="#424c58" stroke-width="3.0" stroke-linejoin="round" stroke-linecap="butt" d="m164.3452 99.46719l0 0c0 -5.018402 4.068222 -9.0866165 9.086624 -9.0866165l0 0c2.409912 0 4.7211304 0.9573364 6.4252014 2.6614075c1.704071 1.704071 2.6614075 4.0152893 2.6614075 6.425209l0 0c0 5.0183945 -4.068207 9.086609 -9.086609 9.086609l0 0c-5.018402 0 -9.086624 -4.0682144 -9.086624 -9.086609z" fill-rule="evenodd"/><path fill="#000000" fill-opacity="0.0" d="m164.3452 143.12073l0 0c0 -5.018387 4.068222 -9.086609 9.086624 -9.086609l0 0c2.409912 0 4.7211304 0.9573364 6.4252014 2.6614075c1.704071 1.704071 2.6614075 4.0152893 2.6614075 6.4252014l0 0c0 5.018402 -4.068207 9.086624 -9.086609 9.086624l0 0c-5.018402 0 -9.086624 -4.068222 -9.086624 -9.086624z" fill-rule="evenodd"/><path stroke="#424c58" stroke-width="3.0" stroke-linejoin="round" stroke-linecap="butt" d="m164.3452 143.12073l0 0c0 -5.018387 4.068222 -9.086609 9.086624 -9.086609l0 0c2.409912 0 4.7211304 0.9573364 6.4252014 2.6614075c1.704071 1.704071 2.6614075 4.0152893 2.6614075 6.4252014l0 0c0 5.018402 -4.068207 9.086624 -9.086609 9.086624l0 0c-5.018402 0 -9.086624 -4.068222 -9.086624 -9.086624z" fill-rule="evenodd"/><path fill="#000000" fill-opacity="0.0" d="m164.3452 186.77428l0 0c0 -5.018402 4.068222 -9.086609 9.086624 -9.086609l0 0c2.409912 0 4.7211304 0.9573364 6.4252014 2.6614075c1.704071 1.704071 2.6614075 4.0152893 2.6614075 6.4252014l0 0c0 5.018402 -4.068207 9.086609 -9.086609 9.086609l0 0c-5.018402 0 -9.086624 -4.068207 -9.086624 -9.086609z" fill-rule="evenodd"/><path stroke="#424c58" stroke-width="3.0" stroke-linejoin="round" stroke-linecap="butt" d="m164.3452 186.77428l0 0c0 -5.018402 4.068222 -9.086609 9.086624 -9.086609l0 0c2.409912 0 4.7211304 0.9573364 6.4252014 2.6614075c1.704071 1.704071 2.6614075 4.0152893 2.6614075 6.4252014l0 0c0 5.018402 -4.068207 9.086609 -9.086609 9.086609l0 0c-5.018402 0 -9.086624 -4.068207 -9.086624 -9.086609z" fill-rule="evenodd"/><path fill="#000000" fill-opacity="0.0" d="m164.3452 230.42783l0 0c0 -5.018402 4.068222 -9.086624 9.086624 -9.086624l0 0c2.409912 0 4.7211304 0.9573364 6.4252014 2.6614075c1.704071 1.704071 2.6614075 4.0152893 2.6614075 6.4252167l0 0c0 5.018387 -4.068207 9.086609 -9.086609 9.086609l0 0c-5.018402 0 -9.086624 -4.068222 -9.086624 -9.086609z" fill-rule="evenodd"/><path stroke="#ffffff" stroke-width="3.0" stroke-linejoin="round" stroke-linecap="butt" d="m164.3452 230.42783l0 0c0 -5.018402 4.068222 -9.086624 9.086624 -9.086624l0 0c2.409912 0 4.7211304 0.9573364 6.4252014 2.6614075c1.704071 1.704071 2.6614075 4.0152893 2.6614075 6.4252167l0 0c0 5.018387 -4.068207 9.086609 -9.086609 9.086609l0 0c-5.018402 0 -9.086624 -4.068222 -9.086624 -9.086609z" fill-rule="evenodd"/><path fill="#000000" fill-opacity="0.0" d="m164.3452 274.08136l0 0c0 -5.018402 4.068222 -9.086609 9.086624 -9.086609l0 0c2.409912 0 4.7211304 0.9573364 6.4252014 2.6614075c1.704071 1.704071 2.6614075 4.0152893 2.6614075 6.4252014l0 0c0 5.018402 -4.068207 9.086609 -9.086609 9.086609l0 0c-5.018402 0 -9.086624 -4.068207 -9.086624 -9.086609z" fill-rule="evenodd"/><path stroke="#424c58" stroke-width="3.0" stroke-linejoin="round" stroke-linecap="butt" d="m164.3452 274.08136l0 0c0 -5.018402 4.068222 -9.086609 9.086624 -9.086609l0 0c2.409912 0 4.7211304 0.9573364 6.4252014 2.6614075c1.704071 1.704071 2.6614075 4.0152893 2.6614075 6.4252014l0 0c0 5.018402 -4.068207 9.086609 -9.086609 9.086609l0 0c-5.018402 0 -9.086624 -4.068207 -9.086624 -9.086609z" fill-rule="evenodd"/><path fill="#000000" fill-opacity="0.0" d="m164.3452 317.7349l0 0c0 -5.0183716 4.068222 -9.086609 9.086624 -9.086609l0 0c2.409912 0 4.7211304 0.9573364 6.4252014 2.6614075c1.704071 1.704071 2.6614075 4.0152893 2.6614075 6.4252014l0 0c0 5.018402 -4.068207 9.086639 -9.086609 9.086639l0 0c-5.018402 0 -9.086624 -4.0682373 -9.086624 -9.086639z" fill-rule="evenodd"/><path stroke="#424c58" stroke-width="3.0" stroke-linejoin="round" stroke-linecap="butt" d="m164.3452 317.7349l0 0c0 -5.0183716 4.068222 -9.086609 9.086624 -9.086609l0 0c2.409912 0 4.7211304 0.9573364 6.4252014 2.6614075c1.704071 1.704071 2.6614075 4.0152893 2.6614075 6.4252014l0 0c0 5.018402 -4.068207 9.086639 -9.086609 9.086639l0 0c-5.018402 0 -9.086624 -4.0682373 -9.086624 -9.086639z" fill-rule="evenodd"/><path fill="#000000" fill-opacity="0.0" d="m164.3452 361.38846l0 0c0 -5.018402 4.068222 -9.086609 9.086624 -9.086609l0 0c2.409912 0 4.7211304 0.9573364 6.4252014 2.6614075c1.704071 1.704071 2.6614075 4.0152893 2.6614075 6.4252014l0 0c0 5.018402 -4.068207 9.086609 -9.086609 9.086609l0 0c-5.018402 0 -9.086624 -4.068207 -9.086624 -9.086609z" fill-rule="evenodd"/><path stroke="#424c58" stroke-width="3.0" stroke-linejoin="round" stroke-linecap="butt" d="m164.3452 361.38846l0 0c0 -5.018402 4.068222 -9.086609 9.086624 -9.086609l0 0c2.409912 0 4.7211304 0.9573364 6.4252014 2.6614075c1.704071 1.704071 2.6614075 4.0152893 2.6614075 6.4252014l0 0c0 5.018402 -4.068207 9.086609 -9.086609 9.086609l0 0c-5.018402 0 -9.086624 -4.068207 -9.086624 -9.086609z" fill-rule="evenodd"/><path fill="#000000" fill-opacity="0.0" d="m279.899 230.45932l0 0c0 -5.018402 4.068207 -9.086624 9.086609 -9.086624l0 0c2.4099426 0 4.7211304 0.9573517 6.4252014 2.6614227c1.704071 1.7040558 2.6614075 4.015274 2.6614075 6.4252014l0 0c0 5.018402 -4.068207 9.086609 -9.086609 9.086609l0 0c-5.018402 0 -9.086609 -4.068207 -9.086609 -9.086609z" fill-rule="evenodd"/><path stroke="#ffffff" stroke-width="3.0" stroke-linejoin="round" stroke-linecap="butt" d="m279.899 230.45932l0 0c0 -5.018402 4.068207 -9.086624 9.086609 -9.086624l0 0c2.4099426 0 4.7211304 0.9573517 6.4252014 2.6614227c1.704071 1.7040558 2.6614075 4.015274 2.6614075 6.4252014l0 0c0 5.018402 -4.068207 9.086609 -9.086609 9.086609l0 0c-5.018402 0 -9.086609 -4.068207 -9.086609 -9.086609z" fill-rule="evenodd"/><path fill="#000000" fill-opacity="0.0" d="m279.899 55.81365l0 0c0 -5.0183983 4.068207 -9.086613 9.086609 -9.086613l0 0c2.4099426 0 4.7211304 0.9573364 6.4252014 2.6614075c1.704071 1.704071 2.6614075 4.0152855 2.6614075 6.425205l0 0c0 5.0183983 -4.068207 9.086613 -9.086609 9.086613l0 0c-5.018402 0 -9.086609 -4.0682144 -9.086609 -9.086613z" fill-rule="evenodd"/><path stroke="#424c58" stroke-width="3.0" stroke-linejoin="round" stroke-linecap="butt" d="m279.899 55.81365l0 0c0 -5.0183983 4.068207 -9.086613 9.086609 -9.086613l0 0c2.4099426 0 4.7211304 0.9573364 6.4252014 2.6614075c1.704071 1.704071 2.6614075 4.0152855 2.6614075 6.425205l0 0c0 5.0183983 -4.068207 9.086613 -9.086609 9.086613l0 0c-5.018402 0 -9.086609 -4.0682144 -9.086609 -9.086613z" fill-rule="evenodd"/><path fill="#000000" fill-opacity="0.0" d="m43.261208 230.42783c30.270744 0 45.407623 -43.65355 60.54149 -87.3071c15.133858 -43.653534 30.264687 -87.30708 60.52938 -87.30708" fill-rule="evenodd"/><path stroke="#424c58" stroke-width="1.0" stroke-linejoin="round" stroke-linecap="butt" d="m43.261208 230.42783c30.270744 0 45.407623 -43.65355 60.54149 -87.3071c15.133858 -43.653534 30.264687 -87.30708 60.52938 -87.30708" fill-rule="evenodd"/><path fill="#000000" fill-opacity="0.0" d="m43.261208 230.42783c30.270744 0 45.407623 -32.740158 60.54149 -65.480316c15.133858 -32.740158 30.264687 -65.480316 60.52938 -65.480316" fill-rule="evenodd"/><path stroke="#424c58" stroke-width="1.0" stroke-linejoin="round" stroke-linecap="butt" d="m43.261208 230.42783c30.270744 0 45.407623 -32.740158 60.54149 -65.480316c15.133858 -32.740158 30.264687 -65.480316 60.52938 -65.480316" fill-rule="evenodd"/><path fill="#000000" fill-opacity="0.0" d="m43.261208 230.42783c30.270744 0 45.407623 32.740143 60.54149 65.480316c15.133858 32.740143 30.264687 65.480316 60.52938 65.480316" fill-rule="evenodd"/><path stroke="#424c58" stroke-width="1.0" stroke-linejoin="round" stroke-linecap="butt" d="m43.261208 230.42783c30.270744 0 45.407623 32.740143 60.54149 65.480316c15.133858 32.740143 30.264687 65.480316 60.52938 65.480316" fill-rule="evenodd"/><path fill="#000000" fill-opacity="0.0" d="m43.274338 230.42783c30.267715 0 45.401573 -10.913391 60.53544 -21.826782c15.133858 -10.913376 30.267708 -21.826767 60.535423 -21.826767" fill-rule="evenodd"/><path stroke="#424c58" stroke-width="1.0" stroke-linejoin="round" stroke-linecap="butt" d="m43.274338 230.42783c30.267715 0 45.401573 -10.913391 60.53544 -21.826782c15.133858 -10.913376 30.267708 -21.826767 60.535423 -21.826767" fill-rule="evenodd"/><path fill="#000000" fill-opacity="0.0" d="m43.261208 230.42783c30.270744 0 45.407623 -21.826782 60.54149 -43.65355c15.133858 -21.826767 30.264687 -43.65355 60.52938 -43.65355" fill-rule="evenodd"/><path stroke="#424c58" stroke-width="1.0" stroke-linejoin="round" stroke-linecap="butt" d="m43.261208 230.42783c30.270744 0 45.407623 -21.826782 60.54149 -43.65355c15.133858 -21.826767 30.264687 -43.65355 60.52938 -43.65355" fill-rule="evenodd"/><path fill="#000000" fill-opacity="0.0" d="m43.274338 230.42783c30.267715 0 45.401573 21.826767 60.53544 43.653534c15.133858 21.826782 30.267708 43.653534 60.535423 43.653534" fill-rule="evenodd"/><path stroke="#424c58" stroke-width="1.0" stroke-linejoin="round" stroke-linecap="butt" d="m43.274338 230.42783c30.267715 0 45.401573 21.826767 60.53544 43.653534c15.133858 21.826782 30.267708 43.653534 60.535423 43.653534" fill-rule="evenodd"/><path fill="#000000" fill-opacity="0.0" d="m43.261208 230.42783c30.270744 0 45.407623 10.913376 60.54149 21.826767c15.133858 10.913376 30.264687 21.826767 60.52938 21.826767" fill-rule="evenodd"/><path stroke="#424c58" stroke-width="1.0" stroke-linejoin="round" stroke-linecap="butt" d="m43.261208 230.42783c30.270744 0 45.407623 10.913376 60.54149 21.826767c15.133858 10.913376 30.264687 21.826767 60.52938 21.826767" fill-rule="evenodd"/><path fill="#000000" fill-opacity="0.0" d="m43.261208 230.42783c30.270744 0 45.407623 0.01574707 60.54149 0.03149414c15.133858 0.01574707 30.264687 0.03149414 60.52938 0.03149414" fill-rule="evenodd"/><path stroke="#ffffff" stroke-width="1.0" stroke-linejoin="round" stroke-linecap="butt" d="m43.261208 230.42783c30.270744 0 45.407623 0.01574707 60.54149 0.03149414c15.133858 0.01574707 30.264687 0.03149414 60.52938 0.03149414" fill-rule="evenodd"/><path fill="#000000" fill-opacity="0.0" d="m279.899 361.38846l0 0c0 -5.018402 4.068207 -9.086609 9.086609 -9.086609l0 0c2.4099426 0 4.7211304 0.9573364 6.4252014 2.6614075c1.704071 1.704071 2.6614075 4.0152893 2.6614075 6.4252014l0 0c0 5.018402 -4.068207 9.086609 -9.086609 9.086609l0 0c-5.018402 0 -9.086609 -4.068207 -9.086609 -9.086609z" fill-rule="evenodd"/><path stroke="#424c58" stroke-width="3.0" stroke-linejoin="round" stroke-linecap="butt" d="m279.899 361.38846l0 0c0 -5.018402 4.068207 -9.086609 9.086609 -9.086609l0 0c2.4099426 0 4.7211304 0.9573364 6.4252014 2.6614075c1.704071 1.704071 2.6614075 4.0152893 2.6614075 6.4252014l0 0c0 5.018402 -4.068207 9.086609 -9.086609 9.086609l0 0c-5.018402 0 -9.086609 -4.068207 -9.086609 -9.086609z" fill-rule="evenodd"/><path fill="#000000" fill-opacity="0.0" d="m182.51843 230.42783c24.345001 0 36.51677 0.01574707 48.689987 0.03149414c12.173233 0.01574707 24.34793 0.03149414 48.695847 0.03149414" fill-rule="evenodd"/><path stroke="#ffffff" stroke-width="1.0" stroke-linejoin="round" stroke-linecap="butt" d="m182.51843 230.42783c24.345001 0 36.51677 0.01574707 48.689987 0.03149414c12.173233 0.01574707 24.34793 0.03149414 48.695847 0.03149414" fill-rule="evenodd"/><path fill="#000000" fill-opacity="0.0" d="m182.51843 186.77428c24.345001 0 36.51677 -32.740158 48.689987 -65.480316c12.173233 -32.740158 24.34793 -65.480316 48.695847 -65.480316" fill-rule="evenodd"/><path stroke="#424c58" stroke-width="1.0" stroke-linejoin="round" stroke-linecap="butt" d="m182.51843 186.77428c24.345001 0 36.51677 -32.740158 48.689987 -65.480316c12.173233 -32.740158 24.34793 -65.480316 48.695847 -65.480316" fill-rule="evenodd"/><path fill="#000000" fill-opacity="0.0" d="m182.51843 143.12073c24.345001 0 36.51677 -21.826767 48.689987 -43.653534c12.173233 -21.826775 24.34793 -43.653545 48.695847 -43.653545" fill-rule="evenodd"/><path stroke="#424c58" stroke-width="1.0" stroke-linejoin="round" stroke-linecap="butt" d="m182.51843 143.12073c24.345001 0 36.51677 -21.826767 48.689987 -43.653534c12.173233 -21.826775 24.34793 -43.653545 48.695847 -43.653545" fill-rule="evenodd"/><path fill="#000000" fill-opacity="0.0" d="m182.51843 99.46719c24.345001 0 36.51677 -10.913391 48.689987 -21.826775c12.173233 -10.9133835 24.34793 -21.82677 48.695847 -21.82677" fill-rule="evenodd"/><path stroke="#424c58" stroke-width="1.0" stroke-linejoin="round" stroke-linecap="butt" d="m182.51843 99.46719c24.345001 0 36.51677 -10.913391 48.689987 -21.826775c12.173233 -10.9133835 24.34793 -21.82677 48.695847 -21.82677" fill-rule="evenodd"/><path fill="#000000" fill-opacity="0.0" d="m182.51843 55.81365c24.345001 0 36.51677 0.01574707 48.689987 0.031497955c12.173233 0.01574707 24.34793 0.03149414 48.695847 0.03149414" fill-rule="evenodd"/><path stroke="#424c58" stroke-width="1.0" stroke-linejoin="round" stroke-linecap="butt" d="m182.51843 55.81365c24.345001 0 36.51677 0.01574707 48.689987 0.031497955c12.173233 0.01574707 24.34793 0.03149414 48.695847 0.03149414" fill-rule="evenodd"/><path fill="#000000" fill-opacity="0.0" d="m279.899 295.9239l0 0c0 -5.018402 4.068207 -9.086609 9.086609 -9.086609l0 0c2.4099426 0 4.7211304 0.9573364 6.4252014 2.6614075c1.704071 1.704071 2.6614075 4.0152893 2.6614075 6.4252014l0 0c0 5.018402 -4.068207 9.086609 -9.086609 9.086609l0 0c-5.018402 0 -9.086609 -4.068207 -9.086609 -9.086609z" fill-rule="evenodd"/><path stroke="#424c58" stroke-width="3.0" stroke-linejoin="round" stroke-linecap="butt" d="m279.899 295.9239l0 0c0 -5.018402 4.068207 -9.086609 9.086609 -9.086609l0 0c2.4099426 0 4.7211304 0.9573364 6.4252014 2.6614075c1.704071 1.704071 2.6614075 4.0152893 2.6614075 6.4252014l0 0c0 5.018402 -4.068207 9.086609 -9.086609 9.086609l0 0c-5.018402 0 -9.086609 -4.068207 -9.086609 -9.086609z" fill-rule="evenodd"/><path fill="#000000" fill-opacity="0.0" d="m182.51843 274.08136c24.345001 0 36.51677 5.464569 48.689987 10.929138c12.173233 5.464569 24.34793 10.929138 48.695847 10.929138" fill-rule="evenodd"/><path stroke="#424c58" stroke-width="1.0" stroke-linejoin="round" stroke-linecap="butt" d="m182.51843 274.08136c24.345001 0 36.51677 5.464569 48.689987 10.929138c12.173233 5.464569 24.34793 10.929138 48.695847 10.929138" fill-rule="evenodd"/><path fill="#000000" fill-opacity="0.0" d="m182.51843 317.7349c24.345001 0 36.51677 -5.456665 48.689987 -10.913361c12.173233 -5.4566956 24.34793 -10.913391 48.695847 -10.913391" fill-rule="evenodd"/><path stroke="#424c58" stroke-width="1.0" stroke-linejoin="round" stroke-linecap="butt" d="m182.51843 317.7349c24.345001 0 36.51677 -5.456665 48.689987 -10.913361c12.173233 -5.4566956 24.34793 -10.913391 48.695847 -10.913391" fill-rule="evenodd"/><path fill="#000000" fill-opacity="0.0" d="m182.51317 361.4042c24.34645 0 36.519684 -16.370087 48.692917 -32.740173c12.173218 -16.370056 24.34645 -32.740143 48.6929 -32.740143" fill-rule="evenodd"/><path stroke="#424c58" stroke-width="1.0" stroke-linejoin="round" stroke-linecap="butt" d="m182.51317 361.4042c24.34645 0 36.519684 -16.370087 48.692917 -32.740173c12.173218 -16.370056 24.34645 -32.740143 48.6929 -32.740143" fill-rule="evenodd"/><path fill="#000000" fill-opacity="0.0" d="m182.51317 361.32547c24.34645 0 36.519684 0.01574707 48.692917 0.03149414c12.173218 0.01574707 24.34645 0.03149414 48.6929 0.03149414" fill-rule="evenodd"/><path stroke="#424c58" stroke-width="1.0" stroke-linejoin="round" stroke-linecap="butt" d="m182.51317 361.32547c24.34645 0 36.519684 0.01574707 48.692917 0.03149414c12.173218 0.01574707 24.34645 0.03149414 48.6929 0.03149414" fill-rule="evenodd"/><path fill="#000000" fill-opacity="0.0" d="m395.4528 164.94751l0 0c0 -5.018402 4.0682373 -9.086624 9.086609 -9.086624l0 0c2.4099426 0 4.721161 0.9573364 6.425232 2.6614075c1.704071 1.704071 2.6614075 4.0152893 2.6614075 6.4252167l0 0c0 5.018402 -4.0682373 9.086609 -9.086639 9.086609l0 0c-5.0183716 0 -9.086609 -4.068207 -9.086609 -9.086609z" fill-rule="evenodd"/><path stroke="#424c58" stroke-width="3.0" stroke-linejoin="round" stroke-linecap="butt" d="m395.4528 164.94751l0 0c0 -5.018402 4.0682373 -9.086624 9.086609 -9.086624l0 0c2.4099426 0 4.721161 0.9573364 6.425232 2.6614075c1.704071 1.704071 2.6614075 4.0152893 2.6614075 6.4252167l0 0c0 5.018402 -4.0682373 9.086609 -9.086639 9.086609l0 0c-5.0183716 0 -9.086609 -4.068207 -9.086609 -9.086609z" fill-rule="evenodd"/><path fill="#000000" fill-opacity="0.0" d="m395.4528 208.60104l0 0c0 -5.018387 4.0682373 -9.086609 9.086609 -9.086609l0 0c2.4099426 0 4.721161 0.9573364 6.425232 2.6614075c1.704071 1.704071 2.6614075 4.0152893 2.6614075 6.4252014l0 0c0 5.018402 -4.0682373 9.086624 -9.086639 9.086624l0 0c-5.0183716 0 -9.086609 -4.068222 -9.086609 -9.086624z" fill-rule="evenodd"/><path stroke="#424c58" stroke-width="3.0" stroke-linejoin="round" stroke-linecap="butt" d="m395.4528 208.60104l0 0c0 -5.018387 4.0682373 -9.086609 9.086609 -9.086609l0 0c2.4099426 0 4.721161 0.9573364 6.425232 2.6614075c1.704071 1.704071 2.6614075 4.0152893 2.6614075 6.4252014l0 0c0 5.018402 -4.0682373 9.086624 -9.086639 9.086624l0 0c-5.0183716 0 -9.086609 -4.068222 -9.086609 -9.086624z" fill-rule="evenodd"/><path fill="#000000" fill-opacity="0.0" d="m395.4528 252.2546l0 0c0 -5.018402 4.0682373 -9.086609 9.086609 -9.086609l0 0c2.4099426 0 4.721161 0.9573364 6.425232 2.6614075c1.704071 1.704071 2.6614075 4.0152893 2.6614075 6.4252014l0 0c0 5.018387 -4.0682373 9.086624 -9.086639 9.086624l0 0c-5.0183716 0 -9.086609 -4.0682373 -9.086609 -9.086624z" fill-rule="evenodd"/><path stroke="#ffffff" stroke-width="3.0" stroke-linejoin="round" stroke-linecap="butt" d="m395.4528 252.2546l0 0c0 -5.018402 4.0682373 -9.086609 9.086609 -9.086609l0 0c2.4099426 0 4.721161 0.9573364 6.425232 2.6614075c1.704071 1.704071 2.6614075 4.0152893 2.6614075 6.4252014l0 0c0 5.018387 -4.0682373 9.086624 -9.086639 9.086624l0 0c-5.0183716 0 -9.086609 -4.0682373 -9.086609 -9.086624z" fill-rule="evenodd"/><path fill="#000000" fill-opacity="0.0" d="m395.4528 295.90814l0 0c0 -5.018402 4.0682373 -9.086609 9.086609 -9.086609l0 0c2.4099426 0 4.721161 0.9573364 6.425232 2.6614075c1.704071 1.704071 2.6614075 4.0152893 2.6614075 6.4252014l0 0c0 5.018402 -4.0682373 9.086609 -9.086639 9.086609l0 0c-5.0183716 0 -9.086609 -4.068207 -9.086609 -9.086609z" fill-rule="evenodd"/><path stroke="#424c58" stroke-width="3.0" stroke-linejoin="round" stroke-linecap="butt" d="m395.4528 295.90814l0 0c0 -5.018402 4.0682373 -9.086609 9.086609 -9.086609l0 0c2.4099426 0 4.721161 0.9573364 6.425232 2.6614075c1.704071 1.704071 2.6614075 4.0152893 2.6614075 6.4252014l0 0c0 5.018402 -4.0682373 9.086609 -9.086639 9.086609l0 0c-5.0183716 0 -9.086609 -4.068207 -9.086609 -9.086609z" fill-rule="evenodd"/><path fill="#000000" fill-opacity="0.0" d="m298.0722 230.45932c24.345001 0 36.516785 -16.37796 48.690002 -32.755905c12.173218 -16.37796 24.34793 -32.755905 48.69583 -32.755905" fill-rule="evenodd"/><path stroke="#424c58" stroke-width="1.0" stroke-linejoin="round" stroke-linecap="butt" d="m298.0722 230.45932c24.345001 0 36.516785 -16.37796 48.690002 -32.755905c12.173218 -16.37796 24.34793 -32.755905 48.69583 -32.755905" fill-rule="evenodd"/><path fill="#000000" fill-opacity="0.0" d="m298.06696 230.45932c24.346466 0 36.519714 -5.464569 48.692932 -10.929138c12.173218 -5.464569 24.346466 -10.929138 48.6929 -10.929138" fill-rule="evenodd"/><path stroke="#424c58" stroke-width="1.0" stroke-linejoin="round" stroke-linecap="butt" d="m298.06696 230.45932c24.346466 0 36.519714 -5.464569 48.692932 -10.929138c12.173218 -5.464569 24.346466 -10.929138 48.6929 -10.929138" fill-rule="evenodd"/><path fill="#000000" fill-opacity="0.0" d="m298.06696 230.45932c24.346466 0 36.519714 16.362198 48.692932 32.724396c12.173218 16.362213 24.346466 32.724426 48.6929 32.724426" fill-rule="evenodd"/><path stroke="#424c58" stroke-width="1.0" stroke-linejoin="round" stroke-linecap="butt" d="m298.06696 230.45932c24.346466 0 36.519714 16.362198 48.692932 32.724396c12.173218 16.362213 24.346466 32.724426 48.6929 32.724426" fill-rule="evenodd"/><path fill="#000000" fill-opacity="0.0" d="m298.0722 230.45932c24.345001 0 36.516785 5.448822 48.690002 10.897629c12.173218 5.448822 24.34793 10.897644 48.69583 10.897644" fill-rule="evenodd"/><path stroke="#ffffff" stroke-width="1.0" stroke-linejoin="round" stroke-linecap="butt" d="m298.0722 230.45932c24.345001 0 36.516785 5.448822 48.690002 10.897629c12.173218 5.448822 24.34793 10.897644 48.69583 10.897644" fill-rule="evenodd"/><path fill="#000000" fill-opacity="0.0" d="m298.0722 295.9239c24.345001 0 36.516785 0.01574707 48.690002 0.03149414c12.173218 0.01574707 24.34793 0.03149414 48.69583 0.03149414" fill-rule="evenodd"/><path stroke="#424c58" stroke-width="1.0" stroke-linejoin="round" stroke-linecap="butt" d="m298.0722 295.9239c24.345001 0 36.516785 0.01574707 48.690002 0.03149414c12.173218 0.01574707 24.34793 0.03149414 48.69583 0.03149414" fill-rule="evenodd"/><path fill="#000000" fill-opacity="0.0" d="m298.0722 361.38846c24.345001 0 36.516785 -16.370087 48.690002 -32.740173c12.173218 -16.370056 24.34793 -32.740143 48.69583 -32.740143" fill-rule="evenodd"/><path stroke="#424c58" stroke-width="1.0" stroke-linejoin="round" stroke-linecap="butt" d="m298.0722 361.38846c24.345001 0 36.516785 -16.370087 48.690002 -32.740173c12.173218 -16.370056 24.34793 -32.740143 48.69583 -32.740143" fill-rule="evenodd"/><path fill="#000000" fill-opacity="0.0" d="m511.01184 33.98163l0 0c0 -5.0184 4.0682373 -9.086615 9.086609 -9.086615l0 0c2.409912 0 4.7211304 0.9573364 6.425232 2.6614075c1.7040405 1.704071 2.661377 4.0152855 2.661377 6.425207l0 0c0 5.0183983 -4.0681763 9.086613 -9.086609 9.086613l0 0c-5.0183716 0 -9.086609 -4.0682144 -9.086609 -9.086613z" fill-rule="evenodd"/><path stroke="#424c58" stroke-width="3.0" stroke-linejoin="round" stroke-linecap="butt" d="m511.01184 33.98163l0 0c0 -5.0184 4.0682373 -9.086615 9.086609 -9.086615l0 0c2.409912 0 4.7211304 0.9573364 6.425232 2.6614075c1.7040405 1.704071 2.661377 4.0152855 2.661377 6.425207l0 0c0 5.0183983 -4.0681763 9.086613 -9.086609 9.086613l0 0c-5.0183716 0 -9.086609 -4.0682144 -9.086609 -9.086613z" fill-rule="evenodd"/><path fill="#000000" fill-opacity="0.0" d="m511.01184 77.63517l0 0c0 -5.0183945 4.0682373 -9.0866165 9.086609 -9.0866165l0 0c2.409912 0 4.7211304 0.9573364 6.425232 2.6614075c1.7040405 1.704071 2.661377 4.0152893 2.661377 6.425209l0 0c0 5.018402 -4.0681763 9.0866165 -9.086609 9.0866165l0 0c-5.0183716 0 -9.086609 -4.0682144 -9.086609 -9.0866165z" fill-rule="evenodd"/><path stroke="#424c58" stroke-width="3.0" stroke-linejoin="round" stroke-linecap="butt" d="m511.01184 77.63517l0 0c0 -5.0183945 4.0682373 -9.0866165 9.086609 -9.0866165l0 0c2.409912 0 4.7211304 0.9573364 6.425232 2.6614075c1.7040405 1.704071 2.661377 4.0152893 2.661377 6.425209l0 0c0 5.018402 -4.0681763 9.0866165 -9.086609 9.0866165l0 0c-5.0183716 0 -9.086609 -4.0682144 -9.086609 -9.0866165z" fill-rule="evenodd"/><path fill="#000000" fill-opacity="0.0" d="m511.01184 121.28871l0 0c0 -5.0183945 4.0682373 -9.086609 9.086609 -9.086609l0 0c2.409912 0 4.7211304 0.9573364 6.425232 2.6614075c1.7040405 1.704071 2.661377 4.0152817 2.661377 6.4252014l0 0c0 5.018402 -4.0681763 9.086624 -9.086609 9.086624l0 0c-5.0183716 0 -9.086609 -4.068222 -9.086609 -9.086624z" fill-rule="evenodd"/><path stroke="#424c58" stroke-width="3.0" stroke-linejoin="round" stroke-linecap="butt" d="m511.01184 121.28871l0 0c0 -5.0183945 4.0682373 -9.086609 9.086609 -9.086609l0 0c2.409912 0 4.7211304 0.9573364 6.425232 2.6614075c1.7040405 1.704071 2.661377 4.0152817 2.661377 6.4252014l0 0c0 5.018402 -4.0681763 9.086624 -9.086609 9.086624l0 0c-5.0183716 0 -9.086609 -4.068222 -9.086609 -9.086624z" fill-rule="evenodd"/><path fill="#000000" fill-opacity="0.0" d="m511.01184 164.94226l0 0c0 -5.018402 4.0682373 -9.086624 9.086609 -9.086624l0 0c2.409912 0 4.7211304 0.9573364 6.425232 2.6614075c1.7040405 1.704071 2.661377 4.0152893 2.661377 6.4252167l0 0c0 5.018402 -4.0681763 9.086609 -9.086609 9.086609l0 0c-5.0183716 0 -9.086609 -4.068207 -9.086609 -9.086609z" fill-rule="evenodd"/><path stroke="#424c58" stroke-width="3.0" stroke-linejoin="round" stroke-linecap="butt" d="m511.01184 164.94226l0 0c0 -5.018402 4.0682373 -9.086624 9.086609 -9.086624l0 0c2.409912 0 4.7211304 0.9573364 6.425232 2.6614075c1.7040405 1.704071 2.661377 4.0152893 2.661377 6.4252167l0 0c0 5.018402 -4.0681763 9.086609 -9.086609 9.086609l0 0c-5.0183716 0 -9.086609 -4.068207 -9.086609 -9.086609z" fill-rule="evenodd"/><path fill="#000000" fill-opacity="0.0" d="m511.01184 208.59717l0 0c0 -5.018387 4.0682373 -9.086609 9.086609 -9.086609l0 0c2.409912 0 4.7211304 0.9573364 6.425232 2.6614075c1.7040405 1.704071 2.661377 4.0152893 2.661377 6.4252014l0 0c0 5.018402 -4.0681763 9.086624 -9.086609 9.086624l0 0c-5.0183716 0 -9.086609 -4.068222 -9.086609 -9.086624z" fill-rule="evenodd"/><path stroke="#424c58" stroke-width="3.0" stroke-linejoin="round" stroke-linecap="butt" d="m511.01184 208.59717l0 0c0 -5.018387 4.0682373 -9.086609 9.086609 -9.086609l0 0c2.409912 0 4.7211304 0.9573364 6.425232 2.6614075c1.7040405 1.704071 2.661377 4.0152893 2.661377 6.4252014l0 0c0 5.018402 -4.0681763 9.086624 -9.086609 9.086624l0 0c-5.0183716 0 -9.086609 -4.068222 -9.086609 -9.086624z" fill-rule="evenodd"/><path fill="#000000" fill-opacity="0.0" d="m511.01184 252.25186l0 0c0 -5.018387 4.0682373 -9.086609 9.086609 -9.086609l0 0c2.409912 0 4.7211304 0.9573364 6.425232 2.6614075c1.7040405 1.704071 2.661377 4.0152893 2.661377 6.4252014l0 0c0 5.018402 -4.0681763 9.086609 -9.086609 9.086609l0 0c-5.0183716 0 -9.086609 -4.068207 -9.086609 -9.086609z" fill-rule="evenodd"/><path stroke="#424c58" stroke-width="3.0" stroke-linejoin="round" stroke-linecap="butt" d="m511.01184 252.25186l0 0c0 -5.018387 4.0682373 -9.086609 9.086609 -9.086609l0 0c2.409912 0 4.7211304 0.9573364 6.425232 2.6614075c1.7040405 1.704071 2.661377 4.0152893 2.661377 6.4252014l0 0c0 5.018402 -4.0681763 9.086609 -9.086609 9.086609l0 0c-5.0183716 0 -9.086609 -4.068207 -9.086609 -9.086609z" fill-rule="evenodd"/><path fill="#000000" fill-opacity="0.0" d="m511.01184 293.4882l0 0c0 -5.018402 4.0682373 -9.086609 9.086609 -9.086609l0 0c2.409912 0 4.7211304 0.9573364 6.425232 2.6614075c1.7040405 1.704071 2.661377 4.0152893 2.661377 6.4252014l0 0c0 5.018402 -4.0681763 9.086609 -9.086609 9.086609l0 0c-5.0183716 0 -9.086609 -4.068207 -9.086609 -9.086609z" fill-rule="evenodd"/><path stroke="#424c58" stroke-width="3.0" stroke-linejoin="round" stroke-linecap="butt" d="m511.01184 293.4882l0 0c0 -5.018402 4.0682373 -9.086609 9.086609 -9.086609l0 0c2.409912 0 4.7211304 0.9573364 6.425232 2.6614075c1.7040405 1.704071 2.661377 4.0152893 2.661377 6.4252014l0 0c0 5.018402 -4.0681763 9.086609 -9.086609 9.086609l0 0c-5.0183716 0 -9.086609 -4.068207 -9.086609 -9.086609z" fill-rule="evenodd"/><path fill="#000000" fill-opacity="0.0" d="m511.01184 337.14172l0 0c0 -5.018402 4.0682373 -9.086609 9.086609 -9.086609l0 0c2.409912 0 4.7211304 0.9573364 6.425232 2.6614075c1.7040405 1.704071 2.661377 4.0152893 2.661377 6.4252014l0 0c0 5.018402 -4.0681763 9.086609 -9.086609 9.086609l0 0c-5.0183716 0 -9.086609 -4.068207 -9.086609 -9.086609z" fill-rule="evenodd"/><path stroke="#ffffff" stroke-width="3.0" stroke-linejoin="round" stroke-linecap="butt" d="m511.01184 337.14172l0 0c0 -5.018402 4.0682373 -9.086609 9.086609 -9.086609l0 0c2.409912 0 4.7211304 0.9573364 6.425232 2.6614075c1.7040405 1.704071 2.661377 4.0152893 2.661377 6.4252014l0 0c0 5.018402 -4.0681763 9.086609 -9.086609 9.086609l0 0c-5.0183716 0 -9.086609 -4.068207 -9.086609 -9.086609z" fill-rule="evenodd"/><path fill="#000000" fill-opacity="0.0" d="m298.0722 55.81365c53.23517 0 79.8522 -5.4566917 106.47034 -10.913387c26.618103 -5.4566917 53.237274 -10.9133835 106.47455 -10.9133835" fill-rule="evenodd"/><path stroke="#424c58" stroke-width="1.0" stroke-linejoin="round" stroke-linecap="butt" d="m298.0722 55.81365c53.23517 0 79.8522 -5.4566917 106.47034 -10.913387c26.618103 -5.4566917 53.237274 -10.9133835 106.47455 -10.9133835" fill-rule="evenodd"/><path fill="#000000" fill-opacity="0.0" d="m413.62604 164.94751c24.346436 0 36.519684 -21.826782 48.6929 -43.65355c12.173218 -21.826767 24.346466 -43.65354 48.6929 -43.65354" fill-rule="evenodd"/><path stroke="#424c58" stroke-width="1.0" stroke-linejoin="round" stroke-linecap="butt" d="m413.62604 164.94751c24.346436 0 36.519684 -21.826782 48.6929 -43.65355c12.173218 -21.826767 24.346466 -43.65354 48.6929 -43.65354" fill-rule="evenodd"/><path fill="#000000" fill-opacity="0.0" d="m413.62604 164.94751c24.346436 0 36.519684 -10.913391 48.6929 -21.826782c12.173218 -10.913376 24.346466 -21.826767 48.6929 -21.826767" fill-rule="evenodd"/><path stroke="#424c58" stroke-width="1.0" stroke-linejoin="round" stroke-linecap="butt" d="m413.62604 164.94751c24.346436 0 36.519684 -10.913391 48.6929 -21.826782c12.173218 -10.913376 24.346466 -21.826767 48.6929 -21.826767" fill-rule="evenodd"/><path fill="#000000" fill-opacity="0.0" d="m413.62604 164.94751c24.346436 0 36.519684 -32.740158 48.6929 -65.480316c12.173218 -32.740158 24.346466 -65.480316 48.6929 -65.480316" fill-rule="evenodd"/><path stroke="#424c58" stroke-width="1.0" stroke-linejoin="round" stroke-linecap="butt" d="m413.62604 164.94751c24.346436 0 36.519684 -32.740158 48.6929 -65.480316c12.173218 -32.740158 24.346466 -65.480316 48.6929 -65.480316" fill-rule="evenodd"/><path fill="#000000" fill-opacity="0.0" d="m413.62604 164.94751c24.346436 0 36.519684 0.01574707 48.6929 0.03149414c12.173218 0.01574707 24.346466 0.03149414 48.6929 0.03149414" fill-rule="evenodd"/><path stroke="#424c58" stroke-width="1.0" stroke-linejoin="round" stroke-linecap="butt" d="m413.62604 164.94751c24.346436 0 36.519684 0.01574707 48.6929 0.03149414c12.173218 0.01574707 24.346466 0.03149414 48.6929 0.03149414" fill-rule="evenodd"/><path fill="#000000" fill-opacity="0.0" d="m413.62604 252.2546c24.346436 0 36.519684 -10.913391 48.6929 -21.826767c12.173218 -10.913391 24.346466 -21.826782 48.6929 -21.826782" fill-rule="evenodd"/><path stroke="#424c58" stroke-width="1.0" stroke-linejoin="round" stroke-linecap="butt" d="m413.62604 252.2546c24.346436 0 36.519684 -10.913391 48.6929 -21.826767c12.173218 -10.913391 24.346466 -21.826782 48.6929 -21.826782" fill-rule="evenodd"/><path fill="#000000" fill-opacity="0.0" d="m413.62604 252.2546c24.346436 0 36.519684 0.01574707 48.6929 0.03149414c12.173218 0.01574707 24.346466 0.03149414 48.6929 0.03149414" fill-rule="evenodd"/><path stroke="#424c58" stroke-width="1.0" stroke-linejoin="round" stroke-linecap="butt" d="m413.62604 252.2546c24.346436 0 36.519684 0.01574707 48.6929 0.03149414c12.173218 0.01574707 24.346466 0.03149414 48.6929 0.03149414" fill-rule="evenodd"/><path fill="#000000" fill-opacity="0.0" d="m413.62604 252.2546c24.346436 0 36.519684 10.307083 48.6929 20.614182c12.173218 10.307068 24.346466 20.614166 48.6929 20.614166" fill-rule="evenodd"/><path stroke="#424c58" stroke-width="1.0" stroke-linejoin="round" stroke-linecap="butt" d="m413.62604 252.2546c24.346436 0 36.519684 10.307083 48.6929 20.614182c12.173218 10.307068 24.346466 20.614166 48.6929 20.614166" fill-rule="evenodd"/><path fill="#000000" fill-opacity="0.0" d="m413.62604 252.2546c24.346436 0 36.519684 21.220474 48.6929 42.440933c12.173218 21.22049 24.346466 42.44095 48.6929 42.44095" fill-rule="evenodd"/><path stroke="#ffffff" stroke-width="1.0" stroke-linejoin="round" stroke-linecap="butt" d="m413.62604 252.2546c24.346436 0 36.519684 21.220474 48.6929 42.440933c12.173218 21.22049 24.346466 42.44095 48.6929 42.44095" fill-rule="evenodd"/><path fill="#000000" fill-opacity="0.0" d="m644.73895 337.14172l0 0c0 -5.018402 4.0681763 -9.086609 9.086609 -9.086609l0 0c2.409912 0 4.7211304 0.9573364 6.425171 2.6614075c1.7041016 1.704071 2.661438 4.0152893 2.661438 6.4252014l0 0c0 5.018402 -4.0682373 9.086609 -9.086609 9.086609l0 0c-5.0184326 0 -9.086609 -4.068207 -9.086609 -9.086609z" fill-rule="evenodd"/><path stroke="#ffffff" stroke-width="3.0" stroke-linejoin="round" stroke-linecap="butt" d="m644.73895 337.14172l0 0c0 -5.018402 4.0681763 -9.086609 9.086609 -9.086609l0 0c2.409912 0 4.7211304 0.9573364 6.425171 2.6614075c1.7041016 1.704071 2.661438 4.0152893 2.661438 6.4252014l0 0c0 5.018402 -4.0682373 9.086609 -9.086609 9.086609l0 0c-5.0184326 0 -9.086609 -4.068207 -9.086609 -9.086609z" fill-rule="evenodd"/><path fill="#000000" fill-opacity="0.0" d="m529.18506 337.14172c28.88861 0 43.332336 0.01574707 57.77722 0.03149414c14.444885 0.01574707 28.89093 0.03149414 57.78186 0.03149414" fill-rule="evenodd"/><path stroke="#ffffff" stroke-width="1.0" stroke-linejoin="round" stroke-linecap="butt" d="m529.18506 337.14172c28.88861 0 43.332336 0.01574707 57.77722 0.03149414c14.444885 0.01574707 28.89093 0.03149414 57.78186 0.03149414" fill-rule="evenodd"/><path fill="#000000" fill-opacity="0.0" d="m635.9358 121.29396l0 0c0 -5.0183945 4.0681763 -9.086609 9.086609 -9.086609l0 0c2.409912 0 4.7211304 0.9573364 6.425171 2.6614075c1.7041016 1.704071 2.661438 4.0152817 2.661438 6.4252014l0 0c0 5.018402 -4.0682373 9.086624 -9.086609 9.086624l0 0c-5.0184326 0 -9.086609 -4.068222 -9.086609 -9.086624z" fill-rule="evenodd"/><path stroke="#424c58" stroke-width="3.0" stroke-linejoin="round" stroke-linecap="butt" d="m635.9358 121.29396l0 0c0 -5.0183945 4.0681763 -9.086609 9.086609 -9.086609l0 0c2.409912 0 4.7211304 0.9573364 6.425171 2.6614075c1.7041016 1.704071 2.661438 4.0152817 2.661438 6.4252014l0 0c0 5.018402 -4.0682373 9.086624 -9.086609 9.086624l0 0c-5.0184326 0 -9.086609 -4.068222 -9.086609 -9.086624z" fill-rule="evenodd"/><path fill="#000000" fill-opacity="0.0" d="m529.1956 121.23097c26.685059 0 40.027588 0.01574707 53.370056 0.03149414c13.342529 0.01574707 26.685059 0.03149414 53.370117 0.03149414" fill-rule="evenodd"/><path stroke="#424c58" stroke-width="1.0" stroke-linejoin="round" stroke-linecap="butt" d="m529.1956 121.23097c26.685059 0 40.027588 0.01574707 53.370056 0.03149414c13.342529 0.01574707 26.685059 0.03149414 53.370117 0.03149414" fill-rule="evenodd"/></g></svg>