<?xml version="1.0" encoding="utf-8"?>
<!-- Generator: Adobe Illustrator 24.0.2, SVG Export Plug-In . SVG Version: 6.00 Build 0)  -->
<svg version="1.1" id="Layer_1" xmlns="http://www.w3.org/2000/svg" xmlns:xlink="http://www.w3.org/1999/xlink" x="0px" y="0px"
	 viewBox="0 0 400 100.8" style="enable-background:new 0 0 400 100.8;" xml:space="preserve">
<style type="text/css">
	.st0{fill:#FFFFFF;}
	.st1{opacity:0.15;fill:#FFFFFF;}
	.st2{fill:#00C5DB;}
	.st3{opacity:0.1;}
	.st4{fill:#E6E6E6;}
	.st5{fill:#53585A;}
</style>
<g>
	<g>
		<path d="M41.7,26l14.2,28.4c1.8-3.7,5.6-6.1,9.8-6.2L50.3,17.5C49.4,21.8,46,25.1,41.7,26z"/>
		<path d="M92.5,45.4c0,0-0.1,0-0.1,0l17.4,37.1c2.1-3.1,5.5-5,9.3-5c0.4,0,0.8,0,1.1,0.1l-17.9-38.2
			C100.4,43.1,96.7,45.4,92.5,45.4z"/>
		<path d="M76.9,57.9l11.8-13.1c-3.9-1.4-6.8-4.9-7.4-9L69.6,48.9C73.5,50.2,76.4,53.8,76.9,57.9z"/>
		<path d="M21.1,81.5l18.3-55.3c-4.4,0-8.2-2.6-10-6.3L10.2,77.8c0.8-0.2,1.6-0.3,2.5-0.3C16,77.6,19,79,21.1,81.5z"/>
		<path d="M4,88.7c0,4.8,3.9,8.7,8.7,8.7c4.8,0,8.7-3.9,8.7-8.7c0-1.6-0.4-3.1-1.2-4.3c-0.2-0.3-0.4-0.6-0.6-0.9
			c-1.6-2.1-4.1-3.4-6.9-3.4c-1.2,0-2.4,0.3-3.4,0.7C6.2,82.1,4,85.2,4,88.7z"/>
		<path d="M37,23.4c0.8,0.2,1.6,0.4,2.5,0.4c0.3,0,0.6,0,0.8,0c0.1,0,0.2,0,0.2,0c1.1-0.1,2.1-0.5,3-0.9c0.2-0.1,0.5-0.3,0.7-0.4
			c1.7-1.1,3-2.8,3.6-4.9c0.2-0.8,0.3-1.6,0.3-2.4c0-1.1-0.2-2.1-0.6-3.1c-0.2-0.5-0.4-1-0.7-1.5c-1.5-2.5-4.3-4.1-7.4-4.1
			c-2.6,0-5,1.2-6.6,3.1c-1.3,1.5-2.1,3.5-2.1,5.6c0,0.2,0,0.4,0,0.6C31,19.3,33.6,22.4,37,23.4z"/>
		<path d="M57.2,59.4c0,4.8,3.9,8.7,8.7,8.7c4.4,0,8-3.2,8.6-7.4c0.1-0.4,0.1-0.8,0.1-1.3c0-0.8-0.1-1.5-0.3-2.3
			c-0.8-3.1-3.4-5.5-6.5-6.2c-0.3-0.1-0.5-0.1-0.8-0.1c-0.3,0-0.7-0.1-1.1-0.1c-4.1,0-7.6,2.9-8.5,6.8
			C57.3,58.1,57.2,58.7,57.2,59.4z"/>
		<path d="M90.7,42.7c0.2,0,0.3,0.1,0.5,0.1c0.4,0.1,0.9,0.1,1.3,0.1c0.8,0,1.5-0.1,2.2-0.3c0.2-0.1,0.5-0.1,0.7-0.2
			c0.5-0.2,0.9-0.4,1.3-0.6c0.2-0.1,0.4-0.2,0.6-0.4c0.4-0.3,0.8-0.6,1.1-0.9c0.2-0.2,0.3-0.3,0.5-0.5c1-1,1.7-2.3,2-3.7
			c0.2-0.7,0.3-1.4,0.3-2.2c0-4.8-3.9-8.7-8.7-8.7c-4.4,0-8,3.2-8.6,7.4c-0.1,0.4-0.1,0.8-0.1,1.3C83.8,38.4,86.8,41.8,90.7,42.7z"
			/>
		<path d="M121.6,80.4c-0.8-0.2-1.6-0.4-2.5-0.4c-3.6,0-6.6,2.2-8,5.3c-0.5,1.1-0.7,2.2-0.7,3.4c0,4.8,3.9,8.7,8.7,8.7
			s8.7-3.9,8.7-8.7C127.8,84.8,125.1,81.5,121.6,80.4z"/>
	</g>
</g>
<g>
	<path d="M173.2,67.1L165,47.3l-1.7,20.1h-7.3l3.1-33.1h7.4l9.3,22.3l9.3-22.3h7.4l3.1,33.1H188l-1.7-20.1L178,67.1H173.2z"/>
	<path d="M198,67.4l12.8-33.1h7.1l12.9,33.1h-7.7l-2.4-6.2v0.1h-13v-0.1l-2.3,6.2H198z M209.8,55.3h8.9l-4.4-13.2L209.8,55.3z"/>
	<path d="M253.2,55.1c0.9,3.5,2.2,6.3,5.5,6.3c1.1,0,2.5-0.6,3.4-1.4l2.6,5.1c-2.2,1.7-4,2.8-7.4,2.8c-7.8,0-10.3-8.8-10.6-12.3
		h-4.4v11.8H235V34.4h14.7c6.8,0,10.5,5.1,10.5,10.9C260.2,49.9,257.6,53.8,253.2,55.1z M248.7,49.8c2.6,0,4.2-1.9,4.2-4.6
		c0-2.8-1.6-4.7-4.2-4.7h-6.5v9.3H248.7z"/>
	<path d="M299.4,74.6c-1.7,1.2-4.5,2.6-8.3,2.6c-6.4,0-10.8-4.3-11-9.5c-8-1.5-14.4-8.5-14.4-16.8c0-9.4,7.8-17.1,17.3-17.1
		c9.5,0,17.2,7.7,17.2,17.1c0,7.9-6,14.6-13.2,16.6c0.1,2.5,2,3.7,4.6,3.7c1.4,0,3.9-0.7,5.5-1.7L299.4,74.6z M283,61.2
		c5.4,0,9.9-4.3,9.9-10.3s-4.5-10.3-9.9-10.3c-5.5,0-10,4.3-10,10.3S277.5,61.2,283,61.2z"/>
	<path d="M332,34.4v20.6c0,8.5-6.3,13-13.7,13c-7.4,0-13.7-4.5-13.7-13V34.4h7.3v20.6c0,4.6,2.9,6.9,6.3,6.9c3.4,0,6.4-2.3,6.4-6.9
		V34.4H332z"/>
	<path d="M338.5,67.4V34.4h22v5.8h-14.6v8.1h12.7v5.8h-12.7v7.5h14.6v5.8H338.5z"/>
	<path d="M393,67.4h-28.9v-4.7L382,40.2h-16.5v-5.8h26.4v4.8l-18.1,22.5H393V67.4z"/>
</g>
</svg>
